<svg viewBox="0 0 123 115" fill="none" xmlns="http://www.w3.org/2000/svg">
<g filter="url(#filter0_i_2464_4051)">
<g clip-path="url(#clip0_2464_4051)">
<path d="M98.7563 66.8886C98.423 66.1457 98.6211 65.2713 98.9453 64.5244C99.2695 63.7775 99.7164 63.0743 99.8941 62.2792C98.7795 62.8612 98.062 63.9781 97.412 65.0554C96.8756 65.9445 96.3386 66.8716 96.2034 67.9013C96.0682 68.9309 96.4331 70.0977 97.3373 70.6071C97.2609 71.3234 97.0719 72.0584 96.7517 72.7033C96.5457 73.1175 96.2453 73.5431 95.7932 73.6383C95.5754 73.6842 95.3485 73.6457 95.1329 73.5884C93.7196 73.215 92.6134 72.076 91.9005 70.7975C91.1876 69.5191 90.8029 68.0894 90.3418 66.6999C88.8945 62.3404 86.4598 58.0785 82.5327 55.7047C79.5668 53.9117 75.9485 53.3127 73.184 51.2222C71.4832 49.9365 70.2215 48.4461 69.1222 46.6174C68.0228 44.7888 67.1125 42.8343 65.7891 41.1614C63.1474 37.8232 59.0222 35.8081 56.7471 32.2091C54.7713 29.0827 52.6321 26.1932 50.529 23.1513C49.5417 21.7233 48.5527 20.2936 47.4697 18.9364C45.9081 16.9796 44.1581 15.1827 42.4115 13.3897C41.3348 12.2841 40.2451 11.1684 38.9449 10.3387C37.4976 9.4145 35.3685 8.60358 33.6949 8.22277C34.3178 7.29682 34.556 6.11927 34.3427 5.02331C34.2958 4.78077 33.8584 4.82214 33.6281 4.91281C32.5243 5.34689 31.5748 6.1646 30.9819 7.19369C30.6735 6.95965 30.3261 6.89335 29.9702 6.74148C30.041 6.00593 30.1915 5.20862 30.5094 4.5422C30.7222 4.0951 30.996 3.62815 30.9134 3.13968C30.8189 2.5849 30.196 2.1837 29.6528 2.3282C29.5708 2.08793 29.3484 1.98196 29.1018 1.92359C28.8551 1.86522 28.5976 1.89185 28.3453 1.91849C28.2621 1.92699 28.1767 1.93662 28.1043 1.97742C28.0222 2.02332 27.9656 2.10379 27.9175 2.18539C27.5837 2.7549 27.5645 3.44625 27.4689 4.09963C27.3003 5.25055 26.8652 6.36124 26.2071 7.31949C25.1751 7.31326 24.0396 8.0777 23.6101 9.01782C23.2424 9.82194 23.2786 10.7791 22.8361 11.5446C22.474 12.1708 21.8245 12.606 21.5314 13.2668C21.3062 13.7739 21.3187 14.3554 21.1484 14.8835C21.0063 15.3238 20.7348 15.7216 20.3761 16.014C20.1809 16.1733 19.9421 16.3308 19.903 16.5796C19.881 16.7218 19.9313 16.864 19.9698 17.0029C20.0926 17.4432 20.1011 17.9147 19.9941 18.3589C19.8702 18.8752 19.6218 19.4991 19.9998 19.8714C20.3851 20.2511 21.0873 19.9247 21.3085 19.4305C21.7475 19.5835 22.3303 19.7433 22.6692 19.4248C22.8265 19.2769 22.8984 19.0633 22.9889 18.8672C23.2888 18.2161 23.8551 17.6931 24.5273 17.446C25.0071 17.2698 25.5242 17.2318 26.0295 17.1536C28.1235 16.8289 30.0947 15.7573 31.5069 14.1752C32.9299 14.565 34.2414 15.6196 35.3674 16.5745C36.959 17.9243 38.5319 19.3789 39.4852 21.2371C39.9724 22.1868 40.2836 23.2159 40.661 24.215C42.0115 27.7896 44.2481 31.0786 44.8207 34.8572C45.6864 40.5744 48.7343 45.5345 49.3963 51.2789C49.5513 52.6225 49.6514 54.0171 49.2197 55.2989C48.4848 57.4806 46.2595 59.2628 46.5763 61.5431C46.7393 62.715 47.5591 63.6676 48.2534 64.6247C48.9476 65.5818 49.5694 66.7594 49.2594 67.9013C48.2341 71.6787 47.2683 75.5197 45.0453 78.7395C44.2289 79.9216 43.2687 80.9972 42.4223 82.1577C41.4915 83.4333 40.7034 84.8064 39.9164 86.1755C39.6046 86.7183 39.2849 87.2873 39.251 87.9123C39.2238 88.407 39.38 88.9057 39.294 89.3936C38.5104 93.8392 35.3515 97.8603 32.7002 101.511C32.2165 102.177 31.7072 102.843 31.43 103.618C31.3366 103.879 31.2654 104.159 31.0832 104.369C30.9293 104.545 30.7131 104.652 30.5089 104.766C29.0667 105.575 27.9905 107.011 27.6194 108.624C28.5405 108.834 29.5154 109.085 30.4342 108.868C30.6345 108.821 30.8404 108.759 30.9904 108.618C31.3276 108.3 31.2433 107.739 31.4572 107.328C31.8493 106.575 32.9729 106.659 33.6434 106.139C33.9608 105.894 34.156 105.526 34.3422 105.171C36.7655 100.536 39.1888 95.9002 41.6121 91.2648C43.4085 87.8284 45.52 84.6964 48.1589 81.8574C49.9524 79.9284 52.3429 78.4539 53.4711 76.0727C52.1794 80.3766 51.3194 84.8455 50.2529 89.2106C49.9768 90.3417 49.7669 91.704 50.5901 92.5256C51.0054 92.9404 51.6006 93.1127 52.0861 93.4425C52.4985 93.723 52.8239 94.1112 53.1503 94.4886C56.6192 98.5058 60.8027 101.902 65.4439 104.47C65.466 104.483 65.4886 104.494 65.5113 104.506C64.9319 105.29 64.2399 105.999 63.3652 106.411C63.0189 106.575 62.6483 106.69 62.3275 106.898C61.7844 107.251 61.4251 107.873 61.3889 108.521C61.3838 108.614 61.3866 108.715 61.4404 108.792C61.519 108.906 61.6752 108.929 61.8127 108.942C62.2794 108.984 62.7462 109.027 63.213 109.07C63.8806 109.132 64.6496 109.157 65.1107 108.67C65.2838 108.487 65.3975 108.243 65.608 108.105C65.8932 107.919 66.2819 107.974 66.5795 107.808C66.8262 107.67 66.9693 107.404 67.1023 107.155C67.3846 106.625 67.6839 106.105 67.9962 105.592C68.2401 105.68 68.48 105.778 68.7046 105.907C69.8136 106.545 70.411 107.832 71.4787 108.537C71.7571 108.721 72.1164 108.863 72.4174 108.719C72.7834 108.544 72.8559 108.063 72.8808 107.658C72.9204 107.013 72.96 106.367 73.0001 105.721C73.0499 104.915 73.016 103.941 72.324 103.528C71.984 103.325 71.5681 103.319 71.1738 103.285C70.6872 103.244 70.2108 103.149 69.7434 103.018C69.9822 102.701 70.2289 102.391 70.4795 102.083C70.5197 102.098 72.3127 98.8073 73.2185 97.1752C73.7996 96.1291 74.4333 95.0485 75.4444 94.411C75.9519 94.0914 76.5584 93.8772 76.907 93.3887C77.1384 93.0645 77.2232 92.6605 77.2923 92.2678C77.6691 90.1286 77.7438 87.9452 78.1064 85.8037C78.4691 83.6622 79.1543 81.5055 80.5693 79.8593C84.8354 83.2508 87.4313 88.5493 91.122 92.5619C91.4083 92.873 91.7065 93.1819 91.9073 93.5542C92.1167 93.9418 92.2106 94.3798 92.3017 94.8116C93.1425 98.7846 93.9827 102.758 94.8234 106.731C94.9932 107.534 95.164 108.359 95.0362 109.169C94.8828 110.14 94.3097 111.115 94.626 112.046C95.6501 112.176 96.9293 112.197 97.4102 111.282C97.6496 110.827 97.5953 110.278 97.7039 109.776C97.8125 109.273 98.2403 108.741 98.7387 108.863C96.9791 104.007 95.7977 98.941 95.2285 93.8063C95.0786 92.4525 94.9722 91.0687 95.2721 89.7404C95.4583 88.9159 95.7932 88.0274 95.4339 87.2623C95.2682 86.9099 94.9739 86.6379 94.6865 86.3749C93.8995 85.6558 93.113 84.9361 92.3266 84.217C90.507 82.5533 90.3599 79.8876 90.2999 77.4203C90.2575 75.6874 90.6903 73.9607 90.5562 72.2324C90.9138 72.888 91.3494 73.4694 92.0012 73.8321C92.3017 73.9993 92.6383 74.0848 92.9716 74.1693C93.8599 74.3942 94.7787 74.6209 95.684 74.4775C96.6136 74.3308 97.4719 73.7777 97.9913 72.9917C98.5107 72.2057 98.6827 71.1982 98.4541 70.2836C98.8751 70.1447 99.1795 69.6426 99.1931 69.1989C99.2061 68.7552 99.0692 68.3223 99.0182 67.8814C98.9475 67.2626 99.0522 66.6245 99.317 66.0612C99.1665 66.3593 98.9775 66.6381 98.7563 66.8886ZM72.1599 84.6018C71.976 87.0476 71.1341 89.5166 71.7039 91.9017C70.8857 94.2636 70.0308 96.5383 69.0673 98.8441C68.7663 99.5649 67.7948 101.058 67.7241 101.148C67.5295 101.394 67.349 101.651 67.1753 101.913C66.8545 101.731 66.5376 101.541 66.2298 101.343C63.7499 99.7445 61.5733 97.7255 59.4109 95.7172L54.88 91.509C54.5784 89.1913 55.4944 86.9875 56.402 84.8341C58.1587 80.6679 60.8055 76.8802 64.1126 73.7992C66.1025 74.7252 68.3623 75.0731 70.54 74.8039C71.5059 77.9966 72.4094 81.2748 72.1599 84.6018Z" fill="#09203F"/>
</g>
</g>
<defs>
<filter id="filter0_i_2464_4051" x="0" y="0" width="123" height="115" filterUnits="userSpaceOnUse" color-interpolation-filters="sRGB">
<feFlood flood-opacity="0" result="BackgroundImageFix"/>
<feBlend mode="normal" in="SourceGraphic" in2="BackgroundImageFix" result="shape"/>
<feColorMatrix in="SourceAlpha" type="matrix" values="0 0 0 0 0 0 0 0 0 0 0 0 0 0 0 0 0 0 127 0" result="hardAlpha"/>
<feOffset/>
<feGaussianBlur stdDeviation="1.36929"/>
<feComposite in2="hardAlpha" operator="arithmetic" k2="-1" k3="1"/>
<feColorMatrix type="matrix" values="0 0 0 0 0 0 0 0 0 0 0 0 0 0 0 0 0 0 0.25 0"/>
<feBlend mode="normal" in2="shape" result="effect1_innerShadow_2464_4051"/>
</filter>
<clipPath id="clip0_2464_4051">
<rect width="83.402" height="114.999" fill="white" transform="translate(19.7988)"/>
</clipPath>
</defs>
</svg>
