<svg viewBox="0 0 123 115" fill="none" xmlns="http://www.w3.org/2000/svg">
<g filter="url(#filter0_i_2464_3984)">
<g clip-path="url(#clip0_2464_3984)">
<path d="M86.1116 77.961C85.5585 76.0452 84.4524 74.1785 84.3417 72.2135C84.2311 71.0836 84.5077 69.9538 84.6736 68.8239C85.0055 66.7116 85.2267 64.5992 85.282 62.4378C85.282 61.2096 85.282 59.9815 85.0608 58.7534C85.0608 58.6061 85.1161 58.4096 85.0608 58.2622C85.0055 54.0375 81.1891 48.4864 72.8926 46.7671C64.5962 45.0477 58.4015 41.609 57.074 39.5458C55.7466 37.4826 55.5807 35.8124 54.751 35.272C53.8661 34.7316 50.2709 33.2088 49.7178 31.6859C49.1647 30.2122 48.0585 23.0401 47.4501 21.6646C46.8417 20.2891 45.1271 14.9345 45.1271 14.9345C45.1271 14.9345 48.0032 16.0644 48.9435 15.8188C49.8838 15.5732 51.5431 15.0328 51.5431 15.0328C51.5431 15.0328 53.0364 15.8188 53.4236 15.917C53.8108 16.0153 55.4701 15.6223 55.4701 15.6223C55.4701 15.6223 55.8019 13.3134 55.8019 13.1661C55.7466 12.6257 51.7643 8.64664 51.7643 8.64664C51.7643 8.64664 51.8749 7.86065 51.4878 7.51678C51.1006 7.17291 50.5475 6.68166 50.5475 6.68166C50.5475 6.68166 51.5984 5.25706 51.7643 4.91319C51.8749 4.56932 48.2798 4.91319 48.2798 4.91319C48.2798 4.91319 47.6161 3.78333 47.7267 3.39034C47.8373 2.99734 48.5563 1.03237 48.5563 1.03237C48.501 0.393754 45.7355 0.835873 45.7355 0.835873C45.6249 1.42536 45.459 2.5061 45.6249 2.65347C45.7355 2.84997 46.4546 3.19384 46.4546 3.19384L45.9015 4.42195L44.5187 1.96573C44.574 1.32712 44.4634 0.835873 44.1869 0.34463C43.9103 -0.146614 42.5829 -0.146614 42.3616 0.246381C42.1404 0.590251 41.3108 1.91661 42.9147 2.5061C43.6891 2.80084 43.9656 4.27457 43.9656 4.27457C43.9656 4.27457 44.4634 4.91319 43.2466 5.20794L41.532 5.45356C41.532 5.45356 38.7112 3.58683 37.9369 3.58683C37.1625 3.58683 37.0519 4.5202 37.3838 6.1413C37.4944 6.63254 40.3152 7.02554 40.3152 7.02554C40.3152 7.02554 38.1581 10.3169 38.324 12.331C38.4347 14.2959 40.3152 21.1733 39.8727 27.2156C39.4855 33.2579 38.8218 41.1669 38.8218 42.9354C38.8218 44.7039 39.209 46.5215 39.209 46.5215C39.209 46.5215 37.1072 52.4164 36.6094 54.5287C36.1116 56.6411 37.5497 58.1148 38.6006 62.536C39.6515 66.9572 42.417 76.9785 42.5276 78.7961C42.6382 80.6629 42.7488 82.6278 42.7488 82.6278C42.7488 82.6278 41.5873 84.4454 41.8085 86.0665C42.0298 87.6876 43.0807 88.621 43.0807 88.621C43.0807 88.621 42.6382 103.899 42.3616 105.323C42.0851 106.748 42.3063 109.008 42.251 109.204C42.1957 109.401 39.0431 112.348 38.9324 113.429C38.8218 114.51 40.5917 114.264 40.5917 114.264C40.5917 114.264 44.0762 113.969 44.3528 114.166C44.6293 114.362 45.7355 111.906 45.9015 111.709C46.0121 111.513 45.1824 110.088 45.1824 110.088C45.1824 110.088 46.897 110.383 47.063 110.187C47.1736 109.99 48.5563 108.123 48.5563 107.583C48.5563 107.043 47.8373 105.078 47.7267 103.702C47.6714 102.327 48.1139 89.2596 48.1692 89.1123C48.2245 88.9157 49.6625 87.1473 49.6625 85.6735C49.6625 84.1998 48.9988 82.284 48.9988 82.284C48.9988 82.284 50.6581 75.4557 50.99 74.0311C51.3218 72.6065 52.2621 67.7923 52.2621 67.7923C52.2621 67.7923 55.7466 69.2169 58.4015 68.6765C61.0563 68.1362 63.7665 66.7607 63.7665 66.7607C63.7665 66.7607 66.6426 69.8064 67.9147 70.838C69.1869 71.9187 71.7864 75.4066 71.7864 75.4066C71.7864 75.4066 72.6161 82.284 72.9479 84.0033C73.2798 85.7227 72.6161 87.1473 73.2245 88.228C73.8329 89.3088 74.386 89.9474 74.386 89.9474L70.5696 108.958C70.5696 108.958 69.2975 110.039 68.9656 110.481C68.6338 110.973 68.7444 111.808 68.7444 111.808L73.667 111.759C73.667 111.759 75.0497 109.499 75.1603 109.204C75.2156 108.909 74.3307 108.123 74.3307 108.123C74.3307 108.123 74.2754 105.078 75.2709 102.228C76.2665 99.3792 78.2024 91.4702 78.2024 91.4702C78.2024 91.4702 78.4789 104.537 78.2577 105.815C78.0364 107.141 77.7046 109.794 77.7046 109.794C77.7046 109.794 76.4324 111.415 75.8793 111.857C75.3262 112.348 74.2754 113.625 74.2754 113.625C74.2754 113.625 73.9988 114.264 74.4966 114.51C74.9391 114.755 79.8616 114.853 79.8616 114.853C79.8616 114.853 81.6869 112.397 81.6869 112.25C81.6869 112.053 81.0785 111.366 81.0785 111.366C81.0785 111.366 80.8019 104.243 81.0232 100.067C81.1338 97.1686 82.6271 88.1298 82.9037 87.4911C83.1802 86.8525 83.5121 84.9367 83.1802 84.3963C82.8484 83.8559 80.3041 77.9119 80.3041 73.8837C80.3041 71.4766 82.074 67.8414 83.4568 64.4027C83.4568 64.4519 83.4568 64.4519 83.4568 64.501C84.0099 67.1537 83.9546 69.9538 83.1249 72.5574C82.8484 73.3925 82.4612 74.2276 82.2953 75.1118C82.074 76.3891 82.2953 77.6663 82.7931 78.8944C83.5121 80.5155 84.7289 81.9401 86.3329 82.9226C86.6094 81.3997 86.6094 79.6313 86.1116 77.961Z" fill="#09203F"/>
</g>
</g>
<defs>
<filter id="filter0_i_2464_3984" x="0" y="0" width="123" height="115" filterUnits="userSpaceOnUse" color-interpolation-filters="sRGB">
<feFlood flood-opacity="0" result="BackgroundImageFix"/>
<feBlend mode="normal" in="SourceGraphic" in2="BackgroundImageFix" result="shape"/>
<feColorMatrix in="SourceAlpha" type="matrix" values="0 0 0 0 0 0 0 0 0 0 0 0 0 0 0 0 0 0 127 0" result="hardAlpha"/>
<feOffset/>
<feGaussianBlur stdDeviation="2"/>
<feComposite in2="hardAlpha" operator="arithmetic" k2="-1" k3="1"/>
<feColorMatrix type="matrix" values="0 0 0 0 0 0 0 0 0 0 0 0 0 0 0 0 0 0 0.25 0"/>
<feBlend mode="normal" in2="shape" result="effect1_innerShadow_2464_3984"/>
</filter>
<clipPath id="clip0_2464_3984">
<rect width="50" height="115" fill="white" transform="translate(36.5)"/>
</clipPath>
</defs>
</svg>
