<svg width="24" height="24" viewBox="0 0 24 24" fill="none" xmlns="http://www.w3.org/2000/svg">
<path d="M10.3085 7.21938C10.9505 5.61869 11.2716 4.81835 11.7932 4.70742C11.9303 4.67826 12.072 4.67826 12.2092 4.70742C12.7308 4.81835 13.0518 5.61869 13.6939 7.21938C14.059 8.12966 14.2416 8.5848 14.5832 8.89436C14.679 8.98119 14.783 9.05852 14.8938 9.12527C15.2886 9.36325 15.7815 9.40739 16.7673 9.49568C18.4361 9.64513 19.2704 9.71985 19.5252 10.1956C19.578 10.2941 19.6139 10.4008 19.6314 10.5112C19.7159 11.0442 19.1025 11.6023 17.8757 12.7184L17.535 13.0284C16.9615 13.5502 16.6747 13.8111 16.5088 14.1367C16.4093 14.332 16.3426 14.5423 16.3113 14.7593C16.2592 15.121 16.3432 15.4995 16.5111 16.2565L16.5712 16.5269C16.8723 17.8844 17.0229 18.5632 16.835 18.8969C16.6661 19.1965 16.355 19.3884 16.0114 19.4048C15.6289 19.4231 15.0899 18.9839 14.012 18.1055C13.3017 17.5268 12.9466 17.2374 12.5524 17.1244C12.1922 17.0211 11.8102 17.0211 11.4499 17.1244C11.0557 17.2374 10.7006 17.5268 9.99039 18.1055C8.91241 18.9839 8.37343 19.4231 7.99091 19.4048C7.64731 19.3884 7.33626 19.1965 7.16739 18.8969C6.9794 18.5632 7.13 17.8844 7.4312 16.5269L7.4912 16.2565C7.65916 15.4995 7.74313 15.121 7.69102 14.7593C7.65976 14.5423 7.59304 14.332 7.49354 14.1367C7.32767 13.8111 7.0409 13.5502 6.46735 13.0284L6.12668 12.7184C4.89989 11.6023 4.2865 11.0442 4.37097 10.5112C4.38846 10.4008 4.42434 10.2941 4.47711 10.1956C4.73191 9.71985 5.56629 9.64513 7.23506 9.49568C8.22084 9.40739 8.71373 9.36325 9.10857 9.12527C9.21932 9.05852 9.32333 8.98119 9.41915 8.89436C9.76076 8.5848 9.94333 8.12966 10.3085 7.21938Z" fill="#FC640C" stroke="#FC640C" stroke-width="2"/>
</svg>
