<svg width="83" height="83" viewBox="0 0 83 83" fill="none" xmlns="http://www.w3.org/2000/svg">
<g clip-path="url(#clip0_2688_5868)">
<path d="M0 0H83V83H38.2328H37.8734H35.9777H35.7129H33.573H33.2703H21.1352H20.7629H18.708H18.405H14.3324H14.0071H11.1726H10.5044H8.01672H7.51406H0V0Z" fill="#F6F2EF"/>
<path d="M45.9288 5.16661C46.0157 4.87379 46.0613 4.62011 46.2583 4.39042L46.3614 4.34892C46.6275 4.49014 46.6904 5.01108 46.7223 5.29755C46.8053 5.00398 46.8876 4.58345 47.1099 4.38687L47.1887 4.38667C47.3338 4.56195 47.3201 4.88815 47.3292 5.11062C47.3571 5.78454 47.2584 6.27581 46.8673 6.83151C49.2519 9.78962 50.7564 12.2765 54.7182 13.1261C55.7594 12.4746 60.5541 9.80105 61.6876 10.0777C61.9519 10.1422 62.1657 10.4387 62.2892 10.6623C62.4026 10.8677 62.5618 11.2063 62.4665 11.4452C62.3856 11.6481 62.1077 11.7394 61.92 11.815C62.8677 13.8484 63.2415 15.1467 62.8348 17.4042C64.8633 17.9556 67.0635 18.1443 69.1454 18.3903C69.4251 18.4233 69.8127 18.2817 70.093 18.2427C71.1986 18.0562 72.5632 18.7754 73.1156 19.7414C73.1793 19.8528 73.2944 20.0627 73.2995 20.1859L73.3722 20.1863C74.7576 20.7266 76.515 23.6883 75.8713 25.2051C75.2885 26.5782 73.5224 27.0745 72.1863 27.2423C72.6483 27.8812 73.4969 28.9648 73.2855 29.8113C72.8495 31.5566 70.202 32.222 68.6441 31.8858C66.3236 31.385 65.4295 30.1309 64.4414 28.1284C63.7178 28.0971 63.2966 28.1438 62.5877 28.2284C60.2455 28.562 58.7331 29.1293 56.4887 29.8866C54.4575 30.572 51.9748 31.3797 49.8726 31.8088C49.1346 32.508 47.8454 33.6893 47.2925 34.5016C43.7744 39.6696 42.1027 46.4276 41.1289 52.5526C40.905 53.9609 40.6964 55.5036 40.5999 56.9005C40.2954 59.8227 40.139 63.0081 40.1064 65.947C40.0417 71.7669 39.8914 77.3629 38.2324 83H37.873H35.9774H35.7125H33.5726H33.2699H21.1348H20.7625H18.7076H18.4046H14.332H14.0068H11.1722H10.5041H8.01633H7.51367C7.6632 82.863 7.82987 82.7439 7.98883 82.6182C8.86772 81.922 9.75284 81.2354 10.604 80.5055C10.8129 78.3566 12.4539 75.6692 13.932 74.1143C13.6277 74.2089 13.3067 74.2647 13.001 74.3715C12.7391 74.4628 12.4982 74.5697 12.2355 74.666C12.7226 74.0394 13.3526 73.3837 13.8917 72.7935C14.1398 72.5218 14.457 72.2859 14.6877 71.9921C14.1699 72.2188 13.4671 72.4265 12.9148 72.6038C13.4245 71.9885 13.969 71.2178 14.5163 70.6551C15.5008 69.643 16.562 68.6789 17.5729 67.6846C16.5755 68.1309 15.1927 68.612 14.1026 68.4786C14.9961 68.0749 15.5646 67.7273 16.2772 67.0227C18.2028 65.1477 19.3259 62.764 20.5272 60.4119C21.4173 58.6691 22.2022 56.9039 23.0595 55.1555C22.1432 55.8117 21.3309 56.2755 20.2206 56.5088C21.4354 55.3366 22.6779 53.7984 23.5318 52.3412C22.9179 51.9662 21.9571 51.0364 21.4346 50.5259C17.0854 46.2686 14.7418 40.6575 14.7093 34.5925C14.6553 24.5007 21.3476 15.7713 30.7787 12.5274C33.2965 11.6614 35.4837 11.3771 38.144 11.3742C37.9621 11.1381 37.3082 10.2465 37.1004 10.1134C36.6699 10.2629 35.116 10.0847 34.8769 9.72964C34.8889 9.49288 35.2796 9.19671 35.4728 9.01774C35.2575 8.89121 34.712 8.72302 34.8001 8.44006C35.0026 8.27625 35.3038 8.30357 35.5648 8.28565C35.4524 8.17047 35.2608 7.89742 35.2982 7.72693C35.3704 7.39685 35.7954 7.62344 35.9807 7.49962C35.9914 7.29155 35.7763 7.20399 35.7878 7.01448C36.0505 6.71637 36.2639 6.94287 36.5934 7.06348L36.6282 7.04191C36.5999 6.87231 36.5943 6.85018 36.6089 6.68159C36.817 6.37048 37.2114 6.62187 37.5099 6.72973L37.546 6.70212C37.4536 6.48052 37.37 6.38872 37.4884 6.16918C37.8383 6.01209 38.1073 6.38609 38.2616 6.6475C38.2544 6.43918 38.2035 5.94702 38.3609 5.82087L38.4289 5.89241L38.5178 5.92164C38.4609 5.74996 38.4332 5.76365 38.4768 5.62573L38.5428 5.57898C38.8634 5.65309 39.0891 6.39402 39.2005 6.69463C39.2395 6.36881 39.2625 5.82994 39.5092 5.60788C39.8152 5.5506 39.9117 6.11695 39.9332 6.33844C40.0114 7.1409 39.8418 7.85285 39.3731 8.51252C40.139 9.31634 40.8684 10.2026 41.6726 10.9826C41.832 11.1373 42.2311 11.5475 42.3865 11.6476C43.2547 11.6788 45.8279 12.3982 46.6775 12.7309C46.4021 11.5856 46.073 10.6991 45.6199 9.61503C45.4759 9.27039 44.9937 8.16058 44.925 7.85301C44.5749 7.81979 42.8437 7.42364 42.8833 7.05091L43.1488 6.89316C42.8605 6.8072 42.4576 6.75366 42.1529 6.70392C42.4685 6.57434 43.1067 6.51526 43.4792 6.4557C43.2582 6.38914 42.8827 6.23439 42.6722 6.13419L42.6571 6.07789C42.8276 5.98625 43.0235 6.04708 43.3032 5.90765L43.162 5.82747C43.0358 5.78268 43.0002 5.72814 42.9516 5.61756C43.1235 5.26211 43.8333 5.50819 44.0062 5.40021C43.9615 5.2809 43.9578 5.2759 43.9424 5.15055C44.1138 4.93554 44.5726 4.98031 44.8018 5.07885L44.8694 5.10644L44.917 5.12672C44.9955 4.997 45.0613 4.86085 45.1296 4.7255C45.5117 4.87716 45.6683 4.99942 45.8972 5.33345L45.9288 5.16661Z" fill="#020101"/>
<path d="M53.9048 16.151C54.3219 15.917 54.5839 15.8776 54.9899 15.712C56.144 16.2177 56.5027 16.1172 57.5826 16.4116C59.4393 16.9823 61.3654 17.3282 63.2419 17.8037C65.3043 18.3263 67.1998 18.5023 69.3038 18.7497C69.4832 18.9088 69.6677 19.029 69.8644 19.1652C70.0826 19.1727 70.1751 19.2214 70.3908 19.1497L70.4041 19.0936C70.2726 18.9817 69.9098 18.8222 69.6736 18.6551C71.7078 18.2654 72.3191 19.252 73.4088 20.7016C73.3612 20.5149 73.332 20.3758 73.2999 20.1859L73.3726 20.1863C74.758 20.7266 76.5154 23.6883 75.8717 25.2051C75.2889 26.5782 73.5228 27.0745 72.1867 27.2423C72.6487 27.8812 73.4973 28.9648 73.2859 29.8113C72.8499 31.5566 70.2024 32.222 68.6445 31.8858C66.324 31.385 65.4299 30.1309 64.4418 28.1284C63.7182 28.0971 63.297 28.1438 62.5881 28.2284C60.2459 28.562 58.7335 29.1293 56.4891 29.8866C54.4579 30.572 51.9752 31.3797 49.8731 31.8088C49.135 32.508 47.8458 33.6893 47.2929 34.5016C43.7748 39.6696 42.1031 46.4276 41.1293 52.5526C40.9054 53.9609 40.6968 55.5036 40.6003 56.9005C40.2958 59.8227 40.1394 63.0081 40.1068 65.947C40.0421 71.767 39.8918 77.3629 38.2328 83H37.8734H35.9778H35.7129H33.573H33.2703H21.1352H20.7629H18.708C21.2949 80.3722 20.3481 75.8968 19.7222 72.6795C19.6463 72.2894 19.4481 71.3955 19.2482 71.0873C19.576 70.4741 19.9207 69.8605 20.257 69.251C20.3874 69.6982 20.7819 70.9112 21.0803 71.2016C21.2879 71.2542 21.4742 71.0686 21.5708 70.8997C22.1873 69.8225 22.7567 68.7065 23.3396 67.6121L24.7871 64.8583C25.2483 63.984 25.6743 63.181 26.0563 62.2791C26.9703 60.121 26.2 59.9754 25.3823 58.0817L26.3431 55.5523C26.4369 56.332 26.7068 57.2804 26.9617 58.0852C27.795 60.7155 29.2729 63.5015 31.6632 65.011C31.8248 65.113 32.3095 65.2201 32.4726 65.108C33.606 64.3293 34.247 62.6387 34.9068 61.4472C35.2202 60.8062 35.8222 59.0544 35.5264 58.3381C34.8499 56.6994 32.8068 55.2641 31.7504 53.813C30.6303 52.2744 29.4893 50.7131 28.8309 48.9561C29.0705 48.3212 29.33 47.6904 29.5847 47.061C29.8765 47.691 30.1732 48.3162 30.5281 48.9137C30.8164 49.3989 31.4355 50.4735 32.0397 50.6019C32.1558 50.6265 32.2621 50.611 32.3617 50.5454C32.9845 50.1351 34.7024 46.0809 34.8987 45.1667C34.9639 44.8626 35.0204 44.4993 34.9763 44.189C34.7866 42.8562 33.0433 40.4434 32.2993 39.2777C32.5299 38.4908 32.8562 37.7015 33.1706 36.9444C33.3361 37.3238 33.9426 38.6243 34.4504 38.555C34.5898 38.4795 34.8141 38.2992 34.9039 38.1613C35.7262 36.8971 36.8569 35.597 37.5283 34.2737C37.7479 33.8409 37.0605 31.6431 36.8422 31.1564C36.6594 30.7484 36.3508 30.6336 35.9539 30.4948C36.4416 29.2446 37.3341 27.7329 37.9874 26.541C38.1776 26.1941 38.7613 25.1756 38.9924 24.9426C39.3539 24.578 39.9056 24.1093 40.307 23.7214L40.2209 24.422C39.7843 24.7183 39.6713 25.0499 39.5362 25.5283C39.6513 25.8042 39.9232 26.5825 40.2772 26.496C40.3582 26.4117 40.3913 26.404 40.3978 26.2754C40.4652 24.9345 40.637 23.6247 40.7932 22.293C41.3427 21.8171 43.1504 20.6858 43.8116 20.5203C44.5877 21.9404 45.5689 23.4316 46.8615 24.4203C46.1629 25.5373 48.2665 26.6838 49.2107 26.3874C49.908 26.1683 50.1608 25.7294 50.0078 25.0355C51.6452 24.624 53.4341 23.84 54.4425 22.4126C54.8304 21.8634 54.9099 21.267 54.9638 20.6135C56.1548 20.8493 57.2254 21.0149 58.441 21.0799C59.7079 21.1703 60.9701 21.0564 62.2369 21.0641C62.7226 21.067 63.6438 21.583 63.8349 21.5678L63.8511 21.5087C63.6833 21.1258 62.8899 20.8186 62.4992 20.7823C61.3501 20.6753 60.1703 20.8062 59.0083 20.7804C57.6081 20.7494 56.3392 20.4981 54.9631 20.3148C54.836 19.113 54.4077 17.2488 53.9048 16.151Z" fill="#F7EDB1"/>
<path d="M73.3726 20.1863C74.758 20.7266 76.5154 23.6883 75.8717 25.2051C75.2889 26.5782 73.5228 27.0745 72.1867 27.2423C72.6487 27.8812 73.4973 28.9648 73.2859 29.8113C72.8499 31.5566 70.2024 32.222 68.6445 31.8858C66.324 31.385 65.4299 30.1309 64.4418 28.1284C63.7182 28.0971 63.297 28.1438 62.5881 28.2284C60.2459 28.5621 58.7336 29.1293 56.4891 29.8866C54.4579 30.572 51.9752 31.3797 49.8731 31.8088C49.135 32.508 47.8458 33.6893 47.2929 34.5016C43.7748 39.6696 42.1031 46.4276 41.1293 52.5526C40.9054 53.9609 40.6968 55.5036 40.6003 56.9005C40.2958 59.8227 40.1395 63.0081 40.1068 65.947C40.0421 71.767 39.8918 77.3629 38.2328 83H37.8734H35.9778H35.7129C35.9693 82.0419 36.299 81.0311 36.6825 80.118C37.0644 79.2085 38.1068 77.9723 39.0419 77.6266C39.1752 77.0417 39.2355 76.4476 39.282 75.8507C38.9012 75.7378 38.7004 75.6714 38.3571 75.4802C38.5228 74.5597 38.6632 73.775 38.6271 72.8283C38.5785 71.6498 38.4645 70.3952 38.2935 69.2315C38.0629 67.6623 38.3259 67.3402 39.7438 66.7142C39.7575 66.2613 39.7489 65.8292 39.7411 65.3768C38.8825 65.6049 38.0152 65.9151 37.1217 65.6836C35.9731 65.401 35.8401 64.5725 36.227 63.5744C36.8571 61.949 37.5275 60.2998 38.245 58.7112C38.6574 57.798 39.358 57.3623 40.2249 56.9365C40.753 51.0026 41.9631 45.0303 44.2305 39.5029C45.5516 36.2827 46.7525 34.1487 49.4419 31.8868C47.1602 32.1919 45.0613 31.9534 43.4409 30.1079C42.0101 28.4785 41.2867 26.0234 41.3609 23.8713C41.3796 23.3296 41.5848 22.8884 42.0074 22.539C42.9345 21.8297 43.0714 22.5972 43.3164 23.313C43.7062 24.4523 43.6907 26.6743 41.8568 26.2549C42.7561 29.216 44.0539 31.1107 47.2171 31.6703C46.9892 30.6461 47.5349 30.1899 48.435 29.8401C49.344 29.4869 50.4331 29.6808 51.0711 30.4427C51.2388 30.6429 51.3004 30.8706 51.379 31.1152C51.7689 31.0275 52.343 30.8296 52.7351 30.705C52.5059 30.3137 52.4097 30.1513 52.2974 29.7139C52.6337 28.4181 54.0046 28.3925 55.1034 28.5253C55.7313 28.6011 56.4444 28.886 56.8326 29.404C59.6554 28.5499 61.2279 27.7832 64.291 27.802C63.7752 26.4478 63.5026 25.1481 63.3219 23.7193C62.7064 24.3035 62.6859 24.5767 62.2596 25.0566L62.2029 25.0462L62.171 24.9507C62.3283 24.3946 62.7911 23.7326 63.2575 23.3848C63.7072 23.0494 64.0098 23.0562 64.5162 23.1345C64.4728 23.2682 64.4593 23.3704 64.3513 23.4535C64.1921 23.4893 64.1589 23.4638 63.9937 23.4095L63.9417 23.3919L63.8904 23.4339C63.861 24.5678 65.7201 25.6446 66.7269 25.9765C69.2246 26.7998 73.8155 27.8765 75.5129 25.1903C76.0322 23.9795 75.1464 22.416 74.422 21.488C74.079 21.0485 73.4939 20.6254 73.3726 20.1863Z" fill="#020101"/>
<path d="M38.9967 77.8774C38.8651 79.138 38.278 81.7874 37.8732 83H35.9775C36.6448 80.8263 36.9512 79.1846 38.9967 77.8774Z" fill="#A17656"/>
<path d="M40.114 57.2598C40.1164 57.262 40.1194 57.2636 40.1212 57.2663C40.2194 57.4161 40.0548 58.6148 40.0368 58.857C39.8833 60.9252 39.8033 62.9923 39.7484 65.0651C38.7002 65.4568 37.702 65.712 36.6576 65.1999C36.2548 64.8489 36.1858 64.5086 36.3678 64.0054C37.0589 62.0952 37.8084 60.0748 38.7964 58.3029C38.9938 57.9487 39.7796 57.4491 40.114 57.2598Z" fill="#A17656"/>
<path d="M63.5727 23.5627L63.6445 23.5816C63.7535 23.672 63.9463 24.309 64.0488 24.5037C64.3327 25.043 64.6219 25.5709 64.9175 26.1019C65.8365 27.8018 66.7693 29.2303 68.7129 29.8785C69.5077 30.1435 71.8241 30.7536 72.2513 29.5301C72.48 28.8752 71.6449 27.7778 71.298 27.2204C71.5205 27.2101 71.6369 27.2131 71.8592 27.2306C71.9875 27.4694 72.3243 27.9417 72.4848 28.1821C73.5957 29.9174 72.6729 30.7548 71.0189 31.4096C69.8496 31.8725 68.5997 31.6663 67.4841 31.1513C65.4591 30.2165 64.5721 27.8887 64.0004 25.8812C63.8628 25.398 63.3842 23.9582 63.5727 23.5627Z" fill="#F7EDB1"/>
<path d="M39.6634 66.9905C39.9061 67.3971 39.4035 74.6083 39.3059 75.6323C39.0148 75.56 38.8615 75.5114 38.6132 75.3444C38.909 73.6615 38.8862 72.3792 38.7137 70.6777C38.6286 69.8379 38.4509 68.8112 38.4635 67.9853C38.7828 67.4551 39.1249 67.2365 39.6634 66.9905Z" fill="#A17656"/>
<path d="M69.8379 27.0135C70.2042 27.0882 70.591 27.1392 70.962 27.1941C71.5071 28.1633 72.0299 29.0874 70.4296 29.3959C69.2199 29.6291 68.0927 29.2988 67.0896 28.607C66.8055 28.4003 66.5683 28.1368 66.335 27.8768C67.4465 27.5379 68.7496 27.4574 69.7882 28.0935C70.0731 28.2679 70.2936 28.5413 70.6168 28.6127L70.6618 28.5675C70.5946 28.0271 70.1485 27.4647 69.8379 27.0135Z" fill="#FBF5D6"/>
<path d="M49.0432 29.8773C50.0728 29.7908 50.8339 30.1543 51.1543 31.1744C50.5396 31.2897 50.0067 31.4284 49.3721 31.5238C48.6661 31.6117 48.1882 31.6525 47.4854 31.6641C47.4572 31.5462 47.3826 31.272 47.3949 31.1587C47.4802 30.3718 48.3846 30.0218 49.0432 29.8773Z" fill="#A17656"/>
<path d="M54.0681 28.7091C54.8389 28.654 56.0517 28.7828 56.5371 29.4631C56.4534 29.6053 54.9271 30.0247 54.6341 30.1226C54.0748 30.3073 53.5505 30.4781 52.9838 30.6365C52.1625 29.3796 52.6829 28.8235 54.0681 28.7091Z" fill="#A17656"/>
<path d="M42.5781 22.4859C42.63 22.4923 42.67 22.5084 42.7209 22.524C42.9702 22.7612 43.1264 23.4537 43.1918 23.7908C43.3589 24.6516 43.4486 25.8721 42.335 26.0848C42.1901 26.0827 41.8787 26.0784 41.8199 25.9039C41.7151 25.5672 41.697 25.1862 41.6581 24.8341C41.5485 23.8423 41.5054 22.9352 42.5781 22.4859Z" fill="#A17656"/>
<path d="M64.9316 25.3927C65.3479 25.5668 65.8419 25.8945 66.3103 26.084C67.3608 26.5093 68.3389 26.7506 69.4274 27.0207C69.554 27.1379 70.2481 27.9376 70.2775 28.0741L70.2087 28.0475C68.9823 27.1344 67.6075 27.3797 66.2149 27.6204C65.6776 27.0418 65.2676 26.1182 64.9316 25.3927Z" fill="#54251E"/>
<path d="M71.7654 28.6394C71.8097 28.6772 71.8218 28.6807 71.8499 28.7237C72.8217 30.2126 70.264 30.1197 69.5022 29.8638C69.28 29.7852 69.0561 29.6911 68.8369 29.603C69.8311 29.7033 71.4269 29.8662 71.7654 28.6394Z" fill="#54251E"/>
<path d="M21.1348 83C21.3105 82.5858 21.4922 82.1133 21.6517 81.7129C21.9427 80.9818 22.4068 78.8097 23.1022 78.5205C23.8187 78.2226 25.8406 79.1317 26.5777 79.4471C27.7679 79.9686 28.9513 80.5028 30.1521 80.9996C30.9744 81.34 31.8606 81.5718 32.6424 81.9941C32.9951 82.1846 33.1684 82.6393 33.2699 83H21.1348Z" fill="#A17656"/>
<path d="M20.7627 83C20.9229 82.5769 21.1307 82.0549 21.3041 81.6188C21.6588 80.7399 22.1178 78.6548 22.994 78.1979C23.7496 77.8038 26.0094 78.7735 26.7691 79.1452C28.7874 80.1325 30.9254 80.8253 32.9474 81.7785C33.3311 81.9593 33.5218 82.598 33.5728 83H33.2701C33.1686 82.6393 32.9953 82.1846 32.6426 81.9941C31.8608 81.5718 30.9746 81.34 30.1523 80.9996C28.9515 80.5028 27.7681 79.9686 26.578 79.447C25.8408 79.1317 23.8189 78.2226 23.1024 78.5205C22.4071 78.8097 21.9429 80.9818 21.6519 81.7128C21.4924 82.1133 21.3107 82.5858 21.135 83H20.7627Z" fill="#020101"/>
<path d="M26.9707 64.9747C27.868 64.8856 28.262 65.6914 28.8786 66.1855C29.1721 66.4208 29.4514 66.6727 29.769 66.8767C30.5635 67.3871 31.4523 67.7724 32.3432 68.0815C33.127 68.3696 35.5664 68.6549 35.9032 69.3461C36.6662 70.912 36.3473 74.121 36.0019 75.8252C35.8318 76.664 35.3829 78.3173 34.6393 78.7814C34.0029 79.1784 33.1724 78.9644 32.4953 78.8216C29.7741 78.1458 24.41 75.9439 22.9575 73.2848C22.4015 72.267 25.0783 67.7342 25.4923 66.6073C25.7109 66.0122 26.2944 65.2015 26.9707 64.9747Z" fill="#020101"/>
<path d="M27.1435 65.2528C27.7517 65.2694 28.3015 66.1643 28.7664 66.519C29.0518 66.7367 29.309 66.9957 29.6215 67.2054C30.4158 67.7381 31.3286 68.0941 32.2277 68.409C32.9959 68.7044 35.3558 68.951 35.6313 69.5738C36.2998 71.0852 35.9818 74.1499 35.6451 75.7895C35.4887 76.5511 35.0912 78.1176 34.4401 78.5323C33.9417 78.8498 32.9274 78.566 32.3696 78.4361C30.5643 77.9151 28.9215 77.2732 27.21 76.3465C26.0472 75.7034 23.7793 74.3534 23.2744 73.1456C22.9813 72.4441 24.5571 69.3689 24.8892 68.5942C25.1691 67.9412 25.5488 67.1079 25.8911 66.4745C26.2055 65.8931 26.4905 65.4315 27.1435 65.2528Z" fill="#A17656"/>
<path d="M37.8846 46.1656C38.5965 46.135 39.2205 46.5103 39.8391 46.7699C40.4926 47.0441 40.8378 47.3535 40.8136 48.0822C40.7468 49.1606 40.6153 50.2627 40.4837 51.3364C40.1124 54.3692 40.8549 55.711 37.1777 55.0745C36.4856 54.9317 35.7748 54.715 35.1559 54.3688C34.7548 54.1445 34.1844 53.747 34.0705 53.2796C33.8236 52.2673 35.5054 49.0541 36.0761 48.1078C36.4806 47.4373 37.0808 46.3638 37.8846 46.1656Z" fill="#020101"/>
<path d="M37.9298 46.4132C38.1758 46.4331 38.5129 46.4809 38.7437 46.5826C39.0809 46.7251 40.2712 47.174 40.4125 47.4732C40.753 48.1939 40.2997 50.2113 40.2497 50.99C40.1513 51.994 40.0974 52.995 39.9588 53.9946C39.76 55.4291 38.08 54.9881 37.1296 54.8083C36.579 54.6746 36.0404 54.5177 35.5335 54.26C35.124 54.052 34.4624 53.6707 34.3331 53.2024C34.1009 52.3616 35.896 48.8665 36.4377 47.9962C36.7637 47.4723 37.2869 46.5619 37.9298 46.4132Z" fill="#A17656"/>
<path d="M39.8611 35.984C40.5213 35.9789 41.9416 37.5027 42.2114 38.0994C41.821 39.8974 41.1538 41.7011 40.6912 43.49C40.4158 44.5544 39.2234 44.1151 38.45 43.9081C36.838 43.4224 35.1152 42.8 35.9592 40.6266C36.4201 39.4398 38.7085 36.4954 39.8611 35.984Z" fill="#020101"/>
<path d="M39.8133 36.231C40.3877 36.207 41.7089 37.6229 41.9745 38.0983C41.9483 38.3543 41.87 38.6384 41.7911 38.884C41.3191 40.3539 40.8959 41.8356 40.4831 43.3223C40.4481 43.4488 40.2799 43.8165 40.1852 43.8602C39.7656 44.0541 38.8852 43.7664 38.4916 43.663C37.2226 43.3117 35.5443 42.7675 36.0859 41.0123C36.5261 39.5858 37.7248 38.2774 38.7286 37.2086C39.0452 36.8715 39.4112 36.4612 39.8133 36.231Z" fill="#A17656"/>
<path d="M44.5388 26.6369C45.3877 26.6103 46.7264 27.0374 47.4618 27.4693C48.5556 28.1116 46.9651 29.2543 46.5517 29.8032C46.2126 30.2597 45.5377 30.1204 45.0735 29.8767C44.2593 29.4492 43.2025 28.0484 43.6953 27.1078C43.8463 26.8198 44.2256 26.6958 44.5388 26.6369Z" fill="#020101"/>
<path d="M44.6111 26.8446C45.5064 26.8837 46.6621 27.208 47.4059 27.7073C48.1209 28.1873 46.8047 29.1108 46.4809 29.5123L46.4441 29.5585C45.5023 30.5554 43.943 28.8045 43.8206 27.8446C43.7397 27.2097 44.0119 26.9214 44.6111 26.8446Z" fill="#A17656"/>
<path d="M38.9115 27.4086C39.2949 27.3724 39.815 27.3374 40.1744 27.4702C40.3775 27.5452 40.4009 28.0699 40.4036 28.271C40.4163 29.2158 40.6395 30.1196 40.7438 31.0537C40.8115 31.66 40.583 31.8216 40.018 31.9305C39.5328 31.9236 39.1768 31.8375 38.756 31.5905C38.3255 30.8239 38.1975 29.3431 38.1905 28.4672C38.1861 27.915 38.3969 27.5769 38.9115 27.4086Z" fill="#020101"/>
<path d="M38.9881 27.6132C39.4382 27.592 39.6788 27.5982 40.1201 27.6794C40.1451 28.1732 40.1519 28.5539 40.1891 29.1325C40.2292 29.7578 40.515 30.7796 40.4575 31.3837C40.4419 31.5479 40.1256 31.6613 39.9659 31.7045C39.316 31.6061 38.7858 31.55 38.7271 30.8133C38.6629 30.0065 37.8813 27.863 38.9881 27.6132Z" fill="#A17656"/>
<path d="M41.7949 30.1028C42.1877 30.1013 42.4822 30.42 42.7008 30.7792C43.1481 31.5145 44.1204 32.1836 43.7582 33.1362C43.5135 33.7796 43.2861 34.3757 43.0322 34.9727C42.6913 35.2036 42.4591 34.9438 42.2747 34.641C41.605 33.541 40.991 32.1502 41.125 30.8335C41.1498 30.5891 41.5963 30.2324 41.7949 30.1028Z" fill="#020101"/>
<path d="M41.8417 30.3403C42.3297 30.472 43.2881 31.9619 43.5461 32.43C43.7441 32.7891 43.0996 34.146 42.9246 34.5693C42.8937 34.6393 42.8673 34.686 42.8309 34.7532L42.7472 34.7594C42.6628 34.7109 42.5912 34.6605 42.5364 34.5778C41.8999 33.6161 41.2147 31.9387 41.3888 30.7838C41.5268 30.5524 41.6145 30.4797 41.8417 30.3403Z" fill="#A17656"/>
<path d="M51.9256 25.2633C52.8189 25.2098 55.0293 25.4691 55.6092 26.3707C55.9021 26.826 55.343 27.1777 54.9698 27.3632C54.1583 27.7295 53.1572 27.7828 52.3349 27.4056C51.6333 27.0839 50.7914 25.5334 51.9256 25.2633Z" fill="#020101"/>
<path d="M51.7927 25.5017C52.6505 25.3981 54.647 25.6545 55.3249 26.3593C55.6226 26.6689 55.2342 26.9576 54.9786 27.1342C53.8481 27.684 51.797 27.6225 51.6267 26.0046C51.6054 25.8025 51.6566 25.6465 51.7927 25.5017Z" fill="#A17656"/>
<path d="M67.6617 20.6449C68.3467 20.6763 69.6101 21.2498 69.7196 21.9854C69.6742 22.1166 69.7147 22.0655 69.5859 22.1368C69.4003 22.1482 69.2826 22.0717 69.1096 21.9931C68.563 21.8091 67.073 21.6632 66.8789 21.1046C66.894 20.7105 67.3677 20.6756 67.6617 20.6449Z" fill="#020101"/>
<path d="M67.3902 21.0334C67.7445 21.0245 68.8405 21.1837 68.9717 21.5456L69.0181 21.5058L69.0268 21.534L68.9679 21.562C68.6021 21.5056 67.4722 21.4052 67.3096 21.119L67.3902 21.0334Z" fill="#54251E"/>
<path d="M66.8514 19.6307C67.6812 19.5588 68.5178 19.773 69.2663 20.1166C69.578 20.2598 70.458 20.7902 70.435 21.1744C70.3633 21.1955 70.3015 21.2091 70.2351 21.1512C69.6274 20.6215 69.0259 20.3273 68.2545 20.0901C67.5672 19.9234 65.9271 19.6481 66.0796 20.8386C66.1122 21.0941 66.4269 21.7034 66.347 21.8317C65.8286 21.832 65.4977 20.4366 65.9141 20.031C66.2687 19.6855 66.3889 19.6795 66.8514 19.6307Z" fill="#020101"/>
<path d="M44.662 23.7916C45.5921 23.7489 46.1377 25.1434 45.3765 25.422C44.7873 25.2687 43.7233 24.3067 44.662 23.7916Z" fill="#020101"/>
<path d="M44.7382 23.9869C45.0625 23.9929 45.2042 24.1112 45.3516 24.3917C45.4958 24.6664 45.6612 25.1015 45.2613 25.2048C44.9612 25.05 44.4617 24.594 44.4852 24.2261C44.5533 24.0868 44.6072 24.0694 44.7382 23.9869Z" fill="#A17656"/>
<path d="M70.9251 19.0081C71.7075 18.9927 72.9459 20.1456 72.4824 20.7771C72.3051 20.6574 72.1257 20.5038 71.9466 20.3766C71.5963 20.128 70.3517 19.5407 70.9251 19.0081Z" fill="#020101"/>
<path d="M71.1504 19.2318C71.5608 19.2678 72.1553 19.9464 72.3275 20.3226C72.283 20.3029 72.2647 20.3001 72.2323 20.2718C71.8517 19.9397 71.3 19.7334 71.1504 19.2318Z" fill="#54251E"/>
<path d="M49.9469 27.4854C50.7881 27.4839 51.4512 28.2588 50.3509 28.5608C49.3364 28.598 48.9887 27.75 49.9469 27.4854Z" fill="#020101"/>
<path d="M49.922 27.6831C50.207 27.6757 50.695 27.7857 50.6731 28.1464C50.5896 28.2845 50.5291 28.2943 50.3816 28.3609C50.0889 28.3823 49.5581 28.3147 49.6249 27.9167C49.7275 27.7734 49.7598 27.7687 49.922 27.6831Z" fill="#A17656"/>
<path d="M40.8099 33.1363C41.1981 34.0513 41.375 34.9221 41.9639 35.7921C42.1539 36.0728 43.0508 37.0446 43.0915 37.2236C42.1232 36.9415 40.5651 34.0791 40.8099 33.1363Z" fill="#020101"/>
<path d="M59.5632 19.1244C59.8376 19.1302 60.0695 19.1041 60.1616 19.405C60.1319 19.5797 60.1014 19.5993 59.9884 19.7457C59.5473 19.8485 59.2283 19.5583 59.5632 19.1244Z" fill="#020101"/>
<path d="M64.1627 19.1197C64.3643 19.1351 64.5067 19.1308 64.6141 19.3292C64.6051 19.5069 64.6299 19.423 64.5121 19.5814C64.2898 19.6221 64.1568 19.6314 64.0586 19.3979C64.0662 19.2371 64.0717 19.2438 64.1627 19.1197Z" fill="#020101"/>
<path d="M61.9008 18.3975C62.1032 18.4607 62.2045 18.473 62.2412 18.6975C62.1967 18.8309 62.1461 18.8515 62.0333 18.9363C61.8254 18.8501 61.7068 18.7604 61.7012 18.5291C61.7949 18.4048 61.7355 18.454 61.9008 18.3975Z" fill="#020101"/>
<path d="M58.1867 17.8118C58.3633 17.8355 58.4711 17.8686 58.5491 18.0416C58.531 18.2039 58.551 18.1439 58.4178 18.2808C58.2072 18.2848 58.09 18.2969 58.0186 18.0827C58.05 17.9291 58.075 17.9184 58.1867 17.8118Z" fill="#020101"/>
<path d="M56.5346 19.1305C56.7357 19.1079 56.8493 19.0736 56.9986 19.2225C57.0239 19.3634 56.9967 19.3936 56.9374 19.5232C56.7498 19.5479 56.6944 19.5499 56.5529 19.4218C56.4916 19.2791 56.5028 19.278 56.5346 19.1305Z" fill="#020101"/>
<path d="M56.0446 17.1252C56.2313 17.1379 56.3194 17.1329 56.4168 17.3026C56.3921 17.4613 56.4008 17.4112 56.285 17.5521C56.1062 17.5518 56.0276 17.5483 55.9326 17.3873C55.9473 17.2243 55.9415 17.2761 56.0446 17.1252Z" fill="#020101"/>
<path d="M38.1439 11.3742C39.8955 13.4789 40.62 14.8355 40.4594 17.619C39.6237 17.6391 39.1455 17.8655 38.5752 18.4726C38.1333 18.943 37.7642 19.4135 37.5846 20.0417C36.0665 19.5974 34.7884 19.2805 33.2484 19.904C31.0888 20.7784 29.0177 22.1441 27.3487 23.7739C27.0627 24.0532 26.547 24.5279 26.6899 24.9604C27.2605 25.5396 31.636 26.2761 32.6604 26.4308C33.3125 26.5292 34.5299 26.5318 35.2058 26.5058C34.3821 27.2553 33.6369 27.9394 32.9939 28.8629C32.38 29.7445 31.8839 30.6228 31.2196 31.4774C30.6528 32.2064 30.1518 32.6608 29.5114 33.2905C30.5082 33.1165 31.0096 32.7557 31.8254 32.2076C31.3031 33.1247 30.6601 34.1919 30.2768 35.1621C28.9453 38.5332 28.5316 41.2896 26.0008 44.0672C26.4958 43.9335 26.881 43.7724 27.3458 43.5538C26.4696 45.2089 25.5855 46.8443 24.4247 48.3251C24.2935 48.4925 23.9012 48.8018 23.855 48.9296C24.0934 49.0128 25.2463 48.3751 25.5073 48.2164C25.0052 49.5307 24.3072 51.1637 23.5318 52.3412C22.9179 51.9662 21.9571 51.0364 21.4346 50.5259C17.0853 46.2686 14.7418 40.6575 14.7093 34.5925C14.6552 24.5007 21.3476 15.7713 30.7786 12.5274C33.2964 11.6614 35.4836 11.3771 38.1439 11.3742Z" fill="#F7EDB1"/>
<path d="M19.065 71.4656C19.8465 75.0663 21.1498 79.9162 18.4053 83H14.3327C14.0504 81.9795 14.2338 81.2719 14.7443 80.3459C15.7712 78.4823 16.7174 76.5909 17.4524 74.5908C17.6226 74.1279 17.765 73.6273 17.9994 73.1932C18.3329 72.6184 18.7099 72.0305 19.065 71.4656Z" fill="#A17656"/>
<path d="M13.7023 78.2623C15.208 76.9693 16.3025 75.6465 17.4356 74.0141C16.9088 75.2907 16.4077 76.4993 15.7851 77.7462C15.1718 78.9747 14.3001 80.1861 13.8947 81.4981C13.7505 81.9657 13.8624 82.5396 14.0074 83H11.1729C12.2859 81.7501 13.4785 79.9305 13.7023 78.2623Z" fill="#F7EDB1"/>
<path d="M39.1806 7.4745C39.552 6.87915 39.4185 6.30409 39.593 5.98921C39.8905 6.68498 39.539 7.74088 39.1757 8.35917C37.8934 8.97583 38.2164 8.88149 37.2757 9.78071L37.2308 9.7893C37.1169 9.81175 36.9986 9.82748 36.8959 9.87959C36.6322 10.0134 35.3852 9.79133 35.2338 9.62103C35.5545 9.31829 35.9094 9.58788 36.3642 9.29389C36.0372 9.28741 35.6951 9.27509 35.3697 9.28603C35.5671 9.21081 35.7807 9.17531 35.9076 9.0406L35.9438 8.9165C35.7924 8.8121 35.6649 8.95436 35.4906 8.83561C35.4424 8.60071 35.1605 8.59463 34.9502 8.54706C35.3812 8.48359 35.993 8.53319 36.23 8.47354C36.1588 8.37254 36.0049 8.42799 35.8309 8.29003C35.9433 8.22462 36.0822 8.36541 36.1599 8.28768C35.8807 8.05866 35.7161 7.96062 35.4587 7.69762C35.7658 7.77792 36.4893 8.05795 36.7098 7.9855C36.647 7.89297 36.6514 7.91354 36.5534 7.84317C36.6998 7.69747 36.8867 7.6913 37.087 7.6668C37.1282 7.49192 36.8764 7.21135 36.8188 6.88851C36.8571 6.75412 36.8188 6.80307 36.9297 6.73098C37.1802 6.74182 37.5157 7.07146 37.7467 7.23305C37.7611 7.13118 37.5751 6.82227 37.5099 6.72973L37.5461 6.70212L37.6277 6.71864C37.6854 6.61503 37.7214 6.53068 37.8098 6.4519C38.0893 6.57954 38.0571 6.92683 38.2439 7.04213C38.3063 6.94661 38.2765 6.82338 38.2672 6.70046C38.3092 6.88793 38.3483 7.05511 38.3764 7.24597C38.4646 7.21574 38.4593 7.16844 38.5177 7.05391C38.6813 6.93203 38.7426 6.79905 38.8638 6.77831L38.9224 6.96142L38.977 6.96908L39.1694 6.64973C39.2749 6.7591 39.2012 7.31533 39.1806 7.4745Z" fill="#A17656"/>
<path d="M45.1302 4.7255C45.5123 4.87716 45.6689 4.99942 45.8978 5.33345L45.9293 5.16661L45.9878 5.43549L46.0633 5.46605C46.0496 5.586 46.0308 5.81098 46.0047 5.91974L46.0637 5.99424C46.131 5.91517 46.1623 5.86282 46.2186 5.77606L46.2278 5.82075C46.2555 5.94787 46.253 5.99801 46.35 6.0832L46.4957 6.11851C46.5777 6.04309 46.6317 5.99711 46.7215 5.92704C46.7417 6.10576 46.7478 6.07972 46.883 6.23594C46.758 6.45551 46.7018 6.53612 46.55 6.73472C45.7828 6.94485 45.4336 7.06893 44.9046 7.67934C44.5536 7.60911 43.4272 7.28325 43.2255 7.04792L43.273 7.00127C43.5702 6.95174 44.1133 7.21743 44.4091 7.34304C43.9558 6.9684 43.5778 6.77741 43.0124 6.6081C43.3209 6.61404 43.6342 6.64046 43.9321 6.57382C43.8177 6.49499 43.7495 6.58711 43.5704 6.49534C43.4369 6.30777 43.3938 6.23613 43.1944 6.11046L43.2019 6.07739C43.5501 6.0321 43.8215 6.33559 44.1976 6.43772L44.255 6.39902L44.2419 6.33374C44.0454 6.14262 43.5802 5.92404 43.3037 5.90766L43.1626 5.82747C43.0363 5.78268 43.0007 5.72814 42.9521 5.61756C43.1241 5.26211 43.8338 5.50819 44.0067 5.40021C43.962 5.2809 43.9583 5.2759 43.943 5.15056C44.1143 4.93554 44.5731 4.98031 44.8023 5.07885L44.8699 5.10645L44.9176 5.12672C44.996 4.997 45.0618 4.86085 45.1302 4.7255Z" fill="#A17656"/>
<path d="M45.1302 4.7255C45.5123 4.87716 45.6689 4.99942 45.8978 5.33345L45.9293 5.16661L45.9878 5.43549L46.0633 5.46605C46.0496 5.586 46.0308 5.81098 46.0047 5.91974L45.9728 5.81283C45.9571 5.89465 45.938 5.97371 45.9131 6.05321L45.8071 6.07699C45.691 5.86731 45.5633 5.666 45.437 5.46231L45.3946 5.53649C45.0574 5.4767 44.9732 5.32564 44.6619 5.22075L44.7234 5.31471C45.0764 5.5601 45.1194 5.58153 45.3637 5.94968L45.3399 5.966C44.8107 5.53446 45.0413 5.56509 44.4663 5.60365C44.6466 5.80325 44.7809 5.94278 44.9267 6.16958C44.7028 6.03124 44.4236 5.84822 44.192 5.73674L44.1582 5.87921C44.1856 5.90891 44.1747 5.88886 44.1728 5.94603C43.8004 6.04168 43.6248 5.84725 43.1626 5.82747C43.0363 5.78268 43.0007 5.72814 42.9521 5.61756C43.1241 5.26211 43.8338 5.50819 44.0067 5.40021C43.962 5.2809 43.9583 5.2759 43.943 5.15056C44.1143 4.93554 44.5731 4.98031 44.8023 5.07885L44.8699 5.10645L44.9176 5.12672C44.996 4.997 45.0618 4.86085 45.1302 4.7255Z" fill="#020101"/>
<path d="M45.4368 5.46231C45.3749 5.32555 45.1664 5.04724 45.1621 5.02715C45.4615 4.97641 45.6061 5.6009 45.9038 5.71744C45.9993 5.58843 45.9612 5.46119 45.8976 5.33345L45.9291 5.16661L45.9877 5.43549L46.0632 5.46605C46.0494 5.586 46.0306 5.81098 46.0045 5.91974L45.9727 5.81283C45.9569 5.89465 45.9378 5.97371 45.9129 6.05321L45.807 6.07699C45.6908 5.86731 45.5632 5.666 45.4368 5.46231Z" fill="#9F603E"/>
<path d="M44.1584 5.87921C43.9093 5.83013 43.5502 5.85396 43.3154 5.65891C43.5357 5.51698 43.9703 5.65401 44.1922 5.73674L44.1584 5.87921Z" fill="#EA7C55"/>
<path d="M44.7133 5.48957C44.4866 5.44634 44.2623 5.42204 44.1621 5.19273L44.2115 5.13063C44.4403 5.10869 44.5329 5.217 44.7129 5.35979L44.757 5.44727L44.7133 5.48957Z" fill="#EA7C55"/>
<path d="M45.4368 5.46231C45.5632 5.666 45.6909 5.86731 45.807 6.07699L45.7344 6.08458C45.6122 5.9702 45.4804 5.69432 45.3945 5.53649L45.4368 5.46231Z" fill="#583D2C"/>
<path d="M42.3867 11.6476C43.2549 11.6788 45.8281 12.3982 46.6777 12.7309C46.7641 13.1209 46.8055 13.487 46.8554 13.8819C45.2066 13.6772 43.5832 12.7795 42.3867 11.6476Z" fill="#F7EDB1"/>
<path d="M9.19748 82.1019C9.62707 82.4334 10.0361 82.722 10.5043 83H8.0166C8.4046 82.7139 8.83281 82.4124 9.19748 82.1019Z" fill="#F7EDB1"/>
<path d="M35.9414 7.06862C36.4144 7.21129 36.7142 7.35223 37.0877 7.6668C36.8874 7.6913 36.7005 7.69747 36.5541 7.84317C36.5285 7.78995 36.0417 7.20405 35.9414 7.06862Z" fill="#9F603E"/>
<path d="M38.5176 7.05391C38.5817 6.63437 38.6122 6.29517 38.6446 5.87561C38.764 6.17285 38.927 6.4674 38.8638 6.77831C38.7425 6.79905 38.6812 6.93203 38.5176 7.05391Z" fill="#9F603E"/>
<path d="M47.1144 4.74093C47.1015 5.25696 47.1213 5.76662 46.8831 6.23594C46.7479 6.07972 46.7419 6.10576 46.7217 5.92704C46.9238 5.78595 47.0307 5.04497 47.1144 4.74093Z" fill="#9F603E"/>
<path d="M46.3498 6.0832C46.2912 5.51176 46.3325 5.31647 46.4443 4.74459C46.5169 5.31035 46.5566 5.5494 46.4955 6.11851L46.3498 6.0832Z" fill="#EA7C55"/>
<path d="M45.9873 5.43549C46.043 5.2262 46.1202 4.89008 46.2091 4.70793L46.2785 4.69175L46.2818 4.66745L46.2387 4.65286L46.2864 4.61465C46.3032 4.9178 46.1502 5.17434 46.0628 5.46605L45.9873 5.43549Z" fill="#AAA386"/>
<path d="M38.4288 5.89241L38.5177 5.92165C38.4997 6.08506 38.4894 6.37472 38.4088 6.49165L38.4507 6.4247L38.4156 6.51774C38.3616 6.33545 38.4092 6.09195 38.4288 5.89241Z" fill="#583D2C"/>
<path d="M38.1435 25.5393L38.1601 25.5964C37.7708 26.2007 37.4697 26.8414 37.1164 27.4545C36.2454 28.921 35.5827 30.4521 34.8734 31.9929C32.932 36.2105 31.396 40.5362 29.9563 44.9451C29.0886 47.6019 27.9587 50.2214 27.0013 52.8532C25.7741 56.2272 24.4612 59.5781 22.9527 62.838C20.9029 67.3137 18.8016 71.933 15.6892 75.7859C14.3636 77.4268 12.5525 78.7409 10.9814 80.1465C11.5379 77.7229 13.3106 74.9078 15.2026 73.2982C14.7904 73.4154 14.4473 73.658 14.0584 73.8364C13.7283 73.988 13.3721 74.1005 13.0268 74.2147C13.5449 73.6919 13.8305 73.2344 14.4144 72.7133C15.2638 71.9548 16.339 71.3821 17.0664 70.5489C15.959 71.1768 14.9065 71.8307 13.6952 72.2306C14.4996 70.9722 16.0983 69.6135 17.1657 68.5429C17.6046 68.1453 17.9944 67.6773 18.4349 67.284C18.7911 66.966 19.1627 66.6898 19.5118 66.3583C18.97 66.5784 18.5049 66.9359 17.9897 67.1819C17.1825 67.5672 16.287 67.8591 15.441 68.1547C16.0645 67.6685 16.634 67.1645 17.1683 66.5816C17.639 66.068 18.0694 65.5355 18.5581 65.0345C19.2857 64.2886 20.0933 63.6806 20.7288 62.8507C20.4332 63.0348 20.3302 63.1187 20.0756 63.3534C19.5634 63.858 19.011 64.3148 18.4872 64.8397C19.145 63.7872 19.8305 62.4042 20.5519 61.4319C21.0887 60.7083 22.2064 59.7826 22.8854 59.1194C22.0868 59.5732 21.1294 60.4955 20.4972 61.1848C21.1929 59.8581 21.8253 58.5409 22.4719 57.1919C22.7788 56.5519 23.1801 55.5982 23.5121 55.0113C24.0412 54.0759 24.717 53.5998 25.1275 52.4714C24.8142 52.8304 24.5037 53.3659 24.194 53.7325C23.4747 54.5839 22.2938 55.5423 21.2818 55.9791C22.5814 54.3444 23.8288 52.8134 24.7389 50.9072C25.1511 50.3407 25.5539 48.5609 25.9296 48.1073C26.8157 47.037 27.802 46.3182 28.4327 44.9547C28.0438 45.3927 27.673 45.9274 27.2867 46.356C26.6587 47.0527 25.687 47.8397 24.8989 48.3603C25.4149 47.5605 26.0066 46.7438 26.4765 45.9202C26.9228 45.1377 27.3054 44.261 27.7681 43.4832C27.9147 43.237 28.1702 43.0809 28.3956 42.8991C29.0846 42.343 29.4803 41.7454 29.7112 40.8978C29.505 41.1612 29.3146 41.4857 29.1058 41.7641C28.5447 42.5116 27.7317 43.0999 26.9173 43.5473C27.7825 42.4402 28.145 41.6117 28.8102 40.4237C29.418 39.3384 30.0809 38.2953 30.6584 37.172C30.9741 36.5577 31.4918 35.8896 31.8314 35.2419C30.7067 36.5529 30.0224 38.0711 29.0675 39.4411C29.7896 37.4256 30.5299 35.2051 31.5787 33.3363C31.9068 32.6813 32.3813 32.043 32.7295 31.4131C33.2387 30.4918 34.3033 29.3079 34.6822 28.38C34.337 28.8226 33.9045 29.3467 33.5999 29.8052C32.7029 31.1554 32.039 31.8609 30.6413 32.6986C32.4548 30.7934 33.3877 28.0968 35.6743 26.5025C35.8138 26.4053 36.509 26.2432 36.7143 26.1718C37.2415 25.9885 37.6594 25.8223 38.1435 25.5393Z" fill="#A17656"/>
<path d="M28.6649 49.4709C28.7597 49.5623 29.0725 50.3184 29.1567 50.4891C30.0861 52.3858 31.3604 54.0545 32.7995 55.5825C33.4985 56.3247 35.2503 57.8516 35.2464 58.8571C35.2408 60.3428 33.7177 63.3874 32.7441 64.4672C32.644 64.5752 32.4531 64.7703 32.3116 64.7947C31.6893 64.902 30.68 63.7994 30.3025 63.4041C28.1059 61.1043 27.2522 58.1388 26.5146 55.1362L28.6649 49.4709Z" fill="#A17656"/>
<path d="M27.0176 24.765C27.2845 24.2785 27.8528 23.7135 28.2986 23.3463C29.9843 21.958 32.2195 20.3792 34.3715 19.938C34.761 19.8582 35.556 19.92 35.9266 19.9939C37.3039 20.2687 38.2796 20.633 39.7105 20.7395C39.6979 21.0907 39.7214 21.3231 39.7727 21.666C38.8471 21.5735 37.4137 21.2948 36.4972 21.0997C33.8475 20.5357 32.2008 21.5598 29.9853 22.8229C29.4786 23.1118 28.5396 23.5959 28.1092 23.8994C29.5693 23.5052 30.6911 22.6328 32.0781 22.0723C32.3654 22.1183 33.2921 22.3318 33.4668 22.35C35.1907 22.8499 37.1168 24.1346 38.8052 22.818C39.1527 22.5471 39.4066 22.2552 39.7885 22.0186L39.8498 21.9811C39.9256 22.537 39.9206 22.6215 40.5079 22.6515C40.5732 23.4406 37.9229 25.3748 37.2109 25.62C36.3529 25.9155 35.2223 26.2334 34.3079 26.1957C32.0778 26.1036 29.0635 25.5998 27.0176 24.765Z" fill="#F7EDB1"/>
<path d="M39.0779 8.67237C39.1701 8.68882 40.513 10.2772 40.6772 10.4552C42.0761 11.9707 43.9195 13.578 45.9435 14.0328C47.7217 14.4323 48.7696 14.0405 50.3451 14.9068C49.6072 15.1785 48.8317 15.4053 48.0933 15.685C47.1123 16.0567 46.1877 16.4745 45.2495 16.9406C45.0942 17.0138 44.9401 17.0893 44.7861 17.1655C44.3283 17.3921 43.2052 17.9 42.8603 18.2309C42.7781 18.3098 42.7572 18.4048 42.7228 18.5097C42.6938 18.5981 40.8124 19.8791 40.5419 20.0877C40.5912 19.0258 40.7904 17.9533 40.8032 16.8574C40.8274 14.791 40.2641 13.6135 39.0529 11.9989C38.5318 11.3042 37.9839 10.6048 37.373 9.97751C38.0043 9.30354 38.1376 8.95533 39.0779 8.67237Z" fill="#F7EDB1"/>
<path d="M32.1427 39.6979C32.2451 39.7876 32.4603 40.1431 32.5507 40.2937C33.3138 41.5661 34.352 42.8836 34.6459 44.3577C34.6967 44.6126 34.5587 45.4129 34.4635 45.6429C33.9501 46.8842 33.0559 49.3267 32.2344 50.3063C31.3704 50.2335 30.0745 47.3306 29.7588 46.5868C29.8437 46.3094 29.9468 46.0209 30.0469 45.7474C30.7778 43.748 31.3565 41.6748 32.1427 39.6979Z" fill="#A17656"/>
<path d="M46.5909 6.95642C46.9682 7.37563 47.6142 8.26831 47.9794 8.73753C49.8134 11.0934 51.4406 12.6263 54.3789 13.4142C54.2885 13.4926 54.185 13.5607 54.0866 13.6297C53.777 13.6979 53.2039 13.8595 52.9349 13.8901C52.7824 13.9685 52.8321 13.9377 52.7347 14.111C52.1641 14.3138 51.336 14.6172 50.7583 14.7422C49.2862 13.9795 48.8225 13.8997 47.1403 13.8991C47.1097 12.2016 45.9664 9.27444 45.0811 7.82665C45.5972 7.20673 45.8242 7.20106 46.5909 6.95642Z" fill="#F7EDB1"/>
<path d="M52.9344 13.8901C53.2035 13.8595 53.7765 13.6979 54.0861 13.6297C53.9834 13.8073 53.958 13.8924 54.0166 14.0998C54.1414 14.5418 54.4484 15.1011 54.6882 15.4903C54.0951 15.6657 53.5475 15.9371 52.9883 16.1994C52.6688 15.8836 52.3629 15.6672 51.8927 15.6724C50.6583 15.6859 45.9098 17.5275 45.0275 18.4147C44.8625 18.5805 44.8254 18.7806 44.8315 19.0085C44.8685 20.39 46.0851 22.4969 47.1059 23.4131C47.7853 24.0231 48.5068 24.1678 49.3971 24.1177C50.8907 24.0338 52.4233 23.3788 53.4304 22.2498C53.9252 21.6952 54.1759 21.0103 54.1255 20.2665C54.0554 19.2322 53.5829 17.4587 53.2004 16.4701C53.355 16.4029 53.5475 16.312 53.7015 16.2536C54.1907 17.6608 55.0679 20.5001 54.3741 21.881C53.3935 23.8325 49.4514 25.5107 47.4445 24.417C45.9291 23.591 43.761 20.1022 43.1807 18.4748L43.1572 18.4102C45.1401 17.1529 47.7891 16.134 49.9979 15.3249C50.9702 14.9688 51.8502 14.7192 52.8331 14.312C53.0538 14.6991 53.1286 14.7494 53.4911 15.0153C53.1248 14.4525 53.174 14.389 52.9344 13.8901Z" fill="#EA7C55"/>
<path d="M25.2011 58.5158C25.2649 58.5871 26.0914 60.1878 26.1339 60.4204C26.2197 60.8901 25.9914 61.6526 25.8086 62.0958C25.2631 63.4177 24.5462 64.7527 23.8731 66.0148C23.025 67.6052 22.1891 69.2248 21.279 70.7757L21.2276 70.8182C21.0789 70.7327 20.588 69.4025 20.4092 69.0501C20.651 68.5227 20.9321 67.9795 21.1932 67.459C22.6623 64.5297 23.8949 61.5153 25.2011 58.5158Z" fill="#A17656"/>
<path d="M50.362 16.292L50.4311 16.3101C50.4261 16.3706 50.111 17.0379 50.0603 17.1692C49.2443 19.2819 48.3738 21.3273 47.4337 23.3854C46.9903 22.9651 46.7771 22.7217 46.416 22.2287C46.0487 21.7896 44.85 19.0057 45.1957 18.6645C46.2569 17.6175 48.987 16.7838 50.362 16.292Z" fill="#54251E"/>
<path d="M51.6676 15.9847C51.8225 15.9906 52.0352 15.9964 52.1793 16.0492C52.7058 16.2421 52.7809 16.1827 52.5709 16.6655C51.5318 19.0542 50.5925 21.4848 49.6057 23.8961C49.248 23.9223 49.0665 23.9298 48.7109 23.9079C48.4096 23.8572 47.8021 23.7573 47.6162 23.5119C47.8535 22.7928 48.5344 21.375 48.8637 20.5967C49.4585 19.1914 50.0607 17.5722 50.7086 16.2118C51.0999 16.0509 51.2612 16.0243 51.6676 15.9847Z" fill="#FBF5D6"/>
<path d="M35.8624 30.7083C36.0257 30.7509 36.2692 30.8065 36.3813 30.925C36.8441 31.415 37.3179 33.4841 37.3716 34.11C37.0209 34.863 36.6109 35.3287 36.1353 36C35.6259 36.7187 35.1283 37.4314 34.6016 38.1388C34.4979 38.2572 34.4805 38.288 34.3285 38.2883C33.9345 38.0728 33.5436 37.0963 33.3008 36.6422C33.7463 35.4701 34.2422 34.3054 34.7459 33.157C35.1004 32.3488 35.4505 31.4867 35.8624 30.7083Z" fill="#A17656"/>
<path d="M52.9105 16.604C53.0108 16.717 53.1745 17.147 53.2046 17.3C53.4772 18.6845 54.3001 20.3756 53.519 21.717C52.9503 22.6937 51.8052 23.3718 50.7699 23.6594C50.4826 23.7353 50.179 23.7853 49.8857 23.8387C50.1625 22.8365 50.8239 21.4968 51.216 20.4969C51.7375 19.1673 52.1958 17.8409 52.9105 16.604Z" fill="#54251E"/>
<path d="M61.3824 10.3838C61.4352 10.3787 61.5427 10.3809 61.6006 10.3801C61.8721 10.5197 62.2632 10.9653 62.145 11.3137C62.0886 11.4799 61.8348 11.5108 61.6776 11.566C61.6443 11.6516 61.9777 12.5621 62.0811 12.7282C62.4986 13.3992 63.047 16.7594 62.5517 17.287C62.4038 17.3327 62.4762 17.3322 62.3268 17.2869C62.2226 17.1329 62.3267 16.4716 62.3328 16.2317C62.3656 14.9406 61.9142 12.1717 60.601 11.5923C59.8937 11.2802 57.6312 12.3905 56.883 12.7545C55.9113 13.3055 54.3764 14.008 55.8385 15.1508C56.2683 15.4868 56.7052 15.8182 57.142 16.1467C56.3733 16.0366 55.6305 15.801 54.9831 15.3479C54.512 15.0184 54.3258 14.4386 54.2393 13.8897C55.3265 12.8797 59.954 10.671 61.3824 10.3838Z" fill="#EA7C55"/>
<path d="M60.908 12.1405C62.0494 13.3928 62.1253 15.6342 61.9977 17.2259L60.7201 16.9215C60.2238 16.7962 59.7619 16.6805 59.2598 16.5809C59.5495 15.9026 59.7936 15.0887 60.0441 14.3859C60.3193 13.6137 60.6005 12.8987 60.908 12.1405Z" fill="#54251E"/>
<path d="M32.0781 22.0723C32.6787 21.793 33.3038 21.514 33.9562 21.3838C35.7756 21.021 37.5809 21.8264 39.3775 21.949C37.647 24.0659 36.3363 23.0867 34.1248 22.4948C33.8993 22.4344 33.7011 22.3385 33.4668 22.35C33.2921 22.3318 32.3654 22.1183 32.0781 22.0723Z" fill="#AAA386"/>
<path d="M59.9941 11.7978C60.2581 11.776 60.5846 11.7627 60.7326 12.0177C60.6769 12.3264 60.2275 13.3718 60.1058 13.719C59.7777 14.6546 59.4563 15.5992 59.0912 16.5202L58.5117 16.3653C58.1506 16.2681 57.8558 16.1865 57.501 16.0603C57.703 15.2847 58.7626 12.8366 59.1712 12.0801C59.4755 11.9436 59.6699 11.8902 59.9941 11.7978Z" fill="#FBF5D6"/>
<path d="M58.8447 12.172C58.8719 12.2516 57.5239 15.4706 57.3439 15.9161C56.9892 15.6743 56.6549 15.4172 56.313 15.1581C54.9216 14.2034 55.4253 13.8436 56.7005 13.1249C57.4129 12.7235 58.0845 12.463 58.8447 12.172Z" fill="#54251E"/>
<path d="M13.3684 78.5795L13.4078 78.6432C13.1553 79.9823 11.8796 81.9058 10.9105 82.8484C10.5538 82.6669 10.3312 82.5291 9.99356 82.3094L9.42285 81.9349C10.6848 80.8679 12.0761 79.5588 13.3684 78.5795Z" fill="#A17656"/>
<path d="M42.8574 18.8794C42.9444 18.9742 43.4689 19.9861 43.6266 20.2204C42.5602 20.7848 41.463 21.3399 40.556 22.1389L40.2379 22.4168C40.1715 21.9382 40.0363 21.2041 40.0401 20.7536C40.9743 20.1684 41.946 19.5016 42.8574 18.8794Z" fill="#EA7C55"/>
<path d="M40.2443 17.882C40.2888 17.8787 40.3355 17.8858 40.3812 17.8897C40.4224 17.9865 40.3025 19.948 40.2815 20.1842C40.1978 20.3118 40.0894 20.3399 39.9472 20.4049C39.3501 20.3759 38.8861 20.2989 38.3068 20.1821L37.9248 20.0892C38.09 19.5377 38.5758 18.9445 38.9737 18.537C39.3472 18.1544 39.7238 17.9851 40.2443 17.882Z" fill="#A17656"/>
<path d="M47.0319 24.5552C47.6847 24.936 48.294 25.0546 49.0463 25.0894C49.2237 25.0976 49.6675 25.0762 49.7933 25.1313C49.9721 25.4389 49.7335 25.7875 49.5158 26.0133C48.9078 26.3761 48.2568 26.2258 47.6922 25.8509C47.2838 25.5797 46.6845 25.0667 47.0319 24.5552Z" fill="#A17656"/>
<path d="M40.0986 24.7438L40.1608 24.7684C40.211 24.8998 40.1799 26.0485 40.112 26.1884L40.038 26.1486C39.7022 25.5625 39.6171 25.3043 40.0986 24.7438Z" fill="#9F603E"/>
<path d="M49.8733 31.8088C51.9755 31.3797 54.4582 30.572 56.4893 29.8866C58.7338 29.1293 60.2461 28.5621 62.5884 28.2284C62.8499 28.7811 63.1002 29.7014 63.2354 30.3033C65.3803 39.8601 59.7568 50.442 50.9492 54.5038C48.5248 55.6219 45.9769 56.3368 43.3252 56.6719C42.4378 56.7892 41.4989 56.9075 40.6006 56.9005C40.697 55.5036 40.9057 53.9609 41.1295 52.5526C42.1033 46.4276 43.7751 39.6696 47.2932 34.5016C47.8461 33.6893 49.1352 32.508 49.8733 31.8088Z" fill="#F7EDB1"/>
</g>
<rect x="0.5" y="0.5" width="82" height="82" rx="39.5" stroke="#A17656"/>
<defs>
<clipPath id="clip0_2688_5868">
<rect width="83" height="83" rx="40" fill="white"/>
</clipPath>
</defs>
</svg>
