<svg width="20" height="20" viewBox="0 0 20 20" fill="none" xmlns="http://www.w3.org/2000/svg">
<path d="M6.5 13.5V13H7V13.5H6.5ZM1.85355 18.8536C1.65829 19.0488 1.34171 19.0488 1.14645 18.8536C0.951184 18.6583 0.951184 18.3417 1.14645 18.1464L1.5 18.5L1.85355 18.8536ZM6.5 18H6V13.5H6.5H7V18H6.5ZM6.5 13.5V14H2V13.5V13H6.5V13.5ZM6.5 13.5L6.85355 13.8536L1.85355 18.8536L1.5 18.5L1.14645 18.1464L6.14645 13.1464L6.5 13.5Z" fill="#222222"/>
<path d="M10 19.5H15.5C17.7091 19.5 19.5 17.7091 19.5 15.5V4.5C19.5 2.29086 17.7091 0.5 15.5 0.5H4.5C2.29086 0.5 0.5 2.29086 0.5 4.5V10" stroke="#222222"/>
<path d="M6.5 6.5L9.79659 11.2616C10.4501 12.2055 11.7625 12.4067 12.6688 11.7018L14.1064 10.5838C14.9025 9.96456 16.0352 10.0351 16.7484 10.7483L19.5 13.4999" stroke="#222222"/>
<circle cx="14.5" cy="5.5" r="1.5" fill="#222222"/>
</svg>
