<svg width="20" height="20" viewBox="0 0 20 20" fill="none" xmlns="http://www.w3.org/2000/svg">
<rect width="20" height="20" rx="2" fill="#FF7518"/>
<path d="M15.92 4.96251C16.0053 4.87547 16.1071 4.80632 16.2195 4.75911C16.3318 4.71191 16.4525 4.68759 16.5743 4.68759C16.6962 4.68759 16.8169 4.71191 16.9292 4.75911C17.0416 4.80632 17.1434 4.87547 17.2287 4.96251C17.5862 5.32376 17.5912 5.90751 17.2412 6.27501L9.84997 15.0125C9.76606 15.1047 9.66422 15.1787 9.5507 15.2302C9.43717 15.2816 9.31435 15.3093 9.18973 15.3117C9.06512 15.314 8.94134 15.2909 8.82596 15.2438C8.71059 15.1966 8.60604 15.1264 8.51872 15.0375L4.02123 10.48C3.84777 10.3031 3.75061 10.0653 3.75061 9.81751C3.75061 9.56977 3.84777 9.3319 4.02123 9.15501C4.10653 9.06797 4.20835 8.99882 4.32071 8.95161C4.43307 8.90441 4.55372 8.88009 4.6756 8.88009C4.79748 8.88009 4.91813 8.90441 5.03049 8.95161C5.14285 8.99882 5.24467 9.06797 5.32998 9.15501L9.14497 13.0213L15.895 4.99001C15.9027 4.98035 15.9111 4.97117 15.92 4.96251Z" fill="white"/>
</svg>
