<svg xmlns="http://www.w3.org/2000/svg" fill="none" viewBox="0 0 100 100"><path fill="#f6f2ef" d="M53 100A50 50 0 1 1 47 0a50 50 0 0 1 6 100M37.4 18c-9.8 1.7-7.2 12.7-2.7 12.8 1.3-1.5-3-9 2.4-9.3 1.1-.1 2.5 0 3.3.9q.4.7 0 1.4c-2 2.4-3.6 3.5-4.4 6.5-4.5 15.9 17 22.9 26.9 12 4.2-6.3 3.9-13.7-2.6-18.5-1.7-1.2 3-4 5.6-1 2.5 2.8-1.1 6.3 0 7.8 4.5.1 5.7-7.6 2.2-10.6C64 16.7 59.7 17.4 57 22a20 20 0 0 0-12.5.1c-2-2.7-3.5-3.8-7-3.9m23.1 28.5c2.7 5.2 4.4 9.2 5.5 15 .5 2.9 6.5.8 8-.2 3.2-3.3.8-6.2-2.1-8.6s-7.5-6.3-11.4-6.2m-20.4.3c-2.5.5-5.4 1.7-7.4 3.3-4 3.4-12.4 6-6 11.7 3.3 1.7 4.6 1.3 8.3 1 .8-4.4 1.2-7.1 3.3-11.1l2.5-4.7c-.4-.3-.2-.2-.7-.2m3 .7c-2.4 5.4-4.9 9.6-5 15.5 6.9 2 8.7 8 6.7 14.5h11.3L55 74.4c-.2-6.5 2.5-9.8 8.5-11.6a59 59 0 0 0-5.3-15.2 21 21 0 0 1-15 0m-8.5 17.5c-9.9 3-7.4 18.4 3.2 17 10-4.3 6.7-18-3.2-17m28.7 0c-9.8 2.2-8.3 17 1.7 17 10.4-1.8 8.4-17.4-1.7-17"/><circle cx="50" cy="50" r="50" fill="#f6f2ef"/><path fill="#fc640c" d="M63 42.5c-9.8 10.8-31.4 3.8-27-12.1.9-3 2.6-4.1 4.4-6.5q.5-.7.1-1.4c-.8-.8-2.2-1-3.3-1-5.4.4-1 8-2.4 9.4-4.5-.1-7-11.1 2.7-12.8 3.5.1 5 1.2 7 4q6.3-2.2 12.5-.2c2.7-4.5 7-5.2 11.2-1.8 3.5 3 2.3 10.7-2.2 10.6-1.1-1.5 2.5-5 0-7.9s-7.3-.1-5.6 1.1c6.5 4.8 6.9 12.2 2.6 18.6m-8.3-10.8a1.7 1.7 0 1 0 1.8 3 1.7 1.7 0 0 0-1.8-3M45 32a1.6 1.6 0 1 0 1.5 2.9 1.6 1.6 0 0 0-1.5-3m5 3.8c-4.5 2.4-3.3 6.8 2 6.9 5-1.9 2.5-7.5-2-7"/><path fill="#f6f2ef" d="M56.4 34.7a1.7 1.7 0 1 1-1.6-3 1.7 1.7 0 0 1 1.6 3m-9.8 0a1.6 1.6 0 1 1-1.8-2.6 1.6 1.6 0 0 1 1.8 2.7m5.4 7.8c-5.3 0-6.5-4.5-2-7 4.5-.5 7 5.1 2 7"/><path fill="#fc640c" d="M72.2 61.4c-1.6 1-7.6 3-8.1.2-1-5.8-2.8-9.8-5.5-15 3.9 0 8.5 3.9 11.4 6.2s5.3 5.3 2.2 8.6m-43.3.5c-6.5-5.7 1.8-8.3 5.9-11.7 2-1.6 5-2.8 7.4-3.3.5 0 .2 0 .7.2-.3.8-2 3.7-2.5 4.7-2 4-2.5 6.7-3.3 11-3.7.4-5 .8-8.2-1"/><path fill="#fc640c" d="M38.2 63c.1-5.8 2.6-10 5-15.4 6.3 2 8.8 1.8 15.1.1 2.7 5.4 4.1 9.4 5.3 15.2-6 1.8-8.7 5.1-8.5 11.6l1 3q-5.5.2-11.2 0c2-6.4.2-12.4-6.7-14.4"/><path fill="#fc640c" d="M39 81.1c-10.6 1.5-13-13.9-3.2-17 10-1 13.3 12.8 3.2 17m25.2.1c-10 0-11.5-14.8-1.7-17 10.1-.4 12.1 15.2 1.7 17"/><circle cx="51" cy="38" r="1" fill="#fc640c"/></svg>