<svg xmlns="http://www.w3.org/2000/svg" fill="none" viewBox="0 0 100 100"><circle cx="50" cy="50" r="50" fill="#f6f2ef"/><path fill="#fc640c" d="M38.397 43.89c-.285-.226-.643-.647-.947-.27-7.168 8.865-10.635 1.655-16.137-3.077-7.634-6.566-8.911-10.33-.686-17.627 2.626-2.33 3.351-4.322 7.36-4.8 1.188.086 2.814.474 3.696 1.29 2.412 2.227 4.629 4.675 6.962 6.988 1.298 1.39 2.817 2.596 4.072 4.028 3.564 4.066.249 7.256-2.215 10.312l.08.096.133.159c.746.899 17.122 16.856 17.026 17.535-.13.92-1.198 1.804-2.13 1.521-3.802-2.586-15.903-14.908-17.214-16.155m-9-21.2c-.344.517-.431.456-.41.95.943 1.245 10.193 10.49 11.267 11.081.25-.461.418-.655.386-1.177-.63-1.342-9.748-10.578-11.242-10.854m-2.868 2.603-1.161 1.163a584 584 0 0 1 6.79 6.821c1.435 1.47 3.662 3.907 5.225 5.12.334-.426.687-.856.976-1.312-1.649-1.593-10.733-11.27-11.83-11.792m-2.922 3.223-1.13 1.225c3.117 3.18 6.232 6.362 9.354 9.537.488.496 1.842 2.057 2.415 2.105.37-.328.784-.679 1.138-1.018l-7.186-7.285c-1.152-1.175-3.4-3.529-4.591-4.564M20.28 31.84c-.417.594-.526.55-.58 1.166.61.793 1.475 1.658 2.218 2.357 2.748 2.588 5.203 5.459 7.943 8.046.603.57 1.312.442 2.087.378l.23-.403c-.149-.261-3.788-3.858-4.106-4.122-1.76-1.455-5.896-6.679-7.792-7.422"/><path fill="#fc640c" d="M77.368 82.27c-1.303.41-3.722.447-4.687-.542-5.458-5.595-10.973-11.14-16.486-16.686-.883-.889-2.41-2.346-4.539-4.628 2.13-2.13 4.325-4.559 5.723-5.692.54.206 1.111.691 1.531 1.09 5.88 5.6 11.673 11.297 17.482 16.968 1.868 1.825 4.38 3.705 3.535 6.651-.39 1.365-1.354 2.173-2.559 2.84m-2.572-5.313a1.292 1.292 0 1 0 1.092 2.342 1.292 1.292 0 0 0-1.092-2.342"/><path fill="#fc640c" d="m59.648 42.53-.098-.612c-.791-5.123 1.474-9.93 3.628-14.442 2.197-4.602 4.915-9.471 10.416-10.29 12.156-1.214 18.738 14.922 7.973 21.648-5.85 3.656-12.513 7.15-19.585 5.86-1.559 1.598-2.448 2.688-4.586 4.947-1.548 1.636-6.808 6.577-8.133 8.712-.024.04.863 2.546-.035 3.515-1.867 2.015-3.644 3.751-5.507 5.596L31.924 79.21c-1.91 2.011-4.407 4.864-7.27 3.135-3.887-2.349-3.04-5.451-.433-8.037 6.209-6.159 12.182-12.204 18.376-18.342 1.661-1.646 2.706-.522 3.95-.197 3.255-3.192 6.353-6.625 9.683-9.76 1.083-1.02 2.348-2.215 3.3-3.338zm13.897-22.128c-4.911 1.708-6.129 6.044-8.434 10.279-1.162 2.133-1.92 4.575-2.542 6.914l1.805-2.66c3.893-5.364 7.64-10.107 12.661-14.515-1.338-.082-2.167-.145-3.49-.018m6.045 1.648c-1.574 1.573-3.035 3.254-4.585 4.84-4.45 4.555-8.108 9.58-12.016 14.595.685-.458 1.293-.849 1.928-1.383 5.911-4.47 11.947-10.107 17.273-15.28-.656-1.01-1.432-2.326-2.6-2.772m4.106 5.502c-1.416 1.196-2.744 2.96-3.948 4.013-3.416 2.985-9.07 8.318-12.892 10.383l-.003.114c5.03-1.092 12.665-4.492 15.91-8.694.945-1.222 1.43-4.294.933-5.816m-57.759 49.57a1.255 1.255 0 1 0 1.245 2.182 1.256 1.256 0 0 0-1.245-2.182"/></svg>