<svg xmlns="http://www.w3.org/2000/svg" width="24" height="24" fill="none" viewBox="0 0 24 24"><path fill="#09203f" d="M14.7 5.5V5zm3.162.327.227-.445zm1.31 1.31.446-.226zM19.5 10.3h.5zm0 1.4h.5zm-.327 3.162.445.227zm-1.31 1.31.226.446zM14.7 16.5v.5zM5.27 18.731l-.354-.353zm-.769-.317H4zm0-8.114H4zm.327-3.162-.445-.227zm1.31-1.31-.226-.446zM9.3 5.5V5zM7.207 16.793l-.353-.354zM14.7 5.5V6c.848 0 1.455 0 1.93.04.47.038.767.111 1.005.233l.227-.446.227-.445c-.403-.206-.846-.296-1.378-.34C16.186 5 15.532 5 14.701 5zm3.162.327-.227.446a2.5 2.5 0 0 1 1.092 1.092l.446-.227.445-.227a3.5 3.5 0 0 0-1.529-1.53zm1.31 1.31-.445.228c.122.238.195.536.234 1.005C19 8.845 19 9.452 19 10.3h1c0-.832 0-1.486-.043-2.011-.043-.532-.133-.975-.339-1.378zM19.5 10.3H19v1.4h1v-1.4zm0 1.4H19c0 .848 0 1.455-.04 1.93-.038.47-.111.767-.233 1.005l.446.227.445.227c.206-.403.296-.846.34-1.378.042-.525.042-1.179.042-2.01zm-.327 3.162-.446-.227c-.24.47-.622.853-1.092 1.092l.227.446.227.445a3.5 3.5 0 0 0 1.53-1.529zm-1.31 1.31-.228-.445c-.238.122-.536.195-1.005.234-.475.039-1.082.039-1.93.039v1c.832 0 1.486 0 2.011-.043.532-.043.975-.133 1.378-.339zM14.7 16.5V16H7.914v1H14.7zm-7.493.293-.353-.354-1.939 1.939.354.353.353.354 1.939-1.939zM5.27 18.73l-.354-.353a.06.06 0 0 1 .054-.01.06.06 0 0 1 .031.046H4c0 .848 1.025 1.268 1.622.671zm-.769-.317H5V10.3H4v8.114zm0-8.114H5c0-.848 0-1.455.04-1.93.038-.47.111-.767.233-1.005l-.446-.227-.445-.227c-.206.403-.296.846-.34 1.378C4 8.814 4 9.468 4 10.299zm.327-3.162.446.227a2.5 2.5 0 0 1 1.092-1.092l-.227-.446-.227-.445A3.5 3.5 0 0 0 4.38 6.91zm1.31-1.31.228.445c.238-.122.536-.195 1.005-.234C7.845 6 8.452 6 9.3 6V5c-.832 0-1.486 0-2.011.043-.532.043-.975.133-1.378.339zM9.3 5.5V6h5.4V5H9.3zm-1.386 11V16a1.5 1.5 0 0 0-1.06.44l.353.353.354.353A.5.5 0 0 1 7.914 17z"/><path stroke="#09203f" stroke-linecap="round" stroke-linejoin="round" d="M8.5 9.5h7M8.5 12.5h5"/></svg>