<svg xmlns="http://www.w3.org/2000/svg" width="36" height="36" fill="none" viewBox="0 0 36 36"><path fill="#09203f" fill-rule="evenodd" d="M18 26.7c6.051 0 11.529-3.375 14.472-8.7C29.529 12.675 24.051 9.3 18 9.3S6.471 12.675 3.528 18c2.943 5.325 8.421 8.7 14.472 8.7m0-19.2c7.212 0 13.458 4.272 16.5 10.5-3.042 6.228-9.288 10.5-16.5 10.5S4.542 24.228 1.5 18C4.542 11.772 10.788 7.5 18 7.5m0 14.7a4.2 4.2 0 1 0 0-8.4 4.2 4.2 0 0 0 0 8.4m0 1.8a6 6 0 1 1 0-12 6 6 0 0 1 0 12" clip-rule="evenodd"/></svg>