<svg viewBox="0 0 123 117" fill="none" xmlns="http://www.w3.org/2000/svg">
<g filter="url(#filter0_i_2464_3917)">
<g clip-path="url(#clip0_2464_3917)">
<path d="M113.891 17.3553C113.747 16.7149 113.602 16.0739 113.458 15.4335C113.359 14.9931 113.251 14.5339 112.961 14.188C112.64 13.805 112.129 13.6032 111.856 13.1848C111.581 12.7651 111.606 12.2229 111.467 11.7411C111.224 10.8921 110.494 10.2786 109.753 9.79917C109.012 9.31917 108.576 9.09533 108.01 8.41833C107.977 7.77427 107.557 7.20707 107.059 6.79721C106.56 6.38735 105.977 6.09458 105.452 5.7201C104.282 4.88575 103.416 3.63239 103.051 2.2418C102.98 1.97344 102.924 1.69045 102.755 1.46966C102.426 1.04029 101.699 0.994549 101.357 1.41234C100.882 1.01773 100.13 1.00736 99.6447 1.38855C99.5245 1.48308 99.416 1.60628 99.3885 1.75632C99.3544 1.94234 99.4489 2.12471 99.5331 2.29427C100.051 3.33477 100.292 4.55274 100.205 5.71217C99.8216 5.14557 99.1885 4.78146 98.5261 4.61129C97.8632 4.44174 97.1679 4.45027 96.4854 4.50578C96.5415 5.71095 96.8373 6.90394 97.3502 7.99567C93.2077 10.8726 90.2857 15.9287 87.5027 20.1346C85.063 23.8215 82.266 27.2712 79.1628 30.4195C77.4941 32.1126 75.726 33.7276 73.72 35.0023C68.7157 38.1824 61.3651 38.5063 58.8248 43.8637C56.8402 48.0495 52.8715 51.2399 48.3576 52.2798C46.8524 52.6262 45.3038 52.7451 43.7864 53.0312C38.69 53.9912 33.9608 56.9407 31.01 61.2058C29.6561 63.1623 28.6747 65.3665 27.2201 67.2499C25.7661 69.1333 23.6582 70.7313 21.279 70.7429C19.8109 70.7502 18.4069 70.0628 17.2054 69.2193C16.8017 68.2874 15.788 67.6568 14.7737 67.7068C14.2699 67.7312 13.7607 67.9068 13.2703 67.7867C12.7952 67.6702 12.4311 67.2987 12.0944 66.9438C11.4638 66.279 10.8331 65.6142 10.2025 64.9494C9.82128 66.7004 10.2141 68.6058 11.2558 70.0634C10.4928 69.9909 9.72979 69.9183 8.9668 69.8457C9.96765 70.6392 11.0069 71.443 12.2328 71.8035C13.4588 72.164 14.8853 72.0176 15.7392 71.0673C16.948 71.7163 18.2203 72.2469 19.5322 72.6488C20.0762 72.816 20.6313 72.9611 21.1985 73.0081C22.7989 73.1398 24.3816 72.4683 25.6526 71.487C26.9237 70.5056 27.93 69.2303 28.9229 67.969C29.5261 67.203 30.2843 66.4235 30.8875 65.6575C30.9979 69.0174 30.8753 72.3853 30.5203 75.7282C30.4459 76.426 30.3593 77.1335 30.0891 77.7812C29.8104 78.4503 29.3499 79.0242 28.8955 79.5884C28.36 80.2532 27.5281 80.7106 27.0835 81.4388C26.6547 82.1414 26.0442 82.733 25.3282 83.1398C24.4487 83.6394 23.36 83.912 22.8074 84.7591C22.1475 85.7698 22.5531 87.0945 22.7733 88.282C23.3356 91.3108 22.5134 94.4066 21.698 97.3775C20.9966 99.9336 20.2952 102.49 19.5932 105.046C19.3151 106.059 19.0254 107.096 18.4069 107.945C17.7885 108.793 16.7596 109.425 15.7203 109.273C15.2854 109.208 14.8433 109.013 14.4218 109.138C13.7137 109.349 13.5515 110.272 13.5917 111.01C13.6875 112.765 14.2211 113.5 15.9777 113.58C17.0737 113.63 18.0142 112.856 18.8339 112.126C20.4684 110.672 22.5494 110.477 23.2905 108.419C23.7796 107.06 23.8095 105.586 24.0431 104.161C24.8018 99.5317 27.6672 95.4228 27.7812 90.7326C30.7185 97.0225 34.0523 104.155 33.4844 111.074C33.4076 112.009 33.307 113.057 33.9053 113.78C34.0675 113.977 34.2767 114.14 34.3883 114.369C34.6536 114.912 34.2981 115.661 34.689 116.122C34.8811 116.349 35.194 116.422 35.4843 116.483C36.3864 116.671 36.498 116.516 37.3982 116.321C38.2984 116.125 39.1602 115.437 39.2505 114.52C39.3127 113.888 39.012 113.286 38.7766 112.697C37.988 110.72 37.8855 108.549 37.486 106.459C36.8078 102.908 35.2715 99.5896 34.1108 96.1662C33.1032 93.1923 32.4592 89.6451 34.3328 87.125C35.4892 85.5697 37.361 84.7628 39.0267 83.7723C41.967 82.0237 44.4481 79.6134 46.1766 76.6608C49.7994 78.1362 54.4872 78.3935 58.3442 77.7415C57.3635 83.4064 55.5021 88.876 53.648 94.3182C53.1417 95.8039 52.63 97.3019 51.8365 98.6565C51.0522 99.9952 50.0086 101.166 49.1889 102.483C48.3753 103.791 47.7929 105.227 47.2147 106.654C46.0168 109.61 44.8153 112.578 44.0492 115.674C44.6152 116.183 45.2538 116.721 46.015 116.727C46.82 116.732 47.5172 116.113 47.8776 115.393C48.2381 114.673 48.3387 113.857 48.4942 113.066C49.2487 109.234 51.3706 105.833 53.4534 102.528C53.9529 101.735 54.4579 100.936 55.1105 100.264C55.557 99.8043 56.0675 99.4091 56.5066 98.9425C57.0067 98.4107 57.4068 97.7935 57.7776 97.1646C61.048 91.6157 62.4989 84.5585 66.9384 79.8921L70.1624 96.9567C70.3423 97.9099 70.5277 98.8773 70.9681 99.7415C71.3639 100.517 71.9488 101.175 72.4782 101.866C75.038 105.202 74.7898 105.387 75.8693 109.452C76.3243 111.164 76.8683 113.012 78.298 114.06C78.5437 114.24 78.8164 114.396 79.0006 114.64C79.1756 114.871 79.2622 115.173 79.4867 115.357C79.7032 115.535 80.0014 115.566 80.2808 115.583C81.4908 115.653 82.7094 115.575 83.9012 115.354C83.5578 114.037 83.1449 112.615 82.0446 111.815C81.6738 111.545 81.2365 111.358 80.9285 111.018C80.6674 110.73 80.5229 110.358 80.3844 109.995C78.8182 105.881 78.8835 105.092 77.5935 101.005C77.5825 101.011 77.5703 101.016 77.5545 101.016C77.3983 101.015 77.3239 100.827 77.2904 100.675C76.406 96.7005 75.3112 92.7697 74.6294 88.7559C73.9475 84.7421 74.311 80.8027 74.3952 76.7322C74.4385 74.6219 75.7095 72.7665 76.8232 70.9734C77.9369 69.1803 78.9713 67.0932 78.4846 65.039C78.251 64.054 77.6856 63.1837 77.316 62.2414C76.9086 61.2009 76.7421 60.2086 76.8092 59.093C76.8878 57.7891 77.6417 56.637 78.3534 55.5416C80.6272 52.0444 82.7198 48.43 84.6215 44.7175C85.2173 43.5538 85.7955 42.3785 86.4805 41.2655C87.7631 39.179 89.1214 37.3291 90.4442 35.2683C93.9646 29.7834 95.4278 23.1494 99.1415 17.7932C99.8612 16.7552 100.905 15.5 102.144 15.2505C103.41 15.9537 104.859 16.3233 106.307 16.313C107.492 16.3044 108.838 16.0964 109.72 16.8881C110.122 17.2498 110.356 17.7731 110.772 18.1189C111.189 18.4641 112.029 18.5635 112.247 18.0683C112.603 18.5025 113.189 18.9709 113.659 18.6617C114.051 18.3976 113.994 17.814 113.891 17.3553Z" fill="#09203F"/>
</g>
</g>
<defs>
<filter id="filter0_i_2464_3917" x="0" y="0.595703" width="123" height="115.809" filterUnits="userSpaceOnUse" color-interpolation-filters="sRGB">
<feFlood flood-opacity="0" result="BackgroundImageFix"/>
<feBlend mode="normal" in="SourceGraphic" in2="BackgroundImageFix" result="shape"/>
<feColorMatrix in="SourceAlpha" type="matrix" values="0 0 0 0 0 0 0 0 0 0 0 0 0 0 0 0 0 0 127 0" result="hardAlpha"/>
<feOffset/>
<feGaussianBlur stdDeviation="2"/>
<feComposite in2="hardAlpha" operator="arithmetic" k2="-1" k3="1"/>
<feColorMatrix type="matrix" values="0 0 0 0 0 0 0 0 0 0 0 0 0 0 0 0 0 0 0.25 0"/>
<feBlend mode="normal" in2="shape" result="effect1_innerShadow_2464_3917"/>
</filter>
<clipPath id="clip0_2464_3917">
<rect width="105" height="115.809" fill="white" transform="translate(9 0.595703)"/>
</clipPath>
</defs>
</svg>
