<svg viewBox="0 0 97 133" fill="none" xmlns="http://www.w3.org/2000/svg">
<g filter="url(#filter0_i_2464_4245)">
<g clip-path="url(#clip0_2464_4245)">
<g clip-path="url(#clip1_2464_4245)">
<path d="M69.9905 111.992C69.3724 110.419 68.3046 107.44 67.7426 104.686C67.1244 101.933 68.2484 97.8863 67.5178 96.088C67.4054 95.7508 67.2368 95.4698 67.012 95.1326C66.9558 94.5706 67.0682 94.0086 67.293 93.4467C67.7426 94.4582 67.9674 95.526 67.9674 96.7062C70.9459 92.3227 69.5972 90.6367 67.6302 87.3772C65.7757 84.3425 66.5062 80.1838 66.1129 76.4747C65.8881 74.3392 65.2699 72.3723 64.3145 70.6301C63.6401 68.326 62.2914 66.2466 60.0434 65.3475C56.8401 64.0549 53.5806 62.8185 50.3773 61.526C47.6236 60.402 44.3079 59.5028 42.3971 57.0863C41.3856 55.8499 40.093 54.726 39.7558 53.1524C39.3062 51.0169 38.9128 49.0499 39.4186 46.9706C39.9806 44.6103 40.1492 42.1937 40.655 39.8334C41.3294 36.6301 42.1723 33.3706 43.6897 30.5045C44.3079 29.3243 44.7575 28.3127 45.769 27.4135C47.0054 26.2896 48.3542 25.3342 49.8153 24.4912C50.0963 24.3226 50.3773 24.154 50.7145 24.154C51.3889 24.0416 52.0632 24.4912 52.7376 24.435C53.8054 24.3226 54.4236 23.0863 55.4914 22.8615C55.3228 21.8499 54.8732 20.8945 54.1988 20.1078C53.974 19.883 53.7492 19.6582 53.412 19.4896C52.9062 19.2648 52.4566 19.4334 51.9509 19.2648C51.2203 19.0962 50.4897 18.5342 49.8153 18.197C49.2533 17.916 48.6913 17.635 48.0732 17.4102C46.612 16.9606 45.1508 16.9044 43.6897 16.3425C42.9029 16.0053 42.1161 15.3309 42.1161 14.4879C42.1161 14.2069 42.2285 13.8697 42.0599 13.6449C41.9475 13.4763 41.7789 13.4201 41.6103 13.3639C41.0484 13.1953 40.374 13.4201 40.0368 13.9259C39.8682 14.1507 39.812 14.3755 39.812 14.6565C39.8682 14.8251 39.9244 14.9937 40.0368 15.1623C40.8236 16.4549 41.7227 20.9507 39.0814 18.8152C38.5194 18.3656 35.8781 16.1177 35.5409 17.7474C35.4847 19.321 36.1591 20.5011 37.5079 21.2879C38.0698 21.6251 39.25 21.7937 39.3062 22.5805C39.3062 23.0863 38.407 23.6483 38.126 23.9854C37.3393 24.997 36.7773 26.402 36.2153 27.5821C34.8665 30.2797 33.6302 32.9772 32.3938 35.7309C31.7756 37.1359 31.1574 38.5408 30.7079 39.9458C29.9773 42.1937 29.4715 44.4417 29.0219 46.7458C28.1227 51.1293 27.1112 55.7937 27.1674 60.5144C27.1674 62.5937 27.4484 64.6731 27.2236 66.7524C27.055 68.4946 26.774 70.1805 27.2798 71.9227C28.1227 74.6764 31.326 79.5657 31.7194 81.4764C32.0566 83.3871 33.6302 87.2086 33.4054 90.5805C33.1806 93.9524 32.3938 96.4252 33.4054 98.7293C34.4732 100.977 33.9674 100.865 33.9674 103.506C33.9674 106.147 34.0798 109.351 33.012 111.262C31.9442 113.172 33.1244 114.015 32.6748 115.814C32.169 117.612 30.5393 119.748 30.5393 119.748H36.4963C36.4963 119.748 36.7211 117.612 36.4963 116.263C36.2715 114.971 37.9575 114.128 37.9575 111.711C37.9575 109.295 36.2715 106.709 36.7773 103.338C37.2831 99.9657 37.9575 97.212 37.9575 95.3012C37.9575 93.3905 36.8897 90.9739 37.2269 89.3442C37.5641 87.6582 39.25 80.6334 39.25 80.6334C39.25 80.6334 44.6451 83.8367 51.2203 81.4202C53.0186 85.9723 60.212 92.7723 61.055 94.964C61.898 97.0996 61.2798 97.8301 62.9657 99.5161C64.6517 101.202 65.3823 105.642 65.7195 108.508C66.0567 111.374 65.1013 113.678 65.7195 115.926C66.3376 118.174 64.7641 117.949 64.1459 119.748C67.9674 119.86 69.9905 119.748 69.9905 119.748C69.9905 119.748 69.0352 117.837 68.417 116.376C67.855 114.971 70.6087 113.509 69.9905 111.992ZM66.0005 93.8962C65.2699 93.0533 64.5393 92.0979 64.0335 90.5805C63.0781 87.7144 63.3029 82.0946 64.3707 78.9475C64.5955 78.3855 64.7079 77.5987 64.8203 76.6995C65.2699 78.7789 65.1575 81.2516 65.1575 83.2747C65.1575 84.7359 65.2137 85.6351 65.9443 86.8714C66.5062 87.8268 67.5178 88.5574 67.1806 89.9062C67.012 90.5243 66.5624 91.1425 66.2814 91.7607C66.0005 92.4913 65.8881 93.2219 66.0005 93.8962Z" fill="#09203F"/>
</g>
</g>
</g>
<defs>
<filter id="filter0_i_2464_4245" x="0.248047" y="0.328125" width="96.5039" height="132.342" filterUnits="userSpaceOnUse" color-interpolation-filters="sRGB">
<feFlood flood-opacity="0" result="BackgroundImageFix"/>
<feBlend mode="normal" in="SourceGraphic" in2="BackgroundImageFix" result="shape"/>
<feColorMatrix in="SourceAlpha" type="matrix" values="0 0 0 0 0 0 0 0 0 0 0 0 0 0 0 0 0 0 127 0" result="hardAlpha"/>
<feOffset/>
<feGaussianBlur stdDeviation="0.643357"/>
<feComposite in2="hardAlpha" operator="arithmetic" k2="-1" k3="1"/>
<feColorMatrix type="matrix" values="0 0 0 0 0 0 0 0 0 0 0 0 0 0 0 0 0 0 0.25 0"/>
<feBlend mode="normal" in2="shape" result="effect1_innerShadow_2464_4245"/>
</filter>
<clipPath id="clip0_2464_4245">
<rect width="42.9987" height="106.608" fill="white" transform="translate(27 13.1953)"/>
</clipPath>
<clipPath id="clip1_2464_4245">
<rect width="43.1042" height="106.608" fill="white" transform="translate(27 13.1953)"/>
</clipPath>
</defs>
</svg>
