<svg width="410" height="379" viewBox="0 0 410 379" fill="none" xmlns="http://www.w3.org/2000/svg">
<g clip-path="url(#clip0_3162_5268)">
<path d="M0 0H410V399H0V0Z" fill="#F6F2EF"/>
<path d="M200.558 21.6837C216.119 18.1675 233.156 17.5224 247.928 24.6033C258.424 29.6348 267.103 39.4635 273.203 49.031C276.152 53.6573 279.014 58.146 281.034 63.2754C287.075 62.1267 313.156 61.077 317.931 64.366C319.032 65.1238 319.696 66.2238 319.865 67.5249C320.097 69.3001 319.279 70.9343 318.157 72.2817C312.445 79.1411 298.525 84.1632 290.509 88.2561C290.573 91.9258 290.793 95.2971 291.593 98.9032C298.849 96.7824 304.808 92.3408 312.065 90.1015C322.796 86.7899 333.868 89.0085 345.144 88.0145C341.35 100.099 330.037 118.575 318.382 124.65C315.509 126.147 312.531 126.832 309.294 127.099C317.702 139.835 333.858 155.22 346.01 164.954C349.28 167.574 352.69 169.613 355.951 172C366.75 172.225 369.461 176.137 371.121 185.9C377.935 192.973 376.884 197.302 378.754 206.446C379.751 211.322 383.161 214.953 377.743 219.561C374.056 222.632 369.496 222.554 364.993 221.872C364.744 221.834 361.552 222.891 360.636 222.95C341.858 224.179 338.56 221.455 330.85 205.517C318.508 199.921 304.509 199.834 291.181 200.612C285.118 200.966 278.831 201.515 272.765 200.939C266.63 200.357 261.152 198.372 255.265 196.826C249.71 195.368 243.9 194.529 238.153 194.296C235.42 194.185 232.209 194.161 229.617 195.141C222.112 197.98 205.71 222.652 201.532 230.195C197.535 237.414 194.089 245.165 190.881 252.748C181.128 275.803 173.681 299.768 166.528 323.682C162.04 338.688 157.74 353.747 154.032 368.956C153.183 372.439 152.191 375.919 151.441 379.421C149.769 379.413 148.235 379.387 146.565 379.306C151.414 359.642 157.038 339.483 163.359 320.241C175.895 282.077 188.991 242.284 212.809 209.189C212.883 207.13 213.205 205.043 213.252 202.999C213.367 197.955 213.689 192.517 213.59 187.496C213.393 177.499 212.626 167.512 213.488 157.507C213.693 155.126 213.817 152.167 214.38 149.853C214.697 152.453 214.701 154.745 214.881 157.348C215.593 167.663 216.843 177.576 225.769 184.421C228.371 186.418 232.399 188.258 235.536 189.226C241.804 191.159 248.743 192.529 255.188 193.989C260.696 195.237 268.136 197.586 273.535 198.018C282.066 198.699 291.098 197.515 299.815 197.734C309.41 197.976 318.656 199.359 328.115 199.826C327.258 197.738 326.894 197.258 325.335 195.578C325.516 194.893 325.815 194.129 325.615 193.487C322.672 191.642 304.736 189.33 299.869 188.1C309.836 188.1 317.371 188.713 327.082 191.139C327.912 189.869 328.843 188.82 329.61 187.651C327.896 183.386 319.079 176.41 314.812 174.565C308.109 171.666 299.955 170.483 293.22 168.008C297.568 168.648 305.789 169.649 309.564 171.278L310.143 170.77C304.24 167.236 300.048 165.841 294.17 162.956C301.833 164.241 308.515 167.07 314.786 171.552C310.372 164.482 306.313 157.035 301.58 150.257C302.858 151.394 304.494 152.801 305.557 154.109C309.262 158.671 312.133 164.01 315.641 168.743C316.312 169.649 317.74 172.228 318.44 172.93C322.576 177.08 328.425 181.146 331.698 185.92C332.794 187.519 329.855 190.905 329.169 192.336C328.899 192.901 328.499 194.103 328.242 194.793C334.527 197.369 337.667 199.378 343.329 203.117C350.921 208.133 359.295 216.458 368.142 218.948C370.561 219.464 373.235 219.328 375.325 217.935C379.983 214.832 377.098 211.407 376.274 207.372C374.768 199.999 375.918 194.558 370.841 188.37C370.798 189.426 370.856 190.179 370.317 191.088C369.117 190.417 368.269 179.86 365.149 177.301C361.838 174.585 358.868 174.523 354.698 174.333C361.922 177.96 365.164 184.072 367.093 191.426C366.689 190.697 366.082 189.629 365.579 188.939C361.419 183.258 357.398 176.217 349.757 174.705C342.705 173.31 340.138 179.682 344.212 184.673C347.592 188.812 352.89 190.856 358.138 191.569C351.722 192.215 345.334 190.382 341.748 184.782C338.488 179.692 340.102 172.838 347.135 172.685C348.687 172.651 352.249 173.309 353.475 172.644L353.462 172.311C352.199 171.071 348.408 169.291 346.596 167.927C327.29 153.396 310.258 136.238 297.745 115.726C295.335 111.777 291.353 108.64 289.997 104.051C288.246 98.5019 287.671 93.1403 287.629 87.3778C287.6 85.6938 287.673 82.7687 287.441 81.212L287.207 81.1322C286.306 82.7698 287.029 91.3398 286.697 92.2395C285.977 90.633 285.901 83.9478 285.319 82.1686C284.761 82.1682 285.032 82.1121 284.53 82.4745C283.62 85.3493 285.684 92.5664 286.511 95.5133L286.372 95.6049C284.424 92.0228 283.525 87.8123 282.541 83.8761C282.132 84.2229 281.615 84.7575 281.22 85.1444C282.348 90.5098 283.207 92.7998 285.138 97.8582C282.646 94.0463 281.418 90.2538 279.976 85.9965L279.696 85.9166C279.554 86.0624 278.922 86.7049 278.955 86.9157C279.306 89.1718 281.067 93.0511 281.298 95.1798C280.34 94.6982 278.615 88.7046 277.382 87.6233L277.116 87.7581C276.924 89.1722 279.9 97.1861 280.804 97.9981C284.655 101.459 288.084 104.327 291.42 108.335C284.133 104.7 278.343 97.0068 270.442 93.9711C271.199 102.422 271.976 105.073 276.381 112.379C269.727 107.364 268.893 100.937 267.806 93.3102C267.335 90.0033 266.799 86.71 266.622 83.368L264.004 84.5186C264.276 85.7487 264.423 86.9812 264.593 88.228L264.054 88.8628C263.685 88.8441 263.826 88.9142 263.604 88.7151C263.208 87.4791 262.964 86.2506 262.688 84.985C261.914 85.324 261.72 85.2437 261.387 85.8122C261.607 87.6701 262.763 92.6934 262.563 94.0248C262.331 93.7166 260.79 87.4043 259.999 86.0678L259.462 86.0507C258.557 86.9784 259.044 88.4513 259.254 89.6273L258.552 89.842C258.357 89.1913 257.967 87.6533 257.617 87.1635C257.029 86.9527 257.306 86.9266 256.763 87.1444C256.009 88.5308 257.343 92.5002 257.566 94.5271L257.155 95.0309C256.544 92.3685 256.073 90.4787 254.986 87.9576C254.338 88.3788 253.841 88.5982 253.494 89.2649C253.561 90.8558 254.119 92.1592 254.434 93.6586C255.016 96.4317 255.415 99.7835 255.117 102.577C254.591 107.494 251.66 112.526 248.532 116.311C245.113 120.448 239.784 124.452 239.798 130.294C239.798 130.579 239.817 130.467 239.714 130.717C237.812 126.256 241.739 120.948 244.635 117.822C247.206 115.047 250.729 110.981 252.077 107.517C253.703 103.338 253.174 95.6454 251.569 91.5588L250.162 92.9673C250.798 97.845 251.412 103.136 251.045 108.062C250.535 105.394 250.324 102.737 249.957 100.048C249.681 98.0297 249.196 95.9707 248.942 93.9617L247.19 95.5717C248.458 100.434 248.696 107.23 248.05 112.137C247.527 106.038 247.307 102.717 245.906 96.6507L244.162 98.256C244.751 103.023 245.982 111.464 244.143 115.884C244.594 108.995 243.759 105.828 242.956 99.197L240.821 100.381C241.105 106.77 241.336 110.339 239.953 116.718L239.945 116.513C239.87 113.879 240.102 111.52 239.955 108.716C239.825 106.227 239.257 103.412 239.187 101.136L236.828 102.23C236.86 107.246 236.699 110.937 235.553 115.929C235.554 116.482 235.623 116.801 235.297 117.244C234.509 117.479 233.555 117.133 232.663 116.977C231.863 116.9 230.913 116.636 230.408 117L230.085 117.789L229.884 117.766L229.948 116.779C229.454 116.437 229.349 116.462 228.798 116.24C219.557 112.528 218.502 106.122 218.569 97.3976C217.643 97.7066 216.704 98.0117 215.784 98.3344C216.365 106.086 217.266 113.531 218.724 121.159C218.939 122.286 218.82 125.636 218.223 126.581C217.344 126.252 216.58 121.846 216.43 120.77C213.859 121.127 210.957 121.29 208.753 119.627C205.627 117.267 206.415 112.675 205.36 109.31C204.659 107.076 203.788 105.547 202.54 103.565C199.325 104.912 196.489 106.734 193.518 108.511C193.662 112.212 196.033 119.225 198.406 122.193C202.909 127.827 211.86 131.847 218.818 133.446C215.417 135.481 210.459 135.785 206.577 135.639C208.365 136.601 211.076 138.192 212.502 139.648C218.128 138.686 221.195 136.924 224.744 132.701C222.444 137.628 217.523 140.188 212.358 141.506C212.529 145.413 212.626 149.239 211.45 153.043C206.636 168.54 200.159 183.822 195.13 199.214C191.034 211.75 195.634 218.206 182.26 203.267C174.245 194.313 183.504 190.859 190.106 185.808C191.875 184.454 194.518 182.615 196.491 181.615C196.202 185.728 195.611 191.054 195.598 195.061C197.642 188.268 199.576 182.041 201.752 175.299C205.06 165.052 210.658 153.376 210.377 142.791C203.519 139.76 201.2 136.935 198.787 129.818C196.65 134.23 195.032 138.842 192.578 143.069C191.569 144.807 183.706 152.012 182.738 147.315C182.084 144.147 186.575 138.16 188.305 135.513C190.492 132.274 194.545 129.099 197.664 126.817C196.533 125.399 195.442 124.024 194.247 122.652C187.695 131.716 180.413 139.686 174.059 149.16C159.21 171.299 147.68 194.225 135.374 217.702L92.2905 300.42C81.8812 320.248 71.5443 340.301 59.9886 359.522C56.5276 365.279 51.8803 373.54 48.0241 379.006C46.5071 379.115 45.2282 379.163 43.7059 379.181C45.9918 375.73 48.7092 371.908 50.8797 368.491C48.7108 369.474 47.9421 369.607 45.6959 370.28C43.7904 372.696 40.4632 376.681 38.834 379.193C37.3827 379.248 35.9174 379.319 34.4664 379.306C36.6234 376.56 38.5587 374.424 40.7971 371.802C38.7871 372.189 28.7068 373.212 27.9023 370.926C28.8476 370.126 30.0827 369.933 31.0937 369.309C38.1825 364.933 42.3374 356.38 46.1639 349.371C48.0137 345.983 49.8447 342.386 51.2465 338.953C47.6638 339.999 45.2026 340.95 41.4509 340.187C45.2214 338.06 50.6763 332.514 52.6663 328.892C50.8088 328.577 49.4599 328.328 47.5645 328.239L47.2005 328.22C49.5496 326.048 52.171 323.818 54.6806 321.827C52.3403 320.768 49.4768 319.586 47.5817 317.881C54.7335 315.743 61.3828 309.81 65.8395 304.087C63.287 304.118 60.2913 304.487 57.7092 304.747C61.239 298.325 66.7408 292.899 72.8023 288.714C69.2084 289.497 67.1088 289.439 63.4055 289.343C72.2217 283.378 77.1309 281.104 83.1548 271.604C84.6202 269.293 86.84 265.373 88.3174 263.242C87.2604 263.673 86.1537 264.143 85.0907 264.544C87.1863 261.804 89.893 258.949 91.7544 256.255L90.0015 255.095C92.0687 253.689 94.8598 251.859 97.072 250.681C94.3353 251.039 93.3111 250.927 90.546 250.538C93.4657 247.918 96.5731 246.298 99.9884 244.395C97.6081 244.63 92.6533 245.253 90.4555 245.239C94.6408 241.8 99.8743 239.701 103.943 235.659C109.024 230.612 113.231 225.057 117.279 219.204C118.07 218.084 118.963 215.653 119.787 214.273C121.782 210.929 123.778 207.471 125.495 203.991C129.361 196.154 132.802 188.977 137.205 181.398C134.137 182.867 133.233 183.47 129.797 183.917C132.946 181.379 134.888 179.306 137.691 176.414C135.718 177.088 133.234 177.867 131.341 178.61C135.824 174.009 140.83 168.722 145.924 164.814C146.786 164.153 149.244 163.005 149.229 162.159C148.035 162.172 144.46 163.632 143.332 164.165C145.397 161.992 147.286 159.696 149.496 157.658C154.774 152.792 160.484 148.387 165.427 143.177C168.012 140.453 170.409 137.584 172.873 134.756C167.674 136.057 151.585 140.094 146.7 137.041C139.384 132.468 150.194 124.18 154.657 121.689C152.835 118.023 150.735 114.16 149.119 110.425C143.221 96.7933 140.429 80.1163 145.639 65.8716C151.511 49.8146 166.462 37.7284 181.535 29.9077C181.76 29.7909 182.082 29.6941 182.324 29.6176C182.904 27.3911 183.481 26.2655 185.276 24.6804C188.515 21.8194 196.872 18.028 200.558 21.6837Z" fill="#14253E"/>
<path d="M233.306 103.575L235.446 102.872C235.543 106.932 235.63 110.062 235.389 114.109L235.554 115.929C235.555 116.482 235.624 116.801 235.297 117.244C234.51 117.479 233.556 117.133 232.664 116.977L232.358 116.55C231.726 116.327 230.62 116.036 230.889 115.236C232.146 111.503 232.955 107.488 233.306 103.575Z" fill="#F6F2EF"/>
<path d="M235.386 114.109L235.552 115.929C235.552 116.482 235.621 116.801 235.295 117.244C234.508 117.479 233.553 117.133 232.662 116.977L232.355 116.55C233.318 116.649 234.271 116.893 235.217 117.103C235.21 115.885 235.229 115.338 235.386 114.109Z" fill="#808282"/>
<path d="M310.138 170.77C311.035 171.273 311.892 171.761 312.775 172.292C311.681 171.962 310.642 171.642 309.559 171.278L310.138 170.77Z" fill="#F6F2EF"/>
<path d="M201.09 25.1671C203.898 24.7472 211.738 28.724 213.975 30.3541C227.956 40.5409 238.013 58.1043 245.076 73.243C242.999 74.1037 240.911 74.9531 238.821 75.7839C230.9 78.9326 223.39 82.7278 215.781 86.5191C209.743 89.4901 203.676 92.8606 197.811 96.1621C196.618 93.6414 195.042 91.27 193.783 88.5811C186.163 72.3 176.674 49.8387 184.903 32.3614C186.355 29.2787 197.878 25.8757 201.09 25.1671Z" fill="#FDDC68"/>
<path d="M186.5 32.6772C186.602 33.3193 185.472 38.7941 185.359 40.1295C184.201 53.9031 188.769 67.3729 193.814 80.0392C194.835 82.6011 197.278 87.3903 197.907 89.8003L197.627 89.5135C189.139 75.8926 182.371 56.5263 184.232 40.4766C184.525 37.9514 185.569 35.0582 186.5 32.6772Z" fill="url(#paint0_linear_3162_5268)"/>
<path d="M182.53 32.8955L182.727 33.0842C182.195 34.3658 181.389 36.1743 181.02 37.5086C176.686 54.0302 183.243 72.0441 190.808 86.7603C192.638 90.3209 195.356 93.2098 197.079 96.565C195.811 97.3026 194.529 98.02 193.232 98.7093C182.52 104.404 172.131 110.583 161.781 116.881C160.455 117.749 159.055 118.817 157.765 119.758C156.02 115.989 153.763 112.541 152.144 108.489C147.721 97.4145 145.056 83.3419 148.038 71.6942C152.959 52.4751 166.316 42.6116 182.53 32.8955Z" fill="#FDDC68"/>
<path d="M150.015 89.7666C149.018 83.3538 149.444 75.3913 151.136 69.1499C153.703 59.6776 159.617 52.4761 166.794 45.8907C168.015 44.7704 170.808 42.3519 172.196 41.5815L172.273 41.7105C157.276 55.603 150.333 67.342 150.368 87.8422C150.3 88.4905 150.3 89.2196 150.015 89.7666Z" fill="url(#paint1_linear_3162_5268)"/>
<path d="M150.364 87.8423C150.584 89.9678 150.873 92.9428 150.941 95.0539C150.469 93.4178 150.158 91.4606 150.012 89.7668C150.297 89.2197 150.297 88.4907 150.364 87.8423Z" fill="#0E0E0E"/>
<path d="M212.441 22.9347C225.155 20.963 241.24 23.4698 251.739 30.9246C261.763 38.0415 272.912 52.5881 277.16 63.9701L274.405 64.6111L273.818 64.6902C266.439 66.1206 252.888 69.9512 245.96 72.8381C238.991 56.3548 224.322 27.8828 204.398 24.1084C205.884 23.885 207.334 23.6762 208.825 23.491C211.504 24.6208 213.511 25.4148 216.053 26.9465C228.292 34.3193 236.259 46.9487 243.163 58.868C244.748 61.6041 245.901 64.306 247.349 66.9754C247.409 66.2651 246.151 63.4429 245.79 62.6371C241.341 52.6835 236.187 43.1017 228.832 34.8691C223.699 29.1231 219.408 26.0674 212.441 22.9347Z" fill="#FDDC68"/>
<path d="M273.819 64.6902C271.105 60.4267 269.112 55.8876 266.57 51.5446C263.941 47.0524 261.052 42.7304 257.696 38.7215C257.098 38.0066 256.306 37.1965 255.809 36.4307C265.08 44.5851 269.916 53.5143 274.406 64.6111L273.819 64.6902Z" fill="url(#paint2_linear_3162_5268)"/>
<path d="M294.406 65.1553C300.289 64.6113 309.923 65.2468 315.528 66.7333C313.003 66.9469 310.528 67.1733 308.024 67.5664C292.856 69.962 278.823 76.0315 264.319 80.6656C250.38 85.1193 236.149 88.6332 222.1 92.6871C200.268 98.9865 181.022 111.704 162.129 123.683C158.307 126.107 154.431 128.58 151.018 131.539C150.31 132.263 149.366 133.465 148.434 133.564C148.177 133.145 148.12 133.014 148.204 132.499C149.263 125.97 194.382 101.117 202.377 97.5171C205.927 95.9188 209.646 94.6575 213.297 93.2972C216.965 91.9311 220.59 90.4653 224.209 88.9823C227.147 87.7787 230.11 86.6268 232.837 85.0016C228.319 85.2253 222.829 86.7687 218.449 87.8188C219.872 87.2117 221.623 86.5446 222.969 85.8592C239.9 77.2363 258.073 70.0434 276.952 66.7688C282.468 65.8118 288.734 65.444 294.406 65.1553Z" fill="#FDDC68"/>
<path d="M98.0703 281.545L98.2593 281.796C90.7119 295.405 83.7431 309.609 76.4288 323.372C74.8657 326.313 73.1636 329.167 71.5696 332.094C65.6559 332.741 53.1341 335.184 48.0703 337.788C51.1389 335.244 53.9468 332.059 56.6026 329.229C57.1091 328.69 62.4087 328.847 64.0607 328.478C68.0002 327.597 71.6301 326.392 75.4426 324.926C69.9092 325.82 64.3138 326.962 58.6967 326.667C56.7308 326.563 54.7508 326.517 52.7825 326.507C53.6614 325.755 57.6997 322.212 58.5213 322.133C59.5847 321.833 60.1705 321.48 61.1391 320.979C59.628 320.177 55.538 318.74 53.8347 318.141C59.6416 315.18 64.9596 311.575 70.7677 308.634C72.3316 307.843 73.9612 307.164 75.5555 306.428C71.0804 307.095 68.6512 308.201 64.4699 309.871C66.182 308.176 67.7771 306.168 69.4163 304.36C72.2495 304.021 77.1987 303.032 79.6039 301.601C77.2512 302.055 74.4613 302.422 72.0689 302.268C68.9735 302.068 67.2955 301.721 64.1808 301.996C67.038 300.816 72.8585 297.582 76.0212 296.069C71.0407 296.952 69.4115 297.81 64.7482 299.316C67.8973 295.546 72.1118 292.467 76.5737 290.303C83.6346 286.879 90.6106 284.049 98.0703 281.545Z" fill="#F6F2EF"/>
<path d="M181.891 132.092L182.036 132.107L182.082 132.377C180.578 134.699 178.866 136.923 177.204 139.143C170.729 147.793 165.311 156.727 159.824 165.985L151.745 179.467C146.792 187.87 142.492 197.458 137.533 205.772C137.16 206.396 124.891 213.421 123.105 214.349C126.221 207.888 130.144 201.553 133.121 194.963C134.761 191.333 136.653 187.42 138.554 183.924C139.076 182.892 139.96 181.036 140.677 180.233C143.113 177.508 148.705 175.505 152.225 173.993C147.384 174.716 143.788 175.873 139.192 177.38C142.905 174.876 145.685 173.097 150.028 171.568C151.249 171.138 154.674 170.342 155.301 169.516L155.154 169.361C151.518 169.192 143.234 172.315 139.601 173.494C143.493 170.654 147.523 166.919 151.485 163.999C152.632 163.154 154.024 161.805 155.16 161.046C157.127 159.731 159.344 158.937 161.343 157.541L161.578 157.374C158.114 158.426 154.12 159.111 150.536 159.984C151.128 159.404 151.74 158.907 152.397 158.402C159.319 153.079 165.796 147.288 171.363 140.606C173.341 138.23 175.449 135.891 177.531 133.59C179.135 133.1 180.343 132.714 181.891 132.092Z" fill="#F6F2EF"/>
<path d="M118.343 242.424L118.437 242.681C112.871 252.907 107.69 263.302 102.282 273.606C101.276 275.523 100.332 277.958 99.1268 279.723C95.9997 280.869 92.2953 281.749 89.0962 282.801C82.4157 284.998 78.0102 286.576 70.8984 287.443C74.2373 285.288 78.4198 282.321 81.0195 279.437C85.8747 274.202 88.096 267.935 91.9858 262.42C93.4192 260.387 101.931 257.258 104.734 254.425L90.7778 259.867C96.8345 250.556 108.53 247.298 118.343 242.424Z" fill="#F6F2EF"/>
<path d="M339.65 94.3315L340.002 94.3896C339.97 94.7302 336.504 101.438 336.01 102.282C329.738 113.012 321.532 123.097 308.781 126.193C307.897 125.132 306.917 123.679 306.099 122.532L302.91 117.74C304.886 117.197 308.641 115.892 309.697 114.034C310.12 113.29 308.928 110.925 308.556 110.018C311.708 108.081 314.623 106.56 317.016 103.736C317.303 102.226 317.302 101.426 317.329 99.8755C324.434 96.6636 332.298 95.9513 339.65 94.3315Z" fill="#F6F2EF"/>
<path d="M70.3908 333.976C70.6034 335.101 53.8543 363.161 51.7242 366.506C49.6257 366.799 47.8068 367.505 45.7844 368.075C42.1124 369.111 38.2339 370.154 34.4219 370.443C34.5894 369.976 36.2259 368.709 36.7268 368.25C38.2823 366.827 40.8284 364.317 41.9475 362.602C47.0308 354.814 51.13 346.337 54.5886 337.788C59.5306 336.608 65.6254 335.287 70.3908 333.976Z" fill="#F6F2EF"/>
<path d="M136.917 207.487C136.885 207.81 120.845 238.223 119.384 240.778C112.43 242.918 103.514 247.726 96.8828 248.863C98.0892 248.103 99.5854 247.452 100.716 246.593C105.079 243.279 109.367 240.483 114.076 237.651C116.623 236.115 117.708 235.28 119.936 233.306C114.219 236.31 105.948 240.086 99.9446 242.553C101.788 240.929 103.951 239.498 105.711 237.873C110.822 233.038 115.262 227.2 119.168 221.413C121.717 217.636 124.409 216.25 128.11 213.625C131.024 211.557 133.891 209.419 136.917 207.487Z" fill="#F6F2EF"/>
<path d="M190.12 120.617L190.593 120.577L190.709 120.848C187.616 126.105 186.538 127.536 180.485 129.396C172.042 131.991 162.188 134.906 153.297 134.828C152.733 134.736 152.947 134.87 152.621 134.435C153.028 132.501 166.266 123.765 168.454 123.774C176.273 123.805 182.465 122.544 190.12 120.617Z" fill="#FDDC68"/>
<path d="M341.255 90.2899L341.634 90.2798L341.793 90.4921C341.557 91.4709 340.788 93.012 340.343 93.9807C335.315 94.4888 329.673 94.0457 324.609 93.771C321.005 93.6495 317.116 92.5179 313.535 93.2988C305.88 94.9676 305.459 102.696 299.656 106.474C298.611 107.155 296.207 108.455 294.947 108.261C293.81 106.022 292.836 103.383 292.035 101.009C300.423 98.7406 304.394 95.39 311.737 92.6329C319.245 89.8134 332.545 90.8452 341.255 90.2899Z" fill="#F6F2EF"/>
<path d="M312.954 69.4346C313.894 69.2729 315.926 69.112 316.786 69.5262C318.109 72.7825 297.089 82.542 294.425 83.7141L291.059 85.1503C291.092 81.7335 291.293 78.4842 291.275 74.9984C297.598 72.6917 306.321 70.1481 312.954 69.4346Z" fill="#FDDC68"/>
<path d="M329.203 197.089C330.514 197.537 332.506 199.191 333.804 199.971C343.175 205.602 350.783 214.075 359.921 219.834C353.603 219.45 349.699 218.194 344.82 214.279C342.618 212.538 341.787 211.107 340.03 209.593C342.695 214.845 345.928 218.333 351.516 220.62C349.167 220.255 346.777 219.891 344.571 218.976C338.628 216.514 335.726 209.46 333.234 204.126C331.803 201.062 331.387 199.731 329.203 197.089Z" fill="#F6F2EF"/>
<path d="M243.797 89.6621L243.943 89.7591C243.489 90.4059 241.359 92.3055 240.661 92.9706C234.374 98.9634 229.638 99.8869 221.76 102.134C221.531 100.313 221.365 98.2418 221.18 96.3999C229.017 94.1072 235.79 91.7639 243.797 89.6621Z" fill="#F6F2EF"/>
<path d="M215.868 187.327C216.638 187.739 218.55 189.313 219.335 189.931C220.715 195.734 219.119 200.227 215.729 204.896L213.863 207.829C214.662 203.368 215.129 198.773 215.448 194.257C215.616 191.886 215.611 189.72 215.868 187.327Z" fill="#F6F2EF"/>
<path d="M229.36 105.423C229.806 104.695 230.504 104.647 231.443 104.385C231.555 107.55 231.194 112.303 230.289 115.361C229.351 114.78 227.155 113.53 226.713 112.567L226.711 112.284L226.617 112.103L226.099 112.116C225.2 111.49 224.825 110.841 224.207 109.965C224.598 108.58 225.455 106.777 226.05 105.418C226.81 105.352 227.628 105.205 228.339 105.423L228.933 105.139L229.36 105.423Z" fill="#F6F2EF"/>
<path d="M226.05 105.418C226.81 105.352 227.628 105.205 228.339 105.423C227.674 107.639 227.16 109.858 226.617 112.103L226.099 112.116C225.2 111.49 224.825 110.84 224.207 109.964C224.598 108.58 225.455 106.777 226.05 105.418Z" fill="#F6F2EF"/>
<path d="M228.339 105.423L228.933 105.139L229.361 105.422C228.915 107.122 228.036 111.396 226.711 112.284L226.617 112.103C227.16 109.858 227.674 107.639 228.339 105.423Z" fill="#14253E"/>
<path d="M222.002 190.587L222.318 190.522C222.89 190.891 224.045 191.781 224.484 192.316C225.123 192.868 225.315 192.962 225.672 193.687C225.583 194.422 220.843 199.123 219.75 200.515C221.093 197.335 221.528 194.83 221.854 191.409L222.002 190.587Z" fill="#F6F2EF"/>
<path d="M222.004 190.587L222.32 190.522C222.892 190.891 224.047 191.781 224.486 192.316L224.201 193.129C223.092 192.695 222.694 192.208 221.855 191.409L222.004 190.587Z" fill="#0E0E0E"/>
<path d="M222.004 190.587L222.32 190.522C222.892 190.891 224.047 191.781 224.486 192.316L224.201 193.129C223.546 192.138 222.828 191.446 222.004 190.587Z" fill="#F6F2EF"/>
<path d="M274.927 87.9781C274.889 87.945 278.92 96.1728 279.023 96.4955C277.202 95.3889 276.258 94.7565 274.683 93.3479C274.596 91.5204 274.432 89.7534 274.927 87.9781Z" fill="#F6F2EF"/>
<path d="M195.907 22.2772C196.579 22.2125 196.638 22.282 197.268 22.493L197.404 22.7781C196.965 23.1957 193.619 23.9336 192.631 24.2935C190.635 25.0206 189.608 25.4929 187.735 26.5115C187.18 26.8445 187.214 26.8599 186.58 26.9568L186.578 26.6758C188.651 24.289 192.727 22.6899 195.907 22.2772Z" fill="#FDDC68"/>
<path d="M222.008 105.191C223.113 105.435 223.741 105.522 224.848 105.645C224.598 106.493 224.253 107.434 223.966 108.281C223.729 108.613 223.886 108.518 223.514 108.598C222.652 107.836 222.321 106.296 222.008 105.191Z" fill="#F6F2EF"/>
<path d="M231.768 192.123C232.855 192.094 234.529 192.285 235.562 192.568L235.578 192.742L234.68 192.857C233.475 192.879 231.826 193.265 230.887 193.063L230.915 192.765L231.768 192.123Z" fill="#F6F2EF"/>
<path d="M115.15 323.578C116.173 323.573 116.74 323.648 117.341 324.618C118.853 327.08 119.934 329.77 121.362 332.288C125.278 339.191 131.678 345.01 139.337 347.743C143.174 349.112 146.683 349.496 150.699 349.8C150.037 353.067 148.697 357.358 147.785 360.642L142.748 378.927C141.363 378.979 139.958 378.997 138.57 379.025C131.663 378.902 124.156 378.915 117.262 379.018C112.222 373.603 107.051 365.768 103.575 359.342C101.94 356.32 103.054 349.93 104.34 347.096C106.265 342.856 112.265 326.11 115.15 323.578Z" fill="#14253E"/>
<path d="M132.401 279.673C134.845 280.622 139.498 289.929 141.683 292.778C148.489 301.653 153.1 304.351 163.924 306.169C163.66 307.192 163.317 308.212 162.968 309.231C159.624 319.006 157.128 329.082 153.882 338.857C153.814 339.06 153.227 339.022 152.999 339.041C151.219 339.029 149.668 338.782 147.863 338.516C133.329 336.376 124.163 320.069 121.091 307.544C119.748 302.068 127.76 282.686 132.401 279.673Z" fill="#14253E"/>
<path d="M152.239 236.76C156.214 237.073 157.464 242.465 158.506 245.493C160.37 250.907 161.984 255.684 165.918 260.057C169.053 263.541 172.468 266.382 176.708 268.558C174.682 276.38 170.827 284.117 168.791 292.022C167.029 291.507 166.183 291.135 164.5 290.369C151.095 284.188 144.74 281.311 137.895 268.04C138.813 260.709 142.534 246.221 146.189 239.335C146.979 237.846 150.446 237.057 152.239 236.76Z" fill="#14253E"/>
<path d="M95.558 299.523C96.2547 300.083 98.8717 307.948 99.5615 309.635C101.352 314.014 104.361 318.508 105.888 322.716C105.099 325.336 103.999 327.777 103.043 330.334C100.134 338.113 97.5059 346.02 94.1623 353.635C93.3046 355.588 91.442 358.171 89.6571 355.293C85.2864 345.751 84.8043 341.48 78.0117 332.295C79.3987 329.393 81.4479 325.972 82.9778 323.07C87.091 315.265 91.7475 307.453 95.558 299.523Z" fill="#14253E"/>
<path d="M169.023 217.255C170.582 217.051 171.387 217.221 172.692 218.176C175.63 220.327 177.877 223.275 180.562 225.728C183.769 228.658 187.149 231.289 190.609 233.927C187.997 240.385 184.707 248.962 182.499 255.562C182.37 256.058 182.469 255.899 182.105 256.26C180.629 256.268 173.381 249.923 172.056 248.812C164.734 242.675 159.623 235.004 162.914 225.38C164.17 221.707 165.248 219.234 169.023 217.255Z" fill="#14253E"/>
<path d="M73.9333 340.092C76.3192 341.505 79.4595 354.342 80.5333 357.271C80.8945 358.257 82.9369 363.777 82.8468 364.558C82.297 369.326 80.3852 374.484 78.8301 379.07C74.2684 378.983 69.6415 379.024 65.0762 379.063L59.4744 379.133C58.4602 377.885 54.994 372.727 55.5874 371.413C57.3611 367.486 61.0455 362.531 63.365 358.889C67.3869 352.574 70.7466 346.728 73.9333 340.092Z" fill="#14253E"/>
<path d="M158.311 185.068C158.714 185.586 160.066 188.623 160.416 189.417C162.827 194.88 166.437 202.086 167.683 207.863C167.077 209.706 165.543 211.709 164.214 213.151C159.868 217.868 155.832 223.734 151.19 228.116C150.117 229.027 149.123 230.172 147.632 229.812C145.608 228.134 144.369 216.591 143.552 213.525C142.813 210.754 144.432 207.313 145.879 204.921C149.876 198.31 153.477 191.156 158.311 185.068Z" fill="#14253E"/>
<path d="M112.994 265.282C114.054 266.3 116.377 272.324 117.416 274.167C118.869 276.747 120.636 279.571 122.055 282.149C122.758 283.427 120.736 287.052 120.058 288.55C117.849 293.435 116.305 297.971 115.007 303.179C114.052 305.978 114.538 309.255 113.561 311.944C112.948 313.63 111.2 313.288 110.031 312.55C106.732 309.418 98.2489 295.913 99.796 291.122C101.04 287.269 105.472 280.629 107.346 276.458C108.626 273.609 111.382 267.787 112.994 265.282Z" fill="#14253E"/>
<path d="M136.835 222.415C136.877 222.453 136.926 222.485 136.961 222.53C137.577 223.308 137.514 227.609 137.504 228.732C137.47 232.561 137.045 236.437 136.474 240.224C135.612 245.931 131.03 269.468 127.374 272.675C126.84 273.145 126.03 273.398 125.315 273.341C123.573 273.2 122.285 271.658 121.253 270.437C119.429 267.926 115.85 261.567 117.331 258.421C121.086 250.448 125.304 242.539 129.608 234.829C131.855 230.805 134.242 226.221 136.835 222.415Z" fill="#14253E"/>
<path d="M181.893 156.293C183.169 156.097 184.862 155.965 185.268 157.426C186.135 160.548 186.226 170.849 184.945 173.528C183.402 176.757 174.335 183.022 171.051 184.293C169.352 184.2 168.184 183.225 167.79 181.598C165.011 170.117 170.606 160.048 181.893 156.293Z" fill="#14253E"/>
<path d="M262.241 131.587C267.612 131.395 269.582 134.326 273.278 137.445C274.279 138.29 275.19 138.561 276.253 139.578C273.812 139.199 271.975 138.968 269.54 139.347C268.389 140.221 267.224 141.722 265.962 142.81C262.663 145.653 258.469 145.377 254.325 145.108C248.815 144.151 245.272 139.523 241.994 135.526C241.071 134.4 240.642 133.738 240.105 132.403C247.3 135.642 254.542 132.175 262.241 131.587Z" fill="#14253E"/>
<path d="M257.684 134.31C258.569 134.164 262.064 134.051 262.94 134.384C263.072 135.126 262.961 135.409 262.811 136.138C262.695 135.727 262.993 134.719 263.102 134.225C261.724 135.415 260.92 136.191 259.151 136.83C257.394 137.056 253.087 137.051 251.746 135.922L251.801 135.557C253.049 134.703 256.062 134.508 257.684 134.31Z" fill="#F6F2EF"/>
<path d="M249.19 171.109C249.977 171.141 250.993 171.26 251.475 171.891C252.272 173.224 253.448 175.618 253.794 177.147C254.326 179.499 258.97 187.935 258.904 189.604C258.831 191.475 251.069 189.699 249.294 189.207C246.597 188.443 244.015 187.28 241.533 186.031C233.304 181.888 243.952 172.066 249.19 171.109Z" fill="#14253E"/>
<path d="M237.748 146.016C238.422 146.452 240.956 150.547 241.617 151.467C243.599 154.37 247.039 156.707 248.67 159.806C250.633 163.535 247.096 165.789 244.172 167.08C236.967 169.378 235.301 160.457 233.004 155.61C232.035 153.565 236.482 148.026 237.748 146.016Z" fill="#14253E"/>
<path d="M255.511 166.778C258.387 166.518 263.127 168.199 266.057 169.29C269.992 170.949 274.53 173.863 276.662 177.561C277.601 179.19 275.68 179.905 274.518 180.296C273.374 180.669 268.234 182.195 267.376 181.831C263.988 180.394 254.63 169.828 255.511 166.778Z" fill="#14253E"/>
<path d="M228.64 157.85C229.907 157.769 230.871 157.655 231.577 158.879C233.159 161.617 235.728 166.556 235.367 169.694C235.156 171.534 230.389 173.862 228.895 174.661C224.775 175.983 223.512 168.579 222.706 166.078C221.009 160.815 223.643 158.88 228.64 157.85Z" fill="#14253E"/>
<path d="M92.7569 367.189C93.0524 367.168 93.862 367.189 94.081 367.29C96.7304 368.503 102.631 376.845 103.949 379.06C102.161 379.072 100.339 379.046 98.5474 379.038L86.8828 379.105C87.9362 375.647 89.774 369.147 92.7569 367.189Z" fill="#14253E"/>
<path d="M271.704 185.801C273.611 185.822 278.631 187.87 280.661 188.637C283.438 189.686 288.111 190.685 290.456 192.078C290.507 193.599 288.589 193.72 287.329 194.02C283.639 194.979 278.343 195.082 274.542 194.903C273.116 194.836 269.638 194.183 269.749 192.264C269.881 189.977 270.068 187.592 271.704 185.801Z" fill="#14253E"/>
<path d="M214.848 153.02C217.586 155.011 220.32 167.149 221.86 170.96C225.131 179.055 230.683 182.272 238.155 186.407C240.194 187.535 242.643 188.333 244.535 189.785C241.133 189.555 233.285 186.244 230.137 184.679C216.443 177.873 218.405 164.815 214.848 153.02Z" fill="#14253E"/>
<path d="M347.762 179.081C352.175 178.607 355.133 180.565 358.092 183.555C358.971 184.443 361.638 187.623 360.831 188.755L359.785 188.646C355.504 188.342 345.248 187.364 345.867 181.033C345.955 180.129 347.046 179.525 347.762 179.081Z" fill="#14253E"/>
<path d="M255.598 119.708C264.059 119.557 272.034 125.114 277.806 130.941C278.22 131.36 276.62 134.284 276.264 134.951C274.816 133.867 272.469 131.328 271.177 129.968C265.942 124.455 261.095 120.934 253.328 120.03C253.823 119.786 254.996 119.757 255.598 119.708Z" fill="#14253E"/>
<path d="M288.891 135.681C290.942 136.638 294.551 139.099 296.873 140.307C306.726 145.434 317.909 151.201 326.328 158.451C324.839 158.1 317.635 153.511 315.704 152.503C307.95 148.449 299.88 144.62 292.516 139.929C290.945 138.929 289.805 137.235 288.891 135.681Z" fill="#14253E"/>
<path d="M230.681 141.422C231.21 141.43 231.524 141.523 232.031 141.638C232.307 141.879 232.649 142.06 232.594 142.489C232.397 144.205 231.631 145.862 231.089 147.472C229.773 151.378 229.42 151.728 225.138 151.476C218.777 149.974 228.419 142.596 230.681 141.422Z" fill="#14253E"/>
<path d="M270.432 144.033C272.021 143.954 273.435 144.197 274.967 144.551C273.403 144.8 270.884 145.212 269.411 145.782C264.226 147.787 263.012 149.312 257.252 149.062C256.39 148.957 253.614 148.594 253.328 147.849C254.493 146.991 260.262 147.232 262.302 146.687C264.998 145.966 267.917 144.512 270.432 144.033Z" fill="#14253E"/>
<path d="M264.137 114.334C265.631 114.506 267.968 115.373 269.325 116.042C276.277 119.472 281.124 123.587 283.732 130.789C282.917 130.113 280.345 126.541 279.32 125.449C274.789 120.624 269.972 117.385 264.137 114.334Z" fill="url(#paint3_linear_3162_5268)"/>
<path d="M277.234 105.345C278.753 105.896 281.194 107.703 282.694 108.569C287.323 111.242 291.983 114.036 296.173 117.353C290.844 116.054 281.388 108.85 277.234 105.345Z" fill="url(#paint4_linear_3162_5268)"/>
<path d="M241.695 144.871C242.486 145.373 243.089 146.832 243.783 147.598C246.481 150.572 249.65 152.949 253.851 153.281C255.237 153.391 256.713 153.266 257.902 153.401L257.608 153.637C249.338 156.749 244.916 151.251 241.695 144.871Z" fill="#14253E"/>
<path d="M219.861 117.149L220.506 117.268C223.891 119.577 223.603 127.767 222.468 131.238L222.407 131.321L222.248 131.332C222.902 127.144 221.747 124.879 220.595 120.879C220.232 119.618 219.8 118.459 219.861 117.149Z" fill="#14253E"/>
<path d="M372.555 197.896C374.531 200.52 375.032 210.365 374.232 213.726L373.885 214.033L373.657 213.912C373.457 212.83 373.681 210.334 373.586 208.835C373.351 205.124 373.014 201.586 372.555 197.896Z" fill="url(#paint5_linear_3162_5268)"/>
<path d="M370.117 202.134C371.862 205.352 371.604 210.163 370.551 213.609L370.51 213.776L370.394 213.709C370.751 208.859 370.601 207.094 370.117 202.134Z" fill="#0E0E0E"/>
<path d="M263.598 88.7151C263.819 88.9142 263.679 88.8441 264.048 88.8628L264.587 88.228C264.833 91.1048 264.967 93.964 265.193 96.828L265.041 96.9706C264.563 94.252 264.135 91.4048 263.598 88.7151Z" fill="#0E0E0E"/>
<path d="M259.253 89.6274C259.471 91.0999 259.8 92.9508 259.923 94.4049C259.523 93.0493 259.02 91.1389 258.551 89.8421L259.253 89.6274Z" fill="#0E0E0E"/>
<path d="M257.563 94.5273C257.736 95.6359 257.645 96.6813 257.604 97.8039C257.402 96.8045 257.249 96.0571 257.152 95.0312L257.563 94.5273Z" fill="#36383D"/>
</g>
<defs>
<linearGradient id="paint0_linear_3162_5268" x1="191.72" y1="61.5378" x2="186.333" y2="62.6649" gradientUnits="userSpaceOnUse">
<stop stop-color="#090800"/>
<stop offset="1" stop-color="#0F1E24"/>
</linearGradient>
<linearGradient id="paint1_linear_3162_5268" x1="162.799" y1="67.2114" x2="153.959" y2="62.176" gradientUnits="userSpaceOnUse">
<stop stop-color="#030000"/>
<stop offset="1" stop-color="#102227"/>
</linearGradient>
<linearGradient id="paint2_linear_3162_5268" x1="265.523" y1="51.7722" x2="267.31" y2="50.7297" gradientUnits="userSpaceOnUse">
<stop stop-color="#0A0500"/>
<stop offset="1" stop-color="#122630"/>
</linearGradient>
<linearGradient id="paint3_linear_3162_5268" x1="273.926" y1="122.512" x2="275.786" y2="120.388" gradientUnits="userSpaceOnUse">
<stop stop-color="#1B191A"/>
<stop offset="1" stop-color="#122339"/>
</linearGradient>
<linearGradient id="paint4_linear_3162_5268" x1="287.231" y1="111.026" x2="286.596" y2="112.122" gradientUnits="userSpaceOnUse">
<stop stop-color="#181A1B"/>
<stop offset="1" stop-color="#131F35"/>
</linearGradient>
<linearGradient id="paint5_linear_3162_5268" x1="373.009" y1="206.234" x2="374.134" y2="206.193" gradientUnits="userSpaceOnUse">
<stop stop-color="#0D0C11"/>
<stop offset="1" stop-color="#0E1D2D"/>
</linearGradient>
<clipPath id="clip0_3162_5268">
<rect width="410" height="379" fill="white"/>
</clipPath>
</defs>
</svg>
