<svg width="20" height="20" viewBox="0 0 20 20" fill="none" xmlns="http://www.w3.org/2000/svg">
<rect width="20" height="20" rx="2" fill="#FF7518"/>
<path d="M15.9194 4.96249C16.0047 4.87545 16.1065 4.8063 16.2189 4.7591C16.3312 4.71189 16.4519 4.68758 16.5737 4.68758C16.6956 4.68758 16.8163 4.71189 16.9286 4.7591C17.041 4.8063 17.1428 4.87545 17.2281 4.96249C17.5856 5.32374 17.5906 5.90749 17.2406 6.27499L9.84936 15.0125C9.76545 15.1046 9.66361 15.1787 9.55009 15.2301C9.43656 15.2816 9.31374 15.3093 9.18912 15.3117C9.06451 15.314 8.94073 15.2909 8.82535 15.2438C8.70998 15.1966 8.60543 15.1264 8.51812 15.0375L4.02061 10.48C3.84716 10.3031 3.75 10.0652 3.75 9.81749C3.75 9.56975 3.84716 9.33189 4.02061 9.15499C4.10592 9.06795 4.20774 8.9988 4.3201 8.9516C4.43246 8.90439 4.55311 8.88008 4.67499 8.88008C4.79687 8.88008 4.91752 8.90439 5.02988 8.9516C5.14224 8.9988 5.24406 9.06795 5.32936 9.15499L9.14436 13.0212L15.8944 4.98999C15.9021 4.98033 15.9105 4.97115 15.9194 4.96249Z" fill="white"/>
</svg>
