<svg width="20" height="20" viewBox="0 0 20 20" fill="none" xmlns="http://www.w3.org/2000/svg">
<rect x="0.5" y="0.5" width="19" height="19" rx="1.5" fill="#CACACA"/>
<rect x="0.5" y="0.5" width="19" height="19" rx="1.5" stroke="#A9A9A9"/>
<path d="M15.9194 4.96251C16.0047 4.87547 16.1065 4.80632 16.2188 4.75911C16.3312 4.71191 16.4519 4.68759 16.5737 4.68759C16.6956 4.68759 16.8163 4.71191 16.9286 4.75911C17.041 4.80632 17.1428 4.87547 17.2281 4.96251C17.5856 5.32376 17.5906 5.90751 17.2406 6.27501L9.84936 15.0125C9.76545 15.1047 9.66361 15.1787 9.55009 15.2302C9.43656 15.2816 9.31374 15.3093 9.18912 15.3117C9.06451 15.314 8.94073 15.2909 8.82535 15.2438C8.70998 15.1966 8.60543 15.1264 8.51811 15.0375L4.02061 10.48C3.84716 10.3031 3.75 10.0653 3.75 9.81751C3.75 9.56977 3.84716 9.3319 4.02061 9.15501C4.10592 9.06797 4.20774 8.99882 4.3201 8.95161C4.43246 8.90441 4.55311 8.88009 4.67499 8.88009C4.79687 8.88009 4.91752 8.90441 5.02988 8.95161C5.14224 8.99882 5.24406 9.06797 5.32936 9.15501L9.14436 13.0213L15.8944 4.99001C15.9021 4.98035 15.9105 4.97117 15.9194 4.96251Z" fill="white"/>
</svg>
