<svg width="24" height="24" viewBox="0 0 24 24" fill="none" xmlns="http://www.w3.org/2000/svg">
<path d="M4.74987 10.2419H19.2501V9.15769H4.74987V10.2419ZM18.9333 9.9199V10.3959H20V9.9199H18.9333ZM17.2117 18.9158H6.78827V20H17.2117V18.9158ZM5.06667 10.3959V9.9199H4V10.3959H5.06667ZM7.08907 19.1044C5.75904 16.4005 5.06663 13.4189 5.06667 10.3959H4C4 13.5879 4.73067 16.7354 6.13547 19.5902L7.08907 19.1044ZM6.78827 18.9158C6.91627 18.9158 7.03253 18.9895 7.08907 19.1044L6.13547 19.5902C6.19668 19.7129 6.29 19.8161 6.40517 19.8884C6.52034 19.9607 6.6529 19.9993 6.78827 20V18.9158ZM16.9109 19.1044C16.9394 19.0481 16.9824 19.0007 17.0354 18.9674C17.0885 18.9342 17.1494 18.9163 17.2117 18.9158V20C17.4891 20 17.7408 19.8417 17.8645 19.5902L16.9109 19.1044ZM18.9333 10.3959C18.9333 13.4187 18.24 16.4004 16.9109 19.1044L17.8645 19.5902C19.2689 16.7355 20 13.5876 20 10.3959H18.9333ZM19.2501 10.2419C19.1661 10.2419 19.0855 10.208 19.0261 10.1476C18.9667 10.0872 18.9333 10.0053 18.9333 9.9199H20C20 9.71775 19.921 9.52388 19.7804 9.38094C19.6397 9.23799 19.449 9.15769 19.2501 9.15769V10.2419ZM4.74987 9.15769C4.55099 9.15769 4.36026 9.23799 4.21963 9.38094C4.079 9.52388 4 9.71775 4 9.9199H5.06667C5.06667 10.0053 5.03329 10.0872 4.97388 10.1476C4.91447 10.208 4.83389 10.2419 4.74987 10.2419V9.15769ZM8.19093 9.97845L11.3909 4.55729L10.4747 4L7.27467 9.42116L8.19093 9.97845ZM12.6091 4.55729L15.8091 9.97845L16.7243 9.42116L13.5243 4L12.6091 4.55729Z" fill="black"/>
</svg>
