<svg xmlns="http://www.w3.org/2000/svg" width="24" height="24" fill="none" viewBox="0 0 24 24"><path stroke="#09203f" d="M10.144 6.628c.787-1.961 1.18-2.942 1.857-2.942.676 0 1.07.98 1.856 2.942l.036.09c.445 1.109.667 1.663 1.12 2s1.047.39 2.236.496l.215.019c1.946.174 2.919.261 3.127.88.208.62-.514 1.277-1.96 2.591l-.482.44c-.731.665-1.097.997-1.268 1.434a2 2 0 0 0-.079.25c-.112.454-.005.937.21 1.902l.066.3c.394 1.775.59 2.662.247 3.045a1 1 0 0 1-.48.296c-.497.136-1.201-.438-2.61-1.587-.925-.753-1.388-1.13-1.92-1.215a2 2 0 0 0-.63 0c-.53.085-.994.462-1.919 1.215-1.409 1.149-2.113 1.723-2.61 1.587a1 1 0 0 1-.48-.296c-.344-.383-.147-1.27.247-3.044l.066-.301c.215-.966.322-1.448.21-1.903a2 2 0 0 0-.08-.25c-.17-.436-.536-.768-1.267-1.434l-.482-.439c-1.445-1.314-2.168-1.972-1.96-2.59.208-.62 1.181-.707 3.127-.881l.215-.02c1.189-.106 1.783-.159 2.236-.496s.675-.89 1.12-1.998z"/></svg>