<svg viewBox="0 0 36 36" xmlns="http://www.w3.org/2000/svg" xmlns:xlink="http://www.w3.org/1999/xlink" width="36.000000" height="36.000000" fill="none" customFrame="#000000">
	<rect id="Categories" width="36.000000" height="36.000000" x="0.000000" y="0.000000" />
	<path id="Vector" d="M17.3426 0.0122418C27.2562 -0.350133 35.5942 7.377 35.9857 17.2895C36.3773 27.2021 28.6747 35.5628 18.7631 35.9835C8.81049 36.4059 0.407421 28.6642 0.0142907 18.7103C-0.37884 8.75643 7.38743 0.376116 17.3426 0.0122418Z" fill="rgb(246,242,239)" fill-rule="nonzero" />
	<g id="Group 57">
		<path id="Vector" d="M11.2057 8.92041L11.2057 7.7902C11.2057 7.09593 11.2057 6.74879 11.2889 6.46932C11.482 5.82136 11.9842 5.31838 12.6319 5.12442C12.9113 5.04077 13.2592 5.04029 13.9551 5.03932L13.9551 5.03932C14.5969 5.03843 14.9178 5.03798 15.1969 5.12051C15.8322 5.30843 16.3506 5.82293 16.5432 6.45688C16.6278 6.7353 16.6298 7.06496 16.6338 7.72429L16.6411 8.9253C16.6177 10.5378 16.6411 9.02399 16.6411 10.5377L11.2051 10.5447L11.2057 10.5447L11.2057 8.92041Z" fill="rgb(252,100,12)" fill-rule="nonzero" />
		<path id="Vector" d="M7.92934 30.237L7.92381 19.7377L7.92191 16.4611C7.92183 15.7919 7.90753 15.0947 7.95675 14.429C8.04546 13.2289 8.8118 11.6482 10.0286 11.2535C12.4835 11.1699 15.0059 11.3002 17.4689 11.2418C17.5662 11.2395 17.9415 11.2632 18.0225 11.2968C18.9598 11.6853 19.5175 12.8792 19.7098 13.8213C19.8655 14.6619 19.8189 15.5214 19.8166 16.3466L19.8119 19.4336L19.8199 30.2308L17.7057 30.2405L7.92934 30.237ZM10.0275 15.4124L9.86568 15.4314C9.78565 15.5605 9.82689 18.3692 9.82807 18.7876L9.82452 28.3007C12.4721 28.3343 15.1269 28.3026 17.7749 28.3069L17.9012 28.2965C18.0371 28.1036 17.9596 26.933 17.9596 26.621L17.9639 23.1582C17.9658 20.6808 18.0171 17.8842 17.9498 15.4219C17.4188 15.3937 16.8697 15.3959 16.3368 15.3976C14.2367 15.4042 12.1268 15.3691 10.0275 15.4124Z" fill="rgb(252,100,12)" fill-rule="nonzero" />
		<path id="Vector" d="M23.0711 21.4551L23.0505 16.513C23.0477 15.6673 22.9777 14.2337 23.1409 13.4533C23.2252 13.0504 23.9521 12.224 24.1886 11.7675L24.2136 11.7188C24.64 11.905 25.396 12.5468 25.7304 12.8661C26.2666 13.378 26.777 14.1825 26.794 14.9378C26.8093 15.6197 26.8033 16.3156 26.8034 16.9961L26.7981 21.4578L25.674 21.4567L23.0711 21.4551Z" fill="rgb(252,100,12)" fill-rule="nonzero" />
		<path id="Vector" d="M21.6255 23.7827L21.625 21.9524C23.7835 21.9863 25.9746 21.9923 28.1327 21.9473L28.1286 23.737L28.1205 23.7536C28.0129 23.8215 26.6385 23.7894 26.3996 23.7884L21.6255 23.7827Z" fill="rgb(252,100,12)" fill-rule="nonzero" />
		<path id="Vector" d="M21.625 24.5166L22.3569 24.515L28.1485 24.5098C28.1736 25.7729 28.1283 27.0541 28.1413 28.3196C28.1477 28.9508 28.1493 29.609 28.1243 30.2386L27.3498 30.2335L21.6283 30.2404L21.625 24.5166Z" fill="rgb(252,100,12)" fill-rule="nonzero" />
	</g>
</svg>
