<svg xmlns="http://www.w3.org/2000/svg" fill="none" viewBox="0 0 100 100"><path fill="#f6f2ef" d="M48.174.034C75.712-.972 98.873 20.492 99.96 48.027S79.652 98.786 52.12 99.954C24.474 101.128 1.132 79.623.04 51.974-1.052 24.323 20.52 1.043 48.174.033"/><path fill="#fc640c" d="M31.127 24.782V16.8c0-.73 0-1.095.092-1.39a2 2 0 0 1 1.302-1.303c.294-.093.66-.094 1.395-.095 3.17-.006 6.376-.027 9.538.003.695.006 1.042.01 1.333.104a2.01 2.01 0 0 1 1.29 1.294c.093.29.095.643.1 1.348l.048 8.033c-.065 4.48 0 .274 0 4.48l-15.1.019h.002zM22.026 83.99l-.015-29.164-.005-9.102c0-1.859-.04-3.795.096-5.645.247-3.333 2.375-7.724 5.755-8.82 6.82-.233 13.826.13 20.668-.033.27-.006 1.313.06 1.538.153 2.603 1.079 4.152 4.396 4.687 7.012.432 2.336.303 4.723.296 7.015l-.013 8.575.023 29.992-5.873.027zm5.828-41.179-.45.053c-.221.358-.107 8.16-.104 9.323l-.01 26.425c7.355.093 14.73.005 22.085.017l.35-.029c.378-.535.163-3.787.163-4.654l.012-9.619c.005-6.881.148-14.65-.04-21.49-1.474-.078-3-.072-4.48-.067-5.833.018-11.694-.08-17.526.041M64.086 59.599l-.057-13.728c-.008-2.35-.203-6.332.25-8.5.235-1.119 2.254-3.414 2.91-4.682l.07-.136c1.185.518 3.285 2.3 4.214 3.187 1.49 1.422 2.907 3.657 2.954 5.755.043 1.894.026 3.827.026 5.718l-.014 12.393-3.123-.003zM60.072 66.063l-.002-5.084c5.996.094 12.083.111 18.077-.014l-.011 4.971-.023.047c-.299.188-4.116.099-4.78.096zM60.07 68.1l2.033-.004 16.088-.015c.07 3.509-.056 7.068-.02 10.583.018 1.753.022 3.582-.047 5.33l-2.151-.014L60.08 84z"/></svg>