<svg viewBox="0 0 36 36" xmlns="http://www.w3.org/2000/svg" xmlns:xlink="http://www.w3.org/1999/xlink" width="36.000000" height="36.000000" fill="none" customFrame="#000000">
	<rect id="Categories" width="36.000000" height="36.000000" x="0.000000" y="0.000000" />
	<circle id="Ellipse 171" cx="18" cy="18" r="18" fill="rgb(246,242,239)" />
	<path id="Vector" d="M6.32875 12.903C7.20538 11.4185 8.03778 9.77847 8.83616 8.24219L20.1025 8.29077C22.3559 8.28245 25.148 8.1904 27.3641 8.29416C28.0466 9.36699 29.073 11.5977 29.6712 12.8121C30.6824 12.1502 32.7318 12.0976 33.42 12.9588C35.7394 15.8612 32.2873 15.6998 30.8863 15.6958C30.886 19.7233 30.8822 23.6876 30.7941 27.7167C29.7519 27.812 27.6588 27.7165 26.554 27.6925L26.5448 24.7719C26.227 24.5122 20.7881 24.6661 19.8502 24.6733C16.2824 24.7005 12.6445 24.6122 9.08301 24.7526L9.06959 27.664C7.80076 27.615 6.11233 27.6865 4.79417 27.6857L4.78567 15.5096C4.06043 15.5794 3.08797 15.6775 2.47425 15.2613C1.09561 14.3266 2.03537 12.4558 3.48149 12.2513C4.63087 12.0887 5.39409 12.3063 6.32875 12.903ZM9.99197 10.0028C9.10267 11.5896 8.2404 13.3253 7.45997 14.9719C13.4108 15.0424 19.64 14.9759 25.6048 14.9543L28.1485 14.9394C27.5408 13.2937 26.7852 11.6158 26.0862 9.99961L9.99197 10.0028ZM9.12743 18.6166C7.5749 19.9125 8.08693 21.7854 10.0984 21.4913C11.9274 20.5095 11.0727 18.5213 9.12743 18.6166ZM25.7942 18.672C24.9782 18.8846 24.4913 19.7208 24.7091 20.5352C24.9268 21.3499 25.766 21.8317 26.5792 21.6088C27.3853 21.3881 27.862 20.5577 27.6461 19.7503C27.4303 18.9428 26.603 18.4611 25.7942 18.672Z" fill="rgb(252,100,12)" fill-rule="nonzero" />
</svg>
