<svg viewBox="0 0 36 36" xmlns="http://www.w3.org/2000/svg" xmlns:xlink="http://www.w3.org/1999/xlink" width="36.000000" height="36.000000" fill="none" customFrame="#000000">
	<rect id="Categories" width="36.000000" height="36.000000" x="0.000000" y="0.000000" />
	<circle id="Ellipse 171" cx="18" cy="18" r="18" fill="rgb(246,242,239)" />
	<path id="Vector" d="M10.6441 15.5277C10.2792 15.8988 8.91753 17.3686 8.57594 17.3477C7.68759 17.2933 5.49446 14.828 5.40039 14.0237C5.55603 13.6187 6.03216 13.1555 6.34875 12.8549C7.87792 11.4027 9.27772 9.77619 10.8741 8.40499C11.0132 8.28545 11.4232 8.27076 11.6019 8.26123L14.8431 8.23654C14.8442 8.2642 14.8452 8.29186 14.8463 8.31936L14.8545 8.45718C15.0427 11.9409 19.5863 12.527 20.8126 9.40288C20.9383 9.08254 21.0034 8.58469 21.0611 8.23623C22.3185 8.23373 24.1515 8.17247 25.3545 8.28123C26.8162 9.92917 28.2674 11.4841 29.8586 13.0133C30.1422 13.2858 30.4318 13.6374 30.6004 13.9931C30.604 14.7686 28.3471 17.1372 27.5469 17.285C27.1231 17.3633 25.8252 15.8016 25.4895 15.4465C25.3116 18.45 25.4466 22.4403 25.4628 25.508C25.5041 26.7651 25.5856 27.7447 24.0097 27.7383C19.8546 27.7211 15.6762 27.8582 11.5255 27.7281C11.0774 27.7141 10.605 27.0558 10.6784 26.6456C10.6241 25.4131 10.6439 24.1771 10.6459 22.9408L10.6441 15.5277Z" fill="rgb(252,100,12)" fill-rule="nonzero" />
</svg>
