<svg viewBox="0 0 36 36" xmlns="http://www.w3.org/2000/svg" xmlns:xlink="http://www.w3.org/1999/xlink" width="36.000000" height="36.000000" fill="none" customFrame="#000000">
	<rect id="Categories" width="36.000000" height="36.000000" x="0.000000" y="0.000000" />
	<path id="Vector" d="M16.7224 0.0461595C26.6176 -0.657992 35.2171 6.77706 35.95 16.6703C36.6828 26.5633 29.2728 35.1844 19.3818 35.946C9.45006 36.7106 0.785869 29.2635 0.0500074 19.3295C-0.685854 9.39575 6.78644 0.753198 16.7224 0.0461595Z" fill="rgb(246,242,239)" fill-rule="nonzero" />
	<path id="Vector" d="M5.96898 24.0452C6.07658 20.0797 6.00673 16.0802 6.03194 12.1119C6.04056 10.7604 5.74893 9.74288 7.1076 9.03386C7.23885 9.02227 7.35052 9.01397 7.48349 9.01319C12.0464 8.98734 16.6152 9.01507 21.178 9.0124L26.1901 8.98077C27.6571 8.97936 29.9965 8.53706 30.0601 10.5122C30.1096 12.0477 30.1106 13.5647 30.1099 15.1007L30.0955 24.0552C30.8631 24.0521 31.6122 24.0377 32.3784 24.1003C32.6093 26.8212 30.9258 27.0294 28.7336 27.0194L7.13595 27.0635C4.84352 27.0781 3.58148 26.7927 3.59981 24.147C4.32589 24.0411 5.22301 24.0557 5.96898 24.0452ZM17.6904 9.75008C17.4824 9.88446 17.412 10.1559 17.5284 10.3744C17.6449 10.593 17.9095 10.6859 18.137 10.5881C18.3021 10.5172 18.4133 10.3592 18.4244 10.1798C18.4357 10.0004 18.3449 9.82996 18.1897 9.73912C18.0344 9.64828 17.8413 9.65251 17.6904 9.75008ZM8.13503 11.2032L8.16306 22.7247L22.3092 22.7329L25.9506 22.7299C26.3324 22.7297 27.5671 22.7438 27.8852 22.6878C27.9331 22.2452 27.9618 21.8011 27.9613 21.356C27.9581 17.9756 27.9978 14.5843 27.9176 11.2051L8.13503 11.2032ZM16.994 24.7876C16.7682 25.0239 16.7751 25.0093 16.6557 25.3119C16.8097 25.9976 18.1594 25.8226 18.7085 25.8029C19.1214 25.6026 19.15 25.3979 18.9551 24.989C18.4819 24.637 17.6224 24.7785 16.994 24.7876Z" fill="rgb(252,100,12)" fill-rule="nonzero" />
</svg>
