<svg viewBox="0 0 36 36" xmlns="http://www.w3.org/2000/svg" xmlns:xlink="http://www.w3.org/1999/xlink" width="36.000000" height="36.000000" fill="none" customFrame="#000000">
	<rect id="Categories" width="36.000000" height="36.000000" x="0.000000" y="0.000000" />
	<circle id="Ellipse 171" cx="18" cy="18" r="18" fill="rgb(246,242,239)" />
	<path id="Vector" d="M12.6773 20.566C11.9933 21.9969 11.5022 23.6776 10.9001 25.1621C10.6245 25.7927 10.4334 26.6091 10.0365 27.1727C9.20325 28.3561 7.65772 28.4156 6.551 27.6123C5.28619 26.6942 5.39979 25.3889 5.40525 24.0402L5.41606 21.416L5.42142 16.881C5.42097 14.5481 5.31182 12.5704 6.84331 10.6058C8.01068 9.10816 9.43012 8.40668 11.2903 8.15205C12.2105 8.03109 13.908 8.39821 14.6255 8.9222C16.3575 10.1869 18.2632 10.834 20.2281 9.6142C20.6906 9.32712 21.2362 8.87103 21.7493 8.63356C24.8657 7.19126 28.5842 8.84026 29.9429 11.9174C30.1821 12.4588 30.4799 13.2901 30.5207 13.8809C30.641 15.6253 30.5598 17.3924 30.5905 19.1409C30.5863 21.2518 30.6179 23.3632 30.586 25.4738C30.5579 27.3329 28.8168 28.7033 27.0255 27.9578C26.6949 27.8201 26.1419 27.4555 25.9639 27.1412C25.2846 25.9417 24.7908 24.5494 24.2471 23.2665C23.8668 22.3605 23.4582 21.4959 23.0887 20.5754C19.6531 20.6134 16.1229 20.5631 12.6773 20.566ZM23.8855 10.9112C23.2083 11.0963 22.8088 11.7948 22.9925 12.4723C23.1764 13.1498 23.8741 13.5505 24.5519 13.3679C25.2315 13.185 25.6335 12.4851 25.4492 11.8058C25.2651 11.1266 24.5645 10.7258 23.8855 10.9112ZM10.6821 11.2117C10.6741 12.095 10.6818 13.0301 10.6555 13.9088L7.9497 13.9239C7.94502 14.5126 7.92473 15.1872 7.94424 15.7683L10.6635 15.789C10.6729 16.7378 10.6637 17.7719 10.7112 18.713C11.3222 18.7167 11.9439 18.7269 12.554 18.7157C12.5906 17.7078 12.5346 16.7124 12.5648 15.7333C13.3958 15.7433 14.3035 15.79 15.1213 15.7724C15.1357 15.1483 15.1339 14.5797 15.1212 13.9558C14.276 13.9212 13.411 13.9308 12.5637 13.9315C12.5583 13.0498 12.5721 12.0793 12.5376 11.2048L10.6821 11.2117ZM26.8298 13.4687C26.3738 13.5196 25.9813 13.8134 25.804 14.2366C25.6266 14.6598 25.6926 15.1458 25.9761 15.5065C26.2597 15.8671 26.7165 16.0458 27.1695 15.9735C27.8474 15.8651 28.315 15.2355 28.2227 14.5553C28.1305 13.8749 27.5121 13.3926 26.8298 13.4687ZM21.2137 13.5129C20.7581 13.6147 20.393 13.9545 20.2588 14.4014C20.1244 14.8485 20.2417 15.3332 20.5656 15.6692C20.8895 16.0054 21.3694 16.1406 21.8211 16.0229C22.5029 15.8453 22.9165 15.154 22.7508 14.4693C22.5851 13.7846 21.9012 13.359 21.2137 13.5129ZM23.9548 16.1255C23.2733 16.292 22.8573 16.9812 23.0276 17.6617C23.198 18.3422 23.8896 18.7542 24.5692 18.5799C25.2431 18.407 25.6509 17.7222 25.482 17.0473C25.313 16.3724 24.6307 15.9605 23.9548 16.1255Z" fill="rgb(252,100,12)" fill-rule="nonzero" />
</svg>
