<svg viewBox="0 0 36 36" xmlns="http://www.w3.org/2000/svg" xmlns:xlink="http://www.w3.org/1999/xlink" width="36.000000" height="36.000000" fill="none" customFrame="#000000">
	<rect id="Categories" width="36.000000" height="36.000000" x="0.000000" y="0.000000" />
	<path id="Vector" d="M17.09 0.0234435C27.0082 -0.478721 35.4594 7.14713 35.9752 17.0647C36.4913 26.9825 28.8773 35.444 18.9603 35.9739C9.02377 36.5048 0.541778 28.8724 0.0247553 18.9353C-0.492268 8.99792 7.15191 0.526587 17.09 0.0234435Z" fill="rgb(246,242,239)" fill-rule="nonzero" />
	<g id="Group 60">
		<path id="Vector" d="M14.3115 15.1646C16.3534 15.0765 18.425 15.1435 20.4698 15.1442C23.226 15.1452 25.9923 15.1062 28.7458 15.2354C28.8611 15.3065 28.9725 15.3833 29.0796 15.466C29.5572 15.8285 29.7278 16.1432 29.7994 16.7336C29.9859 18.2723 29.8621 19.9509 29.8687 21.5049C29.8747 22.9128 30.0099 24.4203 29.85 25.8169C29.8068 26.1944 29.7373 26.6653 29.4805 26.9638C28.9554 27.5739 28.1078 27.5518 27.3727 27.6023C27.3465 28.0593 27.5149 28.7493 27.2782 29.1526C27.1959 29.2931 26.9473 29.2797 26.7936 29.3044L26.5755 29.1963C26.3185 28.8404 26.4326 27.9826 26.4435 27.5396L16.2575 27.544C16.2628 27.8446 16.2973 28.199 16.2556 28.4957C16.2045 28.857 16.0497 29.0437 15.7687 29.259C15.5228 29.2395 15.492 29.226 15.3173 29.0325C14.9845 28.6642 15.087 28.0465 15.0978 27.5829C14.5742 27.5359 13.988 27.5217 13.5265 27.244C13.1268 27.0032 12.9018 26.6884 12.8108 26.2357C12.5254 24.8183 12.5518 18.3241 12.7559 16.8058C12.8023 16.4615 12.8667 16.1479 13.0666 15.8574C13.3818 15.3992 13.7829 15.2564 14.3115 15.1646Z" fill="rgb(252,100,12)" fill-rule="nonzero" />
		<path id="Vector" d="M16.6689 19.0574C19.6252 19.025 22.6023 18.9563 25.557 18.9891C25.8931 18.9928 26.2851 18.9788 26.5353 19.2342C26.5376 19.5075 26.5861 19.7166 26.446 19.9575L26.1794 19.9955L19.572 20.0126C18.5154 20.0151 17.2986 20.1393 16.2635 19.9478C16.2146 19.8484 16.1873 19.8055 16.163 19.6877C16.1222 19.4892 16.1471 19.2775 16.2561 19.1149L16.6689 19.0574Z" fill="rgb(246,242,239)" fill-rule="nonzero" />
	</g>
	<path id="Vector" d="M6.11914 12.2101C6.80282 9.98884 7.42827 7.72232 8.15155 5.5C9.55406 5.53133 10.9354 5.52084 12.3377 5.50402L13.3301 8.73032C13.7071 9.9328 14.0589 10.972 14.3991 12.2021C13.1944 12.2295 11.9058 12.2071 10.6955 12.2091C10.6964 12.8509 10.6135 25.0936 10.77 25.4352C11.1062 26.169 11.6661 26.7857 12.0259 27.5079C12.0336 27.5233 12.0409 27.5388 12.0484 27.5543C12.3071 27.5521 12.5501 27.542 12.8065 27.5799C13.0103 27.7391 12.958 28.2091 12.8774 28.4375C12.8595 28.4881 12.7529 28.4802 12.6964 28.4872L7.72315 28.5C7.72136 28.1835 7.72713 27.8605 7.72946 27.5435L8.46934 27.5292C8.78901 26.9109 9.37946 26.0011 9.75509 25.3844C9.77419 24.0598 9.74371 13.5306 9.75626 12.202L6.11914 12.2101Z" fill="rgb(252,100,12)" fill-rule="nonzero" />
</svg>
