<svg viewBox="0 0 36 36" xmlns="http://www.w3.org/2000/svg" xmlns:xlink="http://www.w3.org/1999/xlink" width="36.000000" height="36.000000" fill="none" customFrame="#000000">
<rect id="Categories" width="36" height="36" fill="transparent" />
	<path id="Vector" d="M19.0458 35.9691C9.14233 36.5455 0.639442 29.0001 0.034122 19.0984C-0.571198 9.19644 6.94935 0.671682 16.8494 0.0374411C26.7904 -0.599195 35.3581 6.95915 35.9659 16.9018C36.5737 26.8446 28.9904 35.3903 19.0458 35.9691ZM13.4985 6.52754C9.98536 7.12002 10.8951 11.0709 12.5263 11.1093C13.0097 10.5965 11.4346 7.87714 13.3777 7.75974C13.7922 7.73475 14.2832 7.80971 14.5959 8.09157C14.6508 8.28736 14.691 8.42529 14.5479 8.60978C13.8885 9.45949 13.2837 9.85071 12.9779 10.945C11.3829 16.6552 19.1477 19.1713 22.6767 15.2898C24.2093 13.0111 24.0831 10.3188 21.7332 8.60362C21.1243 8.159 22.8568 7.17718 23.7658 8.22575C24.6571 9.25395 23.3503 10.5099 23.7593 11.0449C25.3879 11.1036 25.8175 8.29865 24.5486 7.247C23.0683 6.02011 21.487 6.28024 20.5241 7.88929C19.0104 7.40856 17.5153 7.42139 16.0155 7.93173C15.3075 6.94563 14.7572 6.56929 13.4985 6.52754ZM21.8323 16.7649C22.791 18.6425 23.4085 20.0918 23.7836 22.1857C23.9678 23.2139 26.1486 22.4676 26.7059 22.0942C27.8179 20.9099 26.9521 19.8663 25.9123 19.0149C24.8825 18.1716 23.218 16.755 21.8323 16.7649ZM14.4874 16.8742C13.5812 17.0731 12.5167 17.4977 11.7958 18.0892C10.3377 19.2858 7.34194 20.2193 9.66824 22.266C10.8193 22.8956 11.3197 22.7481 12.6271 22.6262C12.9098 21.0723 13.0842 20.0869 13.8329 18.6488C14.0167 18.2956 14.6292 17.2263 14.7228 16.9446C14.563 16.8544 14.6434 16.8708 14.4874 16.8742ZM15.5806 17.1511C14.6985 19.0635 13.8028 20.5868 13.7487 22.7063C16.2261 23.4473 16.8955 25.6039 16.1782 27.919C17.5306 27.9336 18.8654 27.9551 20.2181 27.9091C20.086 27.5494 19.9385 27.1754 19.8355 26.808C19.7614 24.4968 20.7293 23.2875 22.9119 22.6569C22.4703 20.5606 21.948 19.1126 21.0026 17.1773C18.7383 17.7888 17.8285 17.8532 15.5806 17.1511ZM12.5432 23.459C8.9664 24.5606 9.85273 30.0908 13.6806 29.5666C17.3096 28.057 16.0976 23.1056 12.5432 23.459ZM22.8732 23.4802C19.314 24.2483 19.8841 29.5827 23.4693 29.5964C27.2201 28.9486 26.5126 23.3132 22.8732 23.4802Z" fill="rgb(246,242,239)" fill-rule="nonzero" />
<ellipse rx="18" ry="18" cx="18" cy="18" fill="transparent" />
	<path id="Vector" d="M22.6775 15.2905C19.1484 19.172 11.3837 16.6559 12.9787 10.9457C13.2845 9.85141 13.8893 9.46019 14.5487 8.61048C14.6918 8.42599 14.6516 8.28806 14.5966 8.09227C14.284 7.81041 13.793 7.73545 13.3785 7.76044C11.4353 7.87784 13.0105 10.5972 12.527 11.11C10.8959 11.0716 9.98613 7.12072 13.4993 6.52823C14.758 6.56999 15.3082 6.94633 16.0162 7.93243C17.5161 7.42209 19.0112 7.40926 20.5249 7.88999C21.4877 6.28094 23.069 6.02081 24.5494 7.2477C25.8182 8.29935 25.3887 11.1043 23.7601 11.0456C23.3511 10.5106 24.6579 9.25465 23.7666 8.22645C22.8575 7.17788 21.1251 8.1597 21.734 8.60432C24.0839 10.3195 24.21 13.0118 22.6775 15.2905ZM19.7029 11.4237C19.42 11.5977 19.3281 11.966 19.4962 12.2525C19.6642 12.5391 20.0306 12.6387 20.3206 12.4768C20.5138 12.3689 20.6336 12.165 20.6336 11.9438C20.6336 11.7225 20.5139 11.5185 20.3209 11.4105C20.1277 11.3027 19.8913 11.3076 19.7029 11.4237ZM16.2053 11.5106C16.0107 11.6085 15.8865 11.806 15.8824 12.0235C15.8783 12.2412 15.9952 12.4433 16.1858 12.5482C16.3766 12.6533 16.6099 12.6439 16.7915 12.5241C17.0506 12.3529 17.1315 12.0096 16.9761 11.741C16.8207 11.4723 16.4827 11.3713 16.2053 11.5106ZM17.9741 12.8407C16.3705 13.7164 16.8122 15.3147 18.7247 15.3234C20.5129 14.6566 19.611 12.636 17.9741 12.8407Z" fill="rgb(252,100,12)" fill-rule="nonzero" />
	<path id="Vector" d="M20.3205 12.4759C20.0306 12.6378 19.6641 12.5382 19.4961 12.2515C19.328 11.965 19.4199 11.5968 19.7028 11.4227C19.8912 11.3067 20.1276 11.3017 20.3208 11.4095C20.5139 11.5175 20.6335 11.7215 20.6335 11.9428C20.6335 12.1641 20.5137 12.3679 20.3205 12.4759Z" fill="rgb(246,242,239)" fill-rule="nonzero" />
	<path id="Vector" d="M16.792 12.5232C16.6104 12.643 16.3772 12.6524 16.1863 12.5474C15.9957 12.4424 15.8788 12.2403 15.8829 12.0226C15.887 11.8051 16.0113 11.6076 16.2059 11.5097C16.4833 11.3704 16.8213 11.4714 16.9767 11.7401C17.1321 12.0088 17.0511 12.3521 16.792 12.5232Z" fill="rgb(246,242,239)" fill-rule="nonzero" />
	<path id="Vector" d="M18.7236 15.3234C16.8111 15.3146 16.3694 13.7164 17.973 12.8407C19.6099 12.636 20.5118 14.6566 18.7236 15.3234Z" fill="rgb(246,242,239)" fill-rule="nonzero" />
	<path id="Vector" d="M25.9849 22.0949C25.4276 22.4684 23.2468 23.2147 23.0627 22.1865C22.6875 20.0926 22.0701 18.6432 21.1113 16.7657C22.497 16.7558 24.1615 18.1724 25.1913 19.0156C26.2311 19.8671 27.0969 20.9107 25.9849 22.0949Z" fill="rgb(252,100,12)" fill-rule="nonzero" />
	<path id="Vector" d="M10.3871 22.2662C8.06082 20.2195 11.0566 19.286 12.5147 18.0894C13.2356 17.4979 14.3 17.0733 15.2062 16.8745C15.3623 16.871 15.2819 16.8546 15.4417 16.9448C15.3481 17.2265 14.7356 18.2958 14.5518 18.649C13.8031 20.0871 13.6287 21.0725 13.3459 22.6264C12.0386 22.7483 11.5382 22.8958 10.3871 22.2662Z" fill="rgb(252,100,12)" fill-rule="nonzero" />
	<path id="Vector" d="M13.748 22.7056C13.8021 20.586 14.6979 19.0627 15.5799 17.1504C17.8278 17.8524 18.7376 17.7881 21.002 17.1766C21.9473 19.1118 22.4697 20.5598 22.9112 22.6561C20.7287 23.2867 19.7607 24.496 19.8348 26.8072C19.9378 27.1747 20.0853 27.5486 20.2175 27.9083C18.8648 27.9544 17.5299 27.9328 16.1775 27.9183C16.8948 25.6031 16.2255 23.4466 13.748 22.7056Z" fill="rgb(252,100,12)" fill-rule="nonzero" />
	<path id="Vector" d="M14.0414 29.2057C10.2135 29.7299 9.32716 24.1997 12.904 23.0981C16.4584 22.7447 17.6704 27.6961 14.0414 29.2057Z" fill="rgb(252,100,12)" fill-rule="nonzero" />
	<path id="Vector" d="M23.1102 29.237C19.525 29.2233 18.9549 23.8889 22.5141 23.1208C26.1536 22.9538 26.861 28.5892 23.1102 29.237Z" fill="rgb(252,100,12)" fill-rule="nonzero" />
	<circle id="Ellipse 172" cx="18.3600006" cy="13.6803112" r="0.359999657" fill="rgb(252,100,12)" />
</svg>
