<svg viewBox="0 0 36 36" xmlns="http://www.w3.org/2000/svg" xmlns:xlink="http://www.w3.org/1999/xlink" width="36.000000" height="36.000000" fill="none" customFrame="#000000">
	<rect id="Categories" width="36.000000" height="36.000000" x="0.000000" y="0.000000" />
	<circle id="Ellipse 171" cx="18" cy="18" r="18" fill="rgb(246,242,239)" />
	<g id="Group 55">
		<path id="Vector" d="M16.3678 20.0249C17.1971 19.4369 18.7488 17.6259 19.6043 16.794L24.6925 11.8557C26.6457 9.92976 28.5222 8.01482 30.5192 6.11914C30.6274 6.30728 30.5953 10.6604 30.5965 11.2441C30.0072 11.9216 28.9308 12.9373 28.2688 13.5969L24.2073 17.6507C24.0075 17.8482 23.5641 18.33 23.3014 18.3256C22.5926 18.3136 21.9088 17.4511 21.4492 16.9522C20.9628 17.3044 20.1766 18.1458 19.74 18.5916L17.3869 20.9908C17.6711 21.2514 17.9205 21.4868 18.1903 21.7619C15.5861 24.4564 12.8797 27.084 10.2594 29.7638C10.0923 29.9347 9.74635 29.9972 9.51692 30.045C8.97822 30.0664 8.53513 29.9422 8.1514 29.5399C6.91521 28.2435 8.99936 26.6234 9.88817 25.7283L12.0387 23.5423C13.0911 22.4662 14.8447 20.5061 15.9192 19.5861C16.0586 19.732 16.2218 19.8832 16.3678 20.0249ZM9.38014 28.002C9.12399 28.0298 8.93737 28.2579 8.96114 28.5146C8.9849 28.7712 9.21006 28.9613 9.46698 28.9417C9.63694 28.9287 9.78665 28.8252 9.85871 28.6708C9.93077 28.5164 9.91401 28.3351 9.8149 28.1965C9.71568 28.0579 9.54955 27.9836 9.38014 28.002Z" opacity="0" fill="rgb(252,100,12)" fill-rule="nonzero" />
		<path id="Vector" d="M13.8231 15.8001C13.7206 15.719 13.5919 15.5674 13.4823 15.703C10.902 18.8944 9.65373 16.2989 7.67297 14.5954C4.92484 12.2316 4.46499 10.8767 7.42601 8.2495C8.37133 7.41073 8.63263 6.69375 10.076 6.52148C10.5032 6.55259 11.0889 6.69233 11.4063 6.98604C12.2746 7.78757 13.0725 8.66893 13.9125 9.50167C14.3799 10.0024 14.9268 10.4364 15.3784 10.9516C16.6615 12.4154 15.4681 13.564 14.5813 14.6639L14.6098 14.6986L14.6578 14.7557C14.9265 15.0794 20.8216 20.8239 20.787 21.0685C20.7401 21.3996 20.3557 21.718 20.0204 21.616C18.6515 20.6852 14.2952 16.249 13.8231 15.8001ZM10.5835 8.16834C10.4594 8.35441 10.428 8.33251 10.4358 8.51025C10.775 8.95859 14.1053 12.2866 14.4917 12.4994C14.5821 12.3332 14.6423 12.2637 14.6308 12.0758C14.4038 11.5926 11.1213 8.26745 10.5835 8.16834ZM9.55068 9.10534L9.13289 9.52401C9.95796 10.3412 10.7662 11.1495 11.5772 11.9796C12.094 12.5085 12.8954 13.3859 13.4582 13.8227C13.5784 13.6692 13.7056 13.5146 13.8097 13.3505C13.2161 12.7769 9.94581 9.29294 9.55068 9.10534ZM8.49892 10.2655L8.09196 10.7065C9.21415 11.8515 10.3357 12.997 11.4597 14.14C11.6353 14.3185 12.1228 14.8803 12.3289 14.8976C12.462 14.7797 12.6111 14.6534 12.7387 14.5314L10.1516 11.9088C9.73707 11.4855 8.92766 10.6383 8.49892 10.2655ZM7.30117 11.4626C7.15124 11.6765 7.11193 11.6603 7.09233 11.8822C7.31168 12.1679 7.62347 12.4793 7.89068 12.7309C8.88024 13.6624 9.7639 14.696 10.7505 15.6275C10.9675 15.8323 11.2227 15.7864 11.5017 15.7633L11.5845 15.6183C11.5309 15.5245 10.2208 14.2294 10.1062 14.1346C9.47282 13.6108 7.98376 11.73 7.30117 11.4626Z" fill="rgb(252,100,12)" fill-rule="nonzero" />
		<path id="Vector" d="M27.852 29.6166C27.3829 29.7643 26.5121 29.7775 26.1647 29.4214C24.1997 27.4072 22.2144 25.4111 20.2298 23.4145C19.9116 23.0945 19.3623 22.5696 18.5957 21.7483C19.3623 20.9817 20.1528 20.1072 20.6558 19.6992C20.8502 19.7731 21.056 19.948 21.2071 20.0918C23.3235 22.1073 25.4094 24.1585 27.5005 26.2001C28.1731 26.857 29.0772 27.5337 28.7733 28.5944C28.6325 29.0858 28.2858 29.3767 27.852 29.6166ZM26.926 27.7039C26.6937 27.8122 26.5928 28.0881 26.7005 28.3207C26.808 28.5533 27.0834 28.6551 27.3165 28.5483C27.5506 28.441 27.653 28.1639 27.5449 27.9301C27.4368 27.6964 27.1593 27.5949 26.926 27.7039Z" fill="rgb(252,100,12)" fill-rule="nonzero" />
		<path id="Vector" d="M21.4732 15.3112L21.4379 15.0909C21.1531 13.2467 21.9684 11.5159 22.7441 9.89153C23.535 8.23493 24.5134 6.48211 26.4938 6.18746C30.87 5.75014 33.2393 11.5593 29.3639 13.9807C27.2579 15.2967 24.8593 16.5543 22.3135 16.0905C21.7524 16.6654 21.4321 17.0579 20.6626 17.8711C20.1052 18.4601 18.2115 20.2387 17.7347 21.0075C17.7259 21.0217 18.0454 21.924 17.7221 22.2728C17.0497 22.9981 16.4101 23.6232 15.7395 24.2872L11.4927 28.5158C10.8051 29.24 9.90585 30.2669 8.87546 29.6445C7.47593 28.7991 7.78122 27.682 8.7196 26.7512C10.9545 24.5341 13.1049 22.3577 15.3349 20.148C15.9329 19.5556 16.3089 19.9602 16.7571 20.0773C17.9286 18.9279 19.044 17.6921 20.2426 16.5635C20.6324 16.1965 21.0879 15.7663 21.431 15.362L21.4732 15.3112ZM26.4762 7.3451C24.7082 7.96012 24.2698 9.52095 23.4398 11.0455C23.0218 11.8134 22.7484 12.6924 22.5249 13.5346L23.1746 12.5766C24.5759 10.6461 25.9248 8.9383 27.7326 7.35142C27.2509 7.32194 26.9524 7.29943 26.4762 7.3451ZM28.6524 7.93839C28.0856 8.50463 27.5598 9.10968 27.0019 9.6808C25.3999 11.3204 24.0828 13.1297 22.6758 14.9348C22.9227 14.77 23.1414 14.6293 23.3702 14.4372C25.4981 12.8278 27.6709 10.7985 29.5882 8.93619C29.3521 8.57237 29.0728 8.09891 28.6524 7.93839ZM30.1305 9.91913C29.6206 10.3497 29.1427 10.9848 28.709 11.3638C27.4794 12.4384 25.444 14.3582 24.0681 15.1018L24.067 15.1426C25.8778 14.7497 28.6263 13.5257 29.7948 12.0129C30.1348 11.5729 30.3092 10.4672 30.1305 9.91913ZM9.33728 27.7643C9.19494 27.8433 9.10614 27.9929 9.10481 28.1556C9.10337 28.3183 9.18951 28.4693 9.33041 28.5509C9.47119 28.6326 9.64511 28.6322 9.78557 28.5499C9.99952 28.4248 10.0729 28.1507 9.94997 27.9353C9.82714 27.7201 9.55389 27.6437 9.33728 27.7643Z" fill="rgb(252,100,12)" fill-rule="nonzero" />
	</g>
</svg>
