<svg viewBox="0 0 25 24" xmlns="http://www.w3.org/2000/svg" xmlns:xlink="http://www.w3.org/1999/xlink" width="25.000000" height="24.000000" fill="none" customFrame="#000000">
	<rect id="Menu" width="25.000000" height="24.000000" x="0.000000" y="0.000000" />
	<path id="Vector 7" d="M5.20898 6.35C4.85 6.35 4.55898 6.64102 4.55898 7C4.55898 7.35898 4.85 7.65 5.20898 7.65L5.20898 7L5.20898 6.35ZM19.7923 7.65C20.1513 7.65 20.4423 7.35898 20.4423 7C20.4423 6.64102 20.1513 6.35 19.7923 6.35L19.7923 7L19.7923 7.65ZM5.20898 7L5.20898 7.65L19.7923 7.65L19.7923 7L19.7923 6.35L5.20898 6.35L5.20898 7Z" stroke="rgb(9,32,63)" stroke-linecap="round" stroke-width="1.29999995" />
	<path id="Vector 8" d="M5.20898 11.35C4.85 11.35 4.55898 11.641 4.55898 12C4.55898 12.359 4.85 12.65 5.20898 12.65L5.20898 12L5.20898 11.35ZM19.7923 12.65C20.1513 12.65 20.4423 12.359 20.4423 12C20.4423 11.641 20.1513 11.35 19.7923 11.35L19.7923 12L19.7923 12.65ZM5.20898 12L5.20898 12.65L19.7923 12.65L19.7923 12L19.7923 11.35L5.20898 11.35L5.20898 12Z" stroke="rgb(9,32,63)" stroke-linecap="round" stroke-width="1.29999995" />
	<path id="Vector 9" d="M5.20898 16.35C4.85 16.35 4.55898 16.641 4.55898 17C4.55898 17.359 4.85 17.65 5.20898 17.65L5.20898 17L5.20898 16.35ZM19.7923 17.65C20.1513 17.65 20.4423 17.359 20.4423 17C20.4423 16.641 20.1513 16.35 19.7923 16.35L19.7923 17L19.7923 17.65ZM5.20898 17L5.20898 17.65L19.7923 17.65L19.7923 17L19.7923 16.35L5.20898 16.35L5.20898 17Z" stroke="rgb(9,32,63)" stroke-linecap="round" stroke-width="1.29999995" />
</svg>
