<svg xmlns="http://www.w3.org/2000/svg" width="48" height="48" fill="none" viewBox="0 0 48 48"><path stroke="#09203f" stroke-width="2" d="M15.672 18.454a8.38 8.38 0 0 1 16.656 0l.378 3.4.01.086a12 12 0 0 0 1.61 4.769l.044.074.867 1.445c.787 1.312 1.18 1.967 1.095 2.506a1.5 1.5 0 0 1-.519.916c-.417.35-1.182.35-2.711.35H14.898c-1.529 0-2.294 0-2.711-.35a1.5 1.5 0 0 1-.52-.916c-.084-.539.31-1.194 1.096-2.506l.867-1.445.045-.074a12 12 0 0 0 1.61-4.77l.01-.085z"/><path stroke="#09203f" stroke-linecap="round" stroke-width="2" d="M19.653 32.609c.257 1.116.822 2.103 1.608 2.806.786.704 1.748 1.085 2.739 1.085s1.953-.381 2.74-1.085c.785-.703 1.35-1.69 1.607-2.806"/></svg>