<svg viewBox="0 0 36 36" xmlns="http://www.w3.org/2000/svg" xmlns:xlink="http://www.w3.org/1999/xlink" width="36.000000" height="36.000000" fill="none" customFrame="#000000">
	<rect id="Categories" width="36.000000" height="36.000000" x="0.000000" y="0.000000" />
	<path id="Vector" d="M17.2899 0.0142764C27.2283 -0.378063 35.6011 7.36428 35.9862 17.3028C36.3715 27.2414 28.6232 35.6086 18.6843 35.9867C8.75557 36.3644 0.398615 28.6257 0.013764 18.6972C-0.371087 8.76871 7.36173 0.406242 17.2899 0.0142764Z" fill="rgb(246,242,239)" fill-rule="nonzero" />
	<path id="Vector" d="M17.8513 17.4904C18.0524 17.4703 18.2413 17.4734 18.4429 17.4914C20.206 17.648 21.872 18.8497 22.971 20.1794C24.2549 21.7327 25.2937 23.9492 25.0928 26.0078C25.0148 26.8078 24.7645 27.6747 24.1032 28.1864C22.1424 29.7031 20.0864 27.1512 18.0129 26.9493L17.9071 26.9398C15.6322 26.9605 15.0573 28.4497 13.3255 28.6796C12.6992 28.7626 12.02 28.5443 11.5288 28.1533C10.9058 27.6573 10.6333 26.9117 10.541 26.1423C10.3034 24.1603 11.3787 21.9208 12.5926 20.4168C13.9729 18.7069 15.6721 17.7248 17.8513 17.4904Z" fill="rgb(252,100,12)" fill-rule="nonzero" />
	<path id="Vector" d="M12.8373 7.31932C13.4847 7.29239 14.0322 7.3731 14.6228 7.66455C15.6876 8.18987 16.4554 9.16606 16.8013 10.2923C17.1356 11.3813 17.124 12.7154 16.5625 13.7243C16.164 14.4402 15.574 14.8484 14.8016 15.0768C14.1892 15.2191 13.6428 15.1421 13.0689 14.8804C12.0306 14.4071 11.219 13.4035 10.838 12.3379C10.4476 11.2465 10.446 9.90612 10.9625 8.85702C11.3699 8.02964 11.9767 7.5968 12.8373 7.31932Z" fill="rgb(252,100,12)" fill-rule="nonzero" />
	<path id="Vector" d="M22.3141 7.23855C22.8798 7.23063 23.4342 7.39605 23.903 7.71258C24.5727 8.15914 24.9442 8.8987 25.1021 9.67061C25.3682 10.9713 25.0062 12.3881 24.2901 13.4917C23.6625 14.4585 22.8718 14.9614 21.7679 15.2018C21.242 15.15 20.7409 15.0716 20.2817 14.7918C19.529 14.3334 19.0775 13.5466 18.8792 12.7037C18.5894 11.4714 18.917 10.1392 19.5947 9.08771C20.2594 8.05682 21.1356 7.49852 22.3141 7.23855Z" fill="rgb(252,100,12)" fill-rule="nonzero" />
	<path id="Vector" d="M7.76535 14.3076C8.36716 14.2737 8.86661 14.3114 9.42862 14.5476C10.427 14.9675 11.306 15.8734 11.6788 16.8945C11.9023 17.5067 11.9273 18.1974 11.6426 18.7947C11.2997 19.5141 10.703 19.8289 9.9872 20.071C9.16373 20.1241 8.4996 20.0542 7.75843 19.6467C6.86485 19.1553 6.1029 18.3041 5.83752 17.3063C5.66243 16.6477 5.6861 15.9255 6.06184 15.3391C6.45008 14.7332 7.08777 14.4507 7.76535 14.3076Z" fill="rgb(252,100,12)" fill-rule="nonzero" />
	<path id="Vector" d="M27.6192 14.3147C28.1876 14.2801 28.7346 14.391 29.2189 14.7052C29.6572 14.9893 29.9223 15.4326 30.0277 15.9386C30.203 16.7797 29.9792 17.6544 29.5097 18.3623C28.8193 19.4031 27.7843 19.9485 26.5908 20.2011C26.0366 20.2369 25.4073 20.0681 24.9491 19.7528C24.4801 19.4302 24.2085 18.9273 24.1224 18.3714C23.9863 17.493 24.2881 16.587 24.818 15.8885C25.5176 14.9662 26.4906 14.4682 27.6192 14.3147Z" fill="rgb(252,100,12)" fill-rule="nonzero" />
</svg>
