<svg  viewBox="0 0 123 115" fill="none" xmlns="http://www.w3.org/2000/svg">
<g filter="url(#filter0_i_2464_3493)">
<g clip-path="url(#clip0_2464_3493)">
<path d="M73.5224 4.67967C72.4354 4.93966 71.6963 6.36958 71.6963 6.36958C71.6963 6.36958 71.3485 5.11298 71.3485 3.98638C71.3485 2.81645 72.0006 1.60319 72.0441 1.38653C72.0876 1.16988 71.8267 0.2166 71.3919 0.0866076C70.9572 -0.0433849 69.7398 0.2166 69.6528 0.996555C69.6093 1.73318 70.4354 1.86317 70.0006 2.5998C70.0006 2.5998 69.3919 3.5964 68.5224 3.63973C67.7833 3.68307 66.8267 3.50974 66.6963 2.5998C66.5659 1.68985 66.9572 1.29987 66.8267 0.866562C66.6963 0.433254 65.7833 0.173269 65.0441 0.649908C64.3485 1.08322 64.3485 1.77651 64.6528 2.12316C65.0006 2.4698 65.5659 2.55646 65.4789 3.55307C65.3919 4.54968 65.218 5.93627 65.218 5.93627C65.218 5.93627 64.0876 4.67967 63.2615 4.41969C62.4354 4.20304 60.4354 4.54968 60.3485 4.76634C60.2615 4.98299 61.3485 5.58962 61.8702 6.5429C62.3919 7.49618 63.7833 7.92949 64.3485 7.53951C63.8267 9.01276 64.4354 9.3594 64.7833 9.70605C64.3485 11.2226 64.218 13.2592 64.7398 13.7791C65.2615 14.2991 65.4789 14.3424 65.4789 14.3424C65.4789 14.3424 65.3485 15.6424 64.9137 18.7189C64.4789 21.7953 62.9572 33.668 62.0006 37.1778C61.0441 40.6876 59.305 44.0674 58.7398 46.0606C58.218 48.0538 56.5659 49.8737 54.6528 50.957C52.7398 51.9969 50.7398 52.2136 49.5659 55.3767C48.5659 58.1066 48.0441 60.4898 47.8267 62.7863C47.0006 64.8662 46.7398 67.1194 47.0876 69.3293C47.3919 71.2358 48.1311 73.0557 48.3919 74.9623C48.6093 76.3489 48.6093 77.7354 48.3485 79.122C48.0441 80.8119 47.3919 82.5018 47.5224 84.1917C47.6093 85.3183 48.0441 86.4449 48.6528 87.4416C48.4354 86.8349 48.6093 86.0983 48.9137 85.535C49.218 84.9717 49.6963 84.4517 50.0006 83.8451C50.6963 82.5885 50.8267 81.0719 50.5224 79.642C50.305 78.6021 49.9572 77.6488 49.6528 76.6088C49.305 75.3956 49.0441 74.0957 48.9137 72.8391C49.6528 74.6156 50.5224 76.2622 50.6963 77.1721C50.9137 78.4287 51.9137 81.7219 51.7833 82.5885C51.6528 83.4551 51.0441 83.2385 51.2615 84.495C51.4789 85.7516 51.9137 85.535 52.2615 86.6616C52.6093 87.7882 53.218 92.6846 53.305 94.8944C53.4354 97.1043 53.9137 99.4875 53.8702 100.571C53.8267 101.654 53.218 102.261 53.4354 103.171C53.6528 104.081 54.0441 104.861 54.0441 104.861C53.9137 105.294 53.1311 106.594 53.1746 107.114C53.218 107.634 53.7398 108.674 53.7398 108.674C53.7398 108.674 56.6528 109.02 56.9137 108.804C57.1746 108.63 57.3485 107.417 57.3485 107.417L56.4354 104.904L56.5659 102.044C56.4354 100.787 55.6093 98.6642 55.3919 96.2377C55.1746 93.8112 55.0441 88.0482 55.0876 87.3549C55.1311 86.6616 55.6528 84.6684 55.2615 83.1951C54.8702 81.6786 54.7398 78.6021 54.9572 76.3489C55.1746 74.0956 55.6528 71.9724 55.6528 71.9724L56.8702 73.229C56.8702 73.229 56.7833 75.9589 57.6528 77.7354C58.5224 79.512 58.9572 80.4653 58.9572 80.4653C58.9572 80.4653 57.0006 84.0617 56.9572 85.145C56.9137 86.2283 58.6963 88.2215 58.7398 89.0881C58.7833 89.9547 59.3485 94.0278 59.218 96.3677C59.0876 98.7076 58.8702 103.994 58.4789 105.034C58.0441 106.074 57.3919 110.234 57.2615 111.36C57.1311 112.443 57.1746 113.83 57.5659 114.307C57.9572 114.783 61.6528 114.913 61.9572 114.697C62.218 114.48 62.5224 113.397 62.3919 112.877C62.2615 112.4 61.7398 111.317 61.6963 111.23C61.6528 111.144 61.8702 110.06 61.8267 108.587L62.0441 108.63C62.0441 108.63 62.8702 108.067 62.7398 107.114C62.6528 106.464 61.8267 104.081 61.3485 102.564C61.3485 101.611 61.3919 100.441 61.5224 98.8809C61.8267 94.1145 61.9137 92.9879 62.3919 91.9913C62.8702 90.9947 63.218 89.3914 62.8267 87.8315C62.4354 86.2716 61.6963 84.0184 61.9572 82.4152C62.218 80.8119 63.5224 79.122 63.8267 77.6921C64.1311 76.2622 64.1746 74.4423 64.1746 74.4423L65.2615 74.009L66.305 75.2223C66.305 75.2223 66.3919 80.0753 66.1746 82.9351C65.9572 85.795 65.1746 86.3583 65.0441 88.1348C64.9137 89.9114 65.7398 91.6013 65.7398 91.6013C65.7398 91.6013 66.4789 95.9777 66.305 99.7475C66.1311 103.561 65.7398 105.51 65.4789 106.377C65.218 107.287 64.7833 107.374 65.0876 108.327C65.3919 109.28 65.8267 109.324 65.5659 110.537C65.305 111.793 65.0441 113.483 65.4354 114.047C65.8702 114.61 69.6093 114.913 70.0006 114.393C70.3919 113.873 70.6093 111.923 70.3919 111.273C70.1746 110.624 69.0441 109.194 69.0876 108.067C69.1311 106.94 68.3919 105.164 68.2615 103.864C68.1311 102.564 68.1311 93.8545 68.4354 92.9446C68.7398 91.9913 69.5224 89.3048 69.3919 87.4416C69.2615 85.5783 69.0441 83.7584 69.0441 83.7584L70.4789 78.0388C71.1746 76.0455 72.8702 71.9724 73.1311 69.3726C73.3919 66.7294 73.3919 63.003 72.9137 60.4031C72.4354 57.8033 70.3919 53.3835 70.3919 53.3835C70.3919 53.3835 70.1311 50.3504 69.8702 49.2238C69.6093 48.0972 68.8702 47.3605 68.8702 47.1005C68.8267 46.8839 69.1746 29.6382 69.3485 25.6085C69.5224 21.5787 69.7398 17.2023 69.7398 17.2023C69.7398 17.2023 71.305 17.1156 71.5659 16.509C71.8267 15.9024 71.6093 13.6058 71.6093 13.6058C71.6093 13.6058 72.0876 13.4758 72.1746 13.0859C72.2615 12.6959 72.218 10.096 72.218 10.096C72.218 10.096 72.6093 9.53273 72.8267 9.09942C73.0441 8.66611 72.8702 7.79949 72.8702 7.79949C72.8702 7.79949 74.392 7.45285 74.9572 6.71622C75.5224 5.9796 76.0006 4.37636 76.0006 4.37636C76.0006 4.37636 74.6093 4.37636 73.5224 4.67967Z" fill="#09203F"/>
</g>
</g>
<defs>
<filter id="filter0_i_2464_3493" x="0" y="0" width="123" height="115" filterUnits="userSpaceOnUse" color-interpolation-filters="sRGB">
<feFlood flood-opacity="0" result="BackgroundImageFix"/>
<feBlend mode="normal" in="SourceGraphic" in2="BackgroundImageFix" result="shape"/>
<feColorMatrix in="SourceAlpha" type="matrix" values="0 0 0 0 0 0 0 0 0 0 0 0 0 0 0 0 0 0 127 0" result="hardAlpha"/>
<feOffset/>
<feGaussianBlur stdDeviation="2"/>
<feComposite in2="hardAlpha" operator="arithmetic" k2="-1" k3="1"/>
<feColorMatrix type="matrix" values="0 0 0 0 0 0 0 0 0 0 0 0 0 0 0 0 0 0 0.25 0"/>
<feBlend mode="normal" in2="shape" result="effect1_innerShadow_2464_3493"/>
</filter>
<clipPath id="clip0_2464_3493">
<rect width="29" height="115" fill="white" transform="translate(47)"/>
</clipPath>
</defs>
</svg>
