<svg width="628" height="472" viewBox="0 0 628 472" fill="none" xmlns="http://www.w3.org/2000/svg">
<g clip-path="url(#clip0_4051_18486)">
<path d="M72.1523 -25.1514H590.48V473.039H72.1523V-25.1514Z" fill="#F6F2EF"/>
<path d="M318.84 5.71956C319.384 4.21809 320.728 0.381868 322.031 -0.330078C322.621 1.0103 321.27 5.51213 321.203 7.6968C322.026 6.24066 323.936 2.1178 325.141 1.45296C325.604 2.11932 324.277 7.16445 324.657 9.27631L324.9 9.47046C325.534 8.67277 325.992 7.87914 326.945 7.60168L327.388 7.70359C327.45 9.37934 326.182 11.1067 326.508 12.1931C326.71 12.0696 327.018 11.8973 327.194 11.7569C327.886 9.38177 328.075 8.82321 329.287 6.5961C328.968 8.49586 328.635 10.3933 328.288 12.2881C328.297 12.9488 328.206 14.1129 328.48 14.5939C328.968 13.8339 329.819 11.9816 330.353 11.7089C331.653 17.1856 321.499 31.647 319.061 37.2772C316.998 42.041 315.658 45.5659 313.902 50.5746C315.084 51.364 316.256 52.0846 317.496 52.7838C325.804 57.4674 332.973 65.0528 337.892 73.1752C344.755 70.7414 353.851 66.3128 359.708 62.0602C378.332 48.5388 401.803 50.89 421.791 40.5355C434.493 33.9551 434.132 44.2867 431.236 53.2665C423.263 81.3032 408.426 111.181 377.8 119.062C371.693 120.64 366.368 120.633 360.079 120.829C363.344 125.123 366.988 129.185 370.179 133.447C375.088 140.002 379.807 147.643 383.752 154.817C386.864 160.476 389.124 167.339 392.103 173.002C390.062 171.88 388.453 170.947 386.504 169.678C389.083 174.148 392.11 179.138 394.207 183.781C396.416 188.673 397.929 192.951 400.323 197.855C399.403 197.034 396.878 194.919 396.283 194.081L395.728 193.991C398.758 199.449 401.787 205.154 404.882 210.54C408.035 216.027 410.977 220.675 413.912 226.344C411.827 225.607 411.236 225.371 409.307 224.174C411.364 226.883 412.754 230.045 414.484 232.799C419.406 240.637 428.296 256.159 436.345 260.45L436.773 260.683L437.09 260.851C435.532 261.997 428.983 258.861 427.126 258.05C429.245 260.347 430.688 261.818 433.105 263.872C436.247 266.54 440.013 268.899 442.529 272.123C439.134 273.819 437.824 273.381 434.029 272.908C436.482 276.153 438.569 279.672 440.817 283.061C443.191 286.64 445.371 289.566 447.206 293.482C444.81 291.921 444.004 291.51 442.022 289.531C447.784 299.406 455.731 309.616 462.478 318.91C463.246 319.969 466.656 323.657 466.536 324.309C464.929 324.872 462.575 323.003 461.221 322.079C464.912 327.708 469.681 333.49 474.135 338.562C475.987 340.672 478.719 342.364 480.594 344.795C478.476 343.724 476.879 342.917 474.646 342.06C476.793 344.691 479.775 347.26 482.303 349.591C486.921 353.869 491.593 358.087 496.318 362.246C499.392 364.968 504.394 369.267 507.076 372.282C503.364 371.257 501.193 369.663 497.787 368.283C502.547 373.95 510.155 381.981 515.685 386.717C513.865 386.011 509.101 384.541 507.893 383.726C515.583 391.632 525.486 398.517 534.566 404.744C535.511 405.392 539.712 407.764 540.041 408.483C537.993 409.232 532.976 407.386 530.991 406.458C529.501 405.747 528.082 404.896 526.752 403.917C522.634 403.106 503.109 383.577 499.249 379.869C499.079 380.203 498.9 380.5 498.712 380.824C495.588 381.022 490.645 380.234 492.745 375.873C493.219 374.887 493.626 373.815 494.039 372.796L494.365 372.73C495.541 373.747 495.436 373.727 495.965 375.109C496.502 376.512 500.445 376.021 501.697 378.281C502.984 379.025 504.439 379.767 505.76 380.474C504.673 379.457 503.566 378.46 502.441 377.485L501.983 377.44C500.886 376.691 500.015 375.804 499.088 374.856C495.675 371.361 492.206 368.208 488.852 364.642L488.737 365.237C485.915 364.885 485.294 362.224 482.823 362.148C482.623 361.858 482.454 361.606 482.262 361.307L482.086 361.583C477.9 359.447 480.077 358.855 478.109 356.849C477.646 356.719 477.042 356.549 476.297 356.339C475.865 355.905 475.764 354.671 474.809 355.3C473.962 355.858 473.902 355.984 473.656 357.042L473.028 357.361C473.793 359.197 478.881 365.253 480.315 367.081C483.608 371.323 487 375.487 490.487 379.571C500.158 390.923 510.012 402.118 520.044 413.151C526.999 420.562 534.078 427.854 541.278 435.027C543.564 437.324 551.153 445.453 553.224 446.605L553.637 446.6C552.888 445.914 552.055 444.249 552.044 443.243L552.325 443.016C552.837 443.293 552.695 443.156 553.068 443.575L552.867 443.884L555.388 445.808C554.929 446.434 555.02 446.474 554.402 446.798L554.76 447.468C554.209 447.721 554.465 447.581 553.989 447.885L554.265 448.915C554.126 450.513 555.173 451.821 556.854 451.509C562.25 458.175 569.01 465.189 574.742 471.916C572.06 470.429 566.552 465.418 564.009 463.209C550.49 451.446 537.533 439.052 525.18 426.067C492.911 392.368 464.849 359.806 440.437 319.943C424.152 293.166 409.849 265.228 397.645 236.355C392.922 225.395 388.22 213.233 383.702 202.103C376.621 184.654 369.024 167.152 362.041 149.704C361.339 153.735 361.198 156.103 359.283 159.704L366.246 174.523C369.848 182.025 375.07 189.371 370.913 197.535C365.729 207.716 345.451 194.736 343.532 187.177C342.589 183.466 342.015 179.692 340.816 175.95C338.131 176.734 335.13 177.047 332.343 177.432C322.917 198.702 308.828 217.897 289.757 231.414C290.652 232.479 291.63 233.805 292.494 234.922C294.896 232.404 302.871 226.098 306.157 226.601C310.144 227.212 304.581 241.974 303.937 244.632C303.368 246.995 303.032 249.409 302.937 251.838C302.639 258.269 304.56 260.08 306.519 265.83C309.933 275.851 313.905 285.521 317.873 295.32L330.978 328.423C341.311 353.892 352.416 379.039 364.278 403.831C370.944 417.703 377.878 431.445 385.075 445.049C389.53 453.323 396.581 464.731 399.978 472.917C397.656 470.236 395.791 466.984 393.818 464.034C389.776 457.988 386.044 451.914 382.445 445.591C379.709 440.781 376.801 436.076 374.154 431.196C367.224 418.135 360.611 404.908 354.322 391.526C341.21 364.534 329.369 336.942 318.839 308.839L305.575 272.494C301.767 262.006 298.017 251.355 292.861 241.428C289.487 234.931 286.044 231.336 280.518 226.907C279.455 228.076 278.31 229.479 277.069 230.415C274.168 233.37 270.831 236.049 267.743 238.812C252.891 252.098 231.99 265.943 212.108 269.631C212.007 282.111 204.008 281.828 194.386 280.708C185.346 279.654 179.891 277.706 180.504 267.187C171.289 262.724 164.026 253.789 160.756 244.173C160.05 242.098 159.467 239.961 158.754 237.852C145.097 245.938 118.86 255.478 106.907 240.324C96.0876 238.309 89.3535 233.83 92.2007 221.27C93.122 217.206 95.3355 213.167 96.5283 209.141C97.7225 205.111 98.3777 200.841 100.173 197.045C102.106 193.555 105.096 191.56 106.85 187.419C108.763 183.069 108.902 177.514 112.144 173.842C114.393 171.583 118.495 172.81 121.288 172.694C127.765 172.406 133.501 166.904 138.03 162.56C145.925 154.987 154.425 148.296 162.664 141.122C173.021 132.248 182.927 122.858 192.344 112.989C180.012 97.8512 194.338 87.1378 208.599 83.7725C212.294 77.5871 214.063 77.007 220.288 73.4744C209.862 62.978 208.166 53.8826 203.094 40.6146C201.934 37.5779 199.475 33.2112 198.988 30.2277C199.683 29.2496 201.304 28.7563 202.438 28.9819C215.375 31.5562 232.149 37.7255 241.085 47.6697C246.995 39.1351 251.969 30.8585 255.323 20.9566C256.755 16.7308 258.466 11.3284 261.272 7.90261C263.361 5.35231 270.471 0.134175 273.693 -0.168736L273.643 0.106641C272.668 1.21094 272.002 1.41878 270.688 2.0678C269.306 4.35936 268.935 6.0207 268.289 8.59767C270.72 5.94677 271.789 4.37518 273.79 1.3911C273.708 2.56364 273.035 5.95747 273.385 6.72844L273.933 6.65005C274.577 5.89744 275.507 4.6642 276.509 4.62241L276.516 5.19644C275.595 7.19198 274.587 8.49119 274.938 10.5962C275.807 9.90211 275.52 8.86407 276.343 8.55406C276.281 10.0239 275.47 10.6551 275.683 11.7403C276.837 11.4465 278.395 7.44703 279.759 8.18164C280.306 10.0905 279.078 14.0063 278.605 16.1453C279.788 15.2106 280.943 14.2412 282.069 13.2382C280.938 15.8274 279.058 20.2234 277.629 22.5048C271.523 32.2514 266.509 38.734 264.616 50.5294C272.35 47.2417 280.597 45.0873 289.03 44.7288C297.155 36.1308 301.096 25.9564 303.927 14.6542C304.444 12.5913 305.5 6.3049 306.582 4.8446C307.27 5.66769 306.979 8.26003 306.918 9.40261C307.076 9.73559 307.198 10.0492 307.404 10.3452C307.712 9.09995 308.459 6.24618 309.549 5.63443L310.138 5.99403C310.741 4.52668 311.815 1.46081 312.971 0.485761L313.357 0.724885C313.655 2.02242 313.618 2.53393 313.604 3.8803C313.764 4.75952 313.672 5.33512 314.202 5.70314C315.155 4.56476 315.3 1.42471 316.161 0.682396C316.519 1.43136 316.571 1.98455 316.719 2.79334L316.847 2.43972C317.026 1.95777 317.187 1.59914 317.398 1.13443L317.742 1.09888C318.453 2.294 318.6 4.24902 318.84 5.71956Z" fill="#09203F"/>
<path d="M159.825 237.086C162.022 235.92 166.123 232.596 168.021 230.877C170.204 228.901 172.046 226.227 174.94 225.066C191.095 218.587 209.736 220.356 226.482 219.482C240.089 218.772 253.374 218.729 266.634 217.956C270.295 220.661 273.488 222.818 277.528 224.943C278.369 225.386 278.961 225.646 279.151 226.403L279.705 226.822C279.264 228.368 276.95 229.002 277.065 230.416C274.164 233.371 270.827 236.05 267.739 238.813C252.887 252.099 231.986 265.944 212.104 269.632C212.003 282.112 204.004 281.829 194.382 280.708C185.342 279.655 179.887 277.707 180.5 267.187C171.285 262.724 164.022 253.79 160.752 244.174C160.046 242.099 159.463 239.962 158.75 237.853L159.825 237.086Z" fill="#F6F2EF"/>
<path d="M279.705 226.821L279.151 226.402C272.95 231.739 266.532 237.77 260.273 242.804C249.714 251.295 237.602 259.057 224.946 263.991C220.084 265.887 216.727 266.572 212.023 268.059C211.733 266.978 211.12 264.169 209.931 263.784C204.118 261.904 197.941 260.391 191.967 259.033C186.734 257.843 181.216 262.947 180.5 267.186C179.886 277.706 185.342 279.654 194.382 280.707C204.004 281.828 212.003 282.111 212.104 269.631C231.986 265.943 252.887 252.098 267.739 238.812C270.827 236.049 274.164 233.37 277.065 230.415C276.949 229.001 279.264 228.367 279.705 226.821Z" fill="#09203F"/>
<path d="M358.442 130.526C359.688 125.677 359.418 125.716 357.652 121.4L357.88 121.208C359.301 121.96 360.888 125.062 361.982 126.489C368.863 135.476 375.051 145.149 380.883 154.849C383.458 159.131 385.787 164.222 388.162 168.68C386.122 166.775 384.021 165.37 381.861 163.64C379.875 162.05 377.92 160.181 376.051 158.439C378.103 161.595 379.882 165.03 381.947 168.118C385.347 173.015 388.329 178.069 391.203 183.289C392.531 185.7 394.121 188.063 395.258 190.57C396.103 191.234 396.625 193.014 396.277 194.081L395.722 193.99C398.753 199.448 401.781 205.154 404.876 210.54C408.03 216.027 410.971 220.674 413.907 226.343C411.822 225.606 411.231 225.371 409.302 224.174C411.359 226.883 412.748 230.045 414.478 232.798C419.401 240.636 428.29 256.158 436.34 260.45L436.767 260.682L437.085 260.85C435.527 261.997 428.977 258.861 427.121 258.049C429.239 260.347 430.683 261.818 433.1 263.871C436.242 266.54 440.008 268.899 442.523 272.123C439.129 273.819 437.818 273.381 434.023 272.908C436.476 276.152 438.563 279.672 440.811 283.06C443.185 286.639 445.365 289.565 447.2 293.482C444.805 291.921 443.999 291.51 442.017 289.531C447.779 299.406 455.726 309.615 462.472 318.91C463.241 319.969 466.651 323.657 466.531 324.309C464.923 324.872 462.57 323.003 461.215 322.079C464.907 327.708 469.675 333.49 474.129 338.562C475.982 340.671 478.713 342.363 480.588 344.794C478.47 343.723 476.873 342.916 474.641 342.06C476.788 344.691 479.77 347.26 482.298 349.591C486.915 353.868 491.588 358.087 496.313 362.246C499.386 364.967 504.388 369.267 507.071 372.282C503.359 371.256 501.187 369.663 497.782 368.283C502.542 373.949 510.15 381.981 515.679 386.716C513.859 386.011 509.096 384.541 507.888 383.726C515.577 391.632 525.48 398.516 534.56 404.743C535.505 405.392 539.706 407.763 540.035 408.482C537.988 409.231 532.97 407.386 530.986 406.458C529.496 405.746 540.391 420.456 539.061 419.477L552.039 435.026L553.984 441.318L555.134 443.197C555.173 443.09 558.241 445.22 557.759 444.958L552.996 443.53C553.979 445.469 554.537 446.724 554.396 446.798L554.755 447.467C554.203 447.721 554.459 447.581 553.984 447.884L554.259 448.915C553.104 448.159 547.815 442.456 546.389 440.98L529.708 423.85C498.959 392.244 469.988 357.673 446.519 320.248C429.444 293.02 415.406 264.195 402.204 234.931C395.941 221.048 390.615 206.313 384.735 192.19C378.358 176.804 371.672 161.548 364.682 146.432C364.112 145.178 363.13 143.145 362.739 141.91C361.325 137.437 361.059 134.549 358.442 130.526Z" fill="#84495B"/>
<path d="M386.512 181.784C388.883 183.932 391.245 185.962 393.118 188.576C393.761 189.184 394.596 190.023 395.26 190.568C396.105 191.233 396.627 193.013 396.279 194.08L395.724 193.989C398.755 199.447 401.783 205.153 404.878 210.538C408.032 216.026 410.973 220.673 413.909 226.342C411.824 225.605 411.233 225.37 409.304 224.172C411.361 226.882 412.751 230.044 414.48 232.797C419.403 240.635 428.292 256.157 436.342 260.449L436.769 260.681L437.087 260.849C435.529 261.995 428.979 258.86 427.123 258.048C429.241 260.345 430.685 261.817 433.102 263.87C436.244 266.538 440.01 268.898 442.526 272.121C439.131 273.817 437.82 273.379 434.025 272.906C436.478 276.151 438.565 279.67 440.813 283.059C443.187 286.638 445.367 289.564 447.202 293.48C444.807 291.919 444.001 291.508 442.019 289.529C447.781 299.405 455.728 309.614 462.474 318.908C463.243 319.967 466.653 323.655 466.533 324.307C464.926 324.87 462.572 323.001 461.217 322.077C464.909 327.707 469.678 333.488 474.131 338.56C475.984 340.67 478.715 342.362 480.59 344.793C478.472 343.722 476.875 342.915 474.643 342.059C476.79 344.689 479.772 347.258 482.3 349.589C486.918 353.867 491.59 358.085 496.315 362.244C499.388 364.966 504.39 369.265 507.073 372.281C503.361 371.255 501.189 369.661 497.784 368.282C502.544 373.948 510.152 381.98 515.681 386.715C513.861 386.01 509.098 384.54 507.89 383.724C515.579 391.63 525.482 398.515 534.562 404.742C535.507 405.39 539.709 407.762 540.038 408.481C537.99 409.23 532.972 407.385 530.988 406.456C529.498 405.745 528.079 404.894 526.749 403.915C522.631 403.105 503.106 383.575 499.246 379.868C499.076 380.201 498.897 380.498 498.709 380.822C495.585 381.02 490.641 380.232 492.741 375.872C493.216 374.885 493.622 373.813 494.035 372.794L494.362 372.728C495.537 373.746 495.432 373.725 495.962 375.107C496.499 376.51 500.442 376.019 501.693 378.279C502.981 379.023 504.436 379.765 505.757 380.472C504.669 379.455 503.563 378.459 502.438 377.483C501.819 376.381 489.33 364.502 487.362 362.421C489.892 363.298 492.582 364.189 494.989 365.335L495.475 365.097C492.539 363.248 488.667 359.284 486.001 356.838C477.591 349.122 468.628 340.165 461.328 331.338C464.766 334.101 467.362 336.164 471.112 338.473C465.04 331.942 459.649 324.84 454.048 317.908C452.202 315.623 450.343 313.29 448.616 310.917C451.694 312.956 454.43 315.269 457.374 317.5C451.197 309.579 446.105 301.776 441.024 293.176C438.448 288.818 434.89 283.432 432.783 278.919C434.128 280.337 438.094 285.102 439.213 286.044C439.048 285.157 427.395 268.106 425.834 265.766C429.523 268.116 432.3 268.86 436.433 270.039C426.512 262.377 422.604 258.669 415.307 248.24C417.969 249.295 419.526 250.359 421.95 251.908C422.165 251.422 422.631 250.719 422.921 250.243C416.098 241.736 410.889 232.338 405.265 223.047C403.585 220.273 402.088 217.597 400.605 214.713C403.41 216.975 406.216 219.345 408.996 221.647C407.099 219.413 403.92 214.13 402.368 211.519C396.639 201.873 391.886 191.649 386.512 181.784Z" fill="#09203F"/>
<path d="M526.746 403.917C522.628 403.106 503.103 383.577 499.243 379.869C499.073 380.202 498.894 380.5 498.706 380.824C495.582 381.022 490.639 380.233 492.738 375.873C493.213 374.887 493.62 373.815 494.033 372.795L494.359 372.729C495.534 373.747 495.43 373.727 495.959 375.109C496.496 376.512 500.439 376.021 501.691 378.281C499.788 377.393 498.34 376.681 496.345 376.054C506.744 386.779 514.697 394.58 526.746 403.917Z" fill="#84495B"/>
<path d="M393.113 188.576C393.757 189.184 394.592 190.023 395.255 190.568C396.101 191.233 396.623 193.013 396.275 194.08L395.72 193.989C394.77 191.857 393.721 190.86 393.113 188.576Z" fill="#09203F"/>
<path d="M422.916 250.244C423.639 251.001 426.21 253.466 426.456 254.223L425.527 253.773C424.587 252.795 423.511 252.442 422.216 252.152L421.945 251.91C422.16 251.423 422.626 250.721 422.916 250.244Z" fill="#09203F"/>
<path d="M422.215 252.151C423.51 252.442 424.586 252.794 425.526 253.773L425.339 254.661L424.916 254.729C423.866 254.261 423.009 253.064 422.215 252.151Z" fill="#09203F"/>
<path d="M495.475 365.098C496.462 365.567 496.613 365.632 497.453 366.306L497.456 366.604C496.485 366.473 495.808 365.891 494.988 365.335L495.475 365.098Z" fill="#09203F"/>
<path d="M554.397 446.798C553.838 446.098 552.863 444.693 552.637 443.855L552.861 443.884L555.383 445.808C554.924 446.433 555.015 446.474 554.397 446.798Z" fill="#09203F"/>
<path d="M310.137 5.9946C310.74 4.52725 311.814 1.46138 312.969 0.486328L313.356 0.725452C313.654 2.02299 313.616 2.5345 313.603 3.88086C312.345 4.71197 312.683 6.20725 311.632 7.22647C310.597 7.21775 310.658 6.97715 310.137 5.9946Z" fill="#09203F"/>
<path d="M329.281 6.5957C328.962 8.49546 328.629 10.3929 328.281 12.2877C327.941 12.8352 327.963 12.7857 327.536 13.2667L327.256 13.0374L327.188 11.7565C327.879 9.38138 328.069 8.82281 329.281 6.5957Z" fill="#09203F"/>
<path d="M273.93 6.6497C274.574 5.89709 275.504 4.66385 276.506 4.62207L276.513 5.1961C276.033 5.86586 275.575 6.75385 274.938 7.01894L275.108 7.06903L274.718 7.56351L274.679 7.55976C274.543 7.14616 274.588 7.39694 274.643 6.79584C274.158 6.52923 274.4 6.55321 273.93 6.6497Z" fill="#09203F"/>
<path d="M306.908 9.40137C307.066 9.73435 307.188 10.048 307.394 10.3439C307.253 11.9147 307.409 12.4576 306.469 13.4886L306.614 13.6549C306.282 12.5987 306.732 10.5818 306.908 9.40137Z" fill="#09203F"/>
<path d="M266.416 65.6108C264.577 67.3744 262.778 69.1789 261.021 71.0241C260.467 71.5981 257.769 74.2499 257.777 74.7306C258.691 74.1982 260.967 72.1355 261.926 71.3258C264.15 69.4254 266.428 67.5893 268.757 65.8192C278.582 58.3276 290.098 49.4182 296.751 38.9807C302.372 30.1636 307.699 17.6367 310.926 7.75293C310.612 14.6039 309.043 21.4338 308.391 28.216C310.908 21.6002 313.205 15.2788 315.867 8.69355C315.91 11.319 315.649 14.355 315.35 16.9805C315.208 18.2333 314.298 20.2789 314.447 21.2588C315.604 18.9045 317.104 15.8043 317.775 13.2807C318.731 17.0155 313.938 24.4728 313.825 26.1721C316.01 25.2112 317.562 19.4796 319.055 17.1876C319.613 17.5244 319.464 17.3453 319.806 17.8468L320.52 16.2339C320.786 16.8917 320.932 17.18 321.072 17.8789C320.195 21.1654 320.89 21.4477 319.154 25.2376C321.587 21.9416 321.908 20.3553 323.464 16.5901C322.683 23.4102 322.945 23.3282 319.733 29.579C314.03 40.6772 306.702 54.6616 311.097 67.3176C313.329 73.7439 318.122 76.1153 323.89 78.7378C318.631 81.1772 314.303 82.6882 308.899 85.4881C314.145 84.9552 323.038 82.4747 327.814 79.9213C329.853 84.4827 331.362 87.9301 332.552 92.8221C329.381 93.4615 325.595 93.8387 322.337 94.2347C326.374 95.0212 329.147 95.0551 333.192 95.0313C334.234 100.568 334.591 105.253 335.36 110.712C323.717 106.296 320.349 104.062 309.948 97.7217C314.08 102.904 322.306 108.551 327.73 112.46C324.516 113.079 322.13 113.986 319.284 115.586C308.737 121.514 305.119 130.379 301.991 141.354C298.059 144.276 288.129 152.461 288.881 157.989C289.416 161.92 294.053 167.844 298.597 166.828C301.488 166.181 302.965 163.022 304.356 160.701C307.937 167.794 311.346 171.247 318.412 174.725C308.923 180.909 306.195 189.908 301.779 199.807C294.652 215.784 281.263 213.832 266.377 214.485L225.914 216.032C212.8 216.461 198.912 216.387 185.936 218.69C182.911 219.227 178.592 220.797 175.61 221.811C179.465 216.101 183.064 207.508 186.121 201.201C187.932 197.466 185.994 194.027 182.641 191.879C177.528 188.602 171.409 185.311 165.543 183.481C170.742 186.964 177.21 189.344 182.198 193.412C186.005 196.517 185.371 199.244 183.064 203.156C180.132 208.129 177.683 213.816 174.556 218.647C173.514 220.261 172.354 221.794 171.084 223.234C159.761 236.204 132.39 250.206 114.727 243.405C113.252 242.837 111.079 241.342 109.89 240.277C116.13 240.34 123.728 240.668 129.429 237.762C135.489 234.995 140.613 229.106 146.163 225.883C159.896 217.908 169.036 212.313 178.956 199.495C172.879 203.61 168.156 208.275 161.513 212.258C151.963 217.983 142.658 220.082 132.754 224.605C127.085 227.194 121.703 231.653 116.063 234.656C109.131 238.346 96.4058 237.708 95.1002 228.202C94.8525 226.335 94.9099 224.439 95.2701 222.589C95.9939 218.766 97.9791 214.874 98.8677 210.817C99.5193 207.841 100.254 201.017 101.585 198.777C103.75 195.135 107.054 192.615 108.853 188.197C110.436 184.306 110.96 178.838 113.355 175.579C115.935 173.21 121.628 175.152 124.744 174.483C131.022 173.137 135.462 168.296 140.184 164.324C144.151 160.986 147.904 157.426 151.787 154.033C162.784 144.425 173.634 134.637 184.044 124.394C189.336 119.187 194.422 113.962 199.015 108.116C202.216 103.977 204.992 99.5243 207.302 94.8275C210.015 89.436 214.036 80.0217 219.627 77.387C233.107 71.0347 251.863 67.4093 266.416 65.6108Z" fill="#F6F2EF"/>
<path d="M319.064 17.1865C319.622 17.5234 319.473 17.3443 319.815 17.8458L318.666 21.6824C318.569 20.106 319.029 18.7805 319.064 17.1865Z" fill="#09203F"/>
<path d="M266.389 120.46C273.908 119.382 280.787 122.565 286.535 127.104C291.813 131.27 294.689 133.603 301.562 131.265C300.691 132.423 299.699 133.484 298.602 134.429C296.054 136.608 293.987 137.467 290.712 137.224C285.161 145.524 277.862 148.884 267.996 148.159C256.139 146.96 251.004 138.957 239.434 141.226C237.397 141.626 234.599 142.705 232.582 143.421C237.801 139.953 240.022 138.027 244.658 133.973C252.028 127.53 256.243 121.739 266.389 120.46Z" fill="#09203F"/>
<path d="M253.667 131.242C254.223 131.686 254.48 133.877 254.669 134.746C255.422 138.216 256.682 140.583 258.736 143.467C255.779 142.239 253.045 141.069 250 140.073C246.843 139.434 244.717 139.291 241.559 139.607C246.579 136.615 249.089 134.659 253.667 131.242Z" fill="#F6F2EF"/>
<path d="M273.666 127.713C278.158 127.785 279.659 131.969 274.838 134.321C270.153 134.417 268.708 129.819 273.666 127.713Z" fill="#F6F2EF"/>
<path d="M285.979 133.917C287.502 135.633 287.909 135.973 289.885 136.947C287.03 139.918 285.874 140.983 282.459 143.144L278.977 145.086C282.606 141.305 284.439 138.933 285.979 133.917Z" fill="#F6F2EF"/>
<path d="M213.92 111.003C214.93 111.004 215.808 111.073 216.617 111.738C217.721 112.646 218.155 114.171 218.279 115.543C218.674 119.902 216.346 131.641 213.588 134.923C211.454 137.462 208.15 139.578 205.169 140.968C202.045 142.425 183.356 147.896 180.286 148.107C178.31 149.698 175.073 153.011 173.132 154.921C168.633 159.346 164.656 163.103 159.879 167.207C158.841 168.141 157.829 168.97 156.75 169.853C158.461 167.546 161.002 165.13 163.053 163.062L172.195 153.862C181.808 144.18 191.319 134.396 200.724 124.511C202.981 122.102 205.19 119.647 207.347 117.147C209.172 115.041 211.345 111.97 213.92 111.003Z" fill="#09203F"/>
<path d="M213.688 112.772C214.804 112.607 216.149 112.667 216.385 114.027C217.285 119.197 215.511 127.336 213.488 132.068C211.717 135.559 205.662 139.784 201.903 140.686C195.765 142.158 190.363 144.038 184.426 145.985C183.48 146.257 182.313 146.69 181.359 147.012C189.391 139.422 196.677 130.582 204.461 122.709C206.775 120.368 211.131 114.384 213.688 112.772Z" fill="#84495B"/>
<path d="M259.783 186.59C271.486 185.644 272.074 204.092 262.115 206.553C257.238 207.758 252.732 208.47 247.761 209.074C246.148 209.111 243.881 209.117 242.702 208.198C233.023 200.644 240.177 196.075 247.344 191.994C252.338 189.15 254.791 187.621 259.783 186.59Z" fill="#09203F"/>
<path d="M260.41 188.136C268.207 188.246 268.711 198.541 265.381 202.873C262.799 206.231 250.598 207.227 246.622 207.629C245.548 207.602 243.866 207.404 243.15 206.756C235.47 199.808 241.611 196.933 247.274 193.732C252.367 190.853 255.497 188.905 260.41 188.136Z" fill="#84495B"/>
<path d="M290.871 173.922C292.7 173.793 294.535 174.04 296.265 174.647C301.803 176.61 302.031 181.142 300.03 185.92C297.499 191.964 293.308 199.815 287.004 202.558C286.02 202.772 284.791 202.923 283.729 202.526C279.914 201.1 275.917 193.125 277.238 189.319C277.794 187.721 281.221 184.212 282.436 182.581C285.044 179.081 286.597 175.56 290.871 173.922Z" fill="#09203F"/>
<path d="M291.09 175.441C295.754 175.122 300.986 177.85 299.228 183.217C297.113 189.67 292.994 197.148 286.987 200.641C286.349 200.843 285.275 201.199 284.615 201.001C280.921 199.896 278.173 193.17 279.022 189.62C279.095 189.316 280.911 187.126 281.25 186.764C284.081 183.741 285.916 180.126 288.476 176.935C288.839 176.483 290.503 175.719 291.09 175.441Z" fill="#84495B"/>
<path d="M197.799 151.349C199.616 151.239 201.359 151.965 202.152 153.76C205.534 161.402 195.787 164.917 190.357 167.33C186.292 169.136 181.429 171.404 177.121 172.899C171.996 174.048 170.741 170.362 173.467 166.884C177.647 161.549 191.271 152.429 197.799 151.349Z" fill="#09203F"/>
<path d="M197.197 152.846C197.886 152.806 198.673 152.773 199.333 153.018C200.167 153.327 200.652 154.049 201.004 154.831C201.537 156.012 201.554 157.259 201.045 158.453C198.963 163.344 182.494 169.173 177.24 171.182C176.063 171.571 174.554 171.905 173.516 171.076C173.047 165.629 192.236 154.065 197.197 152.846Z" fill="#84495B"/>
<path d="M236.464 175.695C244.283 175.44 241.392 186.069 238.089 189.237C234.51 192.668 223.865 194.541 219.029 194.716C217.837 194.698 216.301 194.777 215.286 194.126C214.755 193.791 214.401 193.235 214.323 192.611C213.716 187.79 231.881 176.421 236.464 175.695Z" fill="#09203F"/>
<path d="M235.57 177.448C236.685 177.331 237.803 177.2 238.723 177.944C241.358 180.244 239.289 185.796 237.352 187.805C235.248 189.987 231.607 190.918 228.753 191.664C225.834 192.427 222.741 193.057 219.707 193.223C218.379 193.396 216.732 193.589 215.992 192.36C216.22 188.126 231.412 178.786 235.57 177.448Z" fill="#84495B"/>
<path d="M280.369 160.928C289.965 160.788 278.668 184.739 263.279 178.505C261.451 177.381 260.033 176.026 259.217 173.984C256.998 168.429 263.496 168.059 267.125 167.178C268.264 166.901 269.323 166.687 270.386 166.207C273.815 164.658 276.808 162.173 280.369 160.928Z" fill="#09203F"/>
<path d="M279.858 162.698C287.475 161.944 276.717 182.677 263.799 177.038C262.227 176.099 260.038 173.478 260.132 171.54C260.901 170.039 263.825 169.369 265.395 169.137C271.334 168.261 274.612 165.459 279.858 162.698Z" fill="#84495B"/>
<path d="M144.323 178.741C145.899 178.782 147.037 178.967 147.5 180.731C148.713 185.351 144.535 189.407 141.09 191.846C136.897 194.814 131.779 196.338 126.785 197.387C125.691 197.631 124.905 197.931 123.844 197.65C122.301 196.453 123.221 194.703 124.258 193.447C128.679 188.089 137.314 179.965 144.323 178.741Z" fill="#09203F"/>
<path d="M227.218 200.709C232.634 200.565 232.623 209.79 229.747 211.796C226.389 214.139 215.834 214.353 211.868 214.287C210.438 214.214 206.33 214.052 206.141 212.282C207.628 209.512 213.506 208.842 216.379 207.201C220.222 205.007 223.139 202.463 227.218 200.709Z" fill="#09203F"/>
<path d="M226.962 202.478C231.1 202.207 230.537 209.185 228.806 210.35C225.34 212.682 215.143 212.481 211.191 212.594C209.885 212.485 208.657 212.291 207.363 212.1C210.653 210.76 213.966 210.204 217.281 208.43C220.51 206.702 223.469 204.246 226.642 202.638L226.962 202.478Z" fill="#84495B"/>
<path d="M144.483 170.885C154.694 169.922 156.383 182.096 151.668 189C146.184 197.029 137.129 200.144 128.107 202.626C127.302 202.848 126.139 203.013 125.42 202.543C125.557 202.399 132.484 200.268 133.434 199.878C137.246 198.314 141.092 196.431 144.48 194.069C148.395 191.339 151.744 187.654 152.544 182.778C153.058 179.637 152.366 176.945 150.52 174.389C145.304 169.51 139.876 174.281 135.221 176.997C123.958 183.568 120.269 191.442 113.711 201.87C114.263 196.621 116.313 192.788 118.957 188.227C122.961 181.32 136.79 172.464 144.483 170.885Z" fill="#09203F"/>
<path d="M266.882 97.3501C281.115 96.3461 291.25 105.722 297.309 117.752C291.274 109.593 287.206 104.663 277.468 100.738C266.935 96.6676 257.66 101.439 250.186 108.764C249.26 109.671 246.138 112.976 245.312 113.467C245.448 113.083 245.441 112.995 245.683 112.694C251.535 105.411 257.607 99.2439 266.882 97.3501Z" fill="#09203F"/>
<path d="M118.49 179.965L118.668 180.224C114.911 185.622 111.901 194.887 107.855 198.902L107.654 198.729C107.519 197.616 108.811 194.575 109.249 193.446C111.225 188.346 113.74 183.021 118.49 179.965Z" fill="#09203F"/>
<path d="M265.913 113.166L266.084 113.163C265.725 113.583 263.018 114.355 262.231 114.635C256.842 116.552 253.452 120.339 249.552 124.371L249.367 124.077C249.809 123.136 250.776 121.852 251.457 121.051C255.991 115.728 259.188 113.901 265.913 113.166Z" fill="#09203F"/>
<path d="M425.862 41.3263C427.165 41.1909 429.88 40.9718 430.17 42.6887C430.962 47.3667 428.561 55.0262 426.985 59.4735C419.517 80.5464 406.578 101.376 386.029 111.632C375.442 116.92 359.22 119.445 347.996 115.678C347.629 114.203 347.464 112.743 347.254 111.239C360.421 111.59 367.364 111.549 379.61 105.762C375.936 105.505 373.947 105.542 370.394 104.439C375.355 102.43 381.57 101.114 386.358 98.3758C382.021 98.7211 379.851 98.5036 375.557 97.639C380.177 95.7472 386.517 91.5697 390.53 88.5659C388.399 88.5963 386.377 88.8559 384.265 89.0922C388.158 87.491 391.795 85.8329 395.221 83.3621C392.215 84.0415 389.739 84.0268 386.725 84.4249C389.592 82.6116 396.03 78.3717 398.458 76.304C391.277 78.2242 384.44 80.2437 376.939 80.3522C382.249 77.5767 385.397 75.621 390.155 72.1381C395.363 68.3134 400.152 64.8011 403.021 58.827C400.959 60.1666 399.023 61.4728 396.828 62.5974C401.209 57.1832 407.669 56.2872 413.815 53.1227C418.595 50.662 420.123 50.0921 424.057 46.4018C421.287 47.9113 417.218 50.0135 414.351 51.0317C406.227 53.9173 397.608 55.4906 389.447 58.2789C374.811 63.2794 377.345 71.7588 371.829 83.6673C366.769 94.5886 357.874 100.037 346.864 103.859C345.316 92.8591 344.042 86.3075 338.949 76.2431C345.475 74.0927 352.152 70.6702 358.066 67.1401C362.584 64.4426 367.596 60.7852 372.43 58.8169C382.132 54.8665 392.437 53.0538 402.513 50.2224C410.891 47.8682 417.948 44.1475 425.862 41.3263Z" fill="#F6F2EF"/>
<path d="M341.982 162.984C339.094 163.076 337.196 163.069 334.448 161.887C323.707 157.296 319.612 143.41 324.113 133.092C327.944 124.31 339.139 119.462 347.969 123.639C352.818 125.903 356.548 130.034 358.313 135.093C360.743 141.895 359.755 146.893 356.767 153.16C355.313 155.898 353.403 158.485 350.586 159.951C347.504 161.683 345.508 162.49 341.982 162.984Z" fill="#09203F"/>
<path d="M341.982 162.984C339.094 163.076 337.196 163.069 334.448 161.887C323.707 157.296 319.612 143.41 324.113 133.092C327.944 124.31 339.139 119.462 347.969 123.639C352.818 125.903 356.548 130.034 358.313 135.093C360.743 141.895 359.755 146.893 356.767 153.16L356.637 152.684C358.156 148.9 358.887 145.94 358.709 141.802C358.41 134.865 354.283 127.375 347.597 124.814C343.58 123.312 339.131 123.476 335.234 125.269C316.168 133.978 324.836 163.537 342.385 162.379L341.982 162.984Z" fill="#F6F2EF"/>
<path d="M350.685 159.326L350.589 159.953C347.507 161.685 345.51 162.492 341.984 162.986L342.387 162.381C345.534 161.748 347.926 160.909 350.685 159.326Z" fill="white"/>
<path d="M350.682 159.323C351.298 158.73 351.99 158.375 352.597 157.806C354.196 156.305 355.439 154.5 356.636 152.683L356.766 153.159C355.313 155.897 353.403 158.484 350.586 159.95L350.682 159.323Z" fill="#09203F"/>
<path d="M341.641 126.025C355.206 125.001 360.502 143.574 354.034 153.235C351.017 157.741 347.64 159.317 342.621 160.443C334.371 160.984 328.492 153.653 327.162 146.118C325.581 137.169 332.727 127.466 341.641 126.025Z" fill="white"/>
<path d="M263.063 9.05206C263.036 8.85411 262.088 14.3859 262.024 15.0793C262.814 13.7572 263.781 12.3447 264.634 11.0438C263.754 14.5579 262.612 17.8595 261.439 21.2762C264.612 18.0472 267.454 14.0897 270.266 11.3383C268.279 17.6761 263.899 22.9587 262.292 27.5488C265.913 22.8115 267.719 19.727 271.949 15.1356C270.326 17.8224 268.513 22.5003 266.725 25.8045C268.892 23.495 270.585 20.6891 272.851 18.3294C271.389 21.3989 269.802 23.9004 268.275 26.88L269.051 26.3364C271.237 24.8227 272.483 22.7639 274.028 20.6106C272.986 23.8978 270.733 27.1736 269.116 30.2944C266.294 35.7391 263.708 41.2639 262.08 47.1933C261.249 53.6972 261.787 57.9098 266.37 62.8677C257.196 63.8367 249.011 65.5525 240.074 67.7617C234.903 69.04 231.074 70.3071 225.715 71.27C235.136 60.5617 246.485 45.1748 252.775 32.4063C255.374 27.1284 257.587 20.729 260.323 15.3407C261.298 13.4199 261.753 10.7941 263.063 9.05206Z" fill="#F6F2EF"/>
<path d="M358.086 161.1C359.808 162.838 367.19 181.731 369.491 185.023C371.949 188.538 371.164 199.734 365.139 199.835C362.199 199.885 359.904 198.791 357.091 197.484C342.718 189.77 346.531 189.186 342.195 175.279C349.469 172.242 354.112 167.828 358.086 161.1Z" fill="#84495B"/>
<path d="M200.617 30.4502C203.212 30.796 207.3 32.4267 209.888 33.2557C220.781 36.7452 231.087 41.9759 239.617 49.7682C237.382 53.1685 235.016 56.2929 232.768 59.8286C230.828 48.6547 221.905 41.9024 212.182 37.3248C214.826 39.5411 217.801 41.6149 220.36 43.9062C222.843 46.1302 225.165 49.1167 227.289 51.7229C225.566 50.5105 224.214 49.3195 222.375 48.1345L220.116 47.2396C222.902 49.8848 226.399 52.9089 228.451 56.0977C226.422 54.1456 224.003 52.4718 221.729 50.7955C223.801 53.8271 226.739 56.1722 228.311 58.8672C226.521 57.8916 225.788 56.9039 223.781 56.3015C223.904 56.8466 227.579 61.1581 228.365 62.6609C226.771 61.7898 226.063 61.045 224.228 60.4786L223.964 60.6307C224.958 62.0261 227.314 63.7192 228.707 64.7236C226.703 67.4343 224.619 70.0836 222.456 72.6691C212.136 61.943 209.72 51.3801 204.508 38.0154C203.608 35.7073 201.263 32.5849 200.617 30.4502Z" fill="#F6F2EF"/>
<path d="M313.675 52.3301C316.081 54.1702 318.554 55.9742 320.98 57.7905C332.724 66.5807 340.16 80.5874 342.831 94.8435C343.437 98.0831 346.571 118.877 345.482 120.523L344.928 120.4C342.005 119.75 341.048 119.727 338.148 120.374C338.165 114.633 337.756 108.899 336.923 103.219C335.173 91.2313 330.713 77.1217 322.621 68.0202C319.874 64.9307 315.864 61.5994 312.543 59.1149C312.859 56.6826 313.092 54.7259 313.675 52.3301Z" fill="white"/>
<path d="M334.221 118.113C334.693 118.048 334.54 118.072 335.036 118.203C335.45 118.95 335.306 120.234 335.294 121.145C330.914 123.043 327.419 124.783 324.379 128.639C320.236 133.891 318.09 141.312 318.826 147.953C319.522 153.892 322.53 159.315 327.196 163.045C337.223 170.943 348.14 166.683 356.047 157.785C357.353 156.316 358.148 154.497 359.363 152.938L359.517 152.745C358.633 155.699 358.055 157.314 356.503 159.964C349.985 170.069 337.018 176.64 326.069 170.2C312.734 162.354 309.877 142.987 317.911 130.394C322.528 123.159 326.045 120.263 334.221 118.113Z" fill="white"/>
<path d="M322.383 175.935C324.758 176.525 327.263 176.947 329.675 177.395C323.856 191.594 312.452 208.065 301.64 218.968C298.488 222.147 293.473 226.015 289.949 228.762L288.394 229.86C286.834 228.407 285.494 227.051 284.012 225.514C301.198 212.493 313.672 195.626 322.383 175.935Z" fill="#F6F2EF"/>
<path d="M207.286 86.6934L207.413 86.9601C206.044 91.0727 197.537 111.161 193.385 111.464L192.909 110.65C186.755 97.4362 197.271 91.6756 207.286 86.6934Z" fill="#F6F2EF"/>
<path d="M301.211 143.929C301.65 144.531 301.467 150.94 301.753 152.443C302.25 155.053 302.761 156.632 303.719 159.108C301.015 162.987 299.515 167.077 294.462 164.17C285.09 156.43 295.419 149.4 301.211 143.929Z" fill="#84495B"/>
<path d="M332.888 116.167L333.912 116.194L333.976 116.446C329.95 117.473 327.96 117.955 324.448 120.352C317.661 125.02 313.527 132.889 311.99 140.832C309.326 154.604 316.749 170.602 331.081 174.014C332.633 174.383 333.95 174.249 335.452 174.516L335.284 174.832C320.19 175.939 309.833 161.46 309.046 147.719C308.173 132.451 316.544 117.248 332.888 116.167Z" fill="white"/>
<path d="M304.4 228.381C305.405 228.299 305.407 228.114 306.027 228.568C306.319 231.722 303.145 241.342 302.339 244.91C301.69 247.789 301.45 248.99 301.213 252.087L299.384 247.77C297.617 243.878 295.233 239.753 292.91 236.178C295.785 233.517 300.953 230.109 304.4 228.381Z" fill="#84495B"/>
<path d="M283.908 46.9533C284.48 46.8737 286.015 46.8469 286.664 46.8154C284.985 48.6043 280.089 53.7848 278.128 54.335C273.644 55.5934 271.003 56.1264 266.642 58.4537L266.412 58.6357L265.998 58.4228C264.909 56.245 264.76 54.374 264.48 51.9899C270.289 49.843 277.74 47.5121 283.908 46.9533Z" fill="white"/>
<path d="M300.293 206.046C307.102 195.401 308.344 182.586 319.501 176.202C316.285 185.338 307.244 198.904 300.759 206.354L300.293 206.046Z" fill="#F6F2EF"/>
<path d="M296.576 210.326L296.958 210.676C294.3 213.714 292.311 216.058 289.224 218.775C287.081 220.662 284.584 222.402 282.614 224.364C280.381 222.356 275.634 219.309 272.969 217.504C282.354 217.041 289.657 217.266 296.576 210.326Z" fill="#09203F"/>
<path d="M322.567 74.7653C318.336 73.157 315.182 70.5578 313.613 66.0999C313.295 65.1958 312.555 63.2371 312.941 62.4121C315.236 62.9734 322.239 70.7531 323.854 73.2934C323.336 74.1736 323.371 74.1391 322.567 74.7653Z" fill="#F6F2EF"/>
<path d="M275.126 56.7842L275.267 56.9921C273.602 58.4666 269.952 62.1244 267.994 62.131C267.422 61.4455 266.895 60.9841 266.742 60.1256C267.438 59.1633 273.573 57.3242 275.126 56.7842Z" fill="#F6F2EF"/>
<path d="M347.629 119.778C350.546 120.214 356.599 126.153 357.264 129.08C356.416 128.498 354.589 125.599 353.567 124.567C352.039 123.024 348.376 121.446 347.629 119.778Z" fill="white"/>
<path d="M320.52 16.2329C321.054 14.2421 321.355 13.0563 322.167 11.1807C322.33 12.4512 321.242 15.9193 321.071 17.8779C320.931 17.179 320.785 16.8907 320.52 16.2329Z" fill="#F6F2EF"/>
<path d="M322.562 74.7659C323.366 74.1397 323.331 74.1742 323.849 73.2939C324.859 74.6564 325.473 75.5853 326.349 77.039C324.935 76.0695 324.126 75.4727 322.562 74.7659Z" fill="#F6F2EF"/>
<path d="M296.57 210.326C297.84 209.005 299.098 207.457 300.289 206.046L300.755 206.354C299.5 207.805 298.232 209.245 296.952 210.676L296.57 210.326Z" fill="#84495B"/>
<path d="M264.726 9.3125L264.884 9.50695C264.762 10.4418 263.835 11.3768 263.184 12.3029L262.985 12.1639C262.905 11.0242 263.964 10.0418 264.726 9.3125Z" fill="#09203F"/>
<path d="M480.154 472.611C479.749 473.039 480.001 472.908 479.385 472.979C477.528 471.785 474.898 467.698 473.202 465.616C465.248 455.857 452.104 439.765 456.227 426.379C457.18 423.284 465.043 416.007 467.62 412.788C471.782 407.589 475.134 401.62 479.27 396.387C481.889 393.245 484.289 391.401 487.943 394.417C495.428 400.595 501.79 408.177 508.459 415.243C515.666 423.119 523.409 430.486 530.081 438.842C532.383 441.724 533.794 444.443 532.337 448.214C529.233 456.254 525.289 464.38 520.556 471.589C520.009 472.421 519.417 472.292 518.529 472.398C514.963 472.225 481.19 472.09 480.154 472.611Z" fill="#84495B"/>
<path d="M480.154 472.611C479.749 473.039 480.001 472.908 479.385 472.979C477.528 471.785 474.898 467.698 473.202 465.616C465.248 455.857 452.104 439.765 456.227 426.379C457.18 423.284 465.043 416.007 467.62 412.788C471.782 407.589 475.134 401.62 479.27 396.387C481.889 393.245 484.289 391.401 487.943 394.417C495.428 400.595 501.79 408.177 508.459 415.243C515.666 423.119 523.409 430.486 530.081 438.842C532.383 441.724 533.794 444.443 532.337 448.214C529.233 456.254 525.289 464.38 520.556 471.589C520.009 472.421 519.417 472.292 518.529 472.398C521.32 466.74 532.559 448.854 531.224 443.605C530.871 442.215 529.253 440.299 528.338 439.192C521.314 430.694 513.335 422.769 505.749 414.761C500.594 409.319 495.684 403.528 490.242 398.384C488.868 397.086 487.257 395.617 485.526 394.815C484.889 394.521 484.369 394.585 483.735 394.85C482.302 395.452 481.132 396.806 480.169 397.994C476.656 402.329 473.972 407.257 470.551 411.671C468.967 413.713 467.306 415.695 465.572 417.611C463.661 419.706 458.408 424.611 457.734 427.07C454.109 440.283 466.716 454.393 473.829 463.627C476.038 466.549 478.148 469.545 480.154 472.611Z" fill="#09203F"/>
<path d="M364.485 268.484C365.023 268.464 365.574 268.442 366.111 268.493C368.34 268.706 370.459 270.149 371.822 271.868C375.361 276.332 376.346 284.998 378.464 290.506C381.091 297.338 385.2 303.758 387.248 310.769C388.352 314.551 388.953 318.613 388.526 322.548C388.272 324.893 387.705 327.221 386.715 329.366C383.822 335.633 368.339 358.736 363.269 362.747C360.788 364.709 358.391 364.99 355.347 364.652C349.284 361.686 343.482 347.198 340.541 340.171C336.722 331.046 329.519 314.931 331.408 304.89C332.069 301.373 341.821 298.105 343.99 294.968C351.457 288.142 355.617 272.398 364.485 268.484Z" fill="#09203F"/>
<path d="M364.797 270.23C371.37 269.954 372.426 276.639 373.92 281.635C374.886 285.019 375.716 288.415 376.988 291.705C381.752 304.03 391.945 316.794 384.375 330.248C381.697 335.362 378.294 339.926 374.99 344.661C371.061 350.287 367.674 356.838 362.382 361.303C360.248 363.105 358.035 363.285 355.419 362.919C352.082 361.072 350.175 356.658 348.531 353.376C344.458 345.247 330.015 314.261 333.022 305.954C334.625 301.522 341.065 300.097 344.386 297.034C347.299 294.348 349.649 290.946 351.692 287.573C354.989 282.127 358.224 273.698 364.064 270.606C364.306 270.476 364.55 270.351 364.797 270.23Z" fill="#84495B"/>
<path d="M396.892 349.387C398.338 349.342 400.16 349.487 401.36 350.329C404.693 352.67 406.403 359.973 407.814 363.885C408.535 365.864 409.352 367.806 410.262 369.706C414.101 377.665 420.968 385.889 423.249 394.286C425.554 402.772 412.95 411.967 407.437 417.046C402.61 421.494 395.832 426.85 389.17 428.084C387.606 428.248 385.936 428.015 384.542 427.259C378.858 424.172 366.778 397.859 364.57 391.084C363.781 388.663 362.235 384.383 363.571 381.981C365.333 378.815 370.789 377.02 373.549 374.188C381.235 366.3 385.322 352.578 396.892 349.387Z" fill="#09203F"/>
<path d="M398.337 350.654C403.85 351.902 406.041 364.82 408.409 369.875C411.669 376.837 420.714 388.369 421.752 395.17C423.105 404.034 404.999 416.691 399.042 421.725C396.458 423.907 392.043 426.079 388.674 426.462C387.208 426.405 385.934 426.132 384.726 425.252C379.208 421.236 366.317 393.232 365.024 385.916C364.811 384.711 364.628 383.485 365.407 382.442C367.279 379.939 371.172 378.83 373.549 376.63C377.993 372.518 381.063 366.818 384.511 361.882C388.092 356.755 391.849 351.818 398.337 350.654Z" fill="#84495B"/>
<path d="M338.222 199.453C344.36 198.881 346.113 209.062 348.214 213.71C352.219 222.571 358.442 233.331 359.261 242.994C359.96 251.238 350.347 261.822 346.029 268.33C342.287 273.894 338.592 280.674 334.124 285.511C332.246 287.244 331.258 287.836 328.85 288.564C325.959 288.085 323.657 286.83 322.376 283.962C316.318 270.399 313.95 251.595 317.621 237.261C320.085 227.642 325.48 218.469 330.272 209.929C332.399 206.285 334.52 201.584 338.222 199.453Z" fill="#09203F"/>
<path d="M338.717 200.955C340.66 201.189 341.969 202.057 342.61 203.953C346.182 214.521 351.97 224.107 355.713 234.562C357.624 239.897 358.553 244.899 356.036 250.165C352.975 256.57 348.56 261.799 344.605 267.634C340.921 273.009 337.653 279.1 333.278 283.936C330.524 286.796 326.843 288.685 324.488 284.047C318.246 271.755 316.057 252.415 318.921 238.913C321.192 228.202 328.825 216.377 333.938 206.824C335.243 204.393 336.324 202.454 338.717 200.955Z" fill="#84495B"/>
<path d="M413.603 472.319C412.482 472.278 411.938 472.385 411.167 471.36C406.889 465.674 402.743 459.42 399.324 453.174C397.639 450.097 395.94 446.455 395.953 442.96C395.967 442.123 396.438 440.802 397.151 440.224C401.546 437.363 404.954 438.52 410.001 435.859C417.591 431.856 419.84 419.029 429.014 419.442C431.056 419.534 433.176 421.258 434.186 422.847C437.482 428.128 439.11 433.034 441.994 438.681C444.75 444.076 447.155 447.57 450.216 453.359C452.563 457.799 455.892 466.792 456.278 472.155C456.253 472.235 456.23 472.314 456.206 472.394C455.66 472.483 455.879 472.519 455.54 472.421C453.892 472.071 445.022 472.234 442.734 472.238L413.603 472.319Z" fill="#84495B"/>
<path d="M413.603 472.319C412.482 472.278 411.938 472.385 411.167 471.36C406.889 465.674 402.743 459.42 399.324 453.174C397.639 450.097 395.94 446.455 395.953 442.96C395.967 442.123 396.438 440.802 397.151 440.224C401.546 437.363 404.954 438.52 410.001 435.859C417.591 431.856 419.84 419.029 429.014 419.442C431.056 419.534 433.176 421.258 434.186 422.847C437.482 428.128 439.11 433.034 441.994 438.681C444.75 444.076 447.155 447.57 450.216 453.359C452.563 457.799 455.892 466.792 456.278 472.155C456.253 472.235 456.23 472.314 456.206 472.394C455.66 472.483 455.879 472.519 455.54 472.421C453.871 469.798 453.301 465.718 452.341 462.733C449.521 453.973 444.3 446.731 440.211 438.613C437.911 434.05 436.217 428.907 433.582 424.57C432.816 423.309 431.863 422.068 430.497 421.426C424.759 418.727 419.057 428.926 416.136 432.5C414.741 434.207 413.126 435.761 411.283 436.977C407.587 439.416 403.204 439.188 399.303 440.876C398.497 441.225 397.933 441.613 397.622 442.481C395.807 447.541 410.448 466.962 413.603 472.319Z" fill="#09203F"/>
<path d="M450.874 351.338C451.396 351.294 451.941 351.279 452.463 351.336C455.028 351.612 457.789 355.468 459.395 357.364C462.258 360.747 474.89 376.232 474.406 380.207C474.137 382.41 472.324 384.495 471.16 386.312C466.978 392.842 462.819 399.491 456.589 404.307C452.886 407.169 449.045 408.657 444.311 408.053C435.004 405.014 434.9 392.746 431.414 384.709C429.399 380.062 427.639 376.563 425.126 372.219C423.344 369.14 419.991 362.041 421.319 358.482C423.731 352.016 434.205 357.761 440.08 356.341C445.399 355.056 446.32 353.534 450.874 351.338Z" fill="#09203F"/>
<path d="M451.54 352.556C456.376 353.713 470.961 374.82 472.968 380.009C469.68 386.888 460.179 400.687 453.633 404.396C450.289 406.291 447.417 407.075 443.601 406.09C436.045 402.323 436 390.081 432.53 382.889C430.49 378.661 428.975 375.169 426.287 370.802C424.931 368.599 420.174 359.513 424.14 357.355C428.39 356.007 435.179 358.965 440.039 357.951C444.636 356.992 447.674 355.078 451.54 352.556Z" fill="#84495B"/>
<path d="M410.039 281.874C410.376 281.83 410.96 281.73 411.285 281.811C413.486 282.384 414.701 284.824 415.705 286.661C417.601 290.129 419.423 293.639 421.276 297.128C424.821 303.677 428.423 310.196 432.079 316.684C435.748 323.244 439.902 329.348 443.685 335.822C445.206 338.425 444.617 341.439 441.992 343.054C437.423 345.867 431.254 345.201 426.281 344.097C424.928 343.754 423.589 343.358 422.267 342.909C415.504 340.621 405.326 335.785 402.04 328.902C399.829 324.272 399.56 317.407 398.125 311.94C395.979 303.764 390.121 293.444 392.246 284.729C393.356 280.177 401.841 283.91 405.303 283.359C408.015 282.927 407.235 283.26 410.039 281.874Z" fill="#09203F"/>
<path d="M410.515 283.638C411.307 283.667 411.922 283.712 412.369 284.488C421.091 299.631 428.583 315.456 438.303 330.04C439.405 331.694 443.361 337.668 442.863 339.27C441.057 345.068 430.174 343.318 426.001 342.29C425.427 342.139 424.856 341.977 424.289 341.805C417.567 339.762 407.183 335.026 403.744 328.453C403.025 327.06 402.467 325.589 402.082 324.069C400.881 319.475 400.708 314.782 399.308 309.861C397.164 302.325 392.37 293.692 393.726 285.644C394.14 283.517 397.642 284.27 399.075 284.568C403.945 285.579 405.948 285.71 410.515 283.638Z" fill="#84495B"/>
<path d="M374.463 206.622C381.02 205.996 381.957 213.013 384.101 218.201C390.641 234.031 398.255 249.147 405.885 264.456C409.418 271.544 404.503 275.079 397.557 273.911C397.183 273.773 396.812 273.625 396.445 273.467C391.637 271.375 377.813 259.911 374.534 255.822C368.342 248.099 365.642 231.739 364.561 221.807C363.776 214.593 367.654 209.07 374.463 206.622Z" fill="#09203F"/>
<path d="M375.027 208.111C376.31 208.044 378.478 208.244 378.971 209.567C381.997 217.694 385.47 225.582 389.024 233.473C392.284 240.658 395.652 247.793 399.126 254.877C400.888 258.445 402.805 261.917 404.423 265.557C407.099 271.58 402.453 273.648 397.204 271.819C396.89 271.672 396.578 271.518 396.27 271.358C390.534 268.367 377.489 257.996 374.236 252.612C369.919 245.467 368.283 234.874 366.809 226.6C365.468 219.076 366.142 210.792 375.027 208.111Z" fill="#84495B"/>
<path d="M534.93 472.24C536.457 467.073 538.578 462.039 540.472 456.936C541.32 454.649 542.71 451.916 545.778 453.378C549.06 454.942 564.611 469.895 565.079 471.968C564.504 472.163 564.521 472.132 563.906 472.083C562.189 472.385 555.425 472.304 553.263 472.278C547.205 472.207 540.96 472.36 534.93 472.24Z" fill="#84495B"/>
<path d="M534.93 472.24C536.457 467.073 538.578 462.039 540.472 456.936C541.32 454.649 542.71 451.916 545.778 453.378C549.06 454.942 564.611 469.895 565.079 471.968C564.504 472.163 564.521 472.132 563.906 472.083C559.953 468.153 550.089 457.563 545.762 455.095C545.298 454.831 544.376 454.373 543.846 454.602C541.718 455.521 538.331 468.546 536.711 471.326C536.248 472.121 535.766 472.067 534.93 472.24Z" fill="#09203F"/>
<path d="M553.068 443.573C553.739 443.509 553.699 443.506 554.305 443.196C554.182 442.108 548.766 436.152 548.618 433.925L549.113 433.633L543.864 428.875C541.932 427.123 530.295 416.893 530.207 415.128L530.581 414.877L531.074 415.286L531.325 415.048L531.195 414.36L531.378 414.131C532.139 414.464 532.42 414.48 532.975 415.047L532.86 415.53C534.071 418.049 537.308 417.611 539.068 419.952C540.239 420.982 541.646 421.554 542.739 422.45C550.429 428.757 558.721 435.563 565.978 442.307C560.283 442.012 558.932 441.151 554.664 437.581L554.529 437.801C555.912 440.168 562.552 447.698 564.928 449.974C564.916 450.111 564.905 450.248 564.893 450.385C563.125 451.213 560.898 450.069 559.475 449.021C558.912 448.296 558.209 447.461 557.325 447.188C556.436 447.069 556.046 446.476 555.388 445.807L552.867 443.883L553.068 443.573Z" fill="#09203F"/>
<path d="M557.316 447.188C556.88 444.705 550.805 437.837 549.441 435.027L549.646 434.867L550.849 436.218L551.129 435.906L551.402 436.53C551.143 435.933 551.125 435.952 551.07 435.312C552.066 435.649 553.766 437.057 554.52 437.8C555.902 440.167 562.543 447.698 564.918 449.973C564.907 450.11 564.895 450.247 564.884 450.384C563.115 451.212 560.889 450.068 559.466 449.021C558.903 448.296 558.2 447.46 557.316 447.188Z" fill="#09203F"/>
<path d="M553.068 443.573C553.739 443.509 553.699 443.506 554.305 443.196C554.182 442.108 548.766 436.152 548.618 433.925L549.113 433.633L543.864 428.875C541.932 427.123 530.295 416.893 530.207 415.128L530.581 414.877L531.074 415.286L531.325 415.048L531.195 414.36L531.378 414.131C532.139 414.464 532.42 414.48 532.975 415.047L532.86 415.53C534.071 418.049 537.308 417.611 539.068 419.952C536.433 418.72 533.942 417.286 531.361 416.076C535.989 421.515 542.394 426.733 547.672 431.636C549.846 433.655 552.593 435.385 554.664 437.581L554.529 437.801C553.775 437.058 552.076 435.649 551.08 435.312C551.135 435.953 551.152 435.933 551.411 436.53L551.139 435.907L550.859 436.219L549.655 434.868L549.451 435.027C550.815 437.838 556.889 444.706 557.325 447.188C556.436 447.069 556.046 446.476 555.388 445.807L552.867 443.883L553.068 443.573Z" fill="#84495B"/>
<path d="M520.551 402.804C532.328 405.723 542.087 417.455 552.228 423.896C553.183 424.503 554.342 425.4 555.017 426.303C545.175 425.393 537.489 416.856 530.003 411.021C527.046 408.716 523.132 405.438 520.551 402.804Z" fill="#09203F"/>
<path d="M555.383 445.808C556.041 446.477 556.431 447.07 557.32 447.189C558.204 447.462 558.907 448.297 559.47 449.022C559.977 450.32 561.451 450.974 561.604 452.055C560.216 452.7 558.361 451.582 556.849 451.509C555.168 451.821 554.121 450.513 554.26 448.915L553.984 447.884C554.46 447.581 554.204 447.721 554.755 447.467L554.397 446.798C555.015 446.474 554.924 446.433 555.383 445.808Z" fill="#09203F"/>
</g>
<defs>
<clipPath id="clip0_4051_18486">
<rect width="628" height="472" fill="white"/>
</clipPath>
</defs>
</svg>
