<svg xmlns="http://www.w3.org/2000/svg" width="48" height="52" fill="none" viewBox="0 0 48 52"><g fill="#fc640c" clip-path="url(#a)"><path d="M23.833.017c.838-.122 2.333.49 3.105.838 2.507 1.135 4.477 2.741 6.065 4.999.422.6.84 1.227 1.16 1.887.217.448 1.081 2.79 1.222 2.888.3.209 6.164.032 7.077.165.196.028.367.075.531.188.301.209.517.514.63.858.289.88.337 2.11.453 3.05.158 1.285.34 2.568.486 3.854.142 1.27.245 2.56.464 3.819-.359-.208-.719-.498-1.07-.727-.836-.546-1.662-1.123-2.502-1.663l-3.901-2.466c-.414-.261-1.602-.98-1.881-1.254-.041-.244-.08-.48-.138-.723-.417-1.769-2.508-2.924-4.187-2.105-.204.1-.421.268-.607.403.09-.342.223-.68.296-1.024.26-1.227-.097-2.14-.617-3.223-1.46-3.042-3.347-4.703-6.46-5.873-.623.174-1.584.686-2.179.998-2.145 1.128-4.129 3.682-4.783 6.019.221-.026.449-.039.671-.054.554-.052 1.284-.045 1.85-.056l3.245-.06c1.98-.043 4.01-.187 5.982-.175-1.056 1.41-2.484 2.945-3.642 4.294-1.032 1.204-2.084 2.442-3.131 3.628-1.313 1.366-2.492 2.818-3.87 4.132-1.277 1.218-2.488 3.367-4.275 3.768-.614.138-1.65.087-2.196-.208-1.859-1.004-3.354-2.73-4.87-4.174-1.113-1.06-2.318-2.188-3.585-3.003.28-2.264.554-4.572.946-6.823.235-1.35 1.539-1.343 2.625-1.34 1.915.004 3.85-.058 5.773-.024.689-2.161 1.314-3.625 2.711-5.474 1.926-2.545 5.4-4.945 8.602-5.34M18.312 15.93a2.983 2.983 0 0 0-5.875 1.043 2.983 2.983 0 0 0 5.874-1.043"/><path d="M28.668 18.219c.912-.115 1.384.038 2.133.532.987.65 1.777.536 2.87.276.594.518 1.067 1.306 1.385 2.003.63 1.38 1.898 2.68 1.386 4.293-.23.726-.715 1.388-1.032 2.083l-1.993 4.267c-.803 1.757-1.348 4.006-3.338 4.706-.988.348-1.897.355-2.84-.107-1.318-.667-2.625-1.42-3.933-2.113-1.033-.548-2.324-1.165-3.284-1.796-1.482-.976-1.831-3.43-.712-4.809.733-.902 1.515-1.8 2.29-2.691l3.263-3.78c.385-.44.879-.98 1.226-1.44.777-1.03 1.31-1.23 2.58-1.424M44.869 26.232c.19-.012.423-.005.617-.005.102 1.325.388 3.003.569 4.36l1.423 10.33.346 2.608c.356 2.6.374 4.569-1.623 6.58-1.046 1.054-1.93 1.439-3.324 1.86-.187-.807-.793-1.75-1.223-2.47-1.239-2.2-2.42-4.432-3.62-6.648-.741-1.37-1.892-2.27-2.023-3.913-.11-1.387.634-2.192 1.293-3.297l2.657-4.375c1.303-2.143 2.016-4.803 4.908-5.03M18.154 38.866c.8-.094 5.991 1.153 7.066 1.35.194.035.64.233.829.348a3.12 3.12 0 0 1 1.408 1.88c.406 1.588-.564 2.618-1.252 3.921-.86 1.63-1.7 3.29-2.672 4.864-.157.266-.26.452-.392.73-2.744.01-5.565-.058-8.301-.005.076-.574.03-1.949.03-2.605l-.008-4.99c-.005-.527-.003-1.072-.016-1.596-.053-2.105 1.16-3.657 3.308-3.897M2.762 22.644c.185.135 1.433 1.9 1.62 2.17 1.416 2.046 2.994 3.941 4.461 5.948.93 1.273 1.22 2.374.704 3.918-.646 1.936-2.614 2.504-4.307 3.293-1.548.688-3.168 1.604-4.74 2.266.122-.565.203-1.425.275-2.01l.445-3.503c.542-4.016 1.124-8.052 1.542-12.082M6.88 42.804c.716-.024 1.31.108 1.927.463 1.093.629 1.564 1.631 1.867 2.799.508 1.959.91 3.943 1.428 5.896l-4.334-.002c-.742 0-1.606.018-2.34-.02-3.026-.293-5.169-2.661-5.39-5.655 1.388-.785 2.8-1.52 4.172-2.337.864-.513 1.653-1.025 2.67-1.144M31.653 47.09c1.225-.082 2.04.42 2.936 1.171a22 22 0 0 1 1.814 1.553c.954.922 2.27 1.494 3.401 2.183-.798-.039-1.634-.014-2.436-.01l-3.086-.008-8.168-.018 1.968-2.348c1.148-1.387 1.62-2.308 3.57-2.523"/></g><defs><clipPath id="a"><path fill="#fff" d="M0 0h48v52H0z"/></clipPath></defs></svg>