<svg viewBox="0 0 26 28" xmlns="http://www.w3.org/2000/svg" xmlns:xlink="http://www.w3.org/1999/xlink" width="26.000000" height="28.000000" fill="none">
	<rect id="Картинка" width="26.000000" height="28.000000" x="0.000000" y="0.000000" fill="rgb(255,255,255)" fill-opacity="0" />
	<path id="Subtract" d="M12.908 0.00851728C13.3621 -0.0571236 14.1717 0.27228 14.5895 0.460208C15.948 1.07123 17.0153 1.93595 17.8753 3.15148C18.1037 3.47438 18.3299 3.81283 18.5033 4.16825C18.621 4.40941 19.0898 5.67047 19.1655 5.72273C19.256 5.7852 20.2762 5.78369 21.25 5.78225C22.0293 5.7811 22.779 5.78 22.9987 5.81176C23.1047 5.82707 23.1973 5.85235 23.2863 5.91343C23.4495 6.02547 23.5666 6.18932 23.6278 6.37471C23.7844 6.84864 23.8105 7.5109 23.8733 8.01776C23.9589 8.7096 24.0574 9.39982 24.1358 10.0926C24.2132 10.776 24.2689 11.4712 24.3877 12.1487C24.1931 12.0372 23.9985 11.8809 23.8083 11.7574C23.3553 11.4633 22.908 11.1524 22.4531 10.8618L20.3394 9.53424C20.1155 9.39368 19.472 9.00667 19.321 8.85896C19.2988 8.72759 19.2772 8.60101 19.2461 8.4701C19.02 7.51727 17.8877 6.89518 16.9778 7.33612C16.8677 7.38949 16.7502 7.48064 16.6497 7.55353C16.6982 7.36924 16.77 7.18736 16.8096 7.00169C16.9507 6.34085 16.7571 5.84991 16.4755 5.26657C15.6849 3.62859 14.6628 2.73393 12.9762 2.10409C12.6389 2.1975 12.1183 2.47307 11.7962 2.64139C10.634 3.24858 9.5597 4.62377 9.2055 5.88197C9.32528 5.86799 9.44841 5.86153 9.56894 5.85332C9.86915 5.82537 10.2643 5.82901 10.5711 5.82343L12.3286 5.79146C12.7487 5.78229 13.1728 5.76476 13.5974 5.74722C14.2574 5.71994 14.9188 5.69261 15.5687 5.69649C14.9967 6.45571 14.2232 7.28215 13.5963 8.00877C13.0369 8.65711 12.4673 9.32389 11.8997 9.96231C11.1887 10.6978 10.5503 11.4799 9.80387 12.1872C9.11157 12.8432 8.45582 14.0007 7.48815 14.2165C7.15563 14.2906 6.5938 14.2627 6.29842 14.1041C5.29166 13.5634 4.48162 12.634 3.66039 11.8568C3.05775 11.2859 2.40529 10.6787 1.71875 10.2396C1.87057 9.0206 2.01891 7.77785 2.23114 6.56592C2.358 5.8413 3.0599 5.84274 3.64729 5.84395L3.65338 5.84396C4.07561 5.84484 4.49964 5.83983 4.92431 5.83481L4.92443 5.8348C5.54275 5.82749 6.16244 5.82017 6.77998 5.831C7.15336 4.66722 7.49154 3.87916 8.24874 2.88375C9.29153 1.51291 11.1735 0.221077 12.908 0.00851728ZM9.91812 8.57679C9.76143 7.70072 8.91745 7.11839 8.03647 7.27841C7.16166 7.43737 6.58051 8.2687 6.73614 9.13869C6.89177 10.0086 7.72563 10.5901 8.60201 10.4398C9.48453 10.2884 10.0749 9.45287 9.91812 8.57679Z" fill="rgb(252,100,12)" fill-rule="evenodd" />
	<path id="Vector" d="M15.5279 9.81062C16.0216 9.74858 16.2775 9.8311 16.683 10.0969C17.2176 10.4475 17.6456 10.3859 18.2373 10.2457C18.5595 10.5245 18.8156 10.949 18.988 11.3242C19.3295 12.0673 20.0158 12.7668 19.7387 13.6357C19.614 14.0269 19.3513 14.3832 19.1795 14.7576L18.0999 17.0552C17.6654 18.001 17.3699 19.2121 16.2918 19.5893C15.7569 19.7764 15.2646 19.7804 14.7536 19.5315C14.0397 19.1724 13.3319 18.7673 12.6233 18.3935C12.0641 18.0985 11.3645 17.7663 10.8447 17.4264C10.0416 16.9013 9.8527 15.5793 10.459 14.8373C10.856 14.3514 11.2792 13.8682 11.6996 13.3882L13.4668 11.3526C13.6752 11.1156 13.9427 10.825 14.1307 10.5773C14.552 10.0223 14.8407 9.91473 15.5279 9.81062Z" fill="rgb(252,100,12)" fill-rule="nonzero" />
	<path id="Vector" d="M24.3039 14.1251C24.4071 14.1184 24.5332 14.1221 24.6385 14.1223C24.6933 14.8358 24.8483 15.739 24.9462 16.4695L25.7173 22.0324L25.9047 23.4363C26.0977 24.8366 26.1073 25.8965 25.0254 26.9799C24.4589 27.5472 23.9796 27.7542 23.2248 27.9815C23.1239 27.5464 22.7953 27.0393 22.5626 26.6507C21.8917 25.4667 21.252 24.2646 20.6019 23.0712C20.2004 22.3341 19.5769 21.8489 19.506 20.9647C19.446 20.2174 19.8495 19.7841 20.2066 19.189L21.6457 16.8332C22.3514 15.6794 22.7376 14.2471 24.3039 14.1251Z" fill="rgb(252,100,12)" fill-rule="nonzero" />
	<path id="Vector" d="M9.83408 20.9285C10.2673 20.8781 13.0794 21.5492 13.6614 21.6553C13.7669 21.6745 14.0086 21.781 14.1107 21.8426C14.4887 22.0748 14.7636 22.4284 14.8734 22.8553C15.0935 23.7105 14.5681 24.2647 14.1951 24.9666C13.7289 25.844 13.2741 26.7384 12.7479 27.5855C12.6628 27.7287 12.6072 27.8286 12.5358 27.9787C11.0492 27.9841 9.52125 27.9474 8.03906 27.976C8.08015 27.6669 8.05559 26.9267 8.0554 26.573L8.05086 23.8861C8.04812 23.6027 8.04951 23.309 8.04236 23.0267C8.0138 21.8932 8.67058 21.0578 9.83408 20.9285Z" fill="rgb(252,100,12)" fill-rule="nonzero" />
	<path id="Vector" d="M1.49683 12.1914C1.5967 12.2642 2.27321 13.2147 2.3741 13.3604C3.14114 14.4615 3.99622 15.4823 4.79075 16.5631C5.29427 17.2481 5.45124 17.8413 5.17207 18.6727C4.82209 19.7149 3.75618 20.0208 2.83898 20.4458C2.00062 20.8161 1.12317 21.3093 0.271484 21.6658C0.337738 21.3617 0.381381 20.8983 0.420242 20.5838L0.661531 18.6972C0.955006 16.5349 1.2704 14.3615 1.49683 12.1914Z" fill="rgb(252,100,12)" fill-rule="nonzero" />
	<path id="Vector" d="M3.72634 23.0484C4.11411 23.0354 4.43568 23.1066 4.76992 23.2975C5.36211 23.6361 5.61715 24.1761 5.78118 24.8047C6.05641 25.8594 6.27457 26.9282 6.55454 27.9795L4.20725 27.9786C3.80499 27.9785 3.33694 27.9884 2.93938 27.9676C1.3005 27.8098 0.139828 26.5348 0.0195312 24.9229C0.772092 24.5002 1.53649 24.1042 2.28009 23.6645C2.74767 23.3881 3.17519 23.1127 3.72634 23.0484Z" fill="rgb(252,100,12)" fill-rule="nonzero" />
	<path id="Vector" d="M17.1451 25.3564C17.8089 25.3118 18.2497 25.5819 18.7355 25.987C19.0793 26.2516 19.4051 26.5226 19.718 26.8233C20.2346 27.3195 20.9471 27.6273 21.5604 27.9986C21.1282 27.9775 20.6749 27.9908 20.2407 27.9934L18.569 27.9889L14.1445 27.9788L15.2108 26.7148C15.833 25.968 16.0887 25.4718 17.1451 25.3564Z" fill="rgb(252,100,12)" fill-rule="nonzero" />
</svg>
