<svg xmlns="http://www.w3.org/2000/svg" width="410" height="379" fill="none" viewBox="0 0 410 379"><g clip-path="url(#a)"><path fill="#f6f2ef" d="M0 0h410v379H0z"/><path fill="#0b2d50" d="M211.806 41.163c4.717-2.534 12.531-4.267 17.814-4.18 24.36.4 36.605 24.782 42.222 45.197.368 1.333 1.032 3.575 1.131 4.886 3.662-.35 7.849-.856 11.489-.852 2.186-.293 6.117-.22 8.335-.096.691.13 2.295.385 2.894.018 1.864-.1 3.263-.166 5.123.021l.737.593c2.351-.207 3.381.807 5.263.058 5.463.172 19.157 2.709 22.135 6.64 7.28 9.609-24.07 18.136-28.204 19.353 3.422 6.369 7.027 13.914 11.078 19.755 2.545 3.672 6.901 7.531 9.822 11.179 3.237 4.042 6.522 8.364 10.105 12.085 2.539 2.723 5.788 4.839 8.617 7.077 3.137 2.481 10.345 5.98 12.137 9.438 3.605 6.959 7.914 15.682 9.37 23.422.588 3.126-.378 6.885-.056 9.695l-.563.279c-.198 1.018-.571 2.289.115 3.196l-.522.168-.506.016c-1.734 1.878-2.942 3.272-5.239 4.489l.014.413-.646.495c-1.049-.567-.587-.469-1.744-.41l-.706.127-.326.042c-3.519.432-4.416-1.097-7.47-1.02-1.017.026-4.975 2.36-6.216 2.623-2.096.443-4.653.55-6.815.8l-.376.523-.275-.423c-.441 1.519-.014 6.645-.319 8.766-.414-2.578.835-8.985-1.798-9.757-.856.183-.988.156-1.594.732l-.665-.482.04-.236c-.534-.762-2.431-1.177-3.383-1.384l-.709.063c-.418-.752-3.86-3.513-4.835-4.363l-.714-.371c-.295-1.009-2.074-2.612-2.903-3.439l-.633-.552c-.487-1.385-3.329-4.756-4.483-5.862-3.297-.9-10.82-1.351-14.435-1.67a309 309 0 0 1-19.122-2.269c-8.89-1.389-18.493-3.925-27.261-5.62-4.635-.076-10.56 1.62-14.624 3.355-12.406 5.298-17.232 19.361-22.234 30.855a2033 2033 0 0 0-11.116 25.857 3240 3240 0 0 0-24.921 60.964l-25.372 66.66-3.952-.066c2.965-9.734 7.588-20.374 11.156-29.945a2331 2331 0 0 1 31.821-80.649 2788 2788 0 0 1 16.078-38.287c3.851-8.899 7.595-18.059 12.746-26.297 2.135-3.415 4.677-5.364 7.467-8.151l-.221-.37-.138-.424-.261-.124-.005-1.32c1.358-.145 2.576-.312 3.944-.256l.716-.869c3.388-.626 7.735-2.141 11.136-3.13-6.026-2.012-11.159-3.442-17.295-6.68-13.369-7.053-11.765-23.82-10.183-36.53l.057-.21c1.151 7.155.715 13.845 3.033 20.991 3.763 11.601 10.016 13.727 20.629 17.327a257.9 257.9 0 0 0 63.307 12.309c2.222.16 4.788.762 6.911.649-.102-1.863-.503-4.98.296-6.558l.394-.283.489.089c.496 1.215.698 2.955 1.289 3.951 7.912 13.335 15.838 24 32.96 18.238-9.061-5.597-15.274-12.038-25.333-15.135.768-.398 1.126-.586 1.826-1.082 11.051.875 25.378 16.699 33.054 15.87 1.935-.21 3.883-1.361 5.056-2.902 2.322-3.048 2.472-8.214 2.004-11.848-.664-5.142-6.061-18.589-9.22-22.683-2.539-3.29-7.197-5.517-10.565-7.884a79 79 0 0 1-9.257-7.616c-6.217-6.064-10.538-13.233-16.854-19.325-4.307-4.152-9.835-6.464-14.044-10.183-3.185-2.815-5.997-9.335-9.667-12.032-1.357-1.267-3.665-1.641-5.115-2.523-3.343-2.038-9.988-4.105-12.821-6.438.916-3.921 1.563-5.562 3.237-9.205-1.271.015-2.958-.03-4.155.227.643 1.064 1.168 1.705.742 2.893-1.35 3.766-5.87 7.178-9.158 8.907-2.179-.641-2.274-.734-3.576-2.601 2.863-3.492 4.815-7.188 8.901-8.79-1.946.221-4.429.72-6.407 1.064-2.966 2.988-4.045 3.547-7.854 5.107-6.345-.799-9.581-1.373-15.949-1.17-6.302 4.332-6.219 2.695-11.811 5.025l-.298.126c-1.078 2.651-1.284 7.818-4.177 7.862-3.217-1.588-.883-6.379-.911-8.428-6.804 1.32-10.376-.058-10.431 8.037-3.115-3.493-1.803-1.247-4.111-.867l-.945-.522c-.371.208-.277.139-.734.193-.371-.584-.241-1.389-.256-2.196l-.815-.112-.26-.646-1.03.213c-1.009.445-1.133.6-1.686 1.559-.75 1.859-2.318 3.491-4.209 4.143-9.887 3.412-20.346-1.698-31.064-.234-9.076 1.24-14.412 4.068-22.802 6.867a453 453 0 0 1-25.589 7.508c11.899 9.596 34.848 22.027 50.731 20.257 10.464-1.166 17.65-7.562 26.446-12.2 2.593-1.367 6.695-2.295 9.603-2.894-2.87 2.553-5.406 4.045-8.837 5.709 6.317 2.041 13.707 5.411 12.135 13.44-.704-.584-.853-.582-1.773-.675-1.968-6.194-9.286-7.63-14.923-9.454-2.537 1.519-7.22 4.036-9.101 6.12-4.906 5.44-8.251 11.944-12.251 17.958-6.469 9.725-12.334 19.539-18.172 29.655l-38.427 68.055-37.551 66.44-15.902 27.396c-3.198 5.524-6.434 10.91-9.355 16.592H19.496c1.16-2.936 6.06-8.728 8.587-10.937.852-.744 2.474-1.113 3.679-2.331l-.042-.354a18 18 0 0 1-1.722-.606c.027-.61 5.88-5.166 7.254-6.641-1.457-.093-2.964-.14-4.427-.206 5.724-5.301 12.988-17.355 17.68-23.962 2.198-3.094 4.493-5.93 6.773-8.944l-4.71.014c4.453-4.82 11.528-16.17 15.656-22.066-1.515.002-3.068.045-4.587.069 1.924-2.026 4.906-6.748 6.575-9.232 2.525-3.76 5.235-7.767 7.642-11.598 3.084-4.909 5.983-10.187 9.093-15.073 3.338-5.244 7.465-9.959 10.518-15.464-.98.193-4.871 1.201-5.433 1.058-.746-3.134 11.898-14.794 14.076-17.445 2.17-2.641 4.152-5.488 6.094-8.302-1.591-.024-6.968 1.166-7.384-.307.999-2.105 2.927-4.417 4.183-6.491 4.631-7.653 9.405-14.215 14.7-21.369-1.979.557-3.18.864-5.233 1.212 1.328-2.789 3.206-5.202 4.668-7.837 1.921-3.462 3.288-6.307 5.515-9.632 2.463-3.679 6.649-5.852 8.979-8.69 5.524-6.729 7.773-12.833 14.851-18.571-11.875-4.534-19.736-6.786-30.911-14.015-18.714-12.107-7.377-11.611 6.737-15.713a208 208 0 0 0 12.071-3.884c16.614-6.056 20.307-7.717 38.004-5.828.272-1.899.451-3.87.651-5.783-2.877-2.383-6.808-6.388-9.539-9.1-9.546-.081-27.973 1.446-17.129-15.198 1.427-2.19 8.735-9.082 11.509-6.212 5.735 5.932 8.133 11.856 15.058 17.098-1.248-15.816 4.971-33.13 16.247-44.225 2.627-2.585 5.652-4.544 8.391-6.92 2.234-1.939 3.836-4.126 6.261-6.022l1.236 1.006.28-.065z"/><path fill="#fed669" d="M182.275 105.739c-1.241-14.013-.205-29.363 7.384-41.515 7.017-11.326 18.121-20.69 31.327-23.767 29.503-6.873 43.516 23.557 49.009 46.684l.398.64c-.207.335-.248.407-.513.696l.293.353c-4.428.237-8.842.674-13.23 1.313-2.696.37-6.673 1.05-9.234 1.224l-.046-.28.182-.232-.311-.447-1.921-.19c-3.848.356-9.604 1.484-13.436 2.184a308 308 0 0 0-36.713 8.815c-2.093.718-5.817 2.118-7.841 2.606-1.967.8-3.308 1.289-5.348 1.916"/><path fill="#e8b738" d="M202.713 56.952c.446-.706.623-1.184 1.366-1.463l.149.264c-.336.837-.495.93-1.136 1.602-5.813 7.384-8.701 21.882-9.004 31.092-.054 1.641.742 11.738 1.376 12.77-2.093.718-5.817 2.118-7.841 2.606-2.506-16.702 2.721-35.138 15.09-46.87"/><path fill="#0b1118" d="M245.613 90.217c1.679-.372 5.751-.897 7.536-1.108 5.442-.645 11.41-1.562 16.846-1.968l.398.64c-.207.334-.248.407-.513.695l.293.354c-4.428.236-8.842.674-13.23 1.312-2.696.37-6.673 1.05-9.234 1.225l-.046-.281.182-.231-.311-.447z"/><path fill="url(#b)" d="M284.462 86.214c2.186-.293 6.116-.22 8.334-.096.692.13 2.296.385 2.895.018 1.863-.1 3.262-.166 5.122.021l.738.593-.104.645c1.249.3 1.095-.29 1.77.323l.062.269c3.475.38 28.236 2.898 23.96 10-.283.135-.619.32-.913.394-.494.209-.922.433-1.452.493-4.871-1.757-13.696-2.334-19.102-2.9.14-.505.204-.564.161-1.087l.513-.257c-7.782-1.143-15.652-.115-23.374.14-22.38.739-44.435 4.605-66.189 9.765-10.002 2.372-20.248 4.899-29.849 8.673-2.02.798-4.4 2.197-6.378 3.208.196-2.754.496-6.111 1.786-8.592.963-.48 1.887-.977 2.9-1.333l-.933-.683c-.471.06-.881.112-1.346.219l-.312.074-.476-.362c2.04-.627 3.381-1.116 5.348-1.916 2.024-.488 5.748-1.888 7.841-2.606a308 308 0 0 1 36.713-8.815c3.832-.7 9.588-1.829 13.436-2.185l1.921.19.311.448-.182.23.046.282c2.561-.174 6.538-.854 9.234-1.225a146 146 0 0 1 13.23-1.312c.829-.028.979-.013 1.761-.248l-.153-.087-.059-.238c.404-.044.768-.086 1.174-.111l.245-.013c-.326-.715-.303-.367-.169-1.066 3.663-.35 7.849-.857 11.49-.853"/><path fill="url(#c)" d="M195.462 101.217a308 308 0 0 1 36.713-8.815c3.832-.7 9.588-1.828 13.436-2.185l1.921.191.311.447-.182.23.046.282c-5.178 1.03-10.726 1.575-15.949 2.626-15.006 3.018-32.26 6.927-46.418 12.498l-.933-.683c-.471.06-.881.112-1.346.219l-.312.074-.476-.362c2.04-.627 3.381-1.116 5.348-1.916 2.024-.488 5.748-1.888 7.841-2.606"/><path fill="url(#d)" d="M272.973 87.067c3.663-.35 7.849-.857 11.49-.853l.265.026c2.36.22 6.482-.33 8.217.606l.212.49c-.831.88-7.059-.136-8.324.555-4.582.056-8.385.437-12.898.692l-.153-.088-.059-.238c.404-.044.768-.085 1.174-.11l.245-.014c-.326-.714-.303-.366-.169-1.066"/><path fill="#0b1118" d="M306.444 94.63c5.259.432 15.56.877 19.88 3.751-.494.209-.922.434-1.452.493-4.871-1.757-13.696-2.334-19.102-2.9.14-.505.204-.564.161-1.087z"/><path fill="#09203b" d="M284.461 86.214c2.186-.293 6.116-.22 8.334-.096.692.13 2.296.385 2.895.018 1.863-.1 3.262-.166 5.122.021l.738.593-.104.645c1.249.3 1.095-.29 1.77.323l.062.269c-6.092-.108-12.316-.024-18.447-.096 1.265-.69 7.493.325 8.324-.555l-.212-.49c-1.735-.937-5.857-.387-8.217-.606z"/><path fill="#f6f2ef" d="M69.574 329.814c.33.382.744.784.944 1.22-.716 1.492-2.286 4.788-3.493 5.778l-.273 1.143-1.088 1.855-.488.905c-.834 1.682-6.178 11.285-7.103 12.133-.19.513-.356.836-.35 1.387-.559.914-.848 1.579-1.952 1.86l.127.598-.15.185c-4.746 1.422-9.577 2.584-14.298 4.049-.673-.357-.437-.095-.705-.836-.039-1.199.906-2.285 1.607-3.207-1.309.051-2.552.349-3.461-.615l.021-.39c1.47-1.842 5.574-7.667 7.091-8.808l-.1-.469c.61-1.517 1.576-2.652 2.809-3.692.344-.384.33-.35.393-.862 1.168-1.651 3.159-5.629 4.893-6.184l-.245-.646c.638-.161 3.807-1.327 4.602-1.615 2.884-1.044 8.626-2.499 11.219-3.789"/><path fill="#f6f2ef" d="M69.575 329.814c.33.382.744.784.944 1.22-.716 1.492-2.286 4.788-3.493 5.778a85 85 0 0 0-7.13 1.949c-2.017.648-9.203 3.329-10.79 3.287 1.168-1.651 3.159-5.629 4.893-6.184l-.245-.646c.638-.161 3.807-1.327 4.602-1.615 2.883-1.044 8.626-2.499 11.219-3.789"/><path fill="#223440" d="M69.575 329.814c.33.382.745.784.944 1.22-4.52 1.857-11.483 2.8-16.52 4.83l-.245-.646c.639-.161 3.807-1.327 4.602-1.615 2.884-1.044 8.626-2.499 11.22-3.789"/><path fill="#f6f2ef" d="M49.104 342.048c1.587.042 8.773-2.639 10.79-3.287a85 85 0 0 1 7.13-1.949l-.272 1.143-1.088 1.855-.488.905c-3.725.568-10.52 3.569-14.356 4.783-1.503.475-3.258 1.381-4.817 1.573l-.1-.469c.61-1.517 1.575-2.652 2.808-3.692.345-.384.33-.35.393-.862"/><path fill="#252a31" d="M45.902 346.602c2.243-.672 5.659-2.071 7.987-2.924a164 164 0 0 1 11.774-3.868l-.487.905c-3.725.568-10.52 3.569-14.356 4.783-1.503.475-3.258 1.381-4.817 1.573zM49.104 342.048c1.587.042 8.773-2.639 10.79-3.287a85 85 0 0 1 7.13-1.949l-.273 1.143c-4.902.033-13.722 4.389-18.04 4.955.345-.384.33-.35.393-.862"/><path fill="#f6f2ef" d="M42.354 356.884c1.989-1.002 13.407-3.355 15.37-2.649-.558.914-.847 1.579-1.951 1.86l.127.598-.15.185c-4.746 1.422-9.577 2.584-14.297 4.049-.674-.357-.438-.095-.706-.836-.039-1.199.906-2.285 1.607-3.207"/><path fill="#0b1118" d="M40.746 360.091c4.283-1.298 10.74-3.018 15.026-3.996l.127.598-.15.185c-4.746 1.422-9.577 2.584-14.298 4.049-.673-.357-.437-.095-.705-.836M38.89 356.269c2.66-.246 5.716-.997 8.39-1.515a731 731 0 0 1 10.793-1.906c-.19.513-.356.836-.35 1.387-1.964-.706-13.382 1.647-15.371 2.649-1.309.051-2.552.349-3.461-.615"/><path fill="#f6f2ef" d="M55.747 356.878c.21 1.403-1.874 3.62-3.203 4.175l.314.563-.123.323c-.258 1.182-1.62 3.553-2.482 4.405-.765 1.765-3.665 6.972-4.917 8.302l-.39.903c-.5.94-1.351 2.654-1.936 3.451H22.496c2.844-2.867 5.267-5.657 8.632-7.933l.21-.534c.686-1.451 2.36-3.471 4.026-3.701l-.701-.591c1.71-3.168 3.587-4.15 6.787-5.314 4.72-1.465 9.551-2.627 14.297-4.049"/><path fill="#f6f2ef" d="M55.748 356.878c.21 1.403-1.874 3.62-3.202 4.175l.313.563-.123.323c-4.78 1.751-12.348 3.563-17.37 4.893l-.702-.591c1.71-3.168 3.587-4.15 6.787-5.314 4.72-1.465 9.552-2.627 14.297-4.049"/><path fill="#0b1118" d="M34.664 366.241c3.072-.458 14.283-4.086 17.882-5.188l.313.563-.123.323c-4.78 1.751-12.348 3.563-17.37 4.893z"/><path fill="#f6f2ef" d="M52.738 361.939c-.259 1.182-1.62 3.553-2.482 4.405-1.814-.94-13.856 2.513-16.23 3.259q-1.355.43-2.686.93c.687-1.451 2.36-3.471 4.026-3.701 5.024-1.33 12.591-3.142 17.372-4.893M34.102 379c1.25-1.123 8.954-2.958 10.844-3.451-.5.94-1.35 2.654-1.935 3.451z"/><path fill="#0b1118" d="M31.338 370.533a56 56 0 0 1 2.687-.93c2.373-.746 14.415-4.199 16.23-3.259-1.281.542-7.286 1.713-9.2 2.159-2.554.596-7.667 2.264-9.926 2.564z"/><path fill="#252a31" d="M31.223 379c1.846-.91 11.383-3.542 14.115-4.354l-.39.903c-1.89.493-9.596 2.328-10.845 3.451z"/><path fill="#e8b738" d="M305.772 95.974c5.406.566 14.231 1.143 19.102 2.9.537.13.416.103.915.361l-.056.466c-3.562 3.985-20.609 9.696-26.105 10.721a335 335 0 0 0-2.722-3.965c3.304-1.534 6.494-3.349 8.374-6.481-2.224-2.992-3.326-3.01-6.812-3.57 2.349-.369 4.915-.365 7.304-.432"/><path fill="#f6f2ef" d="M78.58 317.27c-1.028 2.17-1.587 3.718-3.396 5.33-.18.74-.166.727-.557 1.374-.609 1.584-1.683 3.484-2.674 4.862-.732.245-1.799.527-2.378.978-2.593 1.29-8.335 2.745-11.219 3.789-.795.288-3.964 1.454-4.602 1.615 2.874-5.785 8.001-11.795 14.294-13.663 3.417-1.015 7.56-2.379 10.532-4.285"/><path fill="#252a31" d="M69.773 323.608c1.811-.283 3.612-.654 5.41-1.008-.18.74-.166.727-.557 1.374q-2.002.034-4.006.094z"/><path fill="#767379" d="m69.775 323.608.847.46c-1.19.197-2.874.611-4.009.434.759-.512 2.205-.698 3.162-.894"/><path fill="#f1e9e2" d="M201.93 112.545c.951-.31 1.614-.663 2.542-.406.787 1.026.512 2.262.468 3.689l-.945-.522c-.371.208-.277.139-.734.193-.371-.584-.241-1.389-.256-2.196l-.815-.112z"/><path fill="#0b1118" d="m203.006 113.303.649-.272.429.22c.112.907.045 1.133-.088 2.055-.371.208-.277.139-.734.193-.371-.584-.241-1.389-.256-2.196"/><path fill="#f1e9e2" d="M224.152 192.384c1.358-.145 2.576-.312 3.944-.256-1.091.736-2.444 1.21-3.678 1.7l-.261-.124z"/><path fill="#b9b49d" d="m211.345 40.434.459.729c-.655.353-1.093.71-1.8.608.152-.72.344-.658 1.061-1.272z"/><path fill="#f6f2ef" d="M112.089 247.162c1.625-.938 2.987-.148 5.127-.088-.659 1.53-1.681 4.706-3.437 5.035.09.569.191.488.005.849.653 1.541-2.293 5.136-3.818 5.609l.31.906c-1.053 2.626-5.307 11.42-7.02 13.458-.209.497-.231.599-.529 1.063-.387.932-1.184 1.177-2.17 1.592.351.337.573.419.634.798-.233 2.12-2.884 5.406-3.585 7.108l-.398.77c-1.119 2.319-2.106 4.516-3.611 6.623l-.534.832c-.943 1.759-1.842 3.468-2.885 5.173-1.275.227-2.893.564-4.15.718 1.114.494 2.06.3 2.953.791l.13.293c-.33.41-.154.339-.557.497l-.39.795c-.33.878-.394 1.054-.944 1.807l-.067-.404c-.793-.47-.604-.303-1.764-.148-.065-.779-.087-.56-.83-1.278-1.981-.083-2.819-.12-4.773.106-1.167.135-5.174.897-6.066.821-1.074-.199-2.094-.576-3.43-.812.04-.606.84-1.521 1.24-2.066l.304-.573c1.564-2.671 4-6.512 6.169-8.626l.081-.422c1.668-2.886 3.455-5.649 5.27-8.447 2.651-4.09 5.88-12.706 10.177-14.884l-.238-.806c.316-1.347 5.387-7.713 6.894-8.448l-.038-.753c.009.083 3.219-5.473 3.539-6.077 2.301-.625 6.805-1.134 8.401-1.812"/><path fill="#f6f2ef" d="M78.003 288.811c1.4.027 8.178-2.215 10.182-2.693 2.985-.712 5.862-1.468 9.023-1.856-1.119 2.319-2.106 4.516-3.611 6.623l-.534.832c-.943 1.759-1.842 3.468-2.885 5.173-1.275.227-2.893.564-4.15.718 1.114.494 2.06.3 2.953.791l.13.293c-.33.41-.154.339-.557.497l-.39.795c-.33.878-.394 1.054-.944 1.807l-.067-.404c-.793-.47-.604-.303-1.764-.148-.065-.779-.087-.56-.83-1.278-1.981-.083-2.819-.12-4.773.106-1.167.135-5.174.897-6.066.821-1.074-.199-2.094-.576-3.43-.812.04-.606.84-1.521 1.24-2.066l.304-.573c1.564-2.671 4-6.512 6.169-8.626"/><path fill="#f1e9e2" d="M93.063 291.717c-.943 1.759-1.842 3.468-2.885 5.173-1.275.227-2.893.564-4.15.718 1.114.494 2.06.3 2.953.791l.13.293c-.33.41-.154.339-.557.497l-.39.795c-.33.878-.394 1.054-.944 1.807l-.067-.404c-.793-.47-.604-.303-1.764-.148-.065-.779-.087-.56-.83-1.278-1.981-.083-2.819-.12-4.773.106-1.167.135-5.174.897-6.066.821-1.074-.199-2.094-.576-3.43-.812.04-.606.84-1.521 1.24-2.066 1.648-.143 6.553-2.448 8.634-3.024 4.302-1.193 8.555-2.241 12.9-3.269"/><path fill="#252a31" d="M83.236 298.458c1.214-.508 1.503-.598 2.792-.85 1.114.494 2.06.3 2.953.791l.13.293c-.33.41-.154.339-.557.497l-.39.795c-.33.878-.394 1.054-.944 1.807l-.067-.404c-.793-.47-.604-.303-1.764-.148-.065-.779-.087-.56-.83-1.278-1.981-.083-2.819-.12-4.773.106-1.167.135-5.174.897-6.066.821-1.074-.199-2.094-.576-3.43-.812 5.766-.053 7.335-.285 12.946-1.618"/><path fill="#b9b49d" d="M83.234 298.458c1.214-.508 1.503-.598 2.792-.85 1.114.494 2.06.3 2.953.791l.13.293c-.33.41-.153.339-.557.497-2.238-.316-2.788-.086-5.318-.731"/><path fill="#f1e9e2" d="m84.559 299.961 3.603.023c-.328.878-.393 1.054-.943 1.807l-.066-.404c-.793-.47-.605-.303-1.765-.148-.065-.779-.086-.56-.83-1.278"/><path fill="#252a31" d="m93.594 290.885-.533.832c-4.344 1.028-8.598 2.076-12.9 3.269-2.08.576-6.985 2.881-8.634 3.024l.304-.573c.948-.011 6.456-2.463 8.107-2.924 3.73-1.041 9.906-3.146 13.656-3.628"/><path fill="#f6f2ef" d="M112.089 247.162c1.625-.938 2.987-.148 5.127-.088-.659 1.53-1.681 4.706-3.437 5.035.09.569.191.488.005.849.653 1.541-2.293 5.136-3.818 5.609a133 133 0 0 0-9.793 3.242c-1.452.535-5.602 2.177-6.88 2.443.316-1.347 5.387-7.713 6.894-8.448l-.038-.753c.009.083 3.219-5.473 3.539-6.077 2.301-.625 6.805-1.134 8.401-1.812"/><path fill="#f6f2ef" d="M112.088 247.162c1.625-.938 2.987-.148 5.127-.088-.659 1.53-1.681 4.706-3.437 5.035.09.569.191.488.005.849-3.695.714-10.346 2.427-13.597 2.846l-.038-.753c.009.083 3.219-5.473 3.539-6.077 2.301-.625 6.805-1.134 8.401-1.812"/><path fill="#0b1118" d="M100.148 255.051c2.604-.079 10.389-2.346 13.63-2.942.09.569.191.488.005.849-3.695.714-10.346 2.427-13.597 2.846z"/><path fill="#252a31" d="M93.247 278.021c-2.443.535-2.901 1.689-4.74-.352.729-1.126 12.653-4.216 14.746-4.738-.209.497-.231.599-.529 1.063-.387.932-1.184 1.177-2.17 1.592a284 284 0 0 1-7.549 1.903z"/><path fill="#f6f2ef" d="M102.726 273.994c-.387.932-1.184 1.177-2.17 1.592a284 284 0 0 1-7.549 1.903c-.915.356-2.095.817-2.937.069 1.007-.737 10.848-3.117 12.656-3.564"/><path fill="#0b1118" d="M93.293 264.252c1.278-.266 5.428-1.908 6.88-2.443a133 133 0 0 1 9.793-3.242l.31.906c-5.655 1.757-11.205 3.474-16.745 5.585z"/><path fill="#252a31" d="m97.603 283.492-.398.77c-3.16.388-6.038 1.144-9.023 1.856-2.004.478-8.783 2.72-10.182 2.693l.082-.422c2.945-.664 6.286-1.868 9.268-2.681 3.552-.968 6.63-1.583 10.253-2.216"/><path fill="#0b1118" d="M93.008 277.489q3.787-.9 7.549-1.903c.351.337.573.419.634.798-1.874.481-6.102 1.472-7.942 1.637z"/><path fill="#f6f2ef" d="M152.243 175.738c2.377-.268 4.676-.519 7.076-.508-1.794 2.763-4.94 6.815-8.514 7.14l.069.63.183.32.933.481c1.392-.682 1.905-.846 3.405-1.275-.671 1.283-1.833 3.806-3.02 4.501-.144.341-.331.691-.371 1.043-.591.8-.919 1.326-1.73 1.933l-.083.603c-1.421 2.766-6.221 11.835-9.007 14.273l-.856.229.571.344.022.511c-.321 1.296-2.816 5.98-4.036 6.309-.318 1.184-1.32 1.142-2.386 1.226-1.642-.012-2.044.413-3.547.669-5.566.945-10.859 2.62-16.171 4.562l.063-.75c-.077-1.722 2.732-4.666 4.401-5.364l-.429-.809c.314-1.887 6.801-9.828 8.189-11.999.943-1.473 1.556-2.471 2.416-4.162-2.105.452-3.306.337-5.446.191l2.083-2.553a82 82 0 0 1 3.238-5.683c2.262-3.674 5.986-8.965 10.349-10.008 2.454-.833 9.875-1.666 12.598-1.854"/><path fill="#f6f2ef" d="M152.244 175.738c2.377-.268 4.676-.519 7.076-.508-1.794 2.763-4.94 6.815-8.514 7.14l.069.63.183.32.933.481c1.392-.682 1.905-.846 3.405-1.275-.671 1.283-1.833 3.806-3.02 4.501-.144.341-.331.691-.371 1.043-.591.8-.919 1.326-1.73 1.933l-.083.603c-3.008.381-6.469.397-9.525.609-1.976.138-8.956 1.869-10.192 1.369-1.616.266-.466.383-1.144.519-.688.138-2.104.39-2.829.531l-.443-.351a82 82 0 0 1 3.238-5.683c2.262-3.674 5.986-8.965 10.349-10.008 2.454-.833 9.875-1.666 12.598-1.854"/><path fill="#252a31" d="M151.993 183.801c1.392-.682 1.905-.846 3.405-1.275-.671 1.283-1.833 3.806-3.02 4.501-.144.341-.331.691-.371 1.043-.591.8-.919 1.326-1.73 1.933l-.083.603c-3.008.381-6.469.397-9.525.609-1.976.138-8.956 1.869-10.192 1.369 3.147-1.088 9.827-1.781 13.684-2.833.733-1.005 2.45-2.139 3.429-3.029a66 66 0 0 0 3.47-3.402z"/><path fill="#f6f2ef" d="M151.989 183.801c1.392-.682 1.905-.846 3.405-1.275-.671 1.283-1.833 3.806-3.02 4.501-.144.341-.331.691-.371 1.043-1.156-.009-2.539.233-3.283-.592l-.486-.206c.4-.736 2.991-2.826 3.755-3.471"/><path fill="#223440" d="M148.723 187.478c1.041-.416 2.519-.403 3.654-.451-.144.341-.331.691-.371 1.043-1.156-.009-2.539.233-3.283-.592"/><path fill="#f6f2ef" d="m148.237 187.272.486.206c.744.825 2.127.583 3.283.592-.591.8-.919 1.326-1.73 1.933a70 70 0 0 1-6.26-.042c1.566-.887 2.96-1.416 4.221-2.689"/><path fill="#0b1118" d="M150.873 183c-1.884.641-6.676 1.476-8.879 1.877-4.255.776-7.723 1.693-11.877 2.691 2.311-1.84 17.385-4.558 20.687-5.198z"/><path fill="#f6f2ef" d="M118.816 211.806c5.285-2.512 15.726-5.226 21.512-6.698l.571.344.022.511c-.321 1.296-2.816 5.98-4.036 6.309-.318 1.184-1.32 1.142-2.386 1.226-1.642-.012-2.044.413-3.547.669-5.566.945-10.859 2.62-16.171 4.562l.063-.75c-.077-1.722 2.732-4.666 4.401-5.364z"/><path fill="#0b1118" d="M118.816 211.806c5.285-2.512 15.726-5.226 21.512-6.698l.571.344.022.511c-1.717.742-3.52 1.188-5.331 1.635-5.55 1.371-11.048 2.835-16.345 5.017zM114.844 217.979c3.954-1.708 17.848-6.285 22.041-5.707-.318 1.184-1.32 1.142-2.386 1.226-1.642-.012-2.044.413-3.547.669-5.566.945-10.859 2.62-16.171 4.562z"/><path fill="#f6f2ef" d="M114.783 218.729c5.312-1.942 10.605-3.617 16.171-4.562 1.503-.256 1.905-.681 3.547-.669.861.339 1.021.219 1.371.836-.523 1.642-3.154 6.502-4.395 7.597l-.737.168c.034.354.115.518.002.763l.128.583c-2.016 3.864-4.154 7.771-6.371 11.518-.323.546-.782 1.163-1.111 1.502l-.829 1.482c-1.002 2.029-2.055 3.913-3.154 5.889-1.773.392-6.904 2.164-8.107 2.227.512.452.562.434.791 1.099-1.596.678-6.1 1.187-8.401 1.812-.651-.736-1.758-.463-2.702-.443-.858.04-3.587.503-4.681.631 3.495-2.841 5.714-4.798 8.921-7.998l.332-.972c3.147-3.341 6.796-9.797 10.079-13.208.691-.718 1.126-.389 1.52-1.876.297-1.119.938-1.653 1.725-2.44-2.918.643-5.415 1.154-8.363 1.611.944-1.671 2.527-4.797 4.264-5.55"/><path fill="#f6f2ef" d="M105.226 241.164c.503-.061 4.25-1.13 4.871-1.309 4.699-1.35 7.61-1.879 12.462-1.908-1.002 2.029-2.055 3.913-3.154 5.889-1.773.392-6.904 2.164-8.107 2.227.512.452.562.434.791 1.099-1.596.678-6.1 1.187-8.401 1.812-.651-.736-1.758-.463-2.702-.443-.858.04-3.587.503-4.681.631 3.495-2.841 5.714-4.798 8.921-7.998"/><path fill="#223440" d="M100.984 248.531a712 712 0 0 1 10.312-2.468c.512.452.562.434.791 1.099-1.596.678-6.1 1.187-8.401 1.812-.651-.736-1.758-.463-2.702-.443"/><path fill="#252a31" d="M105.559 240.192c1.505.1 8.014-1.877 10.03-2.284 2.526-.51 5.204-1.005 7.8-1.443l-.829 1.482c-4.852.029-7.763.558-12.462 1.908-.621.179-4.368 1.248-4.871 1.309zM130.74 222.862c-.974.378-12.589 3.119-13.056 3.054 1.356-1.289 10.62-3.074 13.054-3.817.034.354.115.518.002.763M126.087 221.298c1.077-.086 1.297-.125 2.332.147l-.096.217c-2.118.502-4.521.756-6.755 1.191-.952.15-1.188.209-2.134.073.437-.601 5.64-1.438 6.653-1.628"/><path fill="#f6f2ef" d="M156.739 155.87c5.091.942 10.053 1.068 15.225 1.154-.864 1.12-1.344 1.643-2.349 2.644l-.544.975c-1.281 2.229-2.621 4.187-4.059 6.317-.725.012-1.979-.01-2.656.057.624.42.968.038 1.767.46l-.192-.016c-.351.428-.126.32-.638.416l.558.23c-.074 1.062-1.643 3.712-2.205 4.773-1.125.188-6.705.996-7.362 1.299v.371c-.83.227-1.243.805-2.039 1.188-2.723.188-10.144 1.021-12.598 1.854l-.784-.613c.546-.875 4.749-5.854 5.713-7.065.35-.429.259-.334.482-.864 3.29-5.581 6.614-9.238 11.681-13.18"/><path fill="#f6f2ef" d="M145.058 169.05c.933.296 2.973-.305 3.98-.568 4.554-1.187 8.606-1.614 13.318-1.465.624.42.968.038 1.767.46l-.192-.016c-.351.428-.126.32-.638.416l.558.23c-.074 1.062-1.643 3.712-2.205 4.773-1.125.188-6.705.996-7.362 1.299v.371c-.83.227-1.243.805-2.039 1.188-2.723.188-10.144 1.021-12.598 1.854l-.784-.613c.546-.875 4.749-5.854 5.713-7.065.35-.429.259-.334.482-.864"/><path fill="#252a31" d="M145.056 169.05c.933.296 2.973-.305 3.98-.568 4.554-1.187 8.606-1.614 13.318-1.465.624.42.968.038 1.767.46l-.192-.016c-.351.428-.126.32-.638.416-3.414.079-6.558.043-9.966.414-3.069.334-5.829 1.173-8.751 1.623.35-.429.259-.334.482-.864"/><path fill="#0b1118" d="M138.863 176.979c4.336-.974 11.08-2.401 15.421-2.8v.371c-.83.227-1.243.805-2.039 1.188-2.723.188-10.144 1.021-12.598 1.854z"/><path fill="#252a31" d="M169.07 160.643c-2.2.49-5.879.698-8.618 1.312-2.47.553-9.341 2.381-11.347 2.498l.106-.164c6.415-2.267 13.669-3.737 20.403-4.621z"/><path fill="#f6f2ef" d="M73.72 300.888c.892.076 4.899-.686 6.066-.821 1.954-.226 2.792-.189 4.773-.106.743.718.765.499.83 1.278 1.16-.155.972-.322 1.764.148l.067.404c-.62 2.178-3.736 7.272-5.115 9.169-1.69.101-2.413.184-4.06.539.28.798.524.977 1.102 1.627.697-.11 1.036-.243 1.67.054 1.131 3.751-20.1 9.661-22.93 10.478 1.062-1.796 2.583-3.892 3.482-5.477.642-.976.908-1.1 1.906-1.62l.286-.146-.483-.491.112-.313c3.22-4.437 5.907-9.28 9.129-13.712.362-.498.906-.802 1.401-1.011"/><path fill="#252a31" d="M85.387 301.239c1.16-.155.971-.322 1.764.148.476-.371-16.995 5.414-16.999 5.414l-.043-.275c2.376-1.369 12.627-4.594 15.278-5.287"/><path fill="#f1e9e2" d="M63.076 315.924c.523.023.903-.178 1.397-.367 1.302.593 1.312.352 1.93 1.396-.899.774-3.105 1.533-4.279 1.853-.638-.313-.416-.087-.757-.625.642-.976.908-1.1 1.907-1.62l.285-.146z"/><path fill="#0b1118" d="M76.643 311.802c.428.668.781 1.307 1.349 1.856-1.127.236-3.248.523-3.636-.915.696-.732 1.166-.648 2.287-.941"/><path fill="#223440" d="M64.473 315.557c1.285-.538 2.587-.646 3.398.822-.472.538-.574.392-1.469.574-.618-1.044-.627-.803-1.93-1.396"/><path fill="#f1e9e2" d="m76.645 311.802 1.4-.303c.28.798.524.977 1.103 1.627-.537.327-.552.409-1.154.532-.568-.549-.921-1.188-1.35-1.856"/><path fill="#f6f2ef" d="M282.832 97.525c.417.073 1.613.34 1.963.558 8.689 5.442 15.073 16.631 18.424 25.687-1.474-1.282-7.28-12.329-9.074-14.673-2.231-2.914-4.494-6.12-7.483-8.625-1.256-1.052-2.615-1.914-3.83-2.947"/><path fill="#0b1118" d="M361.815 205.452c5.428 2.576 10.64 15.186 9.406 20.909-.841 3.898-.348 6.206.287 10.123 2.358 13.869-2.977 22.605-12.195 31.986-1.879 12.903-6.643 23.45-12.701 34.74 6.856 3.704 11.852 6.16 19.462 8.336 1.938.555 6.287 1.346 7.667 1.992l.064.274c-1.485.545-10.689-2.454-12.649-3.077-5.278-1.679-10.353-4.319-15.159-7.046-3.767 6.141-11.285 15.442-17.176 19.491 1.885-2.502 4.68-5.003 6.854-7.331 3.63-3.888 6.996-7.882 9.673-12.49-10.615-7.065-15.096-10.774-22.945-20.785-3.515 2.326-11.616 7.626-15.38 8.859.695-.69 1.413-1.301 2.267-1.786 4.377-2.487 8.58-4.953 12.743-7.791-9.179-11.667-12.357-26.897-12.74-41.417-.064-2.42.52-4.836.489-7.138-.014-1.126-.687-3.839-.947-5.097a28.7 28.7 0 0 1-.42-9.382c.63-5.169 2.087-8.61 4.612-13.075l.633.552c.829.827 2.607 2.43 2.903 3.439l.714.371c.975.85 4.416 3.611 4.834 4.363l.71-.063c.952.207 2.849.622 3.383 1.384l-.04.236.665.482c.605-.576.737-.549 1.593-.732 2.633.772 1.385 7.179 1.799 9.757.305-2.121-.122-7.247.319-8.766l.275.423.376-.523c2.162-.25 4.718-.357 6.815-.8 1.241-.263 5.199-2.597 6.216-2.623 3.054-.077 3.95 1.452 7.47 1.02l.326-.042.705-.127c1.158-.059.696-.157 1.745.41l.646-.495-.014-.413c2.297-1.217 3.505-2.611 5.239-4.489l.505-.016.522-.168c-.686-.907-.312-2.178-.114-3.196z"/><path fill="#f6f2ef" d="m330.816 217.193.376-.523c2.162-.25 4.718-.357 6.815-.8 1.241-.263 5.199-2.597 6.216-2.623 3.054-.077 3.95 1.452 7.47 1.02l.326-.042c-.085 14.736-1.014 26.931-8.047 40.413-8.119-8.026-11.492-16.461-12.706-27.837-.289-2.712-.111-7.258-.45-9.608"/><path fill="#f6f2ef" d="M326.829 216.511c.605-.576.737-.549 1.593-.732 2.633.772 1.385 7.179 1.799 9.757-.04 1.392.478 4.681.782 6.133 2.004 9.584 5.282 16.143 11.891 23.317-7.658.105-9.413.078-16.624-3.058a74.14 74.14 0 0 1 .559-35.417M355.116 214.013l-.014-.413c2.297-1.217 3.505-2.611 5.239-4.489l.505-.016c3.227 6.242 6.92 13.755 8.489 20.62.822 3.595-5.869 12.304-8.419 14.882-.933-9.676-1.807-21.784-5.8-30.584"/><path fill="#f6f2ef" d="M352.867 216.253c.452-.136 1.552-.143 2.215-.285 3.226 9.403 4.325 19.906 4.889 29.812-5.763 3.782-7.589 5.62-14.502 7.985 5.216-12.165 8.131-24.137 7.398-37.512M317.279 210.109c.975.85 4.416 3.611 4.834 4.363-1.389 2.123-2.456 22.453-2.331 25.61.088 2.234.165 5.221.505 7.593-3.265-3.486-10.955-12.556-9.001-17.514 1.957-9.634 2.423-10.952 5.993-20.052"/><path fill="#f6f2ef" d="M322.823 214.409c.952.207 2.849.622 3.383 1.384l-.04.236c-2.858 9.46-3.281 22.278-1.665 31.985-1.016.443-.913.931-.9 1.986l-2.252-1.913c-.857-5.871-.673-28.731 1.474-33.678M313.662 206.299c.829.827 2.607 2.43 2.903 3.439l.714.371c-3.57 9.1-4.036 10.418-5.993 20.052l-.648-.138-.3-.003c-.464-.371-.399-.367-.548-1.137-1.494-7.706-.45-15.94 3.872-22.584"/><path fill="#0b1118" d="m316.564 209.738.714.371c-3.57 9.1-4.036 10.418-5.993 20.052l-.648-.138c.291-5.741 3.85-15.001 5.927-20.285"/><path fill="#f6f2ef" d="M361.254 205.731c7.992 6.848 9.189 13.213 8.778 23.134-2.085-6.432-4.804-14.315-8.664-19.938-.686-.907-.312-2.178-.114-3.196M352.727 214.098c1.158-.059.696-.157 1.745.41l.611 1.46c-.663.142-1.763.149-2.215.285-.114-.419-.122-1.654-.141-2.155M323.603 250c-.013-1.055-.116-1.543.9-1.986.201.878.602 2.013.315 2.787-.715-.132-.579-.197-1.215-.801M357.937 269.501l.14.142c.181 1.157-.579 4.204-.898 5.482a105 105 0 0 1-7.482 20.654c-1.165 2.355-2.567 4.629-3.808 6.972a77.9 77.9 0 0 1-22.811-20.667l4.038-3.195c1.641-1.343 3.359-2.849 4.696-4.493 2.884 2.883 10.455 9.847 14.291 10.483l.065-.285c-.872-.819-3.296-2.035-4.534-2.867a49 49 0 0 1-9.234-7.947c.972-.985 2.605-3.062 3.586-4.22 8.653 4.767 13.346 5.118 21.951-.059M310.986 250.322c-.271-1.071-.668-5-.771-6.146l1.605 2.849c3.102 4.509 5.169 7.107 9.971 10.044l.186.113c3.703 7.535 4.293 9.962 9.397 16.64-2.953 2.735-5.694 5.085-8.744 7.691-5.353-8.067-8.544-14.013-10.537-23.699-.435-2.112-1.065-5.378-1.107-7.492"/><path fill="#f1e9e2" d="M310.986 250.322c-.271-1.071-.668-5-.771-6.146l1.605 2.849c-.938 1.234-.784 1.699-.834 3.297"/><path fill="#f6f2ef" d="M344.268 255.919q.321.3.655.587c3.593 3.154 9.797 5.219 14.558 4.898-.72 6.951-.999 7.659-7.739 10.427-6.129 1.435-9.824.353-15.129-2.879 2.862-4.258 5.028-8.68 7.655-13.033M369.645 232.88l.44.431c3.279 12.402-.864 25.072-10.487 33.449.374-2.208.455-3.294.441-5.53 1.273-.223 5.066-1.482 5.566-2.514l.04-.015c-1.244.193-3.606 1.192-5.019 1.644.385-4.907.472-9.832.259-14.749 3.554-3.186 6.88-8.408 8.76-12.716M326.652 252.951c5.241 2.281 9.754 3.526 15.631 2.89.497-.054.159-.103.661.107-.065 1.215-3.113 6.277-3.916 7.684l-3.101 4.884c-5.281-5.401-7.159-8.38-9.275-15.565"/><path fill="#f6f2ef" d="M359.617 246.999c.207.029.065-.006.374.233.013 4.569-.144 8.979-.246 13.538-4.337.012-7.277-.803-11.095-2.653l-1.277-.78c-.737-.455-2.347-1.327-2.529-2.091.549-.715 1.548-1.001 2.396-1.31 4.628-1.692 8.3-4.17 12.377-6.937M321.492 249.438c.56.257 3.348 2.346 3.693 2.891 1.091 1.719 1.831 4.011 2.561 5.949 1.812 4.813 4.11 7.235 7.654 10.683l-2.021 2.372-1.654 1.843c-5.807-8.191-8.754-13.787-10.233-23.738M310.16 234.796c.768.399 4.628 8.138 5.926 9.45.677.683 4.339 4.304 4.503 4.826.49 1.556.989 5.256 1.284 7.069-3.64-1.225-10.803-10.094-11.689-14.168-.19-.869-.003-5.874-.024-7.177"/><path fill="#fed669" d="M219.758 35.12c39.066-15.33 62.943 13.022 72.831 48.236.217.948.602 1.94.204 2.763-2.218-.125-6.148-.198-8.334.095-3.641-.004-7.827.503-11.49.853-.098-1.312-.763-3.554-1.13-4.887-5.618-20.415-17.862-44.797-42.222-45.197-5.283-.087-13.097 1.646-17.814 4.18l-.459-.73-.28.066-1.236-1.006c1.438-1.17 2.553-1.928 4.08-2.95.052.611-.082.505.214.793.972-.062 3.526-1.84 5.246-2.451z"/><path fill="#0b2d50" d="M213.908 36.542c.052.612-.082.505.214.794.972-.062 3.526-1.84 5.246-2.451l.39.235c-3.404 2.106-5.023 2.744-8.414 5.314l-.28.065-1.236-1.006c1.438-1.17 2.553-1.928 4.08-2.951"/><path fill="#09203b" d="M213.91 36.542c16.69-9.913 36.671-10.032 52.805 1.233 1.639 1.144 4.339 4.01 5.837 4.835 15.927 8.772 27.729 25.608 30.761 43.76 1.122.134 2.395.259 3.499.438-1.881.749-2.911-.265-5.262-.058l-.738-.593c-1.86-.187-3.259-.121-5.122-.021-.599.367-2.203.111-2.895-.018.398-.822.013-1.814-.204-2.763-9.888-35.213-33.765-63.565-72.831-48.235l-.39-.235c-1.72.611-4.274 2.389-5.246 2.45-.296-.288-.162-.18-.214-.793"/><path fill="#fed669" d="M285.049 55.419c6.678 7.036 11.111 15.51 14.219 24.657.46 1.355 1.481 4.761 1.544 6.082-1.86-.188-3.259-.122-5.122-.022-.599.367-2.203.111-2.895-.017.398-.823.013-1.815-.204-2.764 1.219.62 1.437.56 1.955-.442-2.214-8.414-5.702-16.325-9.869-23.94.221-2.428-1.68-1.531.372-3.554"/><path fill="#0b2d50" d="M294.545 82.913q.29 1.446.607 2.886l.537.337c-.599.367-2.203.111-2.895-.018.398-.822.013-1.814-.204-2.763 1.219.62 1.437.56 1.955-.442"/><path fill="#e8b738" d="M284.677 58.973a57 57 0 0 0-2.363-4.053c-.866-1.354-2.813-3.604-3.341-4.968.971.229 5.147 4.438 6.076 5.467-2.052 2.022-.151 1.126-.372 3.554"/><path fill="#0b1118" d="M209.121 185.257c8.665 6.33 8.551 6.112 19.692 6.002l-.716.869c-1.368-.056-2.586.111-3.944.256-6.072.829-11.482-2.42-15.032-7.127M224.157 193.704l.261.124.138.424c-2.753.892-9.611 4-12.029 2.256.272-.406 1.472-.373 2.121-.409 3.179-.176 6.428-1.415 9.509-2.395"/><path fill="#223440" d="M312.41 195.117c1.916-.123 4.026-.224 5.916.088-.7.496-1.059.684-1.827 1.082-.872-.055-3.226-.879-4.089-1.17M203.855 156.238c.92.093 1.069.091 1.772.675-.43 1.316-.815 2.802-1.193 4.148z"/><path fill="#f1e9e2" d="M199.215 114.317c.553-.959.677-1.114 1.686-1.559.235.76.271.808.192 1.581-.726.855-.931.525-1.878-.022"/><path fill="#0b2d50" d="M119.902 329.062c1.033-.125 3.121-.321 3.95.161 2.507 1.459 5.064 3.664 7.474 5.27 5.47 3.645 10.956 7.19 16.341 10.945.693.483 2.3 1.947 2.608 2.705.219.538-.48 2.743-.709 3.321a685 685 0 0 1-5.175 12.711c-1.884 4.489-3.613 9.509-5.643 13.867q-4.678.069-9.355.015c-4.115-.214-8.869-4.565-12.512-6.728-5.608-3.329-12.245-6.256-16.281-11.492-1.194-1.55-1.882-3.627-1.427-5.589 1.921-7.637 8.477-13.315 13.771-18.718 1.971-1.979 4.876-5.013 6.958-6.468M139.57 277.975c.561-.011 1.187-.027 1.728.147 1.995.643 21.699 14.756 24.092 16.888 1.535 1.368 2.671 2.574 3.567 4.435-.44 1.782-.962 3.32-1.558 5.045a530 530 0 0 1-6.259 16.917c-.971 2.542-3.091 9.52-5.382 10.635-8.996.51-23.055-6.123-27.632-14.071-5.518-9.579 2.053-34.906 11.444-39.996M74.287 339.141l.336.142c.532.981.22 2.527.509 3.722 1.758 7.289 6.847 13.286 12.547 17.919 1.992 1.62 6.431 4.115 6.752 6.623.448 3.497-1.797 7.648-3.805 10.338-4.474.406-12.52.164-17.252.155-5.755.029-14.864.901-19.874-1.422-2.342-1.086 3.18-8.62 4.133-10.194l6.92-11.661c2.356-3.931 7.105-12.762 9.734-15.622M135.13 230.398c7.684 5.188 8.188 4.282 17.095 5.045.613.052 2.418.467 2.658 1.067.892 2.543-.939 6.909-2.053 9.303-2.962 6.367-5.488 13.113-9.216 19.067-1.264 2.019-2.456 3.25-4.435 4.465-7.651 3.107-16.414-5.161-20.05-11.235 2.364-5.101 5.606-10.366 8.419-15.274 2.151-3.756 5.006-9.17 7.582-12.438M96.369 300.929c.969 1.158 3.45 6.629 4.687 8.574 2.753 4.328 6.449 7.36 9.928 11.037.905.958 3.077 3.269 2.951 4.693-.379 4.283-15.41 15.978-19.266 19.518-3.815 3.225-6.079.721-8.701-2.354-2.817-3.303-5.768-7.059-7.59-11.022 1.842-4.462 15.24-27.295 17.991-30.446M174.154 206.405c1.02.664 4.302 8.608 6.225 11.108 3.13 4.451 8.217 7.422 11.568 11.434 3.252 3.893-.227 17.373-3.768 20.768-.744.715-3.895-.084-5.021-.318-9.111-2.735-20.383-10.983-20.247-21.444.044-3.427 8.571-19.366 11.243-21.548M160.547 247.902c2.995.606 10.816 8.217 14.265 9.868 1.626.778 8.695 3.559 8.153 5.533-1.422 5.173-5.133 17.143-9.039 20.561-6.306 2.364-21.75-8.447-21.866-15.237-.085-4.94 5.242-17.142 8.487-20.725M116.189 263.122c.232.125.485.366.571.619 2.904 8.517 7.014 16.633 10.328 24.931-2.033 5.446-4.393 11.003-6.666 16.353-1.465 3.448-3.185 5.831-7.005 3.545-5.824-5.257-9.54-10.081-12.472-17.394 1.258-2.968 4.66-8.619 6.344-11.613a1200 1200 0 0 0 8.9-16.441M192.375 176.382c.372.082.943.127 1.079.522 1.306 3.794 1.839 8.435 3.088 12.335 2.07 6.458 5.533 11.178 7.506 17.46.493 1.797.859 4.888.157 6.678-1.531 3.907-1.337 8.936-6.791 7.223-2.018-1.034-3.994-2.229-5.713-3.712a22.53 22.53 0 0 1-7.612-15.292c-.549-8.236 2.892-18.999 8.286-25.214M160.085 187.883c1.428.595 7.237 10.995 6.548 13.776-2.058 8.315-6.746 17.125-12.474 23.454-1.314 1.452-5.518.635-7.196.325-2.706-.608-5.373-1.671-7.963-2.657a764 764 0 0 1 13.504-22.653c2.442-4.019 4.924-8.396 7.581-12.245M231.474 134.579c-.357-.831-.139-.612-.807-1.124-1.759-.128-2.633.489-4.082 1.369l-.378-.093c.436-.946 7.42-6.713 8.601-7.518a25.7 25.7 0 0 1 3.967-2.186c5.438-2.415 12.436-3.54 17.311.621 2.489 2.124 3.186 4.121 4.479 7.039-.609.29-1.112.07-1.89-.048-4.328 7.323-11.076 14.358-20.655 9.439-3.407-1.75-4.52-4.595-6.546-7.499"/><path fill="#f6f2ef" d="M235.895 130.752c.11 5.902 2.9 11.059 9.562 10.281a10.24 10.24 0 0 0 6.846-3.85c2.817-3.64 1.623-5.803 1.241-9.023 1.189-.35 4.443 3.089 4.759 4.236l.371.243c-4.328 7.323-11.076 14.358-20.655 9.439-3.407-1.75-4.52-4.595-6.546-7.499l.308-.6c.169-1.58 2.745-2.504 4.114-3.227"/><path fill="#0b1118" d="m258.303 132.396.371.243c-4.328 7.323-11.076 14.358-20.655 9.439-3.407-1.75-4.52-4.595-6.546-7.499l.308-.6c3.92 9.89 16.714 10.772 23.369 3.185 1.015-1.157 2.266-3.418 3.153-4.768"/><path fill="#f6f2ef" d="M245.907 127.01c1.557-.058 4.625.081 4.058 2.436-.857.749-.556.508-1.909.777-1.323.33-3.505-.175-3.65-1.863.409-.821.659-.866 1.501-1.35"/><path fill="#0b2d50" d="M139.875 129.158c3.075-1.593 14.294-7.68 16.863-8.216a8.2 8.2 0 0 1 4.228.26c2.888.942 6.107 3.567 8.642 5.284 9.078 6.15 11.608 7.736 21.704 4.428a660 660 0 0 0 10.145-3.404c-3.548 2.598-7.235 4.974-10.925 7.361-2.216 1.434-4.471 3.304-6.784 4.494-1.038.426-1.811.781-2.927.992l-.146-.125-.196-1.161c-1.781 1-5.706 2.648-7.689 3.274 2.37-1.827 5.64-4.096 7.629-6.151-2.272 1.279-4.379 2.425-6.816 3.363-4.068 1.024-4.958 1.562-8.911-.135-.251-.024-.092.013-.429-.236-.228-.571-.43-.576-.992-1.019l-.873.013-.077-.212c.688-.579 3.579-1.659 4.671-2.153l.063-.965c-2.459.499-4.369.883-6.861 1.156l-.138-1.572c2.265-.977 4.818-2.389 6.938-3.642-4.167.768-6.056 1.567-10.656 2.012l-1.179-.776c2.951-1.292 4.524-2.384 7.21-4.149-2.759.959-5.051 1.683-7.946 2.109l.007-1.168c1.757-.808 2.835-1.393 4.498-2.386-6.324.702-13.11 2.192-19.053 2.724"/><path fill="#f1e9e2" d="M163.27 138.167c.772-.099 1.706-.248 2.48-.161 1.507.168 3.259 1.457 4.738.599.793-.459 1.241-.592 2.021-.026l1.093.978c-4.068 1.024-4.958 1.562-8.911-.135-.251-.024-.092.013-.429-.236-.228-.571-.43-.576-.992-1.019"/><path fill="#0b1118" d="M164.691 139.422c3.572-.912 2.607 1.718 7.818-.843l1.093.978c-4.068 1.024-4.958 1.562-8.911-.135"/><path fill="#09203b" d="M180.477 139.071c.955-.806.554-.665 1.617-.848.833.386 1.131.435 1.652 1.142-1.038.426-1.811.781-2.927.992l-.146-.125z"/><path fill="#f1e9e2" d="M180.477 139.071c.955-.806.554-.665 1.617-.848-.297.434-1.231 1.672-1.421 2.009zM167.055 134.85c.872-.363 1.585-.778 2.494-.682-.36.851-1.664 1.268-2.557 1.647z"/><path fill="#0b2d50" d="M172.93 168.367c.455.29 8.284 8.042 8.724 8.613 2.016 2.614-4.073 14.59-7.893 15.502-4.101-.65-3.87-1.557-6.277-4.249-4.849-5.425-4.074-6.467-.092-12.134 1.763-2.51 3.618-5.255 5.538-7.732M186.024 153.782c2.538-.222 3.631-.314 4.952 2.176 1.195 2.255 3.292 6.067 2.923 8.736-.184 1.334-2.817 2.819-3.914 3.434-1.844-.987-3.106-2.526-4.642-.847-.936.797-1.984 1.834-3.306 1.523-2.13-.5-4.254-3.449-5.451-5.176 2.256-4.013 4.747-8.709 9.438-9.846M228.47 164.954c.532-.02 1.054.037 1.508.34 3.815 2.546 7.537 4.874 11.538 7.134-2.219 1.607-3.316 3.134-5.991 4.42-2.596.711-3.491.696-6.123.574-10.63-.49-6.74-8.037-.932-12.468M250.348 172.808c4.771.543 10.228 3.424 13.917 6.476-.654 1.882-1.792 4.08-2.672 5.907l-3.535-.967c-3.576-.473-11.116-2.685-14.437-3.759 1.655-2.059 4.747-5.952 6.727-7.657M244.465 157.999l.379.068c1.661.859 9.424 2.845 10.118 3.955.102 3.024-6.979 6.308-9.686 6.899-4.363-.462-8.4-3.207-11.202-6.483 2.533-.359 7.877-3.225 10.391-4.439M228.913 142.762c1.891 2.589 2.271 2.685 4.211 4.743 1.871 1.986 7.064 4.356 7.399 5.986-.533 1.939-6.915 4.896-8.827 5.762-2.447-2.151-4.193-3.628-5.325-6.774.434-2.183.8-4.314 1.672-6.377l-1.069-2.841c.573-.235 1.318-.365 1.939-.499M206.023 159.855c.307.125.639.3.738.644 3.485 12.068 8.447 23.639 22.186 26.482.971.201 3.797 1.117 4.59 1.726-5.409 1.912-14.92-1.941-18.706-5.831-5.049-5.189-8.741-15.879-8.808-23.021M221.345 149.861c.983.533 1.782 3.166 2.271 4.27 1.005 2.267 2.146 4.094 3.513 6.149-1.653 1.623-3.045 2.932-4.801 4.441a211 211 0 0 0-3.441 2.674c-.414-5.801-1.689-12.134 2.458-17.534M297.269 133.124c2.834 1.295 5.179 2.353 7.774 4.092-.874 3.068-1.379 6.948-1.821 10.104-4.205-1.098-6.636-5.863-7.863-9.678.525-1.567 1.224-3.018 1.91-4.518M329.985 172.183c4.961.043 12.825 5.764 11.947 11.059l-.384.219c-3.489-1.004-15.82-6.307-11.563-11.278M288.728 121.833c2.169.42 4.727 5.823 5.476 7.844-.962 2.302-1.683 3.663-3.297 5.545-7.745-2.95-5.974-8.137-2.179-13.389M264.183 163.957c1.777.156 5.575 4.362 6.869 5.764.864.937 1.128 1.766.741 2.955-1.047 1.088-2.065 1.112-3.485 1.184-3.719-1.028-5.681-1.66-8.788-4.037 1.301-2.687 2.212-4.189 4.663-5.866M271.334 180.236c3.219.77 13.149 4.455 13.755 7.567-.704.431-.799.272-1.775.287-3.909-.112-11.135-1.029-14.88-2.057.828-2.046 1.854-3.858 2.9-5.797M308.431 139.804c2.677.749 9.193 7.914 9.485 10.787-3.06-.06-6.456-.591-9.873-.676-.068-3.614-.001-6.517.388-10.111"/><path fill="#0b1118" d="M327.858 167.038c3.705-.135 9.108 2.482 11.984 4.629 4.855 3.623 7.29 8.231 8.004 14.152.102.845.201.569-.171 1.064-.383-.318-1.412-4.122-1.648-5.044-1.686-6.571-11.577-14.866-18.902-13.556l-.314.058c-10.834 4.257 11.385 17.301 14.229 19.535a73 73 0 0 1-.862-.378c-5.677-2.542-13.989-6.749-16.386-12.88-1.567-4.007.175-6.285 4.066-7.58"/><path fill="#0b2d50" d="M293.215 146.866c1.133.567 3.548 4.777 3.59 6.2.096 3.209-2.41 3.486-4.787 3.764-7.823-.592-1.036-6.959 1.197-9.964M268.636 110.974c1.23.004 4.886 1.252 5.348 2.533.867 2.404-2.88 3.458-4.446 4.028-1.891.52-4.181.875-5.629-.784-.902-2.894 2.668-4.503 4.727-5.777M318.331 154.397l.326-.004c2.655 1.177 4.8 5.628 5.937 8.213-1.856-.159-2.961-.373-4.779-.746-1.951-.369-5.632-4.936-7.194-6.654 2.399-.612 3.2-.681 5.71-.809M278.299 115.415c2.626 1.423 4.675 2.37 7.078 4.167l-2.664 3.806c-2.588 3.903-5.226-.325-5.471-3.22-.169-1.987.373-2.937 1.057-4.753M303.246 155.072c1.801-.128 3.363-.403 4.623 1.063 1.079 1.255 4.823 6.337 4.766 7.929a16 16 0 0 1-.475-.106c-4.232-1.01-10.626-3.275-8.914-8.886M222.638 133.943c.148.22.268.401.336.661.065.252-1.236 13.738-1.273 13.793-.844.142-1.513-.246-2.343-.572-1.792-5.98-1.409-9.539 3.28-13.882M214.478 128.897c.159.094.702.425.791.579 1.019 1.752 1.404 11.69.181 12.9l-.605-.229c-2.552-4.357-3.88-9.032-.367-13.25M219.08 118.916l1.175.031c1.334.878.979 5.914 1.553 7.586.297.864.694 2.23.9 3.102l-.213.252-.962-.126c-2.788-1.98-3.496-4.512-4.385-7.673.707-1.382 1.014-1.933 1.932-3.172M284.081 137.356c3.312 1.203 7.202 3.689 4.606 7.611-.599.615-.655.757-1.449.938-2.739-.719-3.274-6.167-3.157-8.549M214.359 110.626l.787.248c.547.92.942 3.069 1.093 4.182.255 1.876.719 4.069-1.256 5.087-2.96-2.841-4.846-6.7-.624-9.517"/><path fill="#0b1118" d="M245.422 114.349c5.097-.101 10.392 2.156 13.326 6.405-2.366-1.749-3.889-3.019-6.657-4.096-3.528-1.415-8.416-1.463-12.11-.782-1.287.238-1.924.749-3.318.92l-.065-.224c1.654-1.109 6.719-1.961 8.824-2.223"/><path fill="#0b2d50" d="M225.125 114.956c.428-1.934.74-3.819 2.789-4.716l.455.156c.616 1.799-.534 3.316-1.375 4.889-.582-.13-1.273-.228-1.869-.329"/><path fill="#223440" d="M225.422 136.53c1.175 2.261 2.157 4.066 3.492 6.232-.621.134-1.366.264-1.939.499a89 89 0 0 1-2.108-6.167z"/><path fill="#252a31" d="m154.43 128.82-.007 1.168c-1.378.305-3.692.84-5.071.834 1.177-.758 3.658-1.485 5.078-2.002M154.922 135.832c1.964-.504 3.176-.589 5.135-1.398l.138 1.572a101 101 0 0 1-5.273-.174"/><path fill="#223440" d="M225.125 114.956c.596.101 1.287.199 1.869.329-.624 1.303-1.257 2.329-2.006 3.566.015-1.28.086-2.612.137-3.895"/><path fill="#252a31" d="M151.656 132.759a62 62 0 0 1 3.501-.731l1.179.776c-1.899.19-2.753.111-4.68-.045"/><path fill="#393e3e" d="M224.866 137.094c-.256-.903-.578-1.655-.394-2.547.562.457.666 1.193.949 1.983z"/></g><defs><linearGradient id="b" x1="246.903" x2="259.668" y1="84.879" y2="120.876" gradientUnits="userSpaceOnUse"><stop stop-color="#f4be33"/><stop offset="1" stop-color="#fddb6d"/></linearGradient><linearGradient id="c" x1="215.87" x2="216.657" y1="92.65" y2="103.49" gradientUnits="userSpaceOnUse"><stop stop-color="#000919"/><stop offset="1" stop-color="#282d2e"/></linearGradient><linearGradient id="d" x1="283.046" x2="282.767" y1="85.629" y2="88.505" gradientUnits="userSpaceOnUse"><stop stop-color="#000a0a"/><stop offset="1" stop-color="#06192d"/></linearGradient><clipPath id="a"><path fill="#fff" d="M0 0h410v379H0z"/></clipPath></defs></svg>