<svg width="628" height="524" viewBox="0 0 628 524" fill="none" xmlns="http://www.w3.org/2000/svg">
<g clip-path="url(#clip0_4051_18737)">
<path d="M150.649 128.755C121.62 145.96 68.5278 167.166 39.9086 137.59C30.9434 128.325 26.6181 114.304 27.31 101.453C29.5742 59.3944 67.2201 27.3343 103.191 11.4386C119.741 4.33904 136.654 -0.587849 154.839 0.47148C188.981 2.46047 210.833 23.8451 209.044 58.548C219.411 59.6008 234.563 63.6212 243.286 69.3802C251.031 74.493 257.896 81.7674 265.96 86.7265C270.967 89.8054 276.163 94.134 280.804 97.8361C281.396 97.138 281.969 96.4231 282.522 95.6931C289.271 86.6622 303.122 57.4303 304.222 46.8135C304.868 40.5847 303.416 34.7177 302.526 28.6085C303.213 29.5489 303.99 30.5034 304.713 31.4236C304.73 29.6027 304.935 26.0832 306.012 24.6619L306.404 24.6953C307.029 26.3378 306.489 27.8601 307.006 29.2075C308.539 26.0023 307.508 25.0976 310.015 21.6508C309.627 23.623 309.269 25.6008 308.939 27.5835L309.121 27.3083L309.431 26.8541C312.061 22.9574 315.131 20.8604 319.336 18.7742C320.043 18.4239 321.386 17.7136 322.042 17.9399C321.301 19.3844 319.373 20.687 318.273 21.9765C317.45 22.9419 316.931 23.9201 316.308 25.0164C319.349 24.0465 320.588 23.8071 323.746 23.4842C325.393 23.3818 327.447 23.165 329.048 23.3588L329.119 23.6942C327.666 24.6826 326.84 24.6514 325.51 25.9657C326.35 26.4936 331.587 25.9158 335.266 27.2397C334.32 27.6584 332.727 28.4293 331.811 28.7606L332.353 29.3701C335.312 29.4236 342.058 29.6407 344.361 31.1026L344.371 31.483C338.909 33.1771 338.262 32.9696 333.269 35.8303C335.81 35.8281 337.972 35.775 340.505 36.1207C337.52 37.8889 335.54 38.0422 332.551 40.2473C334.484 39.8306 341.021 38.4595 342.147 40.4627C341.333 41.1882 338.939 41.4987 337.73 42.0296C332.756 44.2135 328.909 47.086 326.792 52.2218C322.011 63.8259 320.118 80.04 324.766 91.8634C333.199 84.678 347.1 63.3409 350.71 52.615C351.439 50.4502 351.77 47.4602 352.068 45.264C352.49 42.1616 352.406 28.8453 354.07 27.2232L354.492 27.6925L354.958 27.7206L355.235 26.9658L355.659 27.1035C356.35 28.4714 356.501 29.2109 356.903 30.6715C361.375 24.1365 368.879 20.6452 376.524 19.4956L376.194 19.6802C370.108 23.0375 370.556 21.3305 364.877 26.9115C366.748 26.3408 372.822 24.4071 374.524 24.8698C374.227 25.3307 374.034 25.5934 373.694 26.0239C376.119 26.4806 381.804 24.4624 385.237 26.6573L385.227 27.0236C383.945 27.66 379.069 28.09 376.355 28.9505C380.694 29.2684 385.795 31.0349 389.497 33.2437C387.83 32.9841 386.096 32.691 384.431 32.4695C388.423 34.1242 392.622 34.8307 396.233 36.3657C392.785 36.9542 390.353 36.9984 387.481 39.1783C390.169 40.098 391.418 40.4504 393.708 42.222C388.443 45.3211 378.416 53.7551 375.933 59.1751C369.874 72.4015 369.128 91.7001 376.124 104.667C381.616 114.846 393.57 120.275 404.226 122.953C406.122 123.427 408.025 123.872 409.935 124.289L410.258 124.056C418.358 118.143 423.066 108.236 429.9 101.161C433.808 97.1134 441.388 94.2778 446.699 92.5498C465.124 88.2156 485.185 85.9545 504.085 88.0148C505.544 88.1737 506.612 88.5194 507.582 89.5212C509.187 93.7671 502.651 107.316 500.623 111.71C489.849 135.369 478.411 162.255 451.805 171.476C447.544 172.952 436.696 176.161 432.409 175.669C422.687 174.554 422.828 176.501 414.378 179.047C421.994 191.582 428.193 200.702 439.174 210.697L439.035 211.029C435.49 211.165 431.763 208.507 429.151 206.317C433.577 213.216 438.8 218.349 443.823 224.489C439.169 223.273 436.846 222.222 433.444 218.647C438.507 229.499 451.669 244.848 460.421 252.993C454.679 251.215 452.296 250.189 447.952 246.065C453.19 256.031 465.401 275.737 473.89 282.951C466.726 280.578 463.2 277.622 458.343 271.973C464.044 285.742 469.491 296.357 480.668 306.504C476.125 305.416 474.875 303.926 471.345 300.882C478.548 312.589 485.168 322.352 495.079 332.048C489.129 330.767 485.539 327.838 481.935 323.107C484.874 330.25 488.398 336.596 492.137 343.321C497.57 353.093 503.404 359.226 512.216 365.861C504.309 364.871 502.694 362.697 497.299 357.238C502.948 367.553 509.804 373.967 516.709 382.583C510.929 379.769 507.588 376.708 503.028 372.134C508.713 382.433 523.677 399.667 532.229 407.743C525.455 405.252 521.447 401.986 516.191 396.995C520.5 404.852 525.751 412.153 531.828 418.734C526.441 416.243 524.428 414.277 520.237 410.135C524.695 417.601 533.359 426.895 540.187 432.222C541.787 433.47 547.057 436.935 547.949 437.889L547.698 438.236C543.757 438.678 540.965 436.925 537.558 435.245C545.665 445.477 555.207 454.514 563.072 464.27C556.268 461.007 553.178 458.043 547.684 453.037C549.324 456.49 549.907 457.183 551.893 460.091C553.921 463.063 567.381 476.946 566.783 479.353C564.971 479.53 557.582 472.382 555.907 470.802C559.014 475.572 561.783 479.786 565.916 483.76C565.34 493.717 566.275 505.151 565.924 515.308C562.721 510.513 559.11 505.959 555.925 501.182C532.601 466.207 513.978 429.294 496.093 391.248C477.946 352.539 460.688 313.419 444.332 273.917C440.469 264.673 436.889 255.675 433.276 246.345C428.746 234.647 421.807 223.586 416.665 212.157C412.191 202.211 407.796 191.442 403.832 181.282C401.961 181.549 400.126 181.804 398.264 182.142C396.677 184.729 390.66 193.086 388.661 195.243C389.667 191.33 391.697 188.297 392.768 184.22L390.524 186.812C391.288 185.388 393.664 182.841 393.777 181.817C393.191 181.836 393.448 181.772 392.996 181.957L392.524 181.335L391.837 181.305C388.67 180.183 387.279 180.95 383.781 178.117C396.212 179.485 404.953 177.259 416.494 173.657C408.805 171.395 395.887 170.923 389.973 168.298C394.786 168.87 402.419 168.215 407.947 168.563C419.953 169.318 429.509 173.015 441.462 169.869C445.997 168.676 449.001 168.007 453.498 166.032C460.281 163.035 466.399 158.713 471.493 153.319C484.055 139.871 497.218 109.465 504.023 91.7678C500.071 91.5328 492.494 91.0445 488.446 91.3096C470.104 92.5095 443.574 95.5683 429.383 108.326C427.005 110.464 424.188 115.606 422.146 118.203C414.259 128.237 405.098 132.128 393.496 135.728C397.695 132.517 401.922 130.808 406.039 127.583L400.233 126.377C394.023 128.691 388.78 135.408 384.647 140.298C387.205 133.877 389.947 128.503 395.989 124.87C385.029 121.624 379.627 115.309 373.454 106.398C374.776 114.475 376.116 119.334 377.84 127.133C372.619 116.452 370.536 106.141 368.941 94.4982C368.143 102.859 367.702 113.602 368.513 121.949C368.581 122.655 368.727 122.526 368.524 123.34C367.589 122.198 367.25 119.738 367.058 118.274C365.076 103.162 366.587 87.4269 368.53 72.369C369.24 66.8651 371.56 61.411 372.546 55.9714L372.619 55.5569C367.833 61.6275 365.032 71.6385 362.937 79.1651L362.239 78.9095C363.359 72.7779 366.752 60.2301 369.712 54.6563L370.563 53.029C369.89 53.7059 367.724 56.0962 367.108 56.4184C367.429 54.5645 366.852 54.5215 366.668 52.8707C366.508 51.4437 366.746 49.6816 366.713 48.1986C363.806 53.6695 364.24 56.0229 362.605 61.7243C361.439 65.7922 357.87 73.1427 355.648 76.8134C357.814 69.5911 363.402 58.195 362.942 51.32C362.425 51.6277 362.147 51.8369 361.665 52.2016C361.283 51.065 362.123 49.3677 362.646 48.348C361.228 49.4835 360.125 50.2997 358.625 51.3223C358.783 50.2594 359.041 49.7739 358.717 48.9068C355.413 49.5316 352.056 57.0013 350.686 59.7608C340.892 79.4985 327.899 95.3211 309.747 107.874C307.957 109.113 306.306 110.955 304.499 112.342C304.716 110.591 313.412 102.513 315.177 100.859C304.015 99.1155 295.071 98.7524 284.038 102.503C277.382 104.477 270.638 108.329 266.445 113.978C265.213 115.638 263.41 120.329 262.923 122.41C258.144 142.862 244.766 149.318 228.154 160.184C223.612 163.176 219.194 166.354 214.913 169.71C208.89 174.358 202.428 180.395 196.674 185.458C191.229 190.251 187.947 194.062 181.354 197.869C173.297 202.519 161.795 199.062 154.46 204.945C150.433 208.175 150.051 215.383 148.291 219.873C147.103 222.903 143.218 228.835 140.902 231.227C141.884 228.266 142.576 226.779 144.018 224.002C141.174 225.629 139.643 226.539 137.94 229.505C138.351 230.894 138.814 232.355 139.177 233.748L139.081 234.179C137.194 242.419 125.192 267.021 140.108 269.758C154.23 272.349 167.96 261.251 181.195 258.073C198.698 253.352 219.556 253.856 234.416 243.525C238.772 240.497 244.681 235.154 248.704 231.556C244.042 231.256 242.593 232.078 238.236 233.791C243.133 229.709 248.342 228.093 254.737 228.195C256.876 228.229 260.068 229.641 260 232.141C259.729 232.441 259.679 232.643 259.241 232.678C257.344 232.825 255.665 231.272 253.645 231.826C251.292 232.471 236.702 247.248 234.237 249.754C228.992 255.086 224.754 261.115 220.242 267.045C211.551 278.469 201.65 289.092 188.808 295.842C185.357 297.657 180.76 299.884 176.77 299.841C175.268 299.825 173.786 299.42 172.76 298.261C171.318 296.633 171.18 293.96 171.355 291.905C172.189 282.105 187.429 265.353 194.65 258.672L194.895 258.313C193.793 258.053 186.37 259.544 185.475 260.111C185.136 260.326 185.118 260.372 184.886 260.627L185.253 260.732C184.149 262.439 183.187 263.826 181.626 265.177C182.063 263.509 182.872 263.352 183.681 261.8L183.398 261.742L182.518 262.417L182.053 262.411C182.581 261.553 182.576 261.941 182.451 261.195C181.417 261.013 180.332 261.743 179.293 261.974C170.863 263.853 164.007 269.554 155.852 272.182C150.677 273.851 143.687 274.204 138.431 272.753C122.144 268.257 133.927 244.555 136.485 234.392L136.589 233.969C134.245 227.084 140.318 224.166 145.309 220.924C148.168 214.052 148.317 207.882 153.974 202.741C161.683 195.737 173.65 199.891 181.114 194.974C190.051 188.648 197.975 180.618 206.171 173.281C215.698 164.751 224.926 158.861 235.493 151.893C235.652 147.853 235.462 143.236 237.426 139.739C216.2 133.206 211.095 109.137 208.123 90.0957C207.239 84.4279 205.182 78.8329 204.329 72.9614C195.639 93.2552 178.828 108.517 161.336 121.165C167.988 132.521 176.603 143.777 185.669 153.309C186.381 154.057 188.008 155.499 187.754 156.529C182.452 156.305 164.451 141.929 160.224 138.07C157.353 135.448 153.423 131.626 150.649 128.755Z" fill="#09203F"/>
<path d="M323.743 23.4844C325.39 23.3821 327.444 23.1653 329.045 23.3591L329.116 23.6944C327.663 24.6828 326.836 24.6517 325.507 25.966C324.029 25.3157 324.154 25.4787 322.43 25.7638L322.742 25.076L323.346 25.5698L322.901 24.8844L323.269 24.5996C323.422 24.2187 323.579 23.8605 323.743 23.4844Z" fill="#09203F"/>
<path d="M332.352 29.3703C330.347 29.2526 329.244 29.5685 326.793 29.3217C327.899 28.9505 330.626 28.8106 331.81 28.7607L332.352 29.3703Z" fill="#84495B"/>
<path d="M354.488 27.6924L354.955 27.7205C355.125 28.7237 355.399 29.875 355.279 30.8639C354.783 30.0366 354.698 28.7335 354.488 27.6924Z" fill="#84495B"/>
<path d="M144.944 3.76653C177.414 0.995616 208.429 20.9675 205.894 56.6461C205.808 57.8533 204.304 57.9926 203.745 58.5168C201.2 60.8998 203.493 65.8706 202.766 68.9618C196.442 89.1516 176.554 107.69 160.42 119.624C157.2 114.255 152.587 105.351 148.964 100.761C150.591 104.333 152.174 107.683 153.973 111.138C154.81 112.746 158.973 119.654 159.244 120.688C159.022 121.205 158.878 121.524 158.516 121.957C158.78 121.869 159.044 121.781 159.308 121.693C160.167 121.277 162.573 125.667 163.155 126.642C169.891 137.93 177.656 146.551 186.955 155.727C183.163 153.798 177.344 149.764 173.917 147.21C165.966 141.33 158.522 134.789 151.667 127.658C146.554 122.323 141.626 116.462 136.504 111.01C134.884 109.353 133.642 108.143 131.896 106.629C136.724 113.59 143.539 120.945 149.229 127.408C129.254 138.208 109.388 146.769 86.4775 148.921C57.9837 151.599 33.7142 137.118 31.3523 106.879C29.7512 86.3798 40.6153 65.9623 53.9164 50.8279C60.7486 43.1149 68.3838 36.1543 76.6919 30.0648C95.1219 16.7085 122.091 5.23064 144.944 3.76653Z" fill="white"/>
<path d="M206.137 60.8545C215.546 63.8926 228.01 65.4354 236.836 70.5796C251.214 78.9605 257.671 89.1253 262.235 104.595C262.371 95.9404 260.329 90.3878 255.507 83.2919C263.286 89.4766 270.807 94.1392 278.247 100.584C277.943 100.717 277.642 100.856 277.345 101.002C269.222 104.939 264.853 108.732 261.876 117.231C255.7 106.5 254.546 95.7211 249.826 85.0473C245.623 75.5437 224.336 69.8155 214.991 67.2316C218.275 69.0642 221.625 71.4746 224.757 73.6233C231.932 78.6506 241.139 87.4767 245.559 94.9609C247.211 97.7601 248.692 101.412 249.963 104.45C247.494 102.716 242.795 98.9986 240.458 97.8351C243.722 103.38 244.798 105.228 248.865 110.295C242.933 107.077 239.264 105.241 233.519 101.472C237.505 106.799 243.346 114.493 246.439 120.399C243.905 119.137 242.085 118.345 239.362 117.615C244.827 122.221 247.858 124.882 254.122 128.701C247.702 130.629 243.571 131.577 239.223 136.804C235.022 135.008 230.616 131.982 227.334 128.818C223.481 125.133 220.427 120.692 218.363 115.773C214.663 107.165 213.104 96.1507 211.27 86.9324C209.904 80.0726 206.232 67.6031 206.137 60.8545Z" fill="#F6F2EF"/>
<path d="M309.653 50.3414C311.479 48.4786 312.349 47.1036 313.662 44.8369C313.627 54.4876 310.79 62.3102 308.188 71.6264L308.705 72.5813C310.727 67.6793 312.284 62.3757 313.979 57.3411C315.696 52.2433 315.382 50.281 319.416 46.3904C319.092 49.0229 318.583 51.4132 317.928 53.9892C315.552 63.339 314.336 73.817 315.14 83.4045C315.676 82.764 315.531 82.9436 315.89 82.1599C316.399 72.4493 318.132 58.3424 323.169 49.8687C322.714 52.8704 321.41 57.4502 320.711 60.5202C317.702 73.7533 317.113 81.6542 321.634 94.2943C319.965 95.6134 317.969 97.63 316.391 99.1364C302.659 96.2455 297.834 95.8528 284.023 98.826C292.419 86.8359 297.668 73.8517 303.163 60.3221C304.757 56.398 307.314 49.9548 308.432 46.0519L309.092 46.6052L309.301 46.7775L310.083 45.7739L310.412 45.9171C310.291 47.3352 309.885 48.8584 309.653 50.3414Z" fill="#F6F2EF"/>
<path d="M308.189 71.627L308.707 72.5818C308.04 74.3764 307.277 75.9158 306.449 77.6388C306.711 75.8515 307.603 73.4137 308.189 71.627Z" fill="#09203F"/>
<path d="M315.89 82.1592C315.888 83.1493 315.996 84.6709 315.629 85.5267C315.315 84.55 315.265 84.4091 315.141 83.4038C315.676 82.7633 315.531 82.9429 315.89 82.1592Z" fill="#09203F"/>
<path d="M208.553 276.768L208.837 277.021C205.222 281.699 198.191 287.262 193.118 290.428C189.733 292.387 183.521 297.129 179.522 296.35C176.205 295.704 179.069 288.697 179.867 286.817C181.469 283.433 183.052 281.6 186.221 279.614C188.445 279.683 190.671 280.136 192.868 280.52C191.536 282.266 188.931 286.523 189.598 288.682C191.669 287.598 192.544 284.544 194.397 282.716C198.788 278.385 202.616 277.078 208.553 276.768Z" fill="#F6F2EF"/>
<path d="M256.04 130.96L256.295 131.304C251.75 141.071 247.441 143.17 238.897 149.438L238.603 149.133C236.345 138.254 247.921 133.515 256.04 130.96Z" fill="#F6F2EF"/>
<path d="M321.676 48.3691L321.884 48.641C321.733 51.0296 319.45 56.4189 318.311 58.6889L318.242 58.6302C318.923 54.6719 320.151 52.0444 321.676 48.3691Z" fill="#09203F"/>
<path d="M391.167 42.5342L391.439 42.74C390.926 43.7039 386.85 45.287 385.54 45.8671L385.406 45.7904L385.466 45.4995C386.881 44.5391 389.539 43.3308 391.167 42.5342Z" fill="#84495B"/>
<path d="M308.434 46.0502C308.65 45.1177 308.949 43.6073 309.232 42.7436L309.487 42.6066L309.55 42.0947L309.543 42.9288L309.458 42.323C309.704 43.4149 309.279 45.4259 309.094 46.6035L308.434 46.0502Z" fill="#09203F"/>
<path d="M410.809 338.02C411.86 338.275 412.349 338.892 412.775 339.883C417.517 350.902 421.105 362.89 424.612 374.369C428.239 387.3 434.919 404.189 430.897 417.657C426.621 431.973 413.112 443.865 397.769 439.201C396.67 438.771 395.608 438.202 394.552 437.671C390.227 420.595 384.415 404.193 379.337 387.345C378.37 384.135 377.525 380.71 376.203 377.646C398.37 383.181 403.985 353.352 410.509 338.486C410.609 338.33 410.709 338.175 410.809 338.02Z" fill="#09203F"/>
<path d="M411.143 341.444C411.24 341.578 411.339 341.709 411.433 341.844C414.45 346.224 427.436 389.96 428.754 396.942C429.787 402.414 430.563 408.364 429.639 413.89C428.298 421.911 423.269 429.71 416.609 434.354C411.175 438.143 405.845 438.777 399.461 437.63L396.417 436.499C395.309 432.841 394.535 428.844 393.371 425.065C388.754 410.071 384.182 395.049 379.441 380.095C382.727 380.138 386.076 380.354 389.084 378.842C401.269 372.721 406.918 353.442 411.143 341.444Z" fill="#84495B"/>
<path d="M498.087 421.169C499.713 421.407 500.725 422.158 501.459 423.64C506.304 433.426 513.061 444.71 517.147 454.59C523.536 470.037 502.365 485.9 493.904 496.272C488.791 502.54 485.556 506.827 482.164 514.465L480.517 517.886C476.308 514.774 465.504 501.228 464.971 495.604C463.731 482.529 465.685 467.928 468.407 455.09C470.418 445.612 480.02 440.963 485.911 434.112C488.81 430.886 494.87 422.994 498.087 421.169Z" fill="#09203F"/>
<path d="M497.791 423.043L498.55 423.23C500.271 424.725 514.72 453.193 515.747 456.796C519.674 470.57 501.1 484.922 493.076 494.06C488.714 498.993 484.937 504.416 481.82 510.22L479.504 514.59C474.511 508.572 466.431 499.837 466.645 491.55C466.927 480.591 467.242 458.722 473.128 449.378C474.937 446.507 483.335 439.669 486.493 436.456C490.715 432.161 494.132 426.912 497.791 423.043Z" fill="#84495B"/>
<path d="M388.853 206.61C388.301 214.201 387.154 223.226 386.157 230.763C384.852 240.637 384.302 256.161 380.539 265.289C374.401 280.176 349.952 286.173 335.878 288.339C345.83 291.601 354.77 292.195 364.193 287.295C373.577 282.415 383.283 274.285 386.305 263.828C390.223 250.271 393.204 234.038 394.305 220.053C396.263 227.577 394.652 243.305 393.211 250.848C389.931 268.03 385.287 287.2 374.831 301.516C373.867 302.841 372.782 304.16 371.762 305.435C377.15 294.601 380.916 286.997 383.973 275.111C375.885 283.478 361.341 292.611 349.512 293.279C356.533 295.802 363.99 295.761 371.221 294.122C362.409 298.166 358.884 298.581 349.291 296.344C355.879 301.07 356.582 301.414 361.883 307.711C355.425 303.863 349.44 299.352 342.924 295.403C348.812 303.562 351.295 312.57 354.208 322.051C357.041 331.346 359.72 340.688 362.245 350.072C369.25 375.857 375.686 401.624 382.973 427.327C392.009 459.884 402.163 492.12 413.418 523.976C411.579 524.019 410.237 524.051 408.4 523.904C406.342 518.526 404.626 512.935 402.705 507.493C397.024 491.393 392.3 474.987 387.491 458.61C380.405 434.779 373.717 410.832 367.429 386.777C362.452 366.324 357.112 345.962 351.412 325.7C348.666 316.002 345.586 303.794 341.417 294.725C332.333 288.996 328.533 289.017 318.428 288.834C313.129 288.781 307.832 288.568 302.546 288.194C289.282 287.184 276.037 285.217 262.777 284.073C250.531 283.017 243.136 289.31 232.95 294.259C224.083 307.355 214.492 317.444 198.16 320.757C187.378 322.945 160.458 320.237 158.059 306.278C155.202 289.657 170.966 273.242 182.047 262.411L182.511 262.417L183.391 261.742L183.674 261.8C182.865 263.352 182.056 263.509 181.619 265.177C180.663 266.763 173.973 272.936 171.86 275.53C165.998 282.385 160.057 292.526 160.654 301.964C161.499 315.34 183.438 318.259 193.562 317.355C221.088 314.898 227.837 290.764 242.66 272.402C240.648 277.233 237.952 282.126 235.851 287.089C247.202 277.911 250.297 262.153 251.804 248.469L252.339 249.389L252.627 249.711C252.204 258.074 251.232 265.843 248.402 273.853C247.229 277.175 245.397 280.437 244.214 283.645C247.395 282.533 251.357 281.231 254.73 280.882C266.496 279.665 279.203 282.413 290.912 283.534C314.389 285.781 342.013 286.237 363.305 274.668C366.92 272.704 375.554 267.225 376.926 263.41C380.948 252.23 381.609 237.801 383.862 226.033C385.103 219.549 386.946 212.748 388.853 206.61Z" fill="#09203F"/>
<path d="M403.02 467.846C425.064 471.617 434.451 442.523 438.77 441.139C440.499 442.79 442.574 445.841 444.072 447.836C446.96 451.684 451.665 455.268 451.83 460.375C451.96 464.373 450.74 468.285 449.957 472.154C449.103 476.376 448.117 480.439 447.565 484.706C445.454 500.259 445.323 504.581 455.473 516.838C457.043 518.734 459.01 520.825 460.613 522.743C461.175 523.415 461.088 523.407 460.977 523.933C460.269 524.091 459.679 523.891 458.956 523.742C451.98 523.659 445.004 523.618 438.027 523.619C434.482 523.614 428.857 523.465 425.444 523.918C424.806 523.916 424.174 523.884 423.536 523.858C422.41 523.019 404.498 472.642 403.02 467.846Z" fill="#84495B"/>
<path d="M403.02 467.846C425.064 471.617 434.451 442.523 438.77 441.139C440.499 442.79 442.574 445.841 444.072 447.836C446.96 451.684 451.665 455.268 451.83 460.375C451.96 464.373 450.74 468.285 449.957 472.154C449.103 476.376 448.117 480.439 447.565 484.706C445.454 500.259 445.323 504.581 455.473 516.838C457.043 518.734 459.01 520.825 460.613 522.743C461.175 523.415 461.088 523.407 460.977 523.933C460.269 524.091 459.679 523.891 458.956 523.742C454.688 519.209 446.679 510.076 445.129 503.99C442.849 495.036 445.857 483.116 447.453 474.088C448.081 470.533 450.823 461.034 449.072 458.139C446.317 453.585 441.846 448.692 438.464 444.452C432.852 453.563 426.644 462.875 416.767 467.949C413.116 469.826 410.108 469.809 406.128 469.654C409.257 477.972 412.097 486.377 414.993 494.778C418.359 504.543 422.031 514.165 425.444 523.918C424.806 523.916 424.174 523.884 423.536 523.858C422.41 523.019 404.498 472.642 403.02 467.846Z" fill="#09203F"/>
<path d="M468.667 354.135C471.103 354.108 472.162 355.888 473.129 357.969C476.56 365.355 479.705 372.83 483.127 380.231C484.772 383.833 486.454 387.417 488.174 390.983C489.16 393.006 493.133 400.855 493.369 402.547C494.351 409.607 478.856 415.451 473.587 420.679C467.154 427.062 466.678 427.531 461.858 434.805C461.238 435.675 458.821 439.549 458.058 439.219C455.037 437.817 451.273 431.39 449.528 428.526C444.816 420.792 439.105 410.092 441.955 400.891C444.973 391.146 460.83 358.945 468.667 354.135Z" fill="#09203F"/>
<path d="M469.222 355.957C471.151 356.887 479.767 377.909 481.473 381.581C483.576 386.127 485.712 390.658 487.88 395.174C488.614 396.706 491.233 402.069 491.487 403.191C492.327 406.904 479.741 413.512 476.801 415.448C474.772 416.775 472.845 418.253 471.037 419.869C466.582 423.881 464.041 427.605 460.955 432.592C460.257 433.863 458.755 436.033 457.921 437.324C452.294 429.499 443.449 416.578 443.201 406.58C443.15 404.527 444.248 400.09 444.978 398.226C448.967 388.044 461.669 363.095 469.222 355.957Z" fill="#84495B"/>
<path d="M431.294 262.765C431.513 262.789 431.847 262.802 432.065 262.9C435.105 264.273 452.662 308.126 455.819 315.3C457.573 319.287 459.605 323.18 461.542 327.082C458.742 332.567 455.981 337.913 453.583 343.596C450.852 350.065 448.582 356.621 445.452 362.909C444.514 364.84 442.88 369.554 440.166 368.874C439.072 367.526 437.858 365.298 437.163 363.721C433.264 354.869 429.739 345.402 426.222 336.425C425.48 334.532 420.948 322.942 420.857 322.065C419.818 312.073 427.158 269.128 431.294 262.765Z" fill="#09203F"/>
<path d="M431.793 265.301C433.612 266.668 438.087 278.584 439.33 281.442C445.893 296.53 451.454 312.526 459.117 327.093C456.958 331.177 454.499 336.011 452.711 340.254C449.765 347.244 447.266 354.434 444.082 361.344C443.178 363.308 442.036 365.425 441.042 367.366C439.22 363.979 422.96 323.869 422.965 322.006C423.002 307.135 427.465 280.128 431.793 265.301Z" fill="#84495B"/>
<path d="M487.267 95.8051C489.748 95.7738 492.23 95.7631 494.712 95.7732C489.283 97.2657 483.226 97.6332 477.714 99.7735C464.265 104.994 459.046 110.49 452.933 122.659C456.224 119.777 463.169 114.084 466.686 111.95C460.231 120.42 459.351 121.403 454.64 131.09C460.658 126.499 466.459 122.073 472.167 117.063C469.953 120.649 467.41 123.697 464.94 127.03C458.227 136.089 453.677 141.834 444.61 148.679C451.823 146.191 459.294 140.675 464.873 135.504C459.424 144.44 452.825 148.763 443.606 153.107C433.009 157.38 410.706 161.445 398.973 163.012C404.993 159.11 406.762 158.68 411.746 153.157C411.203 153.4 410.658 153.636 410.11 153.865C400.218 157.978 388.058 156.609 383.539 145.546C387.822 150.743 392.567 151.828 398.949 151.655C415.134 151.217 424.072 139.593 428.357 125.031C429.779 120.198 431.433 112.869 435.047 109.175C442.744 102.123 456.657 99.232 466.706 97.419C473.118 96.2621 480.966 96.0076 487.267 95.8051Z" fill="#09203F"/>
<path d="M393.973 288.3C397.577 288.789 400.272 309.869 400.618 313.305C402.188 328.929 393.665 343.725 381.599 353.054C379.857 354.4 374.654 356.7 372.625 356.311C371.67 355.609 371.962 355.805 371.443 354.536C370.162 350.088 368.999 345.797 367.514 341.406C365.921 336.698 363.579 331.514 362.281 326.794C375.513 322.741 382.574 308.365 388.187 296.659C389.807 293.28 390.807 290.529 393.973 288.3Z" fill="#09203F"/>
<path d="M393.686 290.555C395.903 293.271 397.798 305.039 398.504 308.718C401.498 324.338 394.634 339.61 382.829 349.771C380.927 351.408 376.085 354.481 373.619 354.279C372.744 353.714 372.988 353.722 372.558 352.452C369.85 342.044 368.119 337.893 364.555 328.002C375.06 324.25 381.42 313.481 386.515 304.084C388.72 300.016 390.867 294.677 393.455 290.89L393.686 290.555Z" fill="#84495B"/>
<path d="M501.06 523.955C500.916 523.836 500.772 523.718 500.629 523.6C501.467 519.036 511.579 506.761 514.744 502.443C516.568 499.962 518.242 497.373 519.758 494.693C521.139 492.227 522.3 489.644 523.228 486.974C524.153 484.351 525.034 480.556 526.585 478.423L527.233 478.324C529.139 478.995 540.678 498.827 542.979 501.956C545.368 505.203 548.474 510.262 551.055 513.73C552.97 516.303 555.7 520.401 557.389 523.175L557.193 523.49C555.255 523.77 549.62 523.601 547.377 523.603L526.068 523.666C520.776 523.719 515.485 523.828 510.195 523.99C508.214 524.041 502.753 524.27 501.06 523.955Z" fill="#84495B"/>
<path d="M501.06 523.955C500.916 523.836 500.772 523.718 500.629 523.6C501.467 519.036 511.579 506.761 514.744 502.443C516.568 499.962 518.242 497.373 519.758 494.693C521.139 492.227 522.3 489.644 523.228 486.974C524.153 484.351 525.034 480.556 526.585 478.423L527.233 478.324C529.139 478.995 540.678 498.827 542.979 501.956C545.368 505.203 548.474 510.262 551.055 513.73C552.97 516.303 555.7 520.401 557.389 523.175C556.468 523.334 556.045 523.509 555.197 523.131C548.439 514.446 542.305 504.807 536.291 495.567C533.279 490.939 530.674 485.606 527.433 481.052C525.129 488.759 521.601 496.044 516.986 502.629C513.868 507.117 510.184 511.448 507.094 515.936C505.847 517.748 504.061 521.535 503.026 523.638C502.073 523.928 502.014 523.906 501.06 523.955Z" fill="#09203F"/>
<path d="M322.286 162.79L322.605 162.809L322.781 163.156C318.72 170.255 320.789 173.666 325.186 179.462C322.144 177.903 319.244 176.403 316.124 175.003C312.902 173.857 310.09 173.183 306.785 172.374C306.85 172.338 306.915 172.303 306.98 172.268L307.299 172.085C313.722 168.48 313.959 166.094 322.286 162.79Z" fill="#F6F2EF"/>
<path d="M343.373 165.577C347.498 165.506 348.712 168.128 346.102 171.139C343.023 170.566 340.766 168.497 343.373 165.577Z" fill="white"/>
<path d="M348.866 166.26C351.127 167.207 349.597 170.61 349.028 172.234L348.854 172.386L348.664 172.238C348.8 170.146 348.855 168.358 348.866 166.26Z" fill="white"/>
<path d="M402.772 229.998C404.676 230.493 409.06 239.968 410.218 242.134C413.243 247.791 416.49 252.534 420.367 257.618C418.237 266.574 414.158 278.907 411.494 287.891C410.978 289.434 410.514 291.755 408.611 291.743C407.97 291.188 408.013 291.367 407.751 290.431C407.407 289.235 407.491 287.854 407.241 286.653C406.097 281.145 403.945 275.743 401.236 270.828C399.821 268.261 398.137 265.957 397.02 263.255C397.28 260.289 401.922 231.557 402.772 229.998Z" fill="#09203F"/>
<path d="M403.127 232.588C404.145 233.327 405.129 235.577 405.674 236.753C409.225 244.405 413.181 251.297 418.438 257.914C415.882 266.695 413.209 275.243 410.683 284.12L409.352 287.536C406.511 275.521 405.612 273.999 398.875 263.265C400.074 252.881 401.994 243.129 403.127 232.588Z" fill="#84495B"/>
<path d="M354.332 200.785C354.609 201.077 354.808 201.368 354.925 201.761C357.989 211.98 352.754 231.631 348.517 240.913C345.407 242.711 337.792 247.494 334.643 247.233C333.89 246.564 333.992 246.278 333.602 245.169C332.025 239.777 329.677 228.943 329.414 223.437C337.347 220.231 343.028 214.981 348.227 208.271C349.896 206.116 352.227 202.935 354.066 201.054L354.332 200.785Z" fill="#09203F"/>
<path d="M353.753 203.547C355.424 210.769 350.969 230.682 347.842 238.062C346.527 241.167 338.92 244.671 335.674 245.767L334.648 242.299C333.204 236.617 332.087 230.403 330.914 224.658C341.643 219.828 347.24 212.761 353.753 203.547Z" fill="#84495B"/>
<path d="M355.43 249.49C358.238 249.158 359.916 254.301 360.348 256.469C362.218 265.856 361.223 273.171 351.035 276.396C348.134 277.315 346.492 277.489 343.48 276.801C335.805 272.96 336.187 264.116 338.532 257.11C345.173 254.334 348.909 252.871 355.43 249.49Z" fill="#09203F"/>
<path d="M355.554 251.109L356.101 251.114C359.075 252.596 359.892 264.733 358.835 267.802C356.958 273.254 349.018 276.947 343.505 275.22C338.104 271.759 337.776 263.581 340.175 258.185C345.625 256.183 350.515 254.052 355.554 251.109Z" fill="#84495B"/>
<path d="M365.583 211.578C367.283 211.946 368.458 212.543 369.968 213.253C378.698 217.358 376.918 223.592 373.981 231.005C372.69 234.261 371.465 237.288 369.738 240.413C365.266 246.488 360.864 239.908 361.286 235.482C361.975 228.257 363.575 218.49 365.583 211.578Z" fill="#09203F"/>
<path d="M366.453 213.521C370.496 214.486 375.514 218.178 374.542 222.532C373.465 227.356 370.743 233.895 368.656 238.334C365.779 243.796 362.766 239.718 363.1 235.726C363.72 228.322 365.339 220.899 366.453 213.521Z" fill="#84495B"/>
<path d="M319.64 229.583C320.188 229.679 319.988 229.641 320.483 230.036C321.37 232.295 321.701 241.144 321.9 244.092C322.501 253.014 311.061 252.731 304.924 252.226C300.038 249.944 301.248 244.023 304.386 241.162C308.617 237.304 314.814 232.633 319.64 229.583Z" fill="#09203F"/>
<path d="M319.244 231.873C319.512 233.227 319.364 235.055 319.513 236.493C319.909 240.301 321.594 246.231 317.952 249.007C315.046 251.222 308.726 251.028 305.285 250.499C299.643 245.309 309.408 239.473 312.867 236.682C314.893 235.048 317.098 233.317 319.244 231.873Z" fill="#84495B"/>
<path d="M311.63 258.788C315.953 258.558 321.24 258.506 325.363 259.713C326.484 262.353 327.474 265.753 327.978 268.593C328.554 271.838 330.032 275.991 326.247 277.4C322.359 277.728 311.926 276.625 310.249 272.566C309.19 270.002 308.828 262.862 309.901 260.059C310.198 259.283 310.931 259.055 311.63 258.788Z" fill="#09203F"/>
<path d="M311.281 260.501C314.753 260.277 320.277 260.111 323.558 261.176C325.418 262.713 327.887 273.644 326.51 275.641C323.187 276.576 313.86 275.254 311.827 272.204C310.595 270.356 310.717 262.87 311.281 260.501Z" fill="#84495B"/>
<path d="M185.246 260.732L184.879 260.628C185.112 260.372 185.129 260.326 185.468 260.111C186.363 259.545 193.786 258.054 194.888 258.313L194.643 258.672C194.163 258.761 192.729 259.04 192.373 259.288C185.58 264.211 179.063 270.979 174.255 277.814C169.777 284.181 165.79 292.522 166.798 300.455C167.627 306.975 175.958 307.529 181.119 306.031C194.946 302.017 207.887 290.15 216.323 278.76C221.723 270.96 224.947 264.826 231.304 257.297C221.271 276.855 217.101 286.045 198.052 300.123C176.4 316.124 153.157 312.179 169.846 281.458C173.243 275.205 184.244 264.143 190.241 259.285C188.157 259.644 187.209 259.786 185.246 260.732Z" fill="#09203F"/>
<path d="M169.438 224.391C173.755 216.681 188.025 203.303 199.493 206.376C201.523 206.921 202.868 211.784 201.154 213.301C195.878 220.124 185.442 219.703 177.948 222.633C174.707 223.892 172.048 225.885 169.395 227.888C171.245 224.316 174.392 219.779 177.629 217.361L177.354 216.904C174.294 219.52 172.301 221.488 169.438 224.391Z" fill="#09203F"/>
<path d="M177.359 216.904C179.803 214.596 190.117 208.441 192.996 209.177L192.915 209.45C186.153 212.026 183.765 212.153 177.635 217.361L177.359 216.904Z" fill="#09203F"/>
<path d="M265.819 266.586L265.281 266.117L265.662 266.094C276.42 265.359 286.526 257.489 295.098 251.781C295.17 252.061 295.331 252.932 295.23 253.235C294.645 254.981 298.232 261.513 298.167 262.215C297.764 266.558 279.717 268.542 277.392 268.549C273.767 268.569 270.16 268.023 266.702 266.933L265.819 266.586Z" fill="#84495B"/>
<path d="M265.819 266.586L265.281 266.117L265.662 266.094C276.42 265.359 286.526 257.489 295.098 251.781C295.17 252.061 295.331 252.932 295.23 253.235C294.645 254.981 298.232 261.513 298.167 262.215C297.764 266.558 279.717 268.542 277.392 268.549C273.767 268.569 270.16 268.023 266.702 266.933C268.227 266.59 271.756 267.313 273.686 267.335C281.661 267.424 289.515 265.844 296.798 262.627C296.012 259.97 294.477 257.55 293.535 254.525C287.374 258.884 280.642 263.61 273.249 265.456C271.097 265.993 268.124 266.257 265.819 266.586Z" fill="#09203F"/>
<path d="M265.339 159.519C274.935 152.696 283.369 144.792 291.962 136.761C292.684 136.087 293.981 134.586 294.826 134.304C294.454 134.987 288.174 141.646 287.001 142.943C270.146 161.584 254.669 174.065 232.136 185.101L231.793 184.632C241.068 179.81 257.862 169.066 264.831 161.472C262.561 162.316 251.871 169.565 248.893 171.377C241.701 175.72 234.427 179.929 227.077 183.999C219.17 188.445 209.781 193.666 201.341 196.936L201.133 196.741C202.961 195.091 207.702 193.324 210.133 192.006C214.089 189.861 217.996 187.676 221.92 185.473C236.655 177.269 251.135 168.614 265.339 159.519Z" fill="#09203F"/>
<path d="M400.716 192.815C400.996 192.964 401.345 193.129 401.58 193.352C404.358 196 415.455 223.637 415.325 227.717C415.297 228.589 415.147 228.651 414.544 229.21C411.534 227.595 402.388 212.588 399.752 208.821C399.526 203.922 400.006 197.62 400.716 192.815Z" fill="#09203F"/>
<path d="M401.984 197.671C403.998 200.018 413.211 222.745 412.978 225.512C409.494 220.933 404.375 213.363 401.313 208.32C401.31 205.097 401.668 200.866 401.984 197.671Z" fill="#84495B"/>
<path d="M369.341 185.973C376.131 186.005 382.756 199.829 375.765 204.601C375.335 204.667 374.903 204.72 374.47 204.762C366.03 205.498 364.807 190.973 369.341 185.973Z" fill="#09203F"/>
<path d="M370.187 186.958C374.705 188.604 379.344 198.543 375.276 202.759C367.548 204.99 367.004 191.626 370.187 186.958Z" fill="#84495B"/>
<path d="M203.521 197.827C207.192 197.852 210.369 198.63 212.983 201.385C215.206 203.763 216.37 206.943 216.212 210.196C216.077 213.478 214.296 217.291 211.81 219.286C206.149 223.83 192.181 225.82 184.906 226.704L184.738 226.076C191.814 223.496 203.207 221.514 209.362 217.319C211.474 215.627 213.643 212.574 213.657 209.784C213.701 201.031 209.174 198.941 201.625 198.431L203.315 198.251L203.521 197.827Z" fill="#09203F"/>
<path d="M194.42 200.964C199.85 200.943 208.039 201.016 210.249 206.931C212.729 213.576 206.026 218.784 200.845 220.735L200.619 220.496C204.877 218.184 210.66 213.232 209.142 208.055C206.719 199.798 193.927 202.113 188.32 203.537C178.191 206.377 172.414 211.197 167.462 220.669C166.817 221.904 165.914 223.113 165.769 224.51C164.605 220.501 169.791 213.443 172.332 210.588C178.025 204.19 186.062 201.458 194.42 200.964Z" fill="#09203F"/>
<path d="M254.093 220.246C260.255 219.675 265.302 220.325 268.287 226.504C272.39 225.513 275.579 224.751 279.748 224.153C276.085 225.757 272.691 226.977 268.958 228.708C268.038 232.754 267.295 234.191 264.87 237.505C263.31 239.279 262.488 240.234 260.69 241.722C262.917 238.399 266.409 233.525 266.175 229.449C265.64 220.138 251.211 221.969 245.316 222.295C248.715 221.019 250.474 220.666 254.093 220.246Z" fill="#09203F"/>
<path d="M298.108 202.517C302.801 206.43 305.607 208.799 311.761 210.131C312.752 210.345 316.401 210.91 316.994 211.171C316.622 211.861 306.04 213.699 304.048 214.308L300.957 215.223L300.573 214.311L301.438 213.704C299.814 214.119 297.787 214.53 296.113 214.529C296.59 214.101 306.383 211.849 307.553 211.652C305.717 211.496 303.883 211.317 302.052 211.115C301.612 211.177 301.028 211.125 300.567 211.108L300.579 210.9C302.843 210.508 303.925 210.535 306.199 210.856L306.95 210.718C305.777 209.679 302.744 208.149 301.245 207.329C301.806 207.252 303.643 208.001 304.318 208.238C301.14 206.039 300.407 205.539 298.108 202.517Z" fill="#09203F"/>
<path d="M297.977 160.047L298.323 159.976C302.369 159.117 306.638 156.245 310.96 154.841C323.029 151.165 336.813 158.104 347.073 163.796C349.987 165.413 356.75 169.509 358.473 172.005C359.427 173.388 350.821 177.204 349.653 177.947C343.516 181.853 340.001 184.481 332.375 184.803C331.392 185.439 330.43 184.701 329.342 185.319C328.704 185.269 327.245 184.954 326.555 184.824C325.228 184.635 323.299 184.043 321.947 183.668C320.981 183.439 319.684 182.888 318.732 182.518C318.191 181.197 316.534 179.86 315.944 178.404C313.463 172.283 315.117 165.36 316.933 159.314C307.445 162.112 301.94 169.643 294.195 174.005C298.932 169.259 303.778 164.575 308.985 160.28C305.254 161.452 300.982 162.673 297.183 161.012C296.316 160.633 295.418 159.822 294.662 159.244C295.816 159.497 296.837 159.725 297.977 160.047Z" fill="#09203F"/>
<path d="M336.067 164.69C337.303 164.356 338.642 164.647 339.572 165.453C340.502 166.258 340.878 167.453 340.557 168.579C340.235 169.705 339.265 170.587 338.02 170.888C336.133 171.343 334.19 170.349 333.656 168.655C333.123 166.962 334.197 165.196 336.067 164.69Z" fill="#F6F2EF"/>
<path d="M326.627 141.75C332.398 141.332 337.573 142.043 342.305 145.257C350.644 150.921 353.317 157.025 354.97 165.987C351.165 158.072 349.509 152.159 340.793 146.896C339.892 146.398 338.952 145.966 337.98 145.601C331.552 143.175 324.367 144.714 318.362 147.386C314.337 149.177 310.411 151.764 305.954 152.466C303.784 152.808 302.571 152.398 300.629 151.671C307.901 151.925 310.24 148.408 316.077 145.185C319.89 143.079 322.293 142.237 326.627 141.75Z" fill="#09203F"/>
<path d="M303.492 175.295C308.279 178.556 313.457 180.72 318.908 182.764C319.866 183.131 321.17 183.679 322.142 183.907C323.502 184.279 325.443 184.867 326.778 185.055C327.473 185.184 328.94 185.497 329.582 185.546C335.69 186.718 341.07 185.329 346.393 182.685C335.451 192.726 320.395 187.233 309.493 180.338C306.963 178.738 305.235 177.636 303.492 175.295Z" fill="#09203F"/>
<path d="M329.09 128.037C329.541 128.048 329.991 128.068 330.441 128.095C338.633 128.611 347.556 135.4 352.823 141.161C351.186 140.198 349.224 138.305 347.574 137.213C341.76 133.37 336.446 130.031 329.394 129.4C318.989 129.626 314.487 137.688 308.003 143.588L307.777 143.79C312.786 136.548 319.485 128.693 329.09 128.037Z" fill="#09203F"/>
<path d="M310.637 186.035C311.552 186.228 314.02 187.978 315.133 188.507C324.257 192.837 332.693 192.366 341.989 189.488L342.097 189.68L341.31 190.445C338.56 192.288 335.387 193.433 332.074 193.777C323.821 194.68 316.813 190.929 310.637 186.035Z" fill="#09203F"/>
<path d="M301.432 213.703C302.608 213.098 302.805 212.864 303.891 213.125L304.041 214.306L300.951 215.222L300.566 214.31L301.432 213.703Z" fill="#09203F"/>
<path d="M302.047 211.113C301.607 211.176 301.023 211.124 300.562 211.106L300.574 210.899C302.838 210.507 303.92 210.534 306.195 210.855C305.018 210.894 303.151 210.905 302.047 211.113Z" fill="#09203F"/>
<path d="M158.283 206.061C159.046 206.106 158.792 206.047 159.472 206.341C161.898 210.176 154.362 220.906 151.715 223.855C154.83 218.482 154.933 212.955 156.982 209.271L157.132 208.854L156.897 208.606C153.68 210.79 153.905 218.333 150.895 223.49C151.057 222.454 151.251 221.424 151.476 220.4C152.754 214.523 153.214 209.325 158.283 206.061Z" fill="#09203F"/>
<path d="M169.881 237.028L170.087 237.404C163.749 243.007 157.582 252.303 152.448 258.968L152.254 258.903C153.02 257.256 154.166 255.847 155.13 254.305C158.943 248.203 164.25 241.579 169.881 237.028Z" fill="#09203F"/>
<path d="M208.232 228.588C211.545 228.213 214.438 228.652 217.681 229.222C214.07 229.436 211.499 229.231 207.732 229.73C204.927 230.064 201.214 230.895 198.379 231.444C202.018 229.982 204.379 229.372 208.232 228.588Z" fill="#09203F"/>
<path d="M252.267 239.985C252.223 239.104 252.092 238.961 252.448 238.246C252.791 239.876 252.882 241.991 252.75 243.664C252.771 245.524 252.869 247.913 252.631 249.71L252.344 249.388L251.809 248.468L252.004 245.947C252.072 243.959 252.159 241.971 252.267 239.985Z" fill="#09203F"/>
<path d="M252.263 239.985C252.219 239.104 252.088 238.961 252.445 238.246C252.788 239.876 252.878 241.991 252.746 243.664C252.544 242.58 252.405 241.108 252.263 239.985Z" fill="#09203F"/>
<path d="M252.004 245.948L252.432 246.15C252.641 247.562 252.531 247.938 252.344 249.39L251.809 248.469L252.004 245.948Z" fill="#09203F"/>
<path d="M300.949 215.222C298.431 216.09 295.921 216.986 293.421 217.908L293.071 217.805L293.004 217.982C293.768 217.057 299.164 214.911 300.565 214.31L300.949 215.222Z" fill="#09203F"/>
<path d="M391.835 181.305L392.523 181.335L392.995 181.957C391.831 182.765 388.961 184.153 387.402 185.102C388.525 183.718 390.386 182.416 391.835 181.305Z" fill="#09203F"/>
<path d="M201.621 198.431C199.597 198.343 197.923 198.118 195.911 197.854L195.879 197.695C198.64 197.488 200.771 197.661 203.517 197.827L203.311 198.251L201.621 198.431Z" fill="#09203F"/>
<path d="M362.23 78.9092L362.927 79.1648C362.351 81.4483 361.932 83.07 361.125 85.2662C361.428 83.0907 361.815 81.0673 362.23 78.9092Z" fill="#09203F"/>
<path d="M229.846 186.324C228.625 187.111 227.042 187.899 225.729 188.566L225.343 188.305L225.239 188.394L225.442 188.668L225.184 188.727L225.497 188.668L225.059 188.725C225.679 187.832 228.273 186.62 229.339 186.047L229.846 186.324Z" fill="#09203F"/>
<path d="M184.731 226.076L184.899 226.704C184.178 226.969 182.396 227.333 181.602 227.202C182.289 226.567 183.763 226.326 184.731 226.076Z" fill="#09203F"/>
<path d="M231.795 184.632L232.137 185.101L229.847 186.323L229.34 186.046L231.795 184.632Z" fill="#09203F"/>
<path d="M70.5206 116.099C69.6719 116.602 68.8864 116.773 68.1639 116.611C67.4518 116.407 66.8439 115.881 66.3401 115.033L53.3088 93.0822C52.8049 92.2335 52.6418 91.4608 52.8195 90.764C53.0076 90.0263 53.526 89.4055 54.3747 88.9016L63.6332 83.4051C65.5363 82.2753 67.3245 81.5963 68.9978 81.3681C70.671 81.14 72.1678 81.347 73.4882 81.9892C74.8343 82.6162 75.9425 83.6626 76.8127 85.1285C77.7899 86.7745 78.1386 88.4457 77.8588 90.1423C77.579 91.8388 76.7307 93.3685 75.3137 94.7314L74.9702 94.1528C77.0413 93.3058 78.9476 93.148 80.6891 93.6793C82.4306 94.2107 83.851 95.4022 84.9503 97.2539C86.3855 99.6714 86.6771 102.037 85.8251 104.352C84.9835 106.625 83.1097 108.625 80.2035 110.35L70.5206 116.099ZM70.4209 111.097L77.3648 106.975C79.1136 105.936 80.201 104.839 80.627 103.681C81.0378 102.498 80.8385 101.225 80.0293 99.8623C79.2049 98.4735 78.1826 97.6891 76.9627 97.509C75.7427 97.3289 74.2584 97.758 72.5095 98.7962L65.5656 102.919L70.4209 111.097ZM63.3441 99.1766L69.6322 95.4435C71.3296 94.4358 72.3989 93.3662 72.8402 92.2347C73.2919 91.0622 73.1361 89.833 72.3727 88.5471C71.6093 87.2612 70.6124 86.5487 69.382 86.4095C68.1621 86.2295 66.7034 86.6433 65.006 87.6509L58.7179 91.384L63.3441 99.1766Z" fill="#09203F"/>
<path d="M96.8161 100.853C96.0445 101.311 95.3156 101.431 94.6293 101.212C93.943 100.993 93.3555 100.473 92.867 99.6496L84.4619 85.4918C83.958 84.6431 83.7821 83.878 83.934 83.1965C84.0707 82.4893 84.5248 81.9067 85.2963 81.4486C86.0679 80.9906 86.7968 80.8709 87.4831 81.0895C88.1799 81.2672 88.7802 81.7803 89.284 82.629L97.6891 96.7868C98.1777 97.6098 98.3536 98.3749 98.217 99.0821C98.0803 99.7894 97.6133 100.38 96.8161 100.853ZM83.1664 77.8609C82.2663 78.3953 81.4293 78.5966 80.6553 78.4647C79.8919 78.2919 79.2735 77.8069 78.8002 77.0096C78.3116 76.1866 78.1819 75.4115 78.4109 74.6842C78.6657 73.9416 79.2432 73.3031 80.1434 72.7688C81.0692 72.2191 81.9062 72.0178 82.6544 72.1649C83.4026 72.3121 84.021 72.7971 84.5096 73.6201C84.9829 74.4174 85.1127 75.1925 84.8988 75.9455C84.6697 76.6728 84.0923 77.3113 83.1664 77.8609Z" fill="#09203F"/>
<path d="M111.173 92.3821C110.401 92.8402 109.674 92.9932 108.993 92.8413C108.322 92.6484 107.75 92.1533 107.276 91.356L99.6042 78.4327L94.8978 81.2267C93.509 82.0512 92.4406 81.8333 91.6924 80.5732C91.3413 79.9816 91.2465 79.4118 91.408 78.8637C91.5953 78.3004 92.0104 77.8279 92.6534 77.4462L106.888 68.9953C108.277 68.1708 109.346 68.3887 110.094 69.6489C110.46 70.2661 110.563 70.8487 110.401 71.3968C110.224 71.9192 109.801 72.3789 109.133 72.7758L104.426 75.5699L112.099 88.4932C112.572 89.2905 112.733 90.0299 112.581 90.7114C112.439 91.3519 111.97 91.9088 111.173 92.3821Z" fill="#09203F"/>
<path d="M129.298 81.7261C127.935 82.5353 126.56 83.0033 125.175 83.1302C123.8 83.2161 122.536 82.9922 121.385 82.4585C120.259 81.9096 119.36 81.0693 118.688 79.9377C117.864 78.5489 117.575 77.2421 117.822 76.0174C118.053 74.7669 118.872 73.4807 120.279 72.1587C121.685 70.8368 123.752 69.3666 126.478 67.7482L128.407 66.6031L130.056 69.3806L128.165 70.5028C126.571 71.4495 125.343 72.2824 124.484 73.0016C123.624 73.7208 123.102 74.3955 122.92 75.0256C122.748 75.6146 122.86 76.2435 123.257 76.9122C123.761 77.7609 124.469 78.2797 125.381 78.4686C126.293 78.6575 127.277 78.439 128.331 77.813C129.18 77.3091 129.811 76.6735 130.225 75.906C130.649 75.0975 130.848 74.2316 130.822 73.3082C130.796 72.3848 130.515 71.473 129.981 70.5729L127.347 66.1365C126.584 64.8506 125.751 64.0927 124.849 63.8628C123.948 63.6329 122.828 63.9149 121.491 64.7088C120.745 65.1516 119.988 65.7226 119.221 66.4217C118.479 67.1056 117.762 67.9486 117.07 68.9507C116.719 69.4723 116.32 69.7961 115.873 69.9223C115.452 70.0332 115.047 69.9954 114.658 69.8089C114.253 69.5967 113.937 69.2977 113.708 68.9119C113.479 68.5262 113.36 68.0922 113.352 67.61C113.329 67.1021 113.508 66.6131 113.89 66.1429C114.783 64.952 115.708 63.933 116.666 63.086C117.65 62.2237 118.592 61.5254 119.492 60.991C121.344 59.8917 123.029 59.2738 124.548 59.1372C126.093 58.9854 127.504 59.3126 128.783 60.1188C130.046 60.8992 131.212 62.1895 132.281 63.9898L137.778 73.2483C138.251 74.0456 138.425 74.7773 138.298 75.4436C138.157 76.0841 137.726 76.6181 137.006 77.0456C136.286 77.4731 135.598 77.6032 134.942 77.4361C134.297 77.2279 133.737 76.7251 133.264 75.9279L132.165 74.0762L132.473 73.893C132.828 74.9 132.933 75.8981 132.79 76.8874C132.658 77.8357 132.3 78.7266 131.716 79.5599C131.133 80.3933 130.326 81.1153 129.298 81.7261Z" fill="#09203F"/>
<path d="M162.032 62.2926C160.283 63.3308 158.549 63.9254 156.83 64.0764C155.096 64.2017 153.451 63.8913 151.895 63.1455C150.339 62.3996 148.95 61.2595 147.726 59.7252L144.524 61.6261L147.867 67.2584C148.341 68.0556 148.514 68.7874 148.388 69.4536C148.272 70.0788 147.816 70.6281 147.019 71.1014C146.247 71.5595 145.533 71.7049 144.878 71.5377C144.206 71.3448 143.634 70.8497 143.161 70.0524L134.504 55.4702C134.031 54.673 133.878 53.9465 134.045 53.2907C134.212 52.6349 134.681 52.078 135.453 51.62C136.225 51.1619 136.925 51.0241 137.555 51.2066C138.185 51.3891 138.737 51.8789 139.21 52.6762L142.279 57.8455L145.52 55.9218C144.841 54.1336 144.577 52.4294 144.728 50.8092C144.89 49.148 145.451 47.6324 146.411 46.2622C147.356 44.8663 148.678 43.6645 150.375 42.6568C152.33 41.4964 154.264 40.8874 156.177 40.8296C158.091 40.7719 159.881 41.2393 161.549 42.2319C163.216 43.2245 164.646 44.7238 165.837 46.7299C166.737 48.2472 167.315 49.7477 167.57 51.2313C167.85 52.6996 167.826 54.1229 167.496 55.5011C167.151 56.8537 166.525 58.1126 165.616 59.2778C164.693 60.4174 163.498 61.4223 162.032 62.2926ZM159.857 58.6277C160.834 58.0475 161.532 57.3199 161.952 56.4447C162.397 55.5543 162.545 54.5445 162.397 53.4153C162.259 52.2452 161.785 50.9786 160.976 49.6155C159.754 47.5581 158.409 46.2874 156.939 45.8035C155.454 45.2939 153.991 45.4666 152.551 46.3216C151.599 46.8865 150.901 47.6142 150.456 48.5046C149.995 49.3694 149.834 50.3868 149.972 51.5569C150.121 52.6861 150.599 53.9322 151.409 55.2952C152.615 57.327 153.968 58.6105 155.469 59.1458C156.979 59.6402 158.442 59.4675 159.857 58.6277Z" fill="#09203F"/>
<path d="M173.372 44.4474C172.884 44.7375 172.406 44.8122 171.94 44.6716C171.5 44.5156 171.086 44.17 170.698 43.6348L160.793 29.5854C160.15 28.6796 159.906 27.7988 160.059 26.9429C160.196 26.0613 160.741 25.338 161.692 24.7731C162.618 24.2234 163.488 24.107 164.302 24.4236C165.127 24.6994 165.783 25.3359 166.271 26.3333L173.862 41.7568C174.172 42.3379 174.277 42.8667 174.178 43.3433C174.104 43.8046 173.835 44.1726 173.372 44.4474ZM178.136 52.4715C177.261 52.9906 176.394 53.1404 175.533 52.921C174.698 52.6863 174.029 52.1446 173.525 51.2959C173.036 50.4729 172.897 49.6515 173.106 48.8318C173.325 47.9711 173.872 47.2812 174.746 46.7621C175.646 46.2277 176.501 46.0855 177.31 46.3355C178.13 46.5445 178.784 47.0605 179.273 47.8834C179.777 48.7321 179.932 49.5792 179.738 50.4247C179.57 51.2548 179.036 51.9371 178.136 52.4715Z" fill="#09203F"/>
<path d="M169.879 237.029C170.645 236.156 170.536 235.997 171.47 235.692C171.298 236.543 170.869 236.667 170.084 237.405L169.879 237.029Z" fill="#09203F"/>
</g>
<defs>
<clipPath id="clip0_4051_18737">
<rect width="628" height="524" fill="white"/>
</clipPath>
</defs>
</svg>
