<svg width="543" height="472" viewBox="0 0 543 472" fill="none" xmlns="http://www.w3.org/2000/svg">
<g clip-path="url(#clip0_4051_18927)">
<path d="M229.369 30.2638C229.586 29.2269 229.388 29.3141 230.027 28.8125C230.852 28.8565 236.191 33.4953 237.021 34.3513C245.348 42.9396 260.881 48.3479 268.607 56.5486C269.762 54.5949 278.6 39.0748 278.288 37.5917L278.996 37.4117C282.845 38.693 285.269 39.536 289.313 40.1853C289.815 40.2073 290.951 40.2275 291.4 40.2861C294.272 39.8302 299.001 33.5842 299.12 30.9384C300.784 33.6114 297.317 35.9231 295.796 37.9649C294.642 39.5138 292.938 40.9183 291.929 42.6236C287.777 49.6605 288.134 58.3851 288.015 66.1965C290.766 66.4225 293.202 67.0646 295.306 68.8973C304.183 64.3323 310.337 54.9452 314.432 46.1169C315.198 44.4677 316.273 42.3337 316.464 40.5422L316.947 40.431L317.164 40.8263C319.827 40.1026 320.039 41.4327 321.977 41.991C324.263 44.0089 329.683 45.0009 327.58 48.5373C325.397 52.0682 324.426 56.1811 323.84 60.2531C323.813 60.3279 323.785 60.4021 323.757 60.4768C322.854 61.0351 322.786 62.2377 321.921 63.3267C321.201 65.5297 319.641 67.8484 318.704 69.952C315.907 76.2299 313.649 81.3308 312.177 88.1037C311.941 89.1117 310.621 93.5287 309.577 93.6991C307.165 91.6384 303.261 85.873 302.027 82.8552C292.894 85.6494 285.008 88.1318 277.37 94.3216C270.73 99.7024 267.591 106.202 262.328 112.532C261.201 113.887 255.463 119.779 254.256 120.063C241.687 132.06 228.069 143.692 212.541 151.714C211.892 152.401 209.801 153.854 208.907 154.523C206.804 156.076 204.753 157.697 202.755 159.384C213.06 162.263 208.284 171.546 204.267 177.508C207.179 180.559 212.223 183.259 214.006 185.393C211.228 185.123 210.189 185.253 207.924 187.214C204.481 190.195 201.729 194.024 198.464 197.218C191.475 204.055 182.712 208.072 173.139 209.75C171.223 210.086 167.143 210.184 165.851 210.483L166.424 210.796L166.488 211.298C163.047 212.137 156.353 211.707 152.884 211.018C149.983 210.441 147.045 209.256 145.408 206.643C143.658 203.852 144.069 200.184 144.717 197.11C146.034 190.857 149.21 184.804 152.897 179.622C153.721 178.464 154.782 177.503 155.556 176.304C156.366 175.05 156.675 172.993 157.074 171.552C157.788 168.97 158.67 166.56 160.15 164.309C164.362 157.906 172.342 157.533 178.836 154.6C183.072 152.687 187.251 150.064 191.144 147.522C196.491 144.029 223.852 123.728 224.444 119.428C224.559 118.595 223.506 118.076 222.855 117.84C217.482 115.893 212.52 112.499 209.329 107.628L209.131 107.321C210.932 107.907 213.197 109.022 215.147 109.694C218.343 110.795 220.732 111.329 223.999 112.029C222.869 106.409 221.303 102.037 226.424 97.7845C230.659 94.2664 235.268 92.1771 240.159 89.7804C229.083 75.0891 228.173 47.9886 229.369 30.2638Z" fill="#F6F2EF"/>
<path d="M230.052 28.3135C230.194 28.3211 230.33 28.3711 230.43 28.4141C230.54 28.4616 230.659 28.5248 230.781 28.5967C231.028 28.741 231.322 28.9397 231.643 29.1709C232.285 29.6345 233.065 30.2528 233.839 30.8916C235.38 32.1639 236.941 33.5528 237.378 34.0029C241.485 38.2385 247.385 41.7039 253.291 45.1641C258.934 48.4699 264.589 51.7766 268.503 55.7256C269.414 54.1502 271.555 50.3827 273.556 46.6572C274.712 44.5047 275.819 42.3731 276.616 40.6904C277.015 39.848 277.333 39.127 277.54 38.5762C277.644 38.3002 277.716 38.0774 277.757 37.9092C277.804 37.7175 277.792 37.667 277.798 37.6943L277.699 37.2256L278.163 37.1074L279.013 36.8906L279.152 36.9375C282.995 38.2165 285.38 39.0451 289.362 39.6865C289.816 39.7054 290.859 39.7272 291.372 39.7803C291.95 39.6721 292.681 39.2712 293.484 38.6172C294.299 37.954 295.139 37.0751 295.9 36.1211C296.661 35.1679 297.334 34.1518 297.822 33.2197C298.318 32.2724 298.593 31.4651 298.618 30.916L298.69 29.3066L299.543 30.6738C300.025 31.4473 300.144 32.2196 300.007 32.9668C299.873 33.696 299.5 34.3705 299.055 34.9824C298.609 35.5952 298.064 36.1807 297.554 36.7236C297.033 37.2773 296.555 37.7815 296.196 38.2637H296.195C295.598 39.0649 294.858 39.8311 294.175 40.5742C293.48 41.3303 292.833 42.0736 292.357 42.877C288.289 49.7721 288.634 58.3315 288.514 66.2041L288.509 66.5371L288.2 66.6602C287.993 66.7431 287.8 66.7146 287.695 66.6934C287.642 66.6825 287.587 66.668 287.557 66.6602C287.542 66.6564 287.53 66.6546 287.521 66.6523C276.679 66.8195 271.947 72.4002 263.27 78.5762C261.514 79.8256 258.823 81.8866 256.786 82.8174C252.322 85.9364 247.021 87.6736 242.033 89.5137L241.661 89.6504L241.442 89.3193C232.949 76.4426 230.717 61.2335 229.673 46.2217C229.583 44.9335 229.456 42.8454 229.407 40.7793C229.359 38.7297 229.387 36.6472 229.623 35.3994L229.655 35.2275L229.789 35.1133L229.79 35.1113C229.567 34.6155 229.486 34.0835 229.462 33.5723C229.434 32.9779 229.479 32.3106 229.49 31.7646C229.324 31.2795 229.176 31.0126 228.918 30.4834L228.843 30.3291L228.878 30.1611C228.929 29.9167 228.956 29.7393 228.978 29.5957C228.997 29.4654 229.019 29.3137 229.064 29.1777C229.177 28.8429 229.419 28.6529 229.717 28.4189L229.864 28.3027L230.052 28.3135Z" fill="#09203F" stroke="#09203F"/>
<path d="M230.117 35.4922C233.216 39.8389 238.088 44.2838 242.049 47.8714C243.766 49.4267 249.541 53.7814 250.353 55.2982C252.177 58.7068 253.524 64.0324 255.135 67.8859C251.982 66.3453 248.807 64.8476 245.613 63.3932C247.438 67.7103 249.537 71.6395 252.057 75.6016C253.14 77.3059 255.91 80.3056 256.559 81.8105L256.535 82.3844C252.13 85.4713 246.893 87.1879 241.863 89.0436C233.445 76.2817 231.217 61.1859 230.174 46.1869C229.996 43.6175 229.668 37.8692 230.117 35.4922Z" fill="#F6F2EF"/>
<path d="M299.125 30.9375C300.789 33.6104 297.323 35.9221 295.802 37.9639C294.648 39.5128 292.943 40.9173 291.935 42.6227C287.782 49.6596 288.14 58.3842 288.021 66.1955C287.882 66.2512 287.722 66.1736 287.574 66.1503C276.494 66.3026 271.588 72.047 262.987 78.1683C261.182 79.4533 258.523 81.4907 256.539 82.3841L256.563 81.8101L256.809 81.7063C257.671 80.7554 259.594 74.8849 260.601 73.0084C263.904 66.8537 267.726 61.1355 271.234 55.1117C274.365 49.6543 277.117 43.987 279.47 38.1506C282.607 39.3943 285.899 40.1699 289.229 40.6632L289.319 40.1844C289.821 40.2064 290.956 40.2266 291.406 40.2851C294.278 39.8292 299.006 33.5833 299.125 30.9375Z" fill="#F6F2EF"/>
<path d="M299.121 30.9375C300.785 33.6104 297.318 35.9221 295.797 37.9639C294.643 39.5128 292.939 40.9173 291.93 42.6227C287.778 49.6596 288.135 58.3842 288.016 66.1955C287.878 66.2512 287.718 66.1736 287.57 66.1503C287.55 65.9737 287.534 65.7972 287.52 65.6201C286.888 57.8635 286.396 48.3422 291.549 41.5012C291.89 41.0486 291.919 41.2136 292.195 40.5957L291.695 40.6344L291.402 40.2851C294.273 39.8292 299.002 33.5833 299.121 30.9375Z" fill="#09203F"/>
<path d="M289.313 40.1836C289.815 40.2056 290.95 40.2258 291.4 40.2843L291.694 40.6336L289.223 40.6624L289.313 40.1836Z" fill="#09203F"/>
<path d="M229.995 31.6847C229.975 30.9717 229.832 30.2158 230.224 29.6914C230.887 30.0572 233.915 33.291 234.868 34.1066C237.912 36.7128 240.925 39.2984 244.117 41.738C247.308 44.1862 250.603 46.4964 253.992 48.6622C259.011 51.8128 263.202 53.9078 267.699 57.9793C265.245 62.0409 262.57 66.4398 260.438 70.6803C257.325 65.6798 255.548 59.6474 253.171 54.5475C252.382 52.8536 244.949 47.7294 243.046 46.235C240.355 44.0876 237.731 41.8559 235.179 39.5432C234.021 38.4889 231.565 36.0762 230.422 35.2304C229.783 34.2473 229.978 32.9106 229.995 31.6847Z" fill="#F6F2EF"/>
<path d="M229.818 30.042C230.074 30.5662 230.264 30.9087 230.469 31.5254L230.496 31.6055L230.494 31.6895C230.485 32.3543 230.434 32.929 230.462 33.5234C230.489 34.095 230.592 34.5719 230.841 34.9561L231.079 35.3232L230.747 35.6084L230.581 35.75C230.394 36.9008 230.362 38.7905 230.408 40.7539C230.456 42.7982 230.583 44.8692 230.672 46.1504C231.705 61.0061 233.899 75.8585 242.063 88.4355C247.002 86.6225 252.015 84.9387 256.246 81.9736L256.285 81.9463L256.328 81.9268C258.253 81.0599 260.85 79.0702 262.691 77.7598C271.201 71.7033 276.28 65.8046 287.562 65.6494L287.604 65.6484L287.646 65.6553C287.709 65.6651 287.766 65.6797 287.805 65.6895C287.842 65.6991 287.865 65.7038 287.884 65.708L287.938 65.6865L288.057 65.6963C290.75 65.9177 293.214 66.5382 295.368 68.2979C303.938 63.7563 309.942 54.6057 313.979 45.9043C314.366 45.0685 314.818 44.1421 315.2 43.1943C315.583 42.2455 315.878 41.3143 315.967 40.4873L316.005 40.1328L316.352 40.0527L317.202 39.8564L317.385 40.1875L317.603 40.583L317.677 40.7188L317.662 40.8721C317.363 43.9667 316.092 46.7814 314.869 49.4932C310.811 58.4927 304.944 66.2262 295.631 70.2803L295.4 70.3809L295.182 70.2559L294.459 69.8398L294.439 69.8291L294.422 69.8164C288.224 65.5045 281.064 67.9889 273.899 72.4385C270.335 74.6518 266.832 77.3115 263.515 79.7705C260.212 82.2181 257.079 84.4777 254.298 85.8379C252.856 86.5432 248.902 88.1029 245.193 89.627C243.329 90.3931 241.518 91.1537 240.094 91.8008C239.381 92.1244 238.771 92.4169 238.302 92.666C237.965 92.8449 237.725 92.9889 237.574 93.0947C237.555 94.6901 237.114 95.6272 236.467 97.0391C236.264 97.6152 235.964 98.1441 235.658 98.6338C235.337 99.1485 235.032 99.5906 234.761 100.068L234.76 100.067C233.755 101.84 232.819 103.722 231.979 105.582C230.854 108.07 230.1 110.692 229.205 113.336C228.317 115.96 227.297 118.576 225.652 120.944C221.631 126.733 213.555 133.924 204.912 140.427C196.259 146.937 186.976 152.803 180.495 155.933C179.293 156.513 177.974 157.027 176.709 157.548C175.565 158.019 174.457 158.5 173.462 159.057L173.463 159.058L173.531 159.277L173.409 159.472C173.039 160.063 172.435 160.635 171.979 161.094C171.74 161.335 171.537 161.547 171.39 161.738C171.234 161.939 171.186 162.059 171.179 162.114L171.17 162.178L171.146 162.237C170.66 163.406 170.203 164.016 169.564 164.862L169.8 165.11L170.248 165.584L169.674 165.894C164.885 168.48 160.116 173.125 156.141 178.444C152.167 183.76 149.018 189.708 147.443 194.859C146.498 197.951 145.84 201.114 146.35 203.707C146.602 204.989 147.138 206.119 148.062 207.039C148.987 207.961 150.333 208.701 152.254 209.148C156.244 210.078 161.632 210.26 165.818 209.982L165.964 209.973L166.091 210.042L166.663 210.354L166.887 210.478L166.92 210.729L166.984 211.232L167.041 211.676L166.606 211.781C164.817 212.218 162.227 212.318 159.679 212.229C157.122 212.139 154.554 211.857 152.787 211.506C149.842 210.92 146.733 209.696 144.984 206.907C143.119 203.93 143.58 200.076 144.228 197.005C145.563 190.662 148.778 184.546 152.489 179.33L152.821 178.887C153.162 178.453 153.524 178.044 153.868 177.648C154.333 177.113 154.771 176.597 155.137 176.03C155.497 175.473 155.761 174.708 155.986 173.866C156.098 173.45 156.197 173.026 156.295 172.609C156.392 172.196 156.489 171.787 156.592 171.416C157.313 168.811 158.212 166.345 159.732 164.032C161.923 160.703 165.086 158.96 168.461 157.684C170.144 157.047 171.902 156.52 173.618 155.976C175.343 155.429 177.035 154.863 178.63 154.143C182.827 152.247 186.979 149.643 190.87 147.102L191.431 146.729C194.543 144.625 202.161 139.052 209.265 133.385C213.052 130.363 216.684 127.323 219.401 124.773C220.761 123.498 221.883 122.355 222.68 121.403C223.078 120.928 223.388 120.509 223.604 120.152C223.826 119.787 223.926 119.525 223.949 119.357C223.971 119.198 223.897 119.016 223.625 118.799C223.357 118.586 222.99 118.42 222.685 118.309C217.234 116.334 212.174 112.88 208.911 107.899L208.909 107.897L208.711 107.59L207.943 106.406L209.285 106.843C210.209 107.144 211.246 107.579 212.277 108.013C213.317 108.451 214.355 108.889 215.311 109.219C218.228 110.224 220.464 110.75 223.351 111.373C222.83 108.896 222.267 106.556 222.368 104.369C222.482 101.896 223.44 99.61 226.104 97.3975C230.239 93.9642 234.724 91.8728 239.401 89.5908C234.018 82.1748 231.102 71.8486 229.667 61.2246C228.199 50.3544 228.271 39.1126 228.87 30.2285L228.996 28.3584L229.818 30.042Z" fill="#09203F" stroke="#09203F"/>
<path d="M237.076 92.8555C237.099 94.4898 236.689 95.3598 236.005 96.8523C235.579 97.0712 234.822 98.0016 234.464 98.4262C230.034 103.679 228.825 110.371 226.173 116.258L226.018 116.597C226.089 112.003 223.2 103.709 225.905 100.314C228.02 97.6594 234.004 94.5931 237.076 92.8555Z" fill="#F6F2EF"/>
<path d="M172.869 158.824L172.988 159.208C172.324 160.271 170.791 161.292 170.686 162.048C168.868 164.021 165.952 166.18 163.866 168.035C161.364 170.262 159.625 172.121 157.391 174.573C158.325 171.594 159.13 168.761 160.65 166.024C163.725 160.485 167.418 160.309 172.869 158.824Z" fill="#F6F2EF"/>
<path d="M213.465 110.822C213.678 110.847 224.162 114.212 224.25 114.283C224.706 115.395 224.596 116.129 224.581 117.332C220.71 116.584 216.249 113.577 213.465 110.822Z" fill="#09203F"/>
<path d="M212.543 151.713C213.475 150.685 216.942 148.724 218.259 147.846C221.561 145.646 226.254 143.165 229.28 140.69C235.202 135.846 241.07 130.684 246.992 125.832C248.512 124.587 252.76 120.752 254.258 120.062C241.689 132.06 228.071 143.692 212.543 151.713Z" fill="#09203F"/>
<path d="M312.177 88.1032C311.647 84.8365 319.773 64.5864 321.921 63.3262C321.201 65.5292 319.641 67.8479 318.704 69.9515C315.907 76.2294 313.649 81.3303 312.177 88.1032Z" fill="#09203F"/>
<path d="M169.09 165.089C171.486 163.564 176.316 162.489 179.152 162.508L179.146 162.677C175.547 163.767 173.08 163.898 169.438 165.456L169.09 165.089Z" fill="#09203F"/>
<path d="M302.027 82.8555C302.716 83.2072 303.892 85.3298 304.176 86.1027C304.903 88.0849 309.158 92.1017 309.578 93.6994C307.166 91.6386 303.262 85.8733 302.027 82.8555Z" fill="#09203F"/>
<path d="M294.709 69.4062L295.433 69.8217C293.921 70.4485 291.368 71.1938 289.746 71.1258C289.922 70.9306 293.753 69.7927 294.709 69.4062Z" fill="#09203F"/>
<path d="M168.772 181.857C168.809 180.062 170.517 175.906 171.485 173.99C173.967 169.078 177.581 166.627 182.688 164.304C188.283 161.758 206.358 157.007 206.638 167.897C206.745 172.086 201.187 176.141 197.408 177.075C191.418 178.802 184.985 179.513 178.867 180.785C177.135 181.145 170.903 183.062 169.771 182.802L168.684 183.127L168.449 182.927L168.772 181.857Z" fill="#09203F"/>
<path d="M169.191 180.85C173.227 170.379 177.955 166.68 188.949 163.014C194.816 161.058 209.555 161.113 203.805 171.725C200.91 177.069 187.059 178.505 180.853 179.429C177.723 177.708 172.751 179.58 169.821 181.199L169.191 180.85Z" fill="#F6F2EF"/>
<path d="M191.337 165.9C192.625 165.797 194.262 165.605 195.333 166.206C202.493 170.224 193.742 174.07 189.692 174.617C186.998 174.98 184.535 175.487 182.151 175.851C180.133 176.161 178.209 176.843 176.25 177.014L176.008 176.661C176.12 175.992 176.321 175.711 176.689 175.159C180.221 169.86 185.31 167.226 191.337 165.9Z" fill="#09203F"/>
<path d="M169.824 181.197C172.754 179.579 177.726 177.706 180.856 179.428C177.338 180.488 173.556 181.56 170.093 182.73L169.824 181.197Z" fill="#F6F2EF"/>
<path d="M168.772 181.858L169.197 180.85L169.827 181.199L170.096 182.732L169.771 182.803L168.684 183.127L168.449 182.927L168.772 181.858Z" fill="#09203F"/>
<path d="M322.847 47.293C323.058 48.5181 317.63 60.4438 316.717 62.6844C315.147 66.5389 313.953 70.1902 312.797 74.2751C313.067 66.4794 319.272 54.3653 322.847 47.293Z" fill="#09203F"/>
<path d="M273.527 93.3301L273.636 93.4172C272.724 94.5542 272.064 94.9677 271.075 95.9215C265.736 101.064 261.81 107.899 258.042 114.232L257.867 114.117C261.052 106.492 266.662 98.0779 273.527 93.3301Z" fill="#09203F"/>
<path d="M397.72 41.8643C399.181 41.7738 400.655 41.733 401.977 41.7959C403.289 41.8584 404.492 42.0243 405.392 42.3662C405.854 42.5423 406.182 42.9697 406.384 43.3525C406.592 43.7472 406.729 44.2121 406.735 44.5996V44.6084C406.732 46.9266 406.075 49.1891 405.283 51.374C404.48 53.5907 403.56 55.6788 402.945 57.792C402.27 60.1141 401.713 62.5026 401.149 64.9004C400.587 67.2932 400.016 69.6948 399.314 72.0186C394.691 87.3377 388.583 102.443 374.783 111.989C379.399 115.386 384.712 119.453 389.535 123.965C394.553 128.659 399.07 133.861 401.715 139.319L402.244 140.41L401.1 140.009C399.51 139.451 397.85 138.841 396.227 138.308C402.405 145.199 406.134 150.924 411.792 158.406C419.804 169.002 430.902 183.154 440.968 191.531L440.524 192.4C437.313 191.584 434.92 190.671 432.668 189.75C431.087 189.103 429.585 188.459 427.915 187.836C434.96 194.514 441.204 202.139 447.237 209.637C451.682 215.159 456.237 220.593 460.484 226.328C461.845 228.166 463.105 230.095 464.358 231.999C465.615 233.907 466.867 235.792 468.222 237.563L468.327 237.702L468.324 237.877L468.319 238.103L468.308 238.725L467.702 238.579C467.409 238.508 467.113 238.444 466.817 238.385L466.464 238.651L466.239 238.82L465.979 238.717C465.237 238.423 464.428 238.023 463.606 237.6C472.803 245.919 476.795 252.935 483.011 264.62L483.711 265.938L482.358 265.309C480.995 264.675 478.985 263.398 477.04 262.065C476.396 261.624 475.757 261.173 475.146 260.734C480.872 268.023 486.056 275.954 491.611 283.369C497.98 291.871 504.882 299.763 513.796 305.522C514.337 305.872 514.903 306.192 515.484 306.526C516.061 306.858 516.651 307.202 517.215 307.588L518.737 308.63L516.897 308.499C514.106 308.301 512.365 308.119 510.075 307.593C515.91 312.701 522.364 317.43 529.592 320.121L531.384 320.788L529.494 321.084C523.464 322.026 517.582 321.712 511.983 319.491C516.309 323.474 520.389 327.658 524.543 331.696C529.487 336.503 534.552 341.121 540.324 345.032C540.887 345.413 543.434 347.044 545.877 348.635C547.094 349.427 548.284 350.209 549.178 350.813C549.624 351.115 550.001 351.376 550.271 351.573C550.406 351.671 550.521 351.758 550.606 351.828C550.648 351.863 550.691 351.9 550.728 351.936C550.746 351.953 550.768 351.977 550.79 352.004C550.807 352.025 550.849 352.079 550.879 352.155L551.043 352.57L550.649 352.78C549.945 353.156 549.01 353.395 547.995 353.548C546.973 353.702 545.832 353.771 544.693 353.788C543.393 353.807 542.083 353.756 540.937 353.678C541.621 354.013 542.288 354.28 542.929 354.525C544.056 354.957 545.163 355.346 546.043 355.969L546.278 356.135L546.252 356.422L546.224 356.734L546.197 357.022L545.935 357.144C545.376 357.4 544.998 357.52 544.585 357.57C544.271 357.608 543.923 357.606 543.489 357.611C545.559 361.365 546.673 363.279 547.82 367.792L548.061 368.738L547.152 368.381L543.114 366.79C543.424 367.996 543.675 369.174 543.916 370.315C544.21 371.711 544.49 373.049 544.843 374.343C547.577 376.632 548.485 377.245 551.726 378.85L551.468 379.797C549.752 379.674 548.627 379.453 547.536 379.082C546.721 378.805 545.923 378.44 544.925 377.987C545.824 381.135 546.244 384.004 546.797 387.245L547.006 388.47L546.007 387.731C544.04 386.278 540.769 382.941 539.051 381.213L539.049 381.211C532.032 374.062 525.323 366.616 518.939 358.896L518.103 357.91C517.26 356.929 516.402 355.959 515.541 354.987C514.394 353.693 513.241 352.395 512.12 351.067C506.593 344.523 501.099 337.641 495.949 330.8C462.298 286.101 434.549 237.33 405.35 189.782C400.426 181.764 395.548 173.663 390.472 165.761C380.659 150.483 370.475 135.389 360.758 120.022C359.839 120.298 358.935 120.568 358.039 120.868C381.392 157.465 404.317 194.333 426.809 231.466L428.918 234.938C439.443 252.316 449.689 269.915 460.621 287.034L462.453 289.851C471.637 303.918 481.119 317.791 490.889 331.458L492.055 333.084C503.753 349.313 516.561 364.713 530.386 379.173L531.771 380.616L531.773 380.618C537.034 386.142 542.354 391.622 547.693 397.059C549.025 398.415 551.666 400.83 554.24 403.309C555.52 404.541 556.777 405.785 557.829 406.904C558.873 408.016 559.74 409.031 560.219 409.805L559.537 410.497C556.656 408.771 552.777 405.372 549.016 401.824C545.249 398.271 541.548 394.517 539.046 392.079L539.043 392.077C522.13 375.354 506.479 357.398 492.221 338.357V338.356C486.267 330.364 480.132 321.241 474.508 313.016C465.125 299.515 456.127 285.751 447.523 271.741C443.476 265.173 439.642 258.306 435.64 251.699L395.211 185.473V185.472L367.812 142.128C365.806 138.953 363.782 135.788 361.743 132.634L359.699 129.482C358.313 127.357 356.017 124.057 354.73 121.754C352.816 122.119 351.052 122.293 349.353 122.462C347.541 122.642 345.805 122.82 343.995 123.222C343.754 123.275 343.361 123.5 342.831 123.909C342.321 124.304 341.747 124.818 341.155 125.368C340 126.443 338.742 127.694 337.887 128.282C333.301 131.431 329.048 133.303 323.915 135.247L323.413 134.4C325.89 132.279 328.957 130.281 331.969 128.252C334.705 126.408 337.4 124.533 339.64 122.488C337.581 122.049 335.439 121.47 333.355 120.938C330.935 120.321 328.589 119.768 326.476 119.547L326.351 118.582C329.103 117.539 332.865 117.398 336.61 117.512C338.493 117.569 340.393 117.691 342.182 117.803C343.976 117.915 345.655 118.017 347.113 118.035C361.936 118.224 373.61 109.908 382.64 98.6484L382.642 98.6465C386.383 94.0416 388.677 90.8408 391.262 85.418C392.83 82.052 394.249 78.6185 395.517 75.1279C395.707 74.5879 396.203 73.086 396.66 71.623C396.889 70.8904 397.107 70.1712 397.271 69.5908C397.443 68.9862 397.539 68.5894 397.551 68.4609C397.651 67.3511 398.202 65.4403 398.933 63.2129C399.67 60.9656 400.613 58.3312 401.526 55.749C402.441 53.1619 403.326 50.627 403.953 48.5605C404.267 47.5269 404.514 46.6199 404.668 45.8877C404.806 45.2322 404.857 44.7678 404.841 44.4873C404.426 43.9905 403.641 43.7646 402.589 43.7129C402.051 43.6865 401.486 43.7065 400.935 43.7373C400.395 43.7674 399.847 43.8095 399.393 43.8193C391.77 43.9842 384.392 45.827 377.092 48.0742H377.09C373.416 49.1915 370.104 50.0378 366.585 51.4316C358.425 54.664 351.683 58.8332 346.287 65.791C344.396 68.2298 342.868 70.8403 341.409 73.5195C339.956 76.1879 338.56 78.9461 336.956 81.6191L336.955 81.6211C335.921 83.3259 334.685 84.9527 333.506 86.5518C332.319 88.1605 331.186 89.7467 330.314 91.4082L330.313 91.4102C329.459 93.0195 328.867 94.7548 328.557 96.5508C328.035 99.6619 328.572 101.529 328.823 104.687L327.885 104.964C325.826 101.147 325.233 97.5867 325.915 94.2031C326.595 90.8297 328.53 87.6898 331.418 84.6836L331.468 84.6328L331.529 84.5967C331.757 84.4661 331.906 84.3037 332.054 84.0791C332.131 83.9617 332.205 83.8304 332.291 83.6748C332.375 83.5232 332.47 83.3489 332.581 83.165L332.593 83.1445L332.607 83.126C334.872 80.0571 336.652 76.9644 338.457 73.8496C340.258 70.7405 342.082 67.6098 344.416 64.5098C352.519 53.7487 362.775 50.073 375.026 46.4883C380.003 45.032 384.582 43.2626 390.275 42.6133C391.884 42.4298 394.8 42.045 397.72 41.8643Z" fill="#09203F" stroke="#09203F"/>
<path d="M372.305 112.906C382.831 120.651 389.464 126.991 398.226 136.429C391.1 133.432 387.913 131.078 380.026 128.627C383.717 131.054 391.525 137.001 394.32 140.128C399.815 146.274 404.911 154.116 410.08 160.658C417.832 170.47 424.534 178.809 433.362 187.674C428.258 185.543 424.797 182.739 420.326 179.729C415.32 176.359 409.995 172.447 404.857 169.345C410.911 175.773 418.258 181.29 424.61 187.431C435.644 198.097 444.822 210.677 454.482 222.568C457.518 226.305 460.501 230.162 463.013 234.266C457.575 231.992 453.074 230.238 447.185 229.386C460.998 237.377 468.322 244.008 476.23 258.048L475.84 258.235C472.632 255.252 461.482 249.122 457.179 247.223C461.949 251.589 467.803 255.74 472.04 260.459C475.683 264.517 479.367 269.97 482.484 274.476C486.83 280.756 491.109 286.685 496.086 292.511C498.82 295.711 501.839 298.447 504.964 301.257C506.638 302.763 508.949 304.394 510.434 305.999C506.441 304.812 502.796 302.755 499.234 300.623C505.596 307.34 514.713 315.775 523.365 319.203C512.327 318.253 505.88 314.024 496.799 308.013C494.425 306.442 491.883 304.248 489.499 302.799C492.85 306.244 496.13 309.688 499.849 312.741C503.381 315.641 507.227 318.213 510.611 321.282C519.14 329.016 526.83 337.645 536.061 344.589C538.244 346.231 540.305 347.93 542.573 349.469C543.781 350.26 544.933 351 546.086 351.871C544.876 351.806 543.742 351.734 542.527 351.75C535.332 351.023 530.823 347.279 525.171 343.014C527.142 345.63 532.006 350.267 534.683 352.407C540.246 356.852 542.616 358.008 544.668 365.127C541.912 364.201 541.425 363.801 539.052 362.132C540.293 366.046 541.431 368.845 542.636 373.08C541.208 372.326 539.121 370.931 537.622 370.046C538.879 371.821 541.407 374.456 542.943 376.244C543.072 378.233 543.552 380.275 543.953 382.237C538.849 377.844 534.861 372.648 530.315 367.758C510.996 346.973 495.119 324.498 479.008 301.21C462.081 276.651 445.927 251.567 430.569 225.995C419.283 206.91 407.806 187.939 396.14 169.085C391.715 162.201 387.239 155.351 382.711 148.535C375.951 138.278 370.065 128.76 362.43 118.897C365.937 117.151 369.05 115.064 372.305 112.906Z" fill="#09203F"/>
<path d="M542.574 349.469C543.782 350.259 544.934 350.999 546.087 351.87C544.876 351.806 543.743 351.733 542.527 351.749C542.996 350.177 543.119 350.642 542.574 349.469Z" fill="#09203F"/>
<path d="M476.23 258.049C476.961 258.547 477.672 258.874 477.98 259.658L477.709 259.775C476.757 259.369 476.562 259.027 475.84 258.236L476.23 258.049Z" fill="#09203F"/>
<path d="M165.851 210.481C167.143 210.182 171.223 210.084 173.139 209.748C182.712 208.07 191.475 204.053 198.464 197.216C201.729 194.022 204.481 190.192 207.924 187.212C210.189 185.251 211.228 185.12 214.006 185.391L215.559 185.972C217.203 186.554 216.404 187.806 217.376 189.194L217.641 189.684C217.047 190.471 215.142 195.731 214.966 196.526C214.438 198.915 209.061 208.47 209.136 209.925C204.279 214.973 193.601 226.399 186.498 226.803C178.966 227.232 170.69 221.99 166.924 215.364L166.401 215.917C163.513 217.625 158.235 223.647 156.244 226.335C154.896 228.154 151.505 233.726 151.054 235.941C149.097 245.531 161.452 255.26 168.164 258.824L168.853 258.938C170.232 258.949 174.251 259.07 175.544 259.352C191.414 260.344 207.991 264.733 214.553 280.988C215.633 283.664 216.252 286.108 216.875 288.908L216.691 289.306L216.128 289.24C214.485 288.997 212.433 288.314 210.744 287.873C196.654 284.189 182.389 278.336 172.251 267.51C170.336 265.465 169.005 263.426 168.032 260.857L167.675 259.931C165.095 258.172 162.421 256.854 159.908 254.932C154.568 250.845 151.843 246.898 149.279 240.789C144.237 258.208 147.993 280.955 156.053 297.004C159.821 298.561 172.109 303.165 175.599 302.651C178.467 301.461 182.797 301.126 185.903 300.657C208.158 297.299 234.487 301.163 247.893 321.435C241.689 322.227 231.143 322.491 224.874 322.183C209.768 322.803 182.246 317.002 173.56 303.768C166.489 302.459 163.177 301.065 156.575 298.487C162.765 312.484 172.279 327.68 181.108 340.239C182.241 341.851 184.733 345.827 185.991 346.917C191.81 351.959 199.035 356.63 206.273 359.207C210.295 360.64 219.179 364.22 222.969 363.156C224.356 362.746 225.393 362.468 226.808 362.167C242.223 358.445 261.348 360.701 275.187 368.99C286.078 375.514 297.027 386.406 303.734 397.36C303.812 397.486 303.786 397.703 303.779 397.851C303.073 397.987 302.544 397.623 301.785 397.289C292.65 393.946 283.233 391.432 273.648 389.777C266.289 388.445 257.613 387.171 250.514 385.002C239.955 381.775 226.876 372.979 219.752 364.592C206.646 361.659 200.231 358.593 189.056 351.224C203.539 368.424 218.807 384.947 234.811 400.739C234.804 401.004 234.803 401.669 234.766 401.894L234.461 401.902L234.739 402.478L234.57 402.792C234.623 403.774 234.684 404.598 234.8 405.575C233.795 404.341 234.444 403.158 233.432 402.239C233.502 403.729 234.308 404.624 233.822 406.234C233.307 404.09 232.889 401.356 231.618 399.638C229.711 397.061 227.393 395.067 225.124 392.847L213.655 381.65C203.127 371.276 193.249 360.77 184.238 349.029L185.241 359.37C185.321 360.204 185.599 365.033 185.728 365.452L185.164 365.206L184.896 365.501C184.946 366.086 184.941 366.247 185.106 366.805L184.763 367.999C184.706 367.191 184.736 366.639 184.382 365.909L183.945 365.954L183.44 365.497C184.412 363.324 183.702 359.815 183.557 357.398C183.357 354.04 183.151 350.656 182.924 347.299C167.37 328.121 155.276 306.376 147.185 283.042C146.337 288.999 143.158 296.63 140.765 302.144L141.2 303.862C143.346 310.385 145.224 316.906 146.381 323.529C150.304 345.972 141.348 366.876 136.118 388.197C135.651 390.103 135.246 393.141 134.512 394.904L134.283 394.953C134.135 394.756 133.991 394.556 133.85 394.353C131.39 390.851 129.668 387.266 127.927 383.396C118.519 362.478 120.296 338.798 129.816 318.267C131.379 314.893 133.115 311.603 135.016 308.408C136.249 306.35 138.448 303.074 139.464 301.036C142.36 295.076 144.259 288.613 145.833 282.191C146.457 279.829 145.558 277.374 145.052 275.021C143.13 266.089 142.549 256.27 144.108 247.211C140.71 252.067 136.039 255.887 132.318 260.459C132.148 260.668 131.612 262.625 131.419 263.133C131.054 262.329 131.137 262.764 131.35 261.761L131.291 261.747C130.977 261.985 130.898 262.084 130.621 262.365L130.363 262.148C130.911 261.354 130.916 261.362 130.556 260.594L131.192 259.73L131.231 259.013C134.868 256.418 142.266 247.766 144.371 243.66C144.924 242.581 146.836 236.375 147.287 234.826L147.237 234.351L146.838 234.044C148.554 233.433 150.253 229.073 151.428 227.127C154.354 222.283 157.276 218.91 161.734 215.412C162.9 214.497 165.778 212.239 166.488 211.296L166.424 210.794L165.851 210.481Z" fill="#09203F"/>
<path d="M140.367 304.817C140.065 304.045 140.012 303.643 140.455 302.971L140.259 302.968L140.359 302.832L140.825 303.647L141.2 303.864C143.346 310.387 145.224 316.908 146.381 323.531C150.304 345.974 141.348 366.878 136.118 388.199C135.65 390.105 135.246 393.143 134.512 394.906L134.283 394.955L134.46 394.213L134.094 393.879C133.005 392.258 132.091 389.823 131.214 388.026C127.206 379.806 124.855 371.979 123.72 362.896C121.57 345.707 125.654 328.119 133.86 312.975C135.254 310.404 137.37 306.383 139.142 304.091L139.437 304.168L139.956 304.909L140.367 304.817Z" fill="#A3B9A6"/>
<path d="M140.367 304.817C140.065 304.045 140.012 303.643 140.455 302.971L140.258 302.968L140.359 302.832L140.824 303.647L141.2 303.864C143.345 310.387 145.224 316.908 146.381 323.531C150.303 345.974 141.348 366.878 136.118 388.199C135.65 390.105 135.245 393.143 134.511 394.906L134.283 394.955L134.46 394.213L134.094 393.879C135.253 385.609 137.06 379.897 139.166 372.015C143.845 354.508 148.146 337.801 144.267 319.576C143.15 314.332 141.906 310.021 140.367 304.817Z" fill="#09203F"/>
<path d="M139.437 304.168L139.956 304.909C138.825 309.224 137.63 313.444 136.566 317.787C132.366 334.935 131.597 351.409 131.583 368.958C131.484 370.182 131.423 371.41 131.402 372.638L131.134 372.78C128.469 351.36 131.802 324.32 139.437 304.168Z" fill="#09203F"/>
<path d="M131.585 368.957C131.977 372.431 132.031 377.284 132.287 380.979L131.774 380.476C131.831 379.405 131.212 374.436 131.137 372.779L131.404 372.637C131.426 371.409 131.486 370.182 131.585 368.957Z" fill="#09203F"/>
<path d="M131.773 380.477L132.286 380.98C132.48 381.886 132.856 383.505 132.495 384.329L132.541 384.428C132.013 383.13 131.948 381.874 131.773 380.477Z" fill="#09203F"/>
<path d="M226.81 362.168C242.224 358.446 261.349 360.702 275.188 368.991C286.079 375.515 297.028 386.407 303.735 397.361C303.813 397.487 303.788 397.704 303.78 397.852C303.074 397.988 302.545 397.624 301.786 397.29C292.652 393.947 283.235 391.433 273.65 389.779L274.612 389.153C265.571 387.769 255.945 385.934 247.335 382.824C243.527 381.449 221.689 368.44 222.189 364.923L221.648 364.636L221.995 363.998L222.807 363.608L222.971 363.157C224.357 362.747 225.394 362.469 226.81 362.168Z" fill="#A3B9A6"/>
<path d="M226.809 362.168C242.223 358.446 261.348 360.702 275.187 368.991C286.078 375.515 297.027 386.407 303.734 397.361C303.812 397.487 303.787 397.704 303.779 397.852C303.073 397.988 302.544 397.624 301.785 397.29L302.216 396.819L302.593 396.857C302.297 395.528 293.018 385.185 291.59 383.761C289.327 381.536 286.964 379.414 284.507 377.404C267.555 363.545 249.038 360.625 227.906 362.74L226.809 362.168Z" fill="#09203F"/>
<path d="M221.995 363.998C241.667 365.538 260.799 371.177 278.164 380.554C280.872 382.036 285.596 384.71 287.978 386.626C285.865 385.735 283.147 384.071 281.014 382.961C276.575 380.635 272.052 378.474 267.454 376.481C257.589 372.251 247.279 369.145 236.721 367.22C232.019 366.359 226.656 365.812 222.189 364.923L221.648 364.635L221.995 363.998Z" fill="#09203F"/>
<path d="M274.611 389.154C282.216 390.776 295.156 393.548 302.215 396.82L301.785 397.291C292.65 393.948 283.233 391.434 273.648 389.78L274.611 389.154Z" fill="#09203F"/>
<path d="M222.968 363.156C224.355 362.747 225.392 362.468 226.807 362.168L227.904 362.74C226.525 362.999 224.173 363.495 222.805 363.607L222.968 363.156Z" fill="#09203F"/>
<path d="M175.599 302.651C178.467 301.462 182.797 301.127 185.903 300.658C208.159 297.299 234.488 301.163 247.893 321.435C241.69 322.227 231.143 322.492 224.875 322.183C225.782 321.931 230.87 321.889 232.281 321.836C230.736 321.481 230.499 322.213 229.614 321.498C226.023 321.214 222.409 321.182 218.711 320.852C206.336 319.748 193.589 316.984 182.854 310.481C181.133 309.438 175.537 305.441 175.121 303.638L174.703 303.364C175.461 303.023 175.196 303.282 175.599 302.651Z" fill="#A3B9A6"/>
<path d="M175.599 302.651C178.467 301.462 182.797 301.127 185.903 300.658C208.159 297.299 234.488 301.163 247.893 321.435C241.69 322.227 231.143 322.492 224.875 322.183C225.782 321.931 230.87 321.889 232.281 321.836C230.736 321.481 230.499 322.213 229.614 321.498C231.003 321.385 233.254 321.477 234.758 321.413C238.7 321.244 242.659 321.074 246.602 320.975C242.93 315.762 237.197 311.278 231.82 308.146C218.116 300.165 201.479 299.306 186.109 301.438C183.842 301.752 178.763 302.158 176.689 302.72L176.721 302.929L177.797 303.125L177.81 303.875C176.938 303.878 175.997 303.74 175.121 303.638L174.703 303.364C175.461 303.023 175.196 303.282 175.599 302.651Z" fill="#09203F"/>
<path d="M177.797 303.125C195.572 303.249 211.645 305.602 228.199 312.621C230.09 313.423 233.856 315.107 235.445 316.193L235.413 316.335C234.219 315.818 233.012 315.316 231.823 314.789C214.884 307.276 196.229 304.819 177.81 303.875L177.797 303.125Z" fill="#09203F"/>
<path d="M215.56 185.973C217.204 186.554 216.405 187.806 217.377 189.194L217.642 189.684C217.049 190.472 215.143 195.731 214.967 196.527C214.439 198.915 209.062 208.471 209.137 209.925C204.28 214.974 193.602 226.399 186.499 226.804C178.968 227.232 170.692 221.991 166.926 215.364C167.521 215.271 169.05 215.272 169.724 215.259C181.53 215.036 190.217 209.155 198.127 200.919C200.811 198.124 203.268 194.716 206.045 191.86C207.857 189.996 210.193 187.431 212.636 186.21C212.952 186.052 215.071 185.99 215.56 185.973Z" fill="#F6F2EF"/>
<path d="M168.165 258.824L168.854 258.938C170.233 258.949 174.251 259.07 175.545 259.352C191.415 260.344 207.992 264.733 214.554 280.988C215.634 283.664 216.252 286.107 216.876 288.908L216.692 289.306L216.128 289.24C214.486 288.997 212.434 288.314 210.745 287.873C196.655 284.189 182.389 278.336 172.252 267.51C170.336 265.465 169.006 263.426 168.033 260.857L167.676 259.931C182.259 265.523 196.303 269.169 208.313 280.39L208.737 280.188C199.594 271.666 191.251 266.94 179.355 263.139C177.099 262.418 169.872 259.945 168.165 258.824Z" fill="#A3B9A6"/>
<path d="M175.544 259.352C191.415 260.344 207.992 264.733 214.554 280.988C215.634 283.664 216.252 286.107 216.876 288.908L216.692 289.306L216.128 289.24L216.067 288.644C215.097 284.854 211.884 277.936 209.446 274.778C200.626 263.348 188.645 261.763 175.5 259.913L175.544 259.352Z" fill="#09203F"/>
<path d="M168.031 260.858L168.437 260.766C169.387 261.725 169.899 262.77 170.724 263.788C181.632 277.247 199.703 284.8 216.065 288.644L216.127 289.241C214.484 288.997 212.432 288.315 210.743 287.873C196.653 284.189 182.388 278.336 172.25 267.511C170.335 265.465 169.004 263.427 168.031 260.858Z" fill="#09203F"/>
<path d="M208.736 280.189C210.157 281.314 211.939 283.299 213.173 284.689C211.985 283.832 209.364 281.486 208.312 280.391L208.736 280.189Z" fill="#09203F"/>
<path d="M168.855 258.939C170.235 258.951 174.253 259.071 175.546 259.353L175.502 259.915C173.29 259.458 170.64 259.525 168.855 258.939Z" fill="#09203F"/>
<path d="M473.99 320.889C474.253 321.179 474.606 321.61 475.031 322.168C475.64 322.968 476.345 323.951 477.06 324.969C478.471 326.978 479.946 329.161 480.7 330.175L480.701 330.177C486.664 338.161 492.709 346.085 498.836 353.944L498.837 353.945C502.139 358.165 505.529 362.315 509.004 366.394L509.009 366.399C511.553 369.344 514.446 372.385 516.701 375.394C515.603 379.108 513.002 385.671 511.467 389.008C509.426 393.443 506.738 399.332 503.396 404.569C500.044 409.822 496.148 414.229 491.762 415.957C488.719 416.814 486.703 416.261 485.039 415.041C483.263 413.739 481.845 411.661 480.111 409.25C472.456 398.604 465.565 387.43 459.185 375.962C456.369 370.902 453.359 365.688 451.39 360.247C449.428 354.826 448.533 349.259 449.899 343.518V343.517C451.962 334.794 458.159 330.669 465.657 326.049L465.659 326.047L473.99 320.889Z" fill="#84495B" stroke="#09203F" stroke-width="2"/>
<path d="M458.799 408.098C459.092 408.551 459.439 409.118 459.823 409.777C460.744 411.355 461.862 413.401 462.986 415.507C465.218 419.685 467.502 424.145 468.228 425.431C472.4 432.823 476.803 440.22 481.165 447.502V447.503C486.8 457.063 492.597 466.527 498.549 475.892C484.564 475.802 470.579 475.782 456.595 475.833L450.34 475.86L433.297 475.874C430.423 471.171 426.957 462.979 424.843 457.793C421.07 448.539 416.806 438.25 413.581 428.726C414.847 429.068 416.113 429.443 417.396 429.821C419.264 430.371 421.166 430.922 423.094 431.34C426.961 432.179 430.998 432.503 435.305 431.251C447.171 427.802 453.347 417.616 458.799 408.098Z" fill="#84495B" stroke="#09203F" stroke-width="2"/>
<path d="M421.682 327.058C421.849 327.611 422.014 328.173 422.184 328.743L422.212 328.839L422.259 328.927C423.064 330.436 423.741 332.144 424.445 333.816L424.477 333.892L424.521 333.961C424.694 334.236 425.046 334.954 425.439 335.787C425.813 336.578 426.21 337.441 426.433 337.896L426.435 337.899L430.757 346.611L430.759 346.615C435.24 355.545 440.003 364.118 444.062 373.151L444.865 374.964C445.596 376.749 446.679 378.785 447.654 380.729C448.654 382.723 449.547 384.632 449.989 386.283C450.775 389.219 449.855 393.086 448.035 396.847C446.231 400.576 443.652 403.978 441.436 405.916C434.661 411.84 425.167 414.629 416.28 413.697C414.832 413.545 413.398 413.192 411.864 412.847C410.556 412.552 409.185 412.266 407.788 412.176C407.053 410.545 406.177 408.072 405.443 405.974L404.699 403.852L399.028 387.804L392.085 367.625L392.084 367.621L390.82 364.05C389.728 360.983 388.583 357.767 387.679 354.816C392.362 355.993 396.263 356.174 399.589 355.502C403.337 354.745 406.276 352.925 408.727 350.396C411.16 347.885 413.112 344.675 414.919 341.131C416.718 337.603 418.433 333.618 420.316 329.627H420.317C420.561 329.111 420.963 328.255 421.424 327.474C421.51 327.328 421.596 327.189 421.682 327.058Z" fill="#84495B" stroke="#09203F" stroke-width="2"/>
<path d="M423.142 328.457C423.975 330.019 424.676 331.787 425.368 333.429C424.463 332.659 422.634 329.49 423.142 328.457Z" fill="#09203F"/>
<path d="M389.956 251.586C390.863 253.134 391.855 255.004 392.861 256.941C394.211 259.538 395.586 262.25 396.778 264.344C399.542 269.402 403.024 274.709 406.081 279.957C409.178 285.272 411.92 290.65 413.402 296.119C414.671 300.8 414.416 306.39 412.9 311.66C411.385 316.931 408.637 321.783 405.023 325.024C398.202 331.143 391.192 332.664 382.22 332.334C380.994 332.215 379.82 332.024 378.581 331.823C377.269 328.616 375.681 323.83 374.395 320.136L373.836 318.55L364.604 292.478H364.603C362.46 286.335 360.534 280.471 358.155 274.397C363.654 274.783 368.315 273.742 372.421 271.501C376.911 269.05 380.667 265.204 384.119 260.39C386.306 257.339 388.192 254.913 389.956 251.586Z" fill="#84495B" stroke="#09203F" stroke-width="2"/>
<path d="M528.291 387.662C528.857 388.175 529.52 388.812 530.19 389.473C530.86 390.132 531.532 390.809 532.116 391.401C532.697 391.989 533.2 392.502 533.52 392.817L533.524 392.822L544.3 403.317C544.655 410.228 544.346 420.757 544.348 427.835L544.358 475.813C536.271 475.781 528.182 475.791 520.095 475.848L518.029 473.224C513.806 467.756 509.753 462.159 505.875 456.44L504.223 453.981C503.101 452.284 501.948 450.36 500.759 448.428C499.73 446.757 498.677 445.084 497.623 443.604C498.692 442.385 499.898 441.222 501.165 439.978C502.619 438.55 504.139 437.029 505.504 435.273C516.71 420.865 524.011 405.182 528.197 387.579C528.228 387.606 528.26 387.634 528.291 387.662Z" fill="#84495B" stroke="#09203F" stroke-width="2"/>
<path d="M361.854 190.287L367.224 202.053C367.41 202.466 367.652 202.983 367.912 203.541C368.174 204.103 368.458 204.712 368.733 205.319C369.293 206.553 369.788 207.714 370.005 208.437L370.026 208.51L370.06 208.579C372.027 212.701 374.711 219.059 376.394 223.366L376.422 223.437L376.46 223.503C376.757 224.017 377.848 226.268 378.929 228.596C379.463 229.747 379.986 230.898 380.396 231.834C380.82 232.806 381.085 233.461 381.145 233.679L381.181 233.81L381.25 233.926C381.353 234.099 381.481 234.295 381.537 234.384C381.61 234.501 381.636 234.552 381.646 234.58C381.651 234.593 381.651 234.594 381.65 234.604C381.65 234.625 381.643 234.693 381.592 234.833C379.559 240.444 376.415 247.452 372.974 252.056L372.962 252.071L372.951 252.087C370.354 255.856 367.24 257.906 363.765 258.773C360.399 259.614 356.615 259.362 352.518 258.357C349.978 251.05 347.246 243.762 344.505 236.48C341.85 229.429 339.189 222.381 336.68 215.306C339.245 215.087 342.077 214.827 344.571 214.155C348.378 213.13 351.066 210.221 353.134 206.988C355.188 203.776 356.773 199.997 358.196 197.162C359.361 194.842 360.581 192.55 361.854 190.287Z" fill="#84495B" stroke="#09203F" stroke-width="2"/>
<path d="M373.774 252.654C373.719 251.933 378.311 244.444 378.734 242.764C379.33 240.398 382.645 236.131 382.108 233.414C382.507 234.082 382.834 234.339 382.532 235.174C380.488 240.815 377.304 247.933 373.774 252.654Z" fill="#09203F"/>
<path d="M377.321 223.002C376.001 222.029 370.865 209.723 370.958 208.148C372.939 212.298 375.633 218.68 377.321 223.002Z" fill="#09203F"/>
<path d="M440.845 267.738C441.176 268.22 441.538 268.798 441.9 269.4C442.628 270.61 443.318 271.855 443.732 272.576C447.58 279.261 451.769 285.819 455.8 292.304C457.134 294.45 459.427 297.692 461.535 300.839C463.518 303.798 465.324 306.656 466.203 308.641C461.514 315.481 456.711 320.131 448.949 323.516C444.996 325.062 441.866 325.911 437.827 326.729C436.333 323.7 434.156 318.256 432.152 312.701C429.99 306.707 428.072 300.704 427.443 297.585C427.03 295.533 427.31 293.044 428.115 290.285C428.917 287.538 430.218 284.601 431.759 281.689C434.562 276.394 438.118 271.268 440.777 267.644C440.799 267.675 440.822 267.706 440.845 267.738Z" fill="#84495B" stroke="#09203F" stroke-width="2"/>
<path d="M403.082 206.95C410.129 217.422 416.539 228.238 422.972 239.147C425.117 242.786 427.474 246.656 428.971 250.46L428.981 250.487L428.994 250.515C429.721 252.078 430.295 253.495 430.924 255.097C430.445 256.245 430.112 257.04 429.48 258.121L429.44 258.19L429.411 258.266C429.051 259.198 428.205 260.693 427.04 262.524C425.889 264.335 424.467 266.41 423.001 268.478C420.552 271.931 417.989 275.341 416.382 277.431C413.469 273.169 408.675 265.454 404.346 257.453C401.977 253.076 399.756 248.629 398.062 244.628C396.357 240.603 395.221 237.112 394.96 234.618C394.924 234.278 394.971 233.636 395.133 232.68C395.29 231.751 395.54 230.61 395.863 229.315C396.51 226.727 397.434 223.577 398.439 220.389C400.075 215.2 401.91 209.969 403.082 206.95Z" fill="#84495B" stroke="#09203F" stroke-width="2"/>
<path d="M431.402 255.766C431.116 254.636 429.563 250.867 429.899 250.094C430.696 251.808 431.312 253.345 432.002 255.109C431.439 256.455 431.079 257.364 430.342 258.626L430.248 258.49C430.225 257.73 430.998 256.544 431.402 255.766Z" fill="#09203F"/>
<path d="M185.106 366.806C184.942 366.249 184.946 366.088 184.897 365.502L185.165 365.207L185.728 365.453C195.832 386.421 202.663 398.945 201.078 423.359C200.859 426.745 200.847 432.528 200.404 435.724C200.077 441.528 200.121 449.026 201.112 454.705L201.982 459.235C200.354 457.817 199.376 456.829 197.897 455.244C180.929 435.974 175.722 406.003 179.39 381.39C180.128 376.437 181.105 369.907 183.44 365.498L183.946 365.956L184.382 365.911C184.736 366.641 184.706 367.192 184.764 368.001L185.106 366.806Z" fill="#A3B9A6"/>
<path d="M183.44 365.498L183.946 365.955C176.604 391.886 178.585 422.304 192.259 445.685C193.924 448.532 196.061 452.271 198.154 454.739L197.897 455.243C180.929 435.974 175.722 406.002 179.39 381.39C180.128 376.437 181.105 369.907 183.44 365.498Z" fill="#09203F"/>
<path d="M185.108 366.806C184.944 366.249 184.948 366.088 184.898 365.502L185.167 365.207L185.73 365.453C195.834 386.421 202.665 398.945 201.08 423.359C200.861 426.745 200.849 432.528 200.406 435.724C200.006 435.114 199.807 434.648 199.156 434.352C199.223 426.636 199.812 419.237 199.485 411.448C198.978 399.384 195.601 388.285 190.062 377.613C188.479 374.562 187.262 370.924 185.559 368.055L185.108 366.806Z" fill="#09203F"/>
<path d="M185.108 366.805L185.559 368.054C185.599 372.565 186.056 377.823 186.365 382.405C187.219 396.628 188.872 410.792 191.316 424.829C191.849 427.972 193.064 435.599 194.191 438.474L193.882 438.955C186.86 415.38 184.849 392.421 184.766 367.999L185.108 366.805Z" fill="#09203F"/>
<path d="M199.153 434.352C199.804 434.648 200.003 435.114 200.403 435.724C200.076 441.527 200.12 449.026 201.111 454.705L200.42 455.158C198.818 449.193 198.996 440.559 199.153 434.352Z" fill="#09203F"/>
<path d="M201.114 454.707L201.983 459.236C200.356 457.819 199.378 456.831 197.898 455.245L198.156 454.741C199.117 455.82 200.121 456.919 201.062 458.01C200.874 457.208 200.534 455.935 200.423 455.161L201.114 454.707Z" fill="#09203F"/>
<path d="M194.192 438.475C194.866 440.772 195.521 443.075 196.159 445.383C195.275 443.825 194.277 440.736 193.883 438.956L194.192 438.475Z" fill="#09203F"/>
<path d="M334.615 142.811C338.137 151.316 337.595 162.471 335.416 171.212C332.522 182.825 323.654 192.65 313.742 198.809C314.106 199.187 314.493 199.561 314.889 199.961C315.351 200.428 315.814 200.923 316.208 201.46C319.093 201.07 322.106 200.752 324.658 199.619C335.176 194.949 339.791 183.053 341.921 172.304L342.912 172.391C343.191 185.108 336.325 199.979 322.759 203.281C321.266 203.645 319.856 203.729 318.416 203.772C321.965 207.52 325.505 212.843 328.929 219.027C332.615 225.686 336.182 233.372 339.498 241.221C346.13 256.918 351.767 273.304 355.33 283.502H355.329C359.646 295.763 363.903 308.044 368.098 320.348C373.193 335.272 378.545 349.945 383.852 364.745L386.121 371.098L386.123 371.102C392.179 388.554 398.486 405.919 405.042 423.189C406.7 427.454 408.806 432.053 410.886 436.671C412.962 441.282 415.011 445.91 416.541 450.207C417.109 451.803 420.17 458.22 423.116 464.372C424.583 467.436 426.016 470.423 427.082 472.686C427.615 473.816 428.058 474.769 428.368 475.462C428.523 475.808 428.647 476.093 428.732 476.305C428.775 476.41 428.81 476.503 428.836 476.578C428.849 476.616 428.861 476.655 428.871 476.692C428.878 476.72 428.895 476.786 428.896 476.861L428.898 477.183L428.606 477.318C428.209 477.504 427.898 477.556 427.562 477.544C427.409 477.538 427.255 477.519 427.106 477.501C426.953 477.483 426.791 477.464 426.597 477.45L426.491 477.442L426.397 477.394C426.081 477.226 425.759 476.875 425.455 476.481C425.136 476.068 424.783 475.537 424.412 474.931C423.67 473.717 422.835 472.168 422.026 470.588C420.813 468.217 419.648 465.756 418.928 464.214L418.37 463.016C409.248 443.345 400.994 423.283 393.635 402.887L392.92 400.898C389.36 390.932 386.013 380.568 382.556 370.557V370.556C377.579 356.596 372.699 342.6 367.919 328.571L367.918 328.569C355.118 290.399 342.951 249.028 322.405 214.14C318.046 206.737 311.571 202.99 304.916 197.881C282.156 203.785 261.647 204.232 238.335 205.158C231.963 205.411 222.484 205.221 216.537 205.879C210.325 212.139 204.747 218.973 197.288 224C196.066 224.824 195.053 225.375 194.069 225.879C193.422 226.211 192.797 226.518 192.132 226.869C197.647 228.417 201.492 230.617 205.671 234.778L206.688 235.791L205.262 235.63C201.328 235.183 195.118 234.492 189.21 233.188C186.256 232.535 183.363 231.726 180.86 230.712C178.365 229.701 176.217 228.469 174.787 226.95L174.733 226.894L174.7 226.823C174.622 226.66 174.58 226.472 174.553 226.328C174.54 226.262 174.53 226.197 174.521 226.137C172.389 224.8 170.653 223.615 169.256 222.123C167.806 220.575 166.738 218.718 165.928 216.064L165.843 215.786L166.043 215.574L166.566 215.021L167.03 214.531L167.364 215.118C171.053 221.608 179.164 226.722 186.475 226.306C188.135 226.211 190.054 225.465 192.103 224.274C194.143 223.088 196.27 221.484 198.34 219.726C202.481 216.207 206.346 212.109 208.78 209.579L208.789 209.57L208.799 209.562C209.613 208.797 210.544 207.871 211.548 206.876C212.549 205.883 213.619 204.824 214.703 203.801C216.859 201.765 219.113 199.826 221.024 198.832L222.676 197.973L221.677 199.544C220.649 201.16 219.698 202.374 218.575 203.733L251.386 201.569L251.389 201.568C258.542 201.136 266.372 200.932 273.277 200.211C281.859 199.315 291.529 198.532 300.484 196.137C309.433 193.743 317.6 189.754 323.202 182.496C332.606 170.311 335.166 157.936 333.656 143.053L334.615 142.811Z" fill="#09203F" stroke="#09203F"/>
<path d="M174.973 225.836C179.818 227.878 185.377 228.987 190.457 227.251L190.793 227.031C196.89 228.577 200.903 230.742 205.313 235.134C197.438 234.24 180.577 232.379 175.146 226.608C175.049 226.407 175.016 226.077 174.973 225.836Z" fill="#A3B9A6"/>
<path d="M327.656 113.196C331.555 107.216 337.711 103.206 340.896 95.916C344.199 89.6976 342.8 82.7591 344.679 76.2508C349.848 58.338 370.046 53.495 386.012 50.0636C390.549 49.0889 394.213 48.0457 398.702 48.0547L396.929 48.564C390.306 48.9695 379.175 56.6904 374.958 61.4977C370.689 66.3649 367.716 74.3881 365.478 80.5122C368.623 78.9293 370.606 77.7062 373.451 75.6255C372.029 79.5309 370.069 83.4806 368.677 86.9891C363.314 100.506 354.985 106.602 340.595 108.396C339.838 108.491 337.916 108.784 337.201 109.198C336.407 109.333 336.044 109.406 335.276 109.641L335.104 110.155C332.117 110.206 330.45 111.952 327.876 113.101L327.656 113.196Z" fill="#09203F"/>
<path d="M234.812 400.742L238.325 403.706C253.597 416.886 266.266 432.314 268.097 453.293C268.421 457.002 268.047 468.756 266.14 471.952C265.265 471.839 262.45 467.321 261.759 466.361C252.467 453.432 240.582 441.421 236.463 425.599C234.684 418.858 234.411 413.049 233.824 406.237C234.309 404.627 233.503 403.731 233.434 402.242C234.445 403.161 233.796 404.344 234.801 405.578C234.685 404.6 234.624 403.777 234.571 402.794L234.74 402.481L234.462 401.905L234.767 401.897C234.804 401.672 234.805 401.007 234.812 400.742Z" fill="#A3B9A6"/>
<path d="M234.574 402.793C248.915 421.919 258.942 446.075 264.916 469.152L264.93 469.404C256.304 454.852 243.303 443.603 238.37 427.041C237.026 422.763 236.385 418.393 235.826 413.966C235.512 411.481 235.498 407.922 234.804 405.576C234.688 404.599 234.627 403.776 234.574 402.793Z" fill="#A3B9A6"/>
<path d="M233.824 406.235C234.309 404.626 233.503 403.73 233.434 402.24C234.445 403.159 233.796 404.342 234.801 405.576C235.495 407.921 235.509 411.481 235.823 413.966C236.382 418.393 237.022 422.763 238.366 427.041C243.3 443.603 256.301 454.852 264.927 469.403L264.912 469.152L265.423 468.744C266.908 467.046 266.942 455.874 266.713 453.197C264.946 432.52 253.41 417.471 238.102 404.298L238.325 403.705C253.597 416.884 266.266 432.313 268.097 453.291C268.421 457 268.047 468.755 266.14 471.95C265.265 471.837 262.45 467.32 261.759 466.359C252.467 453.431 240.582 441.419 236.463 425.598C234.684 418.857 234.411 413.047 233.824 406.235Z" fill="#09203F"/>
<path d="M234.743 402.48C249.405 419.819 260.241 446.757 265.427 468.746L264.916 469.153C258.942 446.076 248.915 421.92 234.574 402.794L234.743 402.48Z" fill="#09203F"/>
<path d="M234.811 400.742L238.323 403.706L238.101 404.3C237.127 403.522 235.86 402.341 234.766 401.897C234.803 401.672 234.804 401.007 234.811 400.742Z" fill="#09203F"/>
<path d="M94.308 329.069C92.1221 318.574 93.2044 304.812 96.4903 294.76C102.833 275.357 114.437 267.724 131.236 259.014L131.197 259.731L130.561 260.595C130.921 261.363 130.915 261.355 130.368 262.149L130.625 262.366C130.902 262.085 130.981 261.986 131.295 261.748L131.355 261.762C131.142 262.765 131.058 262.33 131.424 263.134C126.924 285.553 115.838 297.557 103.706 316.122C101.102 320.107 98.3819 325 96.0804 329.184L95.4854 328.576L95.0048 328.663L94.308 329.069Z" fill="#A3B9A6"/>
<path d="M94.308 329.069C92.1221 318.574 93.2044 304.812 96.4903 294.76C102.833 275.357 114.437 267.724 131.236 259.014L131.197 259.731C128.794 260.873 126.423 262.559 124.133 263.89C112.588 270.606 103.054 280.336 98.5714 293.16C94.8343 303.85 93.8202 317.285 95.0048 328.663L94.308 329.069Z" fill="#09203F"/>
<path d="M130.62 262.366C130.897 262.085 130.976 261.986 131.291 261.748L131.35 261.762C131.137 262.765 131.053 262.33 131.419 263.134C126.92 285.553 115.833 297.557 103.701 316.122C101.097 320.107 98.377 325.001 96.0755 329.185L95.4805 328.576C105.171 306.958 123.835 290.523 129.3 267.066C129.609 265.741 130.028 264.054 130.467 262.798L130.62 262.366Z" fill="#09203F"/>
<path d="M130.558 260.596C130.918 261.363 130.913 261.356 130.365 262.149C119.743 273.714 105.327 289.171 100.394 304.401L100.016 304.15C104.278 288.184 118.898 271.669 130.558 260.596Z" fill="#09203F"/>
<path d="M100.392 304.401C99.9061 306.094 99.8826 308.551 99.3896 309.59L99.2461 309.344C99.3298 307.472 99.3454 305.933 100.013 304.15L100.392 304.401Z" fill="#09203F"/>
<path d="M379.128 167.873C380.204 169.232 381.576 171.24 382.938 173.341C384.625 175.941 386.252 178.603 387.216 180.168C389.764 184.309 393.182 189.603 395.304 193.846C394.634 195.209 393.133 198.17 391.598 201.047C390.734 202.665 389.866 204.247 389.135 205.497C388.769 206.123 388.442 206.657 388.171 207.067C387.882 207.505 387.705 207.726 387.635 207.792L387.529 207.892L387.457 208.018C386.966 208.867 386.475 209.749 385.911 210.567C385.419 211.282 384.905 211.896 384.351 212.348C384.285 212.328 384.193 212.291 384.071 212.216C383.798 212.048 383.484 211.766 383.155 211.396C382.5 210.656 381.93 209.728 381.664 209.195C377.572 200.994 373.425 192.45 369.601 184.121C370.211 183.017 370.909 181.716 371.654 180.33C372.505 178.747 373.424 177.046 374.367 175.373C375.989 172.495 377.649 169.764 379.128 167.873Z" fill="#84495B" stroke="#09203F" stroke-width="2"/>
<path d="M384.691 213.348C384.895 212.626 387.475 209.066 388.323 208.52C387.365 210.177 386.258 212.23 384.691 213.348Z" fill="#09203F"/>
<path d="M360.078 134.393C360.312 134.778 360.578 135.255 360.865 135.809C361.574 137.172 362.391 138.931 363.207 140.762C364.021 142.589 364.827 144.474 365.512 146.084C366.192 147.685 366.76 149.033 367.088 149.762C368.569 153.055 370.845 157.787 372.269 161.184C371.627 162.744 370.614 164.646 369.533 166.615C368.384 168.709 367.163 170.879 366.348 172.658C365.996 173.425 365.572 174.271 365.057 174.977C364.669 175.508 364.273 175.895 363.879 176.128C363.495 175.799 363.081 175.313 362.646 174.672C362.07 173.822 361.51 172.782 360.97 171.667C360.431 170.554 359.924 169.396 359.447 168.308C358.976 167.233 358.527 166.209 358.116 165.414C355.86 161.05 353.55 156.762 351.199 152.457C353.686 146.619 356.707 139.652 360.078 134.393Z" fill="#84495B" stroke="#09203F" stroke-width="2"/>
<path d="M316.463 40.5405C316.589 38.4161 316.535 36.2847 316.301 34.1695C316.073 31.9384 315.374 29.0209 315.581 26.8598C316.115 24.5865 319.43 24.2717 321.107 24.4729C327.167 25.1999 333.134 27.616 337.11 32.3618C340.754 36.7109 340.987 39.4861 336.166 42.9063C334.091 44.3787 331.319 46.4295 328.991 47.5409L328.604 47.4663L327.579 48.5357C329.681 44.9993 324.261 44.0072 321.975 41.9893C320.037 41.4311 319.825 40.1009 317.163 40.8246L316.945 40.4294L316.463 40.5405Z" fill="#09203F"/>
<path d="M290.254 12.9727C286.844 15.7317 284.597 17.5457 281.452 20.5687L281.483 14.7243C281.323 14.8797 281.165 15.0374 281.009 15.1972C277.274 19.044 273.353 32.4166 277.068 36.3798C278.729 35.532 279.381 32.36 280.578 32.3009L280.738 33.2073C280.974 32.974 281.551 29.6674 281.926 28.6139L282.066 28.8141C281.736 30.4419 281.389 32.7218 282.577 34.0495C284.161 35.1076 283.58 38.0631 286.181 37.8425L286.888 37.2556L287.377 36.9275C288.171 36.3925 288.968 35.5305 289.809 35.3288C289.869 36.3396 289.854 36.7527 290.134 37.7055C290.744 37.978 290.432 37.9363 291.097 37.7157C291.78 37.6061 293.748 37.278 294.206 37.4079C294.812 38.2374 295.159 39.0016 295.62 39.9156C297.114 37.3213 299.613 35.019 300.611 32.9556C300.055 32.6759 300.018 32.7213 299.682 32.199C299.689 30.7985 302.508 27.1909 303.512 25.4724C300.735 25.9724 297.456 27.2225 294.587 27.9928C295.782 25.615 297.265 24.6831 298.391 22.6701L298.224 22.4716C296.362 23.0485 293.27 25.6136 291.722 24.9055C290.839 22.8823 294.442 17.5429 296.123 16.2847C291.472 17.1174 291.884 18.3075 289.149 19.106L288.891 18.7579C289.015 17.0567 289.791 14.6928 290.254 12.9727Z" fill="#09203F"/>
<path d="M331.744 12.9727C327.968 15.7317 325.48 17.5457 321.999 20.5687L322.033 14.7243C321.855 14.8797 321.68 15.0374 321.508 15.1972C317.373 19.044 313.031 32.4166 317.145 36.3798C318.984 35.532 319.706 32.36 321.031 32.3009L321.208 33.2073C321.469 32.974 322.109 29.6674 322.524 28.6139L322.679 28.8141C322.313 30.4419 321.929 32.7218 323.244 34.0495C324.998 35.1076 324.354 38.0631 327.235 37.8425L328.017 37.2556L328.559 36.9275C329.437 36.3925 330.32 35.5305 331.251 35.3288C331.318 36.3396 331.301 36.7527 331.611 37.7055C332.287 37.978 331.941 37.9363 332.677 37.7157C333.433 37.6061 335.612 37.278 336.12 37.4079C336.79 38.2374 337.175 39.0016 337.685 39.9156C339.339 37.3213 342.106 35.019 343.211 32.9556C342.595 32.6759 342.554 32.7213 342.181 32.199C342.19 30.7985 345.311 27.1909 346.422 25.4724C343.348 25.9724 339.718 27.2225 336.54 27.9928C337.864 25.615 339.506 24.6831 340.753 22.6701L340.567 22.4716C338.506 23.0485 335.083 25.6136 333.369 24.9055C332.391 22.8823 336.38 17.5429 338.241 16.2847C333.093 17.1174 333.548 18.3075 330.521 19.106L330.235 18.7579C330.372 17.0567 331.231 14.6928 331.744 12.9727Z" fill="#09203F"/>
<path d="M316.463 40.5405C316.589 38.4161 316.535 36.2847 316.301 34.1695C316.073 31.9384 315.374 29.0209 315.581 26.8598C316.115 24.5865 319.43 24.2717 321.107 24.4729C327.167 25.1999 333.134 27.616 337.11 32.3618C340.754 36.7109 340.987 39.4861 336.166 42.9063C334.091 44.3787 331.319 46.4295 328.991 47.5409L328.604 47.4663C331.222 45.4149 339.404 41.2271 339.321 37.7273C339.151 30.5025 320.804 21.3083 316.156 26.62C316.075 28.5534 316.635 32.1479 316.862 34.2616C317.11 36.5596 316.801 38.5808 316.945 40.4294L316.463 40.5405Z" fill="#09203F"/>
<path d="M316.949 40.4305C318.254 40.2094 321.637 40.4644 321.98 41.9904C320.041 41.4322 319.83 40.1021 317.167 40.8257L316.949 40.4305Z" fill="#09203F"/>
<path d="M261.336 132.24C263.494 130.925 267.528 128.698 269.062 126.82C274.027 120.615 274.216 110.777 285.163 113.333C291.375 114.784 294.544 118.049 297.86 123.279C299.825 126.379 301.612 127.609 304.954 128.843C300.018 129.3 296.618 122.743 293.919 119.564C291.457 116.665 286.388 113.908 282.563 114.208C276.914 114.652 274.661 119.972 272.781 124.469C274.604 125.253 278.89 127.176 280.681 127.552C289.279 129.356 300.053 129.948 308.747 129.369C305.524 131.661 303.959 130.771 300.33 134.277C299.717 134.049 299.502 134.15 298.901 134.359C296.758 135.053 294.621 136.507 292.546 137.114C287.391 138.625 281.108 138.919 276.187 136.439C269.753 132.922 268.546 132.434 261.336 132.24Z" fill="#09203F"/>
<path d="M310.538 161.77C313.813 161.715 323.338 168.759 325.879 171.167C323.916 175.78 320.126 180.733 316.328 184.056C315.502 184.685 314.552 185.113 313.622 185.587C311.026 183.323 303.417 173.758 301.598 170.665C303.431 167.447 307.431 163.814 310.538 161.77Z" fill="#09203F"/>
<path d="M310.633 162.273C313.418 162.414 322.871 169.311 325.191 171.333C322.962 176.091 319.879 180.559 315.744 183.833C315.142 184.263 314.39 184.65 313.734 185.018L313.59 184.884C312.355 183.752 302.259 171.222 302.5 170.486C303.172 168.438 308.506 163.526 310.633 162.273Z" fill="#84495B"/>
<path d="M294.903 174.836C296.863 175.465 306.008 187.541 307.108 189.87C306.732 190.332 306.331 190.773 305.906 191.19C303.346 193.692 300.537 194.285 297.127 194.249C294.905 194.237 293.068 193.847 290.951 193.264C289.384 191.52 285.176 185.123 284.27 182.983C286.809 179.416 291.113 177.042 294.903 174.836Z" fill="#09203F"/>
<path d="M294.595 176.074C295.252 176.185 295.416 176.092 295.874 176.626C297.174 178.139 298.48 179.854 299.716 181.416C301.969 184.285 304.3 187.092 306.706 189.835C303.491 193.042 301.721 193.742 297.243 193.73C295.102 193.693 293.239 193.291 291.174 192.789C284.746 182.067 281.279 183.014 294.595 176.074Z" fill="#84495B"/>
<path d="M278.289 37.591C276.47 35.9954 274.69 29.3168 275.404 27.2715C276.766 23.3682 287.935 25.7736 290.445 26.5199C294.098 27.4865 296.164 28.6135 299.12 30.9377C299.002 33.5835 294.273 39.8295 291.401 40.2853C290.951 40.2268 289.816 40.2066 289.314 40.1846C285.27 39.5352 282.846 38.6922 278.996 37.411L278.289 37.591Z" fill="#09203F"/>
<path d="M278.289 37.591C276.47 35.9954 274.69 29.3168 275.404 27.2715C276.766 23.3682 287.935 25.7736 290.445 26.5199C288.507 27.4503 281.917 24.1786 275.738 27.0343C275.849 30.5666 276.586 34.6852 278.996 37.411L278.289 37.591Z" fill="#09203F"/>
<path d="M348.814 165.177L348.844 165.254L348.885 165.325C350.001 167.264 351.54 170.349 352.452 172.45L352.482 172.52L352.523 172.584C353.067 173.449 354.056 175.504 355.014 177.667C355.843 179.541 356.607 181.404 356.997 182.523C356.626 183.067 356.058 183.911 355.521 184.71C355.16 185.246 354.808 185.766 354.523 186.178C354.381 186.384 354.257 186.559 354.16 186.693C354.111 186.761 354.071 186.815 354.04 186.856C354.009 186.897 353.995 186.914 353.993 186.916L353.931 186.986L353.883 187.066C352.818 188.852 350.908 191.791 348.853 194.525C347.825 195.892 346.77 197.196 345.775 198.274C345.449 198.628 345.133 198.951 344.832 199.241C346.312 188.511 348.072 175.894 348.656 164.798C348.714 164.926 348.768 165.052 348.814 165.177Z" fill="#84495B" stroke="#09203F" stroke-width="2"/>
<path d="M343.701 200.126C347.161 199.893 353.305 188.073 354.742 187.578C352.579 191.205 347.02 199.451 343.673 201.456C343.504 200.832 343.592 200.829 343.701 200.126Z" fill="#09203F"/>
<path d="M353.374 172.052C353.027 172.011 352.623 172.014 352.473 171.589C351.943 170.082 349.623 166.202 349.755 164.826C350.892 166.8 352.448 169.918 353.374 172.052Z" fill="#09203F"/>
<path d="M312.983 151.557C312.817 151.149 312.821 151.123 312.743 150.705C311.247 142.703 314.234 137.321 322.266 143.333C324.757 144.767 329.109 146.819 329.999 149.549C330.168 150.066 330.001 151.69 329.95 152.298C329.868 154.884 329.14 158.093 328.361 160.562C327.299 160.366 326.346 160.28 325.411 159.763C321.631 158.943 313.846 155.82 312.983 151.557Z" fill="#84495B"/>
<path d="M322.266 143.332C324.757 144.766 329.109 146.818 329.999 149.548C330.168 150.065 330.001 151.689 329.95 152.297C329.704 146.776 326.404 147.259 322.589 144.327C322.149 143.989 322.307 143.901 322.266 143.332Z" fill="#09203F"/>
<path d="M312.98 151.559L313.371 151.621C314.634 156.795 322.876 157.403 325.409 159.764C321.628 158.944 313.844 155.821 312.98 151.559Z" fill="#09203F"/>
<path d="M302.73 144.332L303.352 144.402C304.731 145.548 307.26 153.372 307.521 155.415C305.899 157.926 300.826 162.865 298.279 164.48C296.543 165.58 295.894 165.782 294.022 165.318C292.404 164.663 290.31 163.64 289.153 162.296C287.838 160.847 289.509 158.458 290.488 157.191C294.007 152.637 298.104 147.72 302.73 144.332Z" fill="#09203F"/>
<path d="M302.663 145.309C304.838 146.59 306.363 152.696 306.989 155.115C305.512 157.278 300.693 162.018 298.557 163.565C296.771 164.859 295.962 165.061 293.93 164.676C292.546 164.14 288.669 162.412 289.354 160.678C291.163 156.1 298.731 148.092 302.663 145.309Z" fill="#84495B"/>
<path d="M249.461 171.939C251.328 170.719 253.8 172.957 254.828 174.418C257.183 176.955 262.148 181.464 260.19 185.147C257.674 187.385 247.859 188.388 244.966 187.596C240.122 187.064 240.432 182.708 242.778 179.466L243.411 178.643C244.632 177.219 248.212 172.847 249.461 171.939Z" fill="#84495B"/>
<path d="M260.19 185.147C260.382 179.039 255.036 176.712 254.828 174.418C257.183 176.956 262.149 181.464 260.19 185.147Z" fill="#09203F"/>
<path d="M242.778 179.467C242.575 181.363 240.515 183.286 242.04 185.51C242.629 186.369 244.044 186.966 244.972 187.292L244.966 187.597C240.122 187.064 240.432 182.709 242.778 179.467Z" fill="#09203F"/>
<path d="M249.461 171.938L249.532 172.303C248.646 173.452 244.53 178.445 243.41 178.641C244.631 177.218 248.211 172.846 249.461 171.938Z" fill="#09203F"/>
<path d="M278.6 164.137C278.94 164.148 279.637 164.217 279.942 164.339C293.952 169.952 295.443 171.253 281.193 176.91C275.492 178.827 272.628 180.01 269.965 173.564C271.469 170.843 276.153 166.281 278.6 164.137Z" fill="#09203F"/>
<path d="M278.911 164.617C281.393 165.16 290.674 168.827 290.704 171.372C289.406 172.971 283.996 175.263 281.897 176.137C279.812 176.938 275.79 178.444 273.693 177.55C271.905 176.788 271.402 175.231 270.668 173.575C272.389 171.006 276.56 166.998 278.911 164.617Z" fill="#84495B"/>
<path d="M353.337 125.999C353.073 126.882 352.757 127.889 352.417 128.892C351.779 130.776 351.097 132.552 350.596 133.47L350.542 133.567L350.512 133.675C350.328 134.32 349.108 137.433 347.829 140.55C347.197 142.09 346.562 143.603 346.052 144.771C345.796 145.357 345.574 145.85 345.401 146.215C345.339 146.345 345.283 146.454 345.237 146.544L345.066 146.605L344.703 146.716C344.234 146.561 343.784 146.084 343.42 145.016C343.016 143.831 342.828 142.206 342.784 140.407C342.702 137.066 343.111 133.455 343.28 131.548C343.743 131.151 344.432 130.669 345.291 130.136C346.313 129.502 347.522 128.828 348.764 128.184C350.375 127.347 352.013 126.572 353.337 125.999Z" fill="#84495B" stroke="#09203F" stroke-width="2"/>
<path d="M345.383 147.557C345.418 147.363 346.393 145.153 346.546 144.774C348.017 141.083 349.557 137.419 351.166 133.785L351.475 133.951C351.068 135.379 346.482 146.665 345.924 147.363L345.383 147.557Z" fill="#09203F"/>
<path d="M103.949 219.617C114.231 222.748 118.873 224.945 126.311 232.869C131.644 234.718 141.261 234.793 146.84 234.046L147.239 234.354L147.29 234.828C141.946 235.766 137.116 235.978 131.735 234.998C129.309 234.556 126.783 233.835 124.338 233.663C114.689 233.941 106.766 229.167 103.949 219.617Z" fill="#09203F"/>
<path d="M104.668 220.27C106.963 221.058 114.053 223.782 115.912 225.141C118.328 226.624 123.057 230.087 124.588 232.501L124.637 232.674L125.538 233.186L124.783 233.115C118.15 234.986 108.292 228.701 105.835 222.594L104.668 220.27Z" fill="#A3B9A6"/>
<path d="M115.91 225.143C118.326 226.625 123.055 230.088 124.586 232.503C122.734 231.932 118.801 229.72 117.084 228.746C115.88 226.764 116.193 227.905 115.91 225.143Z" fill="#A3B9A6"/>
<path d="M109.168 224.268C111.254 225.125 114.751 227.523 117.086 228.746C118.802 229.72 122.736 231.932 124.588 232.502L124.638 232.676C121.982 232.546 111.436 226.233 109.168 224.268Z" fill="#09203F"/>
<path d="M126.309 232.867C131.641 234.717 141.258 234.791 146.838 234.045L147.237 234.352L147.287 234.827C141.943 235.765 137.114 235.976 131.732 234.996C129.306 234.555 126.78 233.833 124.336 233.662L124.783 233.116L125.538 233.186L126.309 232.867Z" fill="#09203F"/>
<path d="M270.168 188.614C272.045 187.82 274.852 187.196 276.868 186.734C277.504 187.329 278.613 188.291 279.106 188.94C281.015 190.88 284.581 193.381 281.369 195.809C278.978 197.617 269.691 199.011 267.459 197.315L267.11 196.609C266.025 195.626 264.095 192.44 264.548 190.834C265.599 189.451 268.333 189.084 270.168 188.614Z" fill="#84495B"/>
<path d="M267.113 196.607C269.549 198.476 278.902 197.15 281.294 195.204C283.14 193.703 280.028 190.553 278.971 189.308L279.11 188.938C281.018 190.877 284.584 193.379 281.372 195.807C278.981 197.615 269.695 199.009 267.463 197.313L267.113 196.607Z" fill="#09203F"/>
<path d="M270.169 188.613L270.231 188.959C268.291 189.863 266.04 190.345 264.258 191.211C265.014 192.536 266.906 195.36 267.11 196.608C266.026 195.625 264.095 192.439 264.549 190.833C265.599 189.45 268.334 189.083 270.169 188.613Z" fill="#09203F"/>
<path d="M280.45 147.819C287.302 147.184 291.202 149.521 285.741 155.798C283.676 156.027 282.476 156.239 280.445 156.698C276.5 157.639 274.653 158.709 273.222 154.203C271.778 149.655 277.253 148.539 280.45 147.819Z" fill="#09203F"/>
<path d="M280.259 148.531C286.141 148.204 290.334 148.849 285.652 155.222C283.836 155.385 283.065 155.477 281.306 155.908C275.154 157.366 274.591 157.886 273.395 151.487C275.788 149.908 277.479 149.112 280.259 148.531Z" fill="#84495B"/>
<path d="M278.5 103.588C281.648 103.171 285.253 103.513 288.262 104.51C294.813 106.683 304.314 115.784 307.247 121.734C304.852 119.079 302.416 116.242 299.725 113.912C291.209 106.26 282.997 107.243 272.08 108.076C270.222 108.217 267.552 109.307 265.816 109.973C269.528 106.551 273.551 104.445 278.5 103.588Z" fill="#09203F"/>
<path d="M263.995 159.065C264.365 158.74 264.865 158.143 265.43 158.365C269.72 160.053 272.39 163.119 268.093 166.89C267.412 167.489 266.667 168.498 265.88 169.042C265.152 169.822 264.449 170.65 263.602 171.288C263.024 171.812 262.757 171.842 261.948 171.663C259.822 170.529 258.613 169.661 257.336 167.597C258.424 165.118 261.933 160.735 263.995 159.065Z" fill="#84495B"/>
<path d="M263.992 159.065C264.362 158.74 264.862 158.143 265.427 158.365C269.717 160.053 272.387 163.119 268.09 166.89C267.409 167.489 266.665 168.498 265.877 169.042C265.15 169.822 264.446 170.65 263.599 171.288C263.021 171.812 262.754 171.842 261.945 171.663L262.071 171.356C264.156 170.759 268.635 165.198 269.987 163.255C268.412 161.039 266.967 158.739 263.992 159.065Z" fill="#09203F"/>
<path d="M263.602 171.289C264.186 170.16 264.764 169.614 265.88 169.043C265.152 169.823 264.448 170.651 263.602 171.289Z" fill="#09203F"/>
<path d="M339.163 149.84C341.573 160.42 342.434 169.165 337.902 179.415C333.763 188.779 327.962 194.339 318.986 198.911C318.707 198.969 318.413 198.996 318.129 199.032C318.204 198.755 323.183 194.89 323.879 194.281C325.406 192.944 326.848 191.514 328.197 189.998C339.364 177.461 340.112 165.544 339.163 149.84Z" fill="#09203F"/>
<path d="M389.591 79.4219C385.878 91.3319 377.561 101.262 366.491 107.003C359.861 110.455 352.303 111.691 344.883 111.113C341.655 110.862 338.342 110.262 335.102 110.157L335.274 109.644C336.042 109.409 336.405 109.336 337.199 109.201C340.845 109.306 343.659 109.794 347.516 109.774C358.37 109.811 368.82 105.657 376.688 98.1761C383.513 91.7764 385.352 87.1004 389.591 79.4219Z" fill="#09203F"/>
<path d="M328.7 46.9775L329.088 47.0527L329.947 47.2178L329.369 47.874C328.623 48.7215 328.008 49.9568 327.511 51.4443C327.015 52.9259 326.648 54.6238 326.373 56.3662C325.824 59.8514 325.658 63.4713 325.59 65.8135C325.405 72.1238 326.501 78.5101 327.106 84.8721C329.237 83.8313 330.322 83.4626 332.911 82.9336L334.026 82.7061L333.439 83.6816C333.34 83.8465 333.255 84.0024 333.167 84.1611C333.081 84.3158 332.991 84.4759 332.892 84.6279C332.686 84.9421 332.43 85.2343 332.029 85.4648L331.915 85.5303L331.783 85.5312C330.915 85.5365 329.836 86.0133 328.751 86.7188C327.683 87.4127 326.683 88.2788 325.991 88.9551C323.022 91.8571 320.672 97.0425 320.609 101.195L320.603 101.628L320.174 101.684L319.526 101.768L318.988 101.838L318.963 101.296C318.802 97.886 319.305 95.3609 320.396 93.0742C321.452 90.8591 323.048 88.8943 325.045 86.5898C324.833 84.761 324.543 82.912 324.247 81.0479C323.94 79.1143 323.628 77.1633 323.401 75.2227V75.2217C322.839 70.3095 322.791 65.3524 323.26 60.4307L323.267 60.3652L323.289 60.3047C323.303 60.2663 323.317 60.2275 323.331 60.1904C323.339 60.17 323.346 60.1499 323.354 60.1299C323.944 56.0523 324.927 51.8785 327.155 48.2754L327.184 48.2305L327.22 48.1924L328.245 47.123L328.434 46.9268L328.7 46.9775Z" fill="#09203F" stroke="#09203F"/>
<path d="M249.222 194.675C250.602 194.511 253.431 193.929 254.561 194.789C255.873 195.882 255.844 198.08 254.528 199.114C253.243 200.124 250.993 200.631 249.382 200.572C246.942 200.483 242.463 201.487 240.784 199.458C236.821 194.889 246.789 194.815 249.222 194.675Z" fill="#84495B"/>
<path d="M249.22 194.675C250.599 194.511 253.428 193.929 254.558 194.789C255.87 195.882 255.842 198.08 254.525 199.114C253.24 200.124 250.99 200.631 249.38 200.572C246.939 200.483 242.46 201.487 240.781 199.458C242.039 199.769 242.636 200.096 243.968 200.043C246.439 199.944 258.32 200.833 253.806 195.337C252.875 194.914 250.908 194.876 249.834 194.849L249.391 194.84L249.22 194.675Z" fill="#09203F"/>
<path d="M252.192 127.618C243.645 137.523 236.828 144.505 224.887 150.456C221.595 152.097 216.462 154.519 213.484 156.26C213.691 155.47 218.399 152.671 219.453 152.147C232.789 145.524 241.459 137.739 251.822 127.242L252.192 127.618Z" fill="#09203F"/>
<path d="M245.093 145.129L245.353 145.418C242.315 150.432 236.048 156.649 231.651 160.349C231.476 160.211 231.587 160.321 231.461 159.919C233.75 155.192 240.534 148.016 245.093 145.129Z" fill="#09203F"/>
<path d="M300.331 134.278C293.637 141.514 281.711 142.973 273.256 137.772C272.4 137.245 269.016 134.848 268.824 133.982C269.441 134.15 271.015 135.473 271.676 135.92C280.388 141.813 291.028 141.179 298.902 134.359C299.503 134.15 299.719 134.05 300.331 134.278Z" fill="#09203F"/>
<path d="M217.379 189.196C217.876 187.85 218.25 186.842 218.564 185.441C218.919 183.852 218.704 182.041 219.348 180.666L219.739 180.496C222.136 182.224 220.032 187.995 217.644 189.687L217.379 189.196Z" fill="#09203F"/>
<path d="M95.4821 328.576L96.0771 329.185L94.8291 331.277L94.3047 329.069L95.0015 328.664L95.4821 328.576Z" fill="#09203F"/>
<path d="M398.699 48.0549C399.386 48.0426 399.918 47.9693 400.555 48.2149C399.369 48.6708 398.203 48.5808 396.926 48.5642L398.699 48.0549Z" fill="#09203F"/>
<path d="M319.461 101.271L320.108 101.188C320.176 102.339 320.084 103.739 320.044 104.91C319.813 103.733 319.643 102.463 319.461 101.271Z" fill="#09203F"/>
<path d="M251.824 127.242C252.751 126.304 253.292 125.682 254.4 124.945C253.734 125.772 252.905 126.868 252.194 127.618L251.824 127.242Z" fill="#09203F"/>
</g>
<defs>
<clipPath id="clip0_4051_18927">
<rect width="543" height="472" fill="white"/>
</clipPath>
</defs>
</svg>
