<svg width="628" height="472" viewBox="0 0 628 472" fill="none" xmlns="http://www.w3.org/2000/svg">
<g clip-path="url(#clip0_4051_18821)">
<path d="M291.624 4.57146C290.967 3.12388 289.775 1.2619 291.4 0.130035C293.762 -0.0465929 297.099 2.43467 298.839 3.93601C299.513 4.52456 300.157 5.14648 300.768 5.79944C300.27 3.94071 299.465 2.11524 300.251 0.422918C303.064 -1.28893 308.479 7.55973 309.264 9.80631C310.955 14.6493 310.238 18.5615 310.423 23.5401C312.829 32.6664 322.183 47.6628 327.603 55.0373C336.339 48.9885 348.646 40.8957 359.523 40.0409C361.114 39.9159 362.378 42.1176 361.977 43.6396C359.234 54.0782 357.655 67.5144 351.528 76.4325C357.766 78.7643 365.71 81.2862 368.779 87.7909C370.302 91.0198 370.798 97.6708 369.329 100.877C372.356 104.736 378.613 111.089 382.529 114.244L382.762 113.985C385.191 111.239 387.579 106.191 388.915 104.862L389.175 104.993C389.353 109.061 386.756 113.062 383.58 115.424C399.095 130.086 419.93 145.806 439.016 155.684C441.517 156.979 447.922 159.462 450.521 159.781C459.05 160.829 462.02 158.595 469.039 165.053C476.53 171.944 475.524 179 477.229 187.961C485.802 195.831 493.515 206.254 493.864 218.253C494.471 239.115 472.251 235.094 459.441 231.206C455.382 233.31 452.17 234.954 447.645 236.009C433.128 239.393 422.492 231.35 412.984 221.333C401.03 218.954 384.023 220.41 372.01 222.462C345.524 226.985 320.904 237.199 293.653 231.454C291.902 235.763 290.585 240.293 289.033 244.683C274.398 286.082 267.559 329.791 257.048 372.307C251.905 393.093 246.245 413.748 240.074 434.253C237.24 443.883 234.23 453.46 231.048 462.981C228.157 471.717 225.481 479.967 221.515 488.305C221.718 484.834 222.155 481.767 223.093 478.402C208.766 477.75 193.277 478.668 178.784 478.024C178.252 478.614 178.091 478.884 177.352 479.199L176.951 478.936C176.136 474.6 184.332 458.805 187.676 455.311C195.029 447.63 204.438 456.942 212.12 459.244C217.989 461.002 221.24 461.154 227.289 461.176C229.806 452.073 232.467 443.01 235.27 433.992C223.195 437.062 212.107 427.432 204.799 418.977C199.083 412.627 195.442 402.869 199.274 394.621C203.403 385.733 208.077 377.25 210.55 367.624C211.251 365.594 211.987 362.658 213.014 360.8C218.181 351.446 229.68 368.808 234.613 371.485C240.692 374.783 244.276 375.974 250.771 376.841C251.454 373.186 252.489 369.589 253.386 365.975C254.528 361.222 255.636 356.461 256.711 351.692C249.197 351.482 244.564 349.389 238.452 344.888C233.613 341.325 228.436 336.02 227.731 329.7C227.179 321.789 232.545 313.842 235.435 306.666C238.376 299.363 239.741 293.339 240.678 285.549C240.99 282.955 241.99 279.964 243.637 277.839C245.379 275.592 249.025 275.172 251.519 276.513C255.879 279.513 259.018 284.815 262.776 288.542C265.075 290.822 267.542 292.784 269.946 294.893C271.656 286.744 273.689 280.354 275.66 272.441C275.193 271.911 274.734 271.374 274.284 270.83C270.961 266.798 268.603 262.2 266.537 257.348C259.179 240.061 255.115 221.611 253.677 202.908C253.472 200.234 253.548 197.546 253.645 194.853C253.729 192.508 254.223 189.952 253.927 187.594C251.585 176.66 248.924 166.308 250.036 154.956C251.366 158.206 252.522 164.181 253.555 167.824C257.054 180.175 260.254 193.934 267.396 204.763C270.777 209.89 278.02 217.667 283.274 220.918C306.153 235.075 335.169 225.049 359.347 220.491C376.131 217.327 393.986 215.198 410.844 218.544C407.477 214.893 402.503 206.905 401.79 201.82C408.861 212.434 419.778 226.26 431.242 231.618C437.913 234.736 443.229 234.168 449.984 231.922C450.396 231.214 450.396 230.884 450.979 230.689L450.852 231.624C451.461 231.666 454.541 230.504 455.443 230.216C452.737 228.847 449.421 228.06 446.683 226.805C430.925 219.586 408.589 205.145 403.812 187.768C399.666 190.199 397.359 192.801 394.087 196.232C394.79 193.103 395.293 190.987 397.36 188.361C399.761 185.301 403.315 183.363 407.188 183C410.448 182.719 413.28 183.64 415.734 185.782C411.35 185.396 409.416 185.803 405.198 187.133C410.482 199.598 427.726 211.984 439.85 218.142C450.193 223.396 471.584 233.422 483.339 230.099C485.151 229.587 487.852 227.775 488.493 225.965C491.74 216.808 485.609 203.513 480.811 195.866C479.314 193.481 476.168 190.323 475.366 188.606C473.534 184.69 472.922 179.025 471.393 174.903C469.786 169.861 464.771 163.38 458.93 163.306C450.554 163.199 444.964 162.184 437.19 158.262C412.369 145.739 389.303 127.852 370.892 107.025C366.6 102.171 362.019 95.9654 359.871 89.8878C362.71 93.4962 365.361 96.8382 368.461 100.224C366.071 87.9655 364.92 85.801 353.375 81.1689L344.969 77.8337C346.559 80.937 348.335 84.3637 349.715 87.5487C341.78 76.164 328.414 59.1477 313.457 58.4046C308.213 58.1443 303.529 59.6983 298.704 61.4857C295.157 62.7996 291.16 64.7358 287.447 62.8476C278.101 58.0942 268.466 47.2321 262.388 38.6909C260.556 36.1174 258.79 31.7812 257.697 29.0032C257.377 26.7664 255.784 20.6278 254.655 18.7893C252.756 18.8053 253.005 18.5615 251.889 17.0416C250.862 16.7343 250.151 16.6553 249.083 16.5003C241.271 13.1656 240.103 12.1353 231.455 12.924C233.995 14.2444 240.741 19.4007 240.04 22.4876C238.465 23.6135 236.141 21.7067 233.967 21.4624L233.636 21.8002C233.245 21.7708 232.373 21.6768 232.026 21.7119L231.974 22.2004C230.447 22.8734 229.811 22.4442 228.346 22.9798C226.469 22.7541 224.37 22.829 223.202 21.4371C223.153 19.1141 228.063 18.5543 229.875 18.4913C232.888 18.3864 235.413 19.3336 238.024 20.7038C235.258 17.3297 233.139 15.572 228.841 14.3192C227.86 14.0333 226.478 13.703 225.71 13.0925L225.781 12.7079C227.439 11.6305 231.548 10.8391 233.521 10.5942C237.381 10.1148 241.159 10.6692 244.759 12.0684C244.21 11.0742 243.513 10.1033 243.476 9.01701L243.793 8.56641C244.372 8.47685 244.544 8.31391 244.832 8.60938C246.033 9.83916 246.889 12.166 247.745 13.642C247.745 11.7191 247.823 6.32281 248.863 4.71736L249.321 4.65931C250.719 5.83058 252.785 14.013 254.04 16.8918C254.425 15.1517 255.306 10.235 257.033 9.41066C258.224 9.90935 257.907 13.4031 258.056 14.8121C258.314 17.4687 258.822 20.0954 259.572 22.657C260.664 26.4886 262.326 30.8309 264.202 34.3093C268.647 42.5535 280.594 55.8063 288.709 60.3573L289.044 60.5417C289.001 48.1684 288.806 34.3661 280.163 24.4765C278.377 22.4323 271.894 19.2344 271.469 18.2542C271.652 17.0829 271.413 17.5637 272.101 16.7095C274.137 15.7845 277.534 17.3995 279.707 18.1886C279.022 17.5776 278.496 17.1041 277.731 16.5845C276.304 15.6148 273.619 15.0312 272.747 13.551C273.213 11.0304 282.635 12.8604 284.377 13.3433C283.644 12.2633 283.048 11.583 282.77 10.3141L282.935 9.60949C284.884 8.59001 288.199 11.2426 289.819 12.4311C288.885 11.137 287.84 9.80916 286.922 8.5255C285.959 7.17889 283.332 5.02289 283.298 3.58467C285.095 1.71897 289.726 3.56855 291.624 4.57146Z" fill="#09203F"/>
<path d="M178.785 478.022C180.548 474.13 182.307 470.044 184.14 466.28C187.935 458.488 191.273 451.255 200.962 457.016C208.955 461.769 217.188 464.474 226.576 463.265C225.362 468.236 224.065 473.379 223.094 478.4C208.767 477.748 193.278 478.666 178.785 478.022Z" fill="#84495B"/>
<path d="M249.083 16.4999C248.866 14.9641 248.689 11.6277 249.222 10.2539C249.965 10.9525 251.261 15.5144 251.889 17.0411C250.862 16.7338 250.151 16.6548 249.083 16.4999Z" fill="#09203F"/>
<path d="M455.443 230.215C454.586 231.582 451.479 233.776 450.335 232.093L449.984 231.921C450.396 231.213 450.397 230.883 450.98 230.688L450.852 231.623C451.461 231.665 454.542 230.504 455.443 230.215Z" fill="#09203F"/>
<path d="M232.025 21.7108C230.709 21.4924 227.537 21.199 226.598 20.8592C228.318 20.0866 232.162 21.0043 233.967 21.4614L233.636 21.7992C233.244 21.7697 232.372 21.6757 232.025 21.7108Z" fill="#F6F2EF"/>
<path d="M216.012 360.555C222.538 361.565 227.866 371.002 233.466 374.165C238.748 377.148 244.384 378.253 250.271 379.017C247.315 390.749 244.211 402.444 240.96 414.099C239.474 419.482 237.96 425.178 236.29 430.529C235.972 431.55 235.735 431.545 234.994 431.865C225.471 432.906 219.402 429.08 212.441 422.684C205.6 416.399 198.329 407.917 201.107 397.937C202.559 392.722 205.864 387.741 207.967 382.74C211.182 376.293 212.514 366.362 216.012 360.555Z" fill="#84495B"/>
<path d="M247.554 278.057C248.358 278.024 249.262 278.046 249.961 278.504C255.943 282.416 259.233 289.625 265.172 293.773C266.634 294.793 268.068 295.736 269.525 296.69C267.371 304.256 266.071 312.018 264.174 319.621C261.691 329.572 259.767 339.689 257.324 349.628L253.169 349.181L252.714 349.075C244.347 347.092 237.317 341.712 232.597 334.576C227.425 326.755 234.399 316.147 237.613 308.504C238.829 305.56 239.887 302.554 240.782 299.497C242.314 294.262 242.548 288.8 243.689 283.529C244.269 280.849 245.275 279.414 247.554 278.057Z" fill="#84495B"/>
<path d="M301.017 23.1995C302.277 21.8536 301.908 19.5425 301.558 17.8924L301.707 17.6895C302.105 18.7575 302.718 22.1093 302.968 22.3458L303.138 21.427C304.408 21.487 305.1 24.7024 306.863 25.5618L307.947 25.8381L308.555 25.5169C309.062 25.9429 311.353 32.6713 311.923 33.8902C315.578 41.6969 319.961 49.028 324.61 56.276C313.985 52.9552 307.189 52.7894 296.964 58.1332C295.108 59.1108 293.285 60.1489 291.497 61.2448C292.823 52.4914 291.565 38.796 288.207 30.6071C289.995 29.3918 290.68 28.7551 291.973 26.9159C292.679 27.1396 292.348 27.1819 292.995 26.9056C293.292 25.9398 293.276 25.521 293.34 24.4964C294.233 24.7009 295.079 25.5747 295.921 26.117L296.441 26.4496L297.191 27.0445C299.952 27.2682 299.335 24.2722 301.017 23.1995Z" fill="#F6F2EF"/>
<path d="M301.016 23.1995C302.276 21.8536 301.907 19.5425 301.557 17.8924L301.706 17.6895C302.104 18.7575 302.717 22.1093 302.967 22.3458L303.137 21.427C304.407 21.487 305.099 24.7024 306.862 25.5618L307.946 25.8381C306.739 26.006 306.364 26.0421 305.153 25.9765C304.472 25.5375 303.419 23.7904 302.904 23.0286C302.534 23.6556 303.394 29.1873 303.454 30.5162L303.243 30.4934C302.608 28.4917 301.264 25.1022 301.016 23.1995Z" fill="#09203F"/>
<path d="M305.064 27.4629C305.334 28.0656 305.582 29.1904 305.338 29.85L304.931 29.4967C304.676 28.6291 304.837 28.3347 305.064 27.4629Z" fill="#09203F"/>
<path d="M329.32 58.3441C334.431 54.9091 353.957 42.3639 359.445 42.5849L359.913 42.916C359.382 45.5313 358.161 49.3097 357.383 51.9555C355.214 59.33 352.773 69.0637 348.502 75.493C347.807 74.6651 347.717 74.2251 346.9 74.0712C344.906 75.0876 344.421 72.5027 343.697 72.009C343.435 70.9306 343.131 70.9771 342.757 69.7924C342.247 69.2418 342.132 68.572 341.905 67.8381L341.57 67.6553C341.648 68.3494 341.843 68.8039 341.557 69.2645C337.175 64.0504 335.381 62.1566 329.32 58.3441Z" fill="#F6F2EF"/>
<path d="M341.571 67.6562L341.49 67.3851C341.019 65.8584 339.443 63.2431 339.869 62.1606C342.5 62.2086 347.273 58.5976 349.599 57.1133C348.97 57.8947 348.068 59.0505 347.118 59.6661C345.213 60.8999 342.777 62.0346 340.771 63.162C340.74 63.3459 340.709 63.5297 340.678 63.7136C342.242 65.4943 346.876 61.6602 348.889 61.733C347.066 64.0514 345.317 63.6573 342.928 64.9908C341.565 65.7521 341.956 66.4911 341.906 67.8391L341.571 67.6562Z" fill="#09203F"/>
<path d="M342.758 69.7927C345.761 68.4024 346.013 68.2092 349.269 68.0977C347.313 69.8438 344.891 70.2668 343.698 72.0093C343.436 70.9309 343.131 70.9774 342.758 69.7927Z" fill="#09203F"/>
<path d="M347.166 63.9141L348.361 64.0153L348.634 64.3396C348.152 65.0317 347.547 65.1587 346.746 65.4841C346.189 65.5719 345.901 65.59 345.336 65.6137L345.371 65.3224L347.166 63.9141Z" fill="#09203F"/>
<path d="M292.868 1.83398C296.488 4.6308 298.873 6.46965 302.21 9.53404L302.178 3.60967C302.348 3.76719 302.516 3.92698 302.681 4.08904C306.645 7.98855 310.807 21.5443 306.863 25.5618C305.1 24.7024 304.408 21.487 303.138 21.4271L302.969 22.3458C302.718 22.1093 302.105 18.7575 301.707 17.6895L301.558 17.8924C301.909 19.5425 302.277 21.8536 301.017 23.1995C299.335 24.2722 299.952 27.2682 297.191 27.0446L296.441 26.4496L295.922 26.117C295.079 25.5747 294.233 24.7009 293.34 24.4964C293.277 25.521 293.293 25.9399 292.996 26.9056C292.348 27.1819 292.68 27.1396 291.973 26.916C291.249 26.8049 289.159 26.4723 288.673 26.604C288.03 27.4448 287.662 28.2195 287.173 29.146C285.587 26.5162 282.934 24.1824 281.875 22.0907C282.466 21.8072 282.505 21.8531 282.862 21.3238C282.854 19.904 279.862 16.247 278.797 14.505C281.744 15.0118 285.224 16.279 288.27 17.0599C287.001 14.6495 285.427 13.7049 284.232 11.6643L284.409 11.4631C286.386 12.0479 289.667 14.6482 291.31 13.9303C292.248 11.8794 288.423 6.46681 286.639 5.19137C291.575 6.03551 291.139 7.24195 294.041 8.0514L294.315 7.69845C294.183 5.97395 293.359 3.57765 292.868 1.83398Z" fill="#09203F"/>
<path d="M293.338 24.4969C292.955 24.3936 293.151 24.4958 292.812 24.0925C292.963 22.7363 293.829 21.0537 294.325 19.6494C295.027 21.2639 295.637 24.312 295.92 26.1175C295.077 25.5752 294.231 24.7014 293.338 24.4969Z" fill="#09203F"/>
<path d="M294.324 19.6494C296.239 20.3848 296.242 24.5831 296.439 26.4501L295.919 26.1175C295.636 24.312 295.026 21.2639 294.324 19.6494Z" fill="#09203F"/>
<path d="M255.008 191.47C255.471 191.872 259.361 201.171 259.468 202.203C261.585 222.643 266.19 245.304 278.725 262.35L276.58 269.472L275.899 271.49C263.712 253.766 254.042 212.948 255.008 191.47Z" fill="#F6F2EF"/>
<path d="M260.918 204.162C261.517 204.753 267.671 214.499 267.742 214.938C270.157 229.826 272.532 240.55 281.998 253.199C281.438 254.986 280.635 257.04 279.988 258.823L278.92 261.838C267.287 241.338 264.712 227.444 260.918 204.162Z" fill="#F6F2EF"/>
<path d="M269.539 216.723C270.239 217.183 272.268 219.189 272.966 219.859C274.437 226.678 280.87 239.337 285.146 244.893L282.969 250.615C282.715 251.228 282.386 251.92 282.111 252.533C275.06 238.189 272.283 232.71 269.539 216.723Z" fill="#F6F2EF"/>
<path d="M274.738 221.675C276.325 222.84 279.786 225.037 280.852 226.385L281.927 226.806C284.927 228.328 287.84 229.817 291.067 230.81C290.498 232.126 288.484 237.352 287.529 237.831L287.265 237.63L287.262 237.82C287.746 239.562 286.035 242.644 285.231 244.435C280.103 236.126 278.278 230.787 274.738 221.675Z" fill="#F6F2EF"/>
<path d="M281.926 226.806C284.925 228.327 287.839 229.817 291.065 230.809C290.496 232.125 288.482 237.351 287.527 237.83L287.264 237.63C285.348 234.091 283.567 230.48 281.926 226.806Z" fill="#F6F2EF"/>
<path d="M280.852 226.385L281.927 226.806C283.568 230.48 285.349 234.091 287.265 237.63L287.262 237.819C284.736 236.053 282.072 229.206 280.852 226.385Z" fill="#09203F"/>
<path d="M231.459 12.9236C240.106 12.1349 241.274 13.1652 249.087 16.4999C250.154 16.6548 250.866 16.7339 251.893 17.0412C253.008 18.5611 252.76 18.8049 254.658 18.7888C255.787 20.6274 257.381 26.766 257.7 29.0028L257.146 28.8138C257.624 30.2247 257.427 30.7701 257.2 32.2632C258.961 35.2638 260.45 38.4168 261.648 41.6839C259.506 39.1228 256.838 33.6494 255.185 32.5937L254.824 32.776C254.88 33.92 255.089 35.0996 255.335 36.228C255.534 37.1318 257.281 38.5691 257.227 39.351C255.826 38.5242 252.512 35.1745 252.08 35.2137C252.063 36.0426 252.113 37.1148 251.837 37.8575L250.659 38.4973L250.532 39.0252C251.021 39.7244 251.966 40.7703 252.062 41.4737C250.658 40.5229 250.19 38.5294 248.383 38.7902C248.367 39.5711 248.579 39.7183 248.972 40.4816L248.81 40.5611C247.537 39.443 246.622 38.5201 245.087 37.7955L244.552 37.8637L244.669 38.2479L244.923 38.7158C244.891 39.5055 244.891 40.4279 244.749 41.1938C244.3 41.6467 243.957 42.0361 243.447 42.4204L243.077 42.8036C242.168 42.2081 242.08 42.0728 241.044 42.0423C250.949 56.0564 253.281 81.8647 250.714 98.7064C250.25 101.753 248.188 111.49 245.6 112.591C237.391 116.082 225.096 104.726 219.677 100.381C211.291 93.657 205.428 88.4098 196.005 83.7157C179.647 75.9446 160.518 76.5917 143.097 79.817C138.808 80.6113 132.978 81.6509 128.88 82.8321C131.204 88.1939 137.066 93.6988 140.709 98.4729C153.589 115.35 165.299 131.557 185.895 139.711C203.274 146.592 225.45 143.787 242.543 136.844C243.869 136.304 246.006 134.937 247.307 135.327C248.434 137.07 246.969 138.259 245.796 139.574C242.305 143.485 238.058 145.719 233.207 147.481C229.802 157.121 226.12 166.712 221.997 176.031C218.112 184.812 214.83 193.708 211.425 202.713C177.681 291.971 142.783 380.843 91.9204 462.05C87.8858 468.492 84.1206 475.437 79.1289 481.214C81.4739 474.879 84.1007 470.201 87.3682 464.324C88.38 462.504 90.1376 459.66 90.9399 457.864C90.9756 457.582 91.2266 456.941 91.3325 456.639L91.6316 456.584C92.5119 455.69 93.1319 454.574 93.4243 453.354L93.7766 452.615C95.0665 451.631 104.77 433.214 106.301 430.335C130.294 385.726 151.893 339.872 171.007 292.966C180.625 269.067 189.986 245.065 199.09 220.966C204.125 207.875 208.868 194.707 214.491 181.839C219.482 170.416 225.03 159.747 230.02 148.232C224.942 149.359 221.473 149.651 216.381 149.975C210.623 157.493 199.436 165.963 190.451 169.288C203.509 169.82 208.929 167.13 219.788 159.404C216.281 162.868 212.285 167.652 208.941 170.7C204.252 174.973 197.441 178.855 192.558 183.246C188.193 187.171 184.516 191.591 180.544 195.913C185.13 193.92 191.63 188.845 195.975 185.824C201.356 182.083 206.849 178.645 211.684 174.262C208.027 181.396 193.577 190.797 186.668 195.607L186.754 196.203C185.575 196.9 183.225 198.421 181.888 198.392C182.099 199.002 182.16 198.993 182.605 199.48C175.338 202.54 171.419 203.82 163.728 205.252C166.038 205.605 168.232 206.053 170.576 205.885C183.956 204.921 193.219 195.084 205.809 191.44C203.563 193.32 201.148 194.866 198.871 196.683C185.005 207.749 172.5 216.508 163.898 232.573C171.962 226.439 181.155 221.454 191.097 219.191C189.763 219.848 188.437 220.523 187.121 221.216C171.221 229.525 160.74 239.532 151.731 254.962C148.247 260.929 145.722 265.598 143.61 272.328C152.082 257.27 161.443 246.274 175.22 235.941C176.673 234.851 186.283 227.944 187.452 227.879C186.85 228.564 182.659 231.721 181.708 232.44C178.325 234.996 175.485 237.299 172.376 240.208C164.486 247.592 157.682 256.328 151.365 265.067C148.455 269.094 145.426 273.392 142.914 277.681C141.884 279.438 141.31 281.924 140.116 284.147C139.847 281.447 139.845 278.727 140.112 276.027C141.191 264.69 146.766 253.781 153.368 244.649C154.223 242.994 159.091 238.312 159.536 237.074C162.266 229.489 164.357 222.971 170.062 216.947C174.692 212.058 179.494 208.387 184.568 204.198C178.309 207.341 171.29 210.188 164.14 207.546C162.704 207.016 160.36 206.189 159.699 204.78C160.399 203.757 162.752 203.539 164.099 203.275C169.761 202.163 174.002 199.918 178.82 196.954C182.203 188.04 189.74 179.729 196.769 173.501C194.184 173.302 183.122 172.091 183.107 168.483C184.058 167.83 186.922 167.75 188.187 167.266C197.407 163.737 205.603 156.389 212.963 150.116C198.575 149.997 184.859 146.775 172.463 139.289C166.82 135.881 161.261 131.415 156.654 126.686C149.586 119.432 144.066 110.604 138.177 102.412C134.966 97.9446 131.352 93.7546 128.449 89.0714C127.536 87.5974 126.595 85.9778 126.222 84.2693C125.993 83.2189 125.931 82.093 126.606 81.1923C129.017 77.9768 149.884 74.2176 154.924 73.6603C175.765 71.3559 194.9 74.5212 211.887 87.6465C219.808 93.767 226.98 100.863 234.797 107.15C241.551 98.1202 241.76 91.2648 240.585 80.8029C242.396 84.0473 242.341 87.9935 242.707 91.6924C243.983 85.5899 243.944 83.222 242.621 77.2962L243.028 77.4325C244.723 79.487 244.68 83.5856 244.802 86.2241C245.168 85.013 247.479 78.8326 247.503 78.2402C247.753 71.7763 245.286 61.568 243.339 55.3607C241.577 49.7396 237.052 39.9419 231.627 37.121C228.282 35.3826 225.281 40.6592 222.884 41.6916C221.977 41.6519 222.38 41.7991 221.657 41.1793C220.555 38.2753 224.358 33.8286 226.373 32.0112C224.445 32.5467 221.438 34.2288 219.858 32.869C219.082 29.7031 225.926 24.6579 228.367 23.4003L228.35 22.9794C229.814 22.4438 230.45 22.873 231.977 22.2L232.029 21.7115C232.376 21.6764 233.248 21.7704 233.64 21.7998L233.971 21.462C236.144 21.7063 238.468 23.6131 240.044 22.4872C240.744 19.4003 233.998 14.244 231.459 12.9236Z" fill="#09203F"/>
<path d="M231.456 12.9236C240.103 12.1349 241.271 13.1652 249.084 16.4999C250.151 16.6548 250.863 16.7339 251.89 17.0412C253.005 18.5611 252.757 18.8049 254.655 18.7888C255.784 20.6274 257.378 26.766 257.697 29.0028L257.143 28.8138C257.621 30.2247 257.424 30.7701 257.197 32.2632C258.959 35.2638 260.447 38.4168 261.645 41.6839C259.503 39.1228 256.835 33.6494 255.182 32.5937L254.821 32.776C254.877 33.92 255.086 35.0996 255.332 36.228C255.531 37.1318 257.278 38.5691 257.224 39.351C255.823 38.5242 252.509 35.1745 252.077 35.2137C252.06 36.0426 252.11 37.1148 251.834 37.8575L250.656 38.4973L250.529 39.0252C251.018 39.7244 251.963 40.7703 252.059 41.4737C250.655 40.5229 250.187 38.5294 248.38 38.7902C248.364 39.5711 248.576 39.7183 248.969 40.4816L248.807 40.5611C247.534 39.443 246.619 38.5201 245.084 37.7955L244.549 37.8637L244.666 38.2479L244.92 38.7158C244.888 39.5055 244.888 40.4279 244.746 41.1938C244.297 41.6467 243.954 42.0361 243.444 42.4204L243.074 42.8036C242.165 42.2081 242.077 42.0728 241.041 42.0423C238.874 38.9968 234.168 34.9162 230.162 35.2313C227.196 35.4642 225.592 37.1081 223.79 39.2204C226.881 28.8701 232.81 33.527 236.523 31.0836C235.528 29.5699 231.017 29.307 229.299 29.4495C226.479 29.683 224.835 30.1777 222.422 31.5882C228.392 26.0006 229.931 27.2474 237.081 24.6966C234.257 23.4685 231.43 22.9215 228.364 23.4003L228.347 22.9794C229.811 22.4438 230.447 22.873 231.974 22.2L232.026 21.7115C232.373 21.6764 233.245 21.7704 233.637 21.7998L233.968 21.462C236.141 21.7063 238.465 23.6131 240.041 22.4872C240.741 19.4003 233.995 14.244 231.456 12.9236Z" fill="#09203F"/>
<path d="M251.647 27.7008C252.47 28.9166 254.551 32.5318 256.144 31.6977C256.687 30.5858 256.62 28.6145 256.739 27.2236C256.992 27.8754 257.017 28.1331 257.145 28.8133C257.624 30.2242 257.427 30.7696 257.2 32.2627C258.961 35.2633 260.45 38.4163 261.648 41.6834C259.506 39.1223 256.838 33.6489 255.185 32.5932L254.824 32.7755C254.88 33.9195 255.088 35.0991 255.335 36.2275C255.534 37.1313 257.281 38.5686 257.227 39.3505C255.826 38.5237 252.512 35.174 252.08 35.2132C252.063 36.0421 252.113 37.1143 251.837 37.857L251.377 36.1232C251.097 35.049 250.435 33.1355 251.018 32.1413L251.485 32.2792C252.324 33.151 253.255 35.1321 253.696 35.3119L254.041 34.8465C254.29 32.6578 252.319 30.0073 251.647 27.7008Z" fill="#09203F"/>
<path d="M244.666 38.2477C243.76 38.3298 242.747 36.6843 242.484 35.9009L242.74 35.8203C243.72 36.4111 243.898 36.8713 244.549 37.8634L244.666 38.2477Z" fill="#09203F"/>
<path d="M186.667 195.606L186.753 196.202C185.573 196.9 183.224 198.421 181.887 198.392C182.808 197.728 185.565 196.241 186.667 195.606Z" fill="#F6F2EF"/>
<path d="M248.16 86.0977C249.07 89.2997 246.584 108.106 245.366 111.705L245.157 111.784C244.74 110.542 245.213 110.394 244.386 109.377C243.276 108.85 240.815 108.906 239.392 108.82C238.311 108.632 236.617 108.185 235.703 107.548L235.91 107.144C236.621 106.995 237.516 106.883 238.157 106.533C241.452 104.732 246.592 90.4116 248.16 86.0977Z" fill="#F6F2EF"/>
<path d="M201.022 172.612L201.426 172.743L201.383 172.983C200.059 174.072 198.113 175.171 196.607 176.083L196.438 176.168L196.289 176.059C197.724 174.666 199.094 173.206 201.022 172.612Z" fill="#F6F2EF"/>
<path d="M126.842 478.419C120.369 473.96 115.529 465.32 114.043 457.74C112.701 450.893 114.854 442.534 117.987 436.327C124.226 424.035 130.316 411.168 137.465 399.416C139.113 396.707 143.908 391.631 146.834 394.454C151.295 398.758 153.742 403.277 158.724 407.5C166.738 414.293 181.31 413.511 182.975 425.81C183.399 428.724 182.967 432.576 181.793 435.291C178.607 442.659 173.971 449.621 170.302 456.821C168.017 461.305 163.046 476.351 160.352 479.045L160.23 478.714C158.514 478.28 152.111 478.414 149.977 478.414L130.445 478.42C129.257 478.436 128.023 478.478 126.842 478.419Z" fill="#84495B"/>
<path d="M126.842 478.419C120.369 473.96 115.529 465.32 114.043 457.74C112.701 450.893 114.854 442.534 117.987 436.327C124.226 424.035 130.316 411.168 137.465 399.416C139.113 396.707 143.908 391.631 146.834 394.454C151.295 398.758 153.742 403.277 158.724 407.5C166.738 414.293 181.31 413.511 182.975 425.81C183.399 428.724 182.967 432.576 181.793 435.291C178.607 442.659 173.971 449.621 170.302 456.821C168.017 461.305 163.046 476.351 160.352 479.045L160.23 478.714C159.898 476.51 161.179 472.814 161.866 470.686C164.013 464.156 166.662 457.801 169.791 451.679C173.597 444.06 181.284 435.274 180.298 426.696C179.297 417.987 170.67 417.039 164.172 414.056C160.917 412.561 158.942 411.49 156.227 409.144C154.134 407.327 152.236 405.299 150.562 403.09C148.609 400.477 147.251 397.667 144.716 395.703L144.358 395.888C142.401 396.928 141.237 398.294 140.04 400.16C136.226 406.107 133.275 412.724 130.051 419.038C125.647 427.68 120.65 436.007 117.753 445.322C114.549 455.625 118.606 465.377 125.437 473.164C126.483 474.356 130.074 477.29 130.445 478.42C129.257 478.436 128.023 478.478 126.842 478.419Z" fill="#09203F"/>
<path d="M182.353 302.827C184.849 302.742 185.904 303.269 187.079 305.526C188.596 308.442 189.805 311.475 191.361 314.383C193.146 317.683 195.227 320.815 197.577 323.74C200.314 327.114 203.261 330.102 205.285 334.018C211.827 346.678 200.25 358.887 194.862 369.719C190.532 378.423 188.737 389.644 179.343 394.197C170.468 396.52 163.005 387.776 158.858 381.031C154.35 373.701 154.179 366.03 156.438 357.895C159.552 346.68 164.388 336.027 169.121 325.412C171.871 319.25 174.615 312.616 178.244 306.932C179.46 305.028 180.397 303.972 182.353 302.827Z" fill="#09203F"/>
<path d="M183.646 305.051C184.782 305.563 185.939 309.042 186.493 310.317C187.494 312.615 188.618 314.858 189.859 317.036C193.155 322.735 197.548 327.361 201.472 332.574C211.105 345.371 196.951 357.885 191.924 369.278C189.403 374.991 187.302 380.929 184.207 386.335C183.313 387.892 180.853 389.761 179.381 390.783C178.078 391.324 176.658 391.53 175.254 391.382C170.552 390.838 166.77 386.827 164.078 383.252C159.198 376.772 157.453 370.055 158.624 362.01C160.016 352.456 174.693 317.696 180.026 309.144C181.058 307.489 182.066 306.237 183.646 305.051Z" fill="#84495B"/>
<path d="M497.627 10.0904C508.986 9.99966 515.438 21.0679 517.028 31.0454C524.661 24.3381 536.654 24.1104 543.724 32.1847C545.91 34.6812 546.668 38.9053 545.73 42.0991C543.21 50.6666 532.712 56.6466 525.489 61.114C518.348 65.6511 508.224 71.2448 500.47 74.3859C496.982 75.7989 488.638 49.645 487.801 46.6491C486.873 43.2988 486.136 39.899 485.595 36.4656C483.989 26.2273 484.409 11.7062 497.627 10.0904Z" fill="#09203F"/>
<path d="M498.147 13.464C505.395 13.194 511.704 20.8046 513.873 27.048C514.679 29.3674 515.121 31.6848 516.087 33.9732C517.92 32.5059 519.432 31.1647 521.667 30.3229C527.808 28.0081 537.606 28.5282 541.566 34.469C546.155 41.3539 539.608 48.3462 534.358 52.263C531.026 54.7492 527.833 56.9281 524.462 59.215C516.112 64.6801 508.796 69.1268 499.901 73.5038C494.979 62.7987 477.394 15.6246 498.147 13.464Z" fill="#EE789B"/>
<path d="M209.239 241.124C209.671 241.202 210.889 241.464 211.082 241.772C213.519 245.64 215.505 252.022 217.747 255.961C220.787 261.424 224.992 265.995 227.78 271.614C232.938 282.01 228.364 293.023 220.963 300.958C218.482 303.617 216.864 304.267 213.391 304.395C206.244 303.98 200.007 299.546 196.352 293.538C191.868 286.165 191.807 277.357 194.025 269.218C196.252 261.046 201.957 245.454 209.239 241.124Z" fill="#09203F"/>
<path d="M209.563 243.151C211.271 245.127 213.571 253.688 215.7 257.398C218.662 262.758 222.609 267.058 225.452 272.532C230.096 281.476 225.878 291.112 219.877 298.225C217.845 300.634 216.138 301.46 213.079 301.605C201.778 299.877 194.959 290.149 195.128 279.119C195.293 268.413 201.881 250.672 209.563 243.151Z" fill="#84495B"/>
<path d="M121.88 346.835C122.422 341.573 127.231 328.133 130.022 323.533C133.466 317.857 138.233 308.599 142.044 303.501C146.521 297.511 157.577 284.766 163.898 281.176C163.273 282.235 158.119 287.439 156.906 288.835C151.45 295.108 145.24 302.236 141.401 309.574C146.364 304.591 151.157 299.8 156.592 295.315C158.327 293.884 160.511 291.724 162.431 290.659L162.56 290.747C160.916 292.426 158.565 294.513 156.848 296.177C141.039 311.499 133.885 319.305 127.146 340.696C132.445 332.674 143.186 324.357 150.493 317.947C152.292 316.369 156.779 312.214 158.493 310.977C155.78 316.014 152.65 319.173 149.05 323.443C137.546 337.089 124.366 352.576 115.359 367.93C116.517 366.533 118.868 363.553 120.107 362.457C126.684 356.634 134.17 350.797 141.199 345.592C138.451 350.871 130.354 358.4 126.578 363.148C118.56 373.233 99.8902 397.641 96.4362 409.127C97.6973 407.237 98.8297 405.168 100.424 403.539C107.157 396.662 115.754 388.68 123.436 383.003C121.471 386.15 117.618 389.941 115.151 392.961C100.165 411.313 87.9594 431.735 76.1784 452.312L66.6406 468.594C64.8602 471.607 61.2667 477.796 59.125 480.394C62.7521 469.78 68.0939 459.906 73.5301 450.136C80.2628 438.037 87.2836 426.139 94.7862 414.497C96.9973 411.067 99.757 407.554 102.106 404.113C101.652 404.128 96.7968 409.474 96.2523 410.309C95.8855 410.872 94.7041 413.723 94.3719 413.957C94.3523 413.075 94.4778 412.865 94.7666 412.051L94.6204 411.822C94.1074 412.828 92.368 417.047 91.0088 416.304C90.5091 406.317 106.68 382.909 112.883 374.832C115.279 371.712 120.468 365.748 123.213 362.715L125.413 360.302C120.495 363.857 115.102 370.064 111.726 375.069L111.855 374.752C112.495 373.206 113.102 372.123 113.916 370.658C112.792 371.319 108.105 377.43 106.921 378.749C109.14 371.703 111.501 367.008 115.526 360.812C116.337 359.563 119.142 355.677 119.662 354.689C119.671 353.637 119.743 353.57 120.2 352.589C120.818 350.767 121.594 348.71 121.88 346.835Z" fill="#09203F"/>
<path d="M123.816 347.684C128.169 342.406 135.844 332.918 141.366 328.986C139.956 330.756 138.263 332.284 136.753 333.967C131.776 339.51 127.011 345.243 122.472 351.15C121.555 352.343 120.648 353.55 119.664 354.688C119.674 353.636 119.746 353.569 120.202 352.588C120.82 350.766 121.597 348.709 121.882 346.834C122.563 347.429 122.731 347.897 123.665 347.551L123.816 347.684Z" fill="#F6F2EF"/>
<path d="M121.883 346.834C122.564 347.429 122.731 347.897 123.666 347.551L123.817 347.684C123.166 348.69 121.096 352.227 120.203 352.588C120.821 350.766 121.597 348.709 121.883 346.834Z" fill="#09203F"/>
<path d="M126.225 341.594C126.372 341.82 126.49 342.037 126.623 342.272C126.035 343.41 124.674 344.859 123.786 346.031L123.679 346.076L123.559 345.843C124.305 344.016 125.342 343.295 126.225 341.594Z" fill="#09203F"/>
<path d="M140.867 90.2352C143.85 85.6144 152.712 84.1177 157.681 82.9583C168.113 80.5248 183.398 80.3786 192.541 86.7264C207.736 97.2771 211.391 118.953 230.9 125.215C235.139 126.575 239.943 127.521 244.45 126.612C244.805 126.539 245.158 126.453 245.507 126.355L245.699 126.589C245.561 127.323 245.416 127.75 244.774 128.19C230.965 137.656 212.714 139.523 196.583 136.427C177.816 132.824 158.645 117.394 148.093 101.542C147.644 100.866 147.221 100.173 146.824 99.4648L147.105 98.4778C161.541 116.36 180.426 132.901 204.056 134.921C217.712 136.088 224.515 134.347 237.307 130.161C234.976 129.341 229.089 131.489 226.36 131.702C219.669 132.225 216.276 133.098 210.469 129.074C210.723 127.985 211.16 126.701 211.497 125.616C209.584 126.333 203.339 128.899 202.058 126.703C202.232 124.692 203.887 123.237 205.248 121.656L205.312 120.962C206.828 119.582 210.309 115.757 211.269 114.037C209.044 111.289 203.776 102.968 201.641 101.501C200.077 100.268 200.216 100.765 199.856 99.1885C199.18 98.7371 197.377 100.063 196.245 100.169C188.945 100.852 179.601 101.977 173.654 96.9264C178.453 96.7637 181.956 96.0675 186.649 95.6605C183.456 94.2258 180.199 92.7937 176.92 91.5661C165.676 87.3549 152.086 80.8728 141.755 90.6427L140.867 90.2352Z" fill="#09203F"/>
<path d="M211.27 114.037L211.461 114.212C212.884 115.535 214.029 116.992 215.392 118.352C220.013 122.964 224.191 125.806 230.457 127.696C233.003 128.464 236.435 128.931 238.721 129.826L238.645 130.019L238.441 129.826L238.047 130.154L237.308 130.161C234.977 129.341 229.09 131.489 226.361 131.702C219.67 132.225 216.277 133.098 210.47 129.074C210.724 127.985 211.161 126.701 211.498 125.616C209.585 126.333 203.34 128.899 202.059 126.703C202.233 124.692 203.888 123.237 205.249 121.656L205.313 120.962C206.829 119.582 210.31 115.757 211.27 114.037Z" fill="#09203F"/>
<path d="M219.459 219.579C222.6 220.127 226.192 224.258 228.975 225.898C238.618 231.58 251.477 235.588 252.314 248.78C252.545 252.417 251.938 254.575 249.478 257.376C248.603 258.061 247.186 258.959 246.111 259.09C232.053 260.806 222.638 244.526 220.347 232.775C219.636 229.129 217.73 222.337 219.459 219.579Z" fill="#09203F"/>
<path d="M220.934 222.439C223.147 223.625 225.608 226.441 227.938 227.864C235.955 232.76 247.103 236.158 249.659 246.374C250.448 249.523 250.045 252.309 248.404 255.063C247.262 256.108 245.693 257.027 244.093 256.825C227.677 254.755 222.776 235.599 220.934 222.439Z" fill="#84495B"/>
<path d="M280.817 146.127C281.906 145.716 282.222 145.594 283.213 145.009L283.248 144.626C281.812 142.706 279.107 144.669 277.466 145.618C276.792 145.505 277.058 145.683 276.625 145.12C276.741 144.283 277.948 143.097 278.567 142.359C277.546 141.839 276.344 142.784 274.904 142.326C274.502 140.246 276.189 138.084 277.628 136.802C281.624 133.244 288.108 135.852 292.915 136.183C301.706 136.787 309.583 133.866 317.705 130.968C321.469 129.781 325.614 127.764 329.642 128.15C330.962 128.276 334.507 128.877 333.995 130.606C332.844 131.715 330.437 132.737 328.91 133.491L329.462 133.762C329.725 133.729 329.989 133.7 330.252 133.675C332.963 133.428 336.273 135.906 338.284 137.586C333.991 136.997 331.138 136.535 326.844 137.269C325.653 137.86 324.24 138.515 323.104 139.169C320.427 141.266 317.853 143.258 314.98 145.096C304.384 151.873 292.216 148.744 280.817 146.127Z" fill="#09203F"/>
<path d="M323.102 139.168C322.855 139.06 322.607 138.951 322.36 138.843C319.408 139.354 315.378 141.309 312.422 142.142C313.71 140.572 324.604 137.072 326.842 137.269C325.651 137.859 324.239 138.515 323.102 139.168Z" fill="#09203F"/>
<path d="M232.076 172.115C232.852 172.438 233.316 172.458 233.621 173.262C234.464 175.488 234.993 178.139 235.513 180.436C237.303 188.148 238.862 195.824 235.93 203.497C234.376 207.563 232.542 210.795 227.688 208.949C223.364 205.914 221.576 199.931 221.225 194.883C220.584 185.657 226.281 178.596 232.076 172.115Z" fill="#09203F"/>
<path d="M231.913 175.241C232.055 175.42 232.267 175.661 232.321 175.88C234.614 185.254 237.418 195.602 233.167 204.858C232.118 207.141 230.657 208.503 228.284 206.698C225.498 203.817 224.099 199.891 223.635 195.968C222.647 187.603 226.927 181.435 231.913 175.241Z" fill="#84495B"/>
<path d="M182.006 245.31L182.201 245.485C180.05 248.677 177.498 253.139 175.087 255.918C171.784 259.726 167.583 263.474 163.956 267.092C158.292 272.742 153.861 278.105 149.328 284.701C145.455 290.336 141.611 296.384 138.963 302.72C137.735 305.658 137.207 309.28 135.86 312.17C135.632 312.659 135.515 312.656 135.189 312.72L134.725 312.104C134.072 312.653 134.007 313.167 133.645 314.032L133.309 314.152C132.538 312.987 133.626 311.608 133.763 310.455C135.496 295.903 143.763 284.605 153.234 273.586C160.22 265.347 171.122 256.475 179.002 248.84C170.029 254.103 161.946 260.753 155.054 268.544C152.334 271.675 149.581 275.582 147.022 278.412L146.817 278.635L144.961 277.255C146.911 273.767 148.883 270.748 151.519 267.701C158.145 260.043 172.454 248.032 182.006 245.31Z" fill="#09203F"/>
<path d="M295.972 188.941C300.609 189.187 301.472 195.194 302.503 198.893C303.781 203.481 304.035 208.392 303.477 213.108C302.736 219.365 298.773 218.723 293.941 217.45C284.502 214.257 284.093 210.612 287.755 201.952C289.336 198.217 292.416 191.043 295.972 188.941Z" fill="#09203F"/>
<path d="M296.761 190.636C300.361 192.33 301.843 207.502 301.386 211.321C300.657 217.403 299.013 216.647 294.22 215.178C291.989 214.301 287.672 212.559 287.976 209.721C288.592 203.964 292.858 194.733 296.761 190.636Z" fill="#84495B"/>
<path d="M305.077 175.089C305.815 175.026 306.555 174.997 307.295 175.001C311.926 175.047 324.492 176.254 328.014 179.203C331.388 182.027 325.547 189.634 323.079 191.895C321.748 192.884 321.199 193.122 319.74 193.806C316.497 193.544 313.85 192.375 310.471 190.356C307.356 188.495 298.449 182.034 300.863 177.2C301.499 175.926 303.609 175.317 305.077 175.089Z" fill="#09203F"/>
<path d="M304.946 177.129C309.162 176.931 323.11 178.443 326.328 180.625C327.815 183.057 324.223 187.711 322.56 189.511C319.764 192.125 318.94 192.021 315.364 190.545C312.099 189.198 300.745 182.446 302.873 178.083C303.607 177.345 303.877 177.376 304.946 177.129Z" fill="#84495B"/>
<path d="M281.238 151.646C282.447 151.693 283.602 151.854 284.437 152.84C286.278 155.015 288.113 157.266 289.9 159.487C292.159 162.292 295.831 165.069 297.501 168.205C297.541 171.55 294.809 176.91 293.013 179.668C288.238 186.139 281.244 178.613 279.933 173.361C278.366 167.091 278.093 157.447 281.238 151.646Z" fill="#09203F"/>
<path d="M282.261 153.231C283.944 154.749 286.552 158.46 288.015 160.411C290.01 163.072 294.262 166.59 295.651 169.194C294.64 172.205 293.229 175.139 291.756 177.949C291.221 178.845 290.842 179.481 289.96 179.97C279.656 181.841 279.935 158.829 282.261 153.231Z" fill="#84495B"/>
<path d="M181.728 110.175C185.027 110.109 195.243 109.018 197.196 106.28C195.583 105.387 182.248 108.415 180.695 105.389L180.95 105.118C183.687 104.894 186.606 104.648 189.318 104.019C192.338 103.319 195.665 101.642 198.748 101.313C198.937 101.293 201.189 101.478 201.646 101.501C203.781 102.968 209.048 111.288 211.273 114.037C210.314 115.757 206.833 119.582 205.317 120.962L205.253 121.656C202.194 121.837 195.897 125.538 191.604 123.012C190.979 122.645 191.212 122.938 191.013 122.257C191.723 121.012 196.741 118.606 198.392 117.622C195.906 117.487 193.234 117.456 190.731 117.382C192.553 116.353 196.412 114.361 197.193 112.415L195.973 113.118C190.789 114.764 185.862 113.58 181.728 110.175Z" fill="#09203F"/>
<path d="M195.969 113.118C195.407 112.782 195.142 112.544 194.637 112.133C196.702 111.306 198.76 110.46 200.81 109.596C200.04 110.267 197.514 112.009 197.189 112.416L195.969 113.118Z" fill="#09203F"/>
<path d="M317.231 200.034C321.208 200.042 329.039 206.494 332.375 209.04C339.563 214.526 332.57 216.742 327.577 218.46C317.99 221.632 307.204 221.755 312.265 208.642C313.544 205.331 313.923 202.081 317.231 200.034Z" fill="#09203F"/>
<path d="M317.737 201.979C319.793 202.358 326.74 207.686 328.698 209.023C335.535 213.695 333.09 214.309 327.013 216.463C326.774 216.529 326.535 216.593 326.296 216.654C324.162 217.201 313.156 219.814 313.31 215.619C313.449 211.853 315.157 204.807 317.737 201.979Z" fill="#84495B"/>
<path d="M443.92 52.9034C445.977 44.1381 455.148 41.9623 454.627 51.9991C454.493 54.5845 451.769 65.6929 450.492 67.6782L450.199 67.939C448.311 67.8879 441.98 64.4514 440.048 63.4071C434.816 60.579 428.607 53.7881 438.511 51.683C440.284 51.306 442.364 51.7605 443.92 52.9034Z" fill="#EE789B"/>
<path d="M443.922 52.9034C445.979 44.1381 455.15 41.9623 454.629 51.9991C454.496 54.5845 451.771 65.6929 450.495 67.6782L450.268 67.6209C451.057 65.0871 455.453 48.6654 451.952 47.039C447.737 45.0806 446.003 51.4506 444.644 53.5056L443.981 53.1771L443.922 52.9034Z" fill="#09203F"/>
<path d="M450.492 67.6788L450.199 67.9396C448.311 67.8885 441.98 64.452 440.048 63.4077C434.816 60.5796 428.607 53.7887 438.511 51.6836C440.284 51.3066 442.364 51.7611 443.92 52.904L443.979 53.1777C441.254 52.4211 439.004 52.0064 436.335 53.5677C429.479 57.579 447.084 66.5529 450.266 67.6215L450.492 67.6788Z" fill="#09203F"/>
<path d="M280.888 181.522C281.151 181.552 281.413 181.586 281.675 181.624C290.113 182.869 284.524 205.889 277.664 204.133C275.065 202.213 273.124 199.768 272.176 196.623C270.538 191.185 275.351 182.889 280.888 181.522Z" fill="#09203F"/>
<path d="M280.877 183.228C286.325 184.031 283.064 199.409 279.154 202.23C278.28 202.224 278.198 201.952 277.308 201.38C270.807 195.007 274.425 187.55 280.877 183.228Z" fill="#84495B"/>
<path d="M304.611 95.0733C311.319 94.6798 312.035 95.2071 317.033 99.5799C299.849 99.3284 291.296 99.3764 279.249 112.703C277.067 115.306 275.279 117.948 273.379 120.747C276.425 104.531 288.73 96.0634 304.611 95.0733Z" fill="#09203F"/>
<path d="M435.929 166.85C443.934 166.077 452.807 172.968 457.183 179.175C459.35 182.25 460.016 185.218 460 188.923C455.939 181.187 447.901 171.518 438.589 170.076C432.991 169.209 428.724 171.071 428.059 177.183C428.369 179.073 428.63 180.147 429.899 181.681C434.391 187.109 445.686 192.099 452.4 192.927L452.263 193.194C448.49 195.3 436.875 189.971 433.768 187.301C430.66 184.829 425.98 181.656 425.634 177.256C425.1 170.439 429.923 167.519 435.929 166.85Z" fill="#09203F"/>
<path d="M263.9 159.973C265.982 160.001 267.27 161.518 268.427 163.163C272.156 168.467 275.49 174.94 271.315 181.036C271.011 181.207 270.999 181.226 270.628 181.368C269.519 181.785 268.282 181.696 267.243 181.126C262.319 178.461 261.573 163.933 263.9 159.973Z" fill="#09203F"/>
<path d="M264.792 162.064C269.318 165.96 272.716 172.966 270.505 178.885C269.374 179.887 267.907 180.107 267.03 178.757C264.264 174.497 264.184 166.828 264.792 162.064Z" fill="#84495B"/>
<path d="M437.133 175.33C439.813 175.16 441.446 175.579 443.849 176.824C446.414 178.152 455.488 184.476 453.489 187.805C452.628 188.28 452.311 188.164 451.332 188.085C449.353 187.764 447.392 187.336 445.459 186.803C442.753 186.045 440.878 185.305 438.531 183.767C435.101 181.518 430.531 177.305 437.133 175.33Z" fill="#09203F"/>
<path d="M338.842 186.091C340.821 186.541 343.035 188.273 344.577 189.579C348.024 192.5 354.368 197.013 346.599 199.44C336.973 200.842 333.157 200.025 336.294 189.334C336.766 187.725 337.359 186.832 338.842 186.091Z" fill="#09203F"/>
<path d="M338.753 188.005C340.92 188.934 347.547 194.196 348.053 196.512C347.682 197.155 347.143 197.249 346.425 197.532C342.908 198.269 340.799 198.13 337.305 197.568C337.351 194.532 337.725 190.851 338.753 188.005Z" fill="#84495B"/>
<path d="M357.625 119.163C358.108 119.544 360.848 122.644 361.553 123.39C364.263 126.257 366.658 128.67 369.685 131.234C382.337 141.957 396.472 151.636 410.46 160.592C408.86 160.342 402.78 156.788 401.122 155.801C388.88 148.507 363.399 131.986 357.625 119.163Z" fill="#09203F"/>
<path d="M496.886 88.1504C496.933 88.2403 496.98 88.3301 497.028 88.4195C499.766 95.8089 501.463 105.078 498.441 112.56C494.888 121.354 489.482 125.986 481.291 129.739L480.246 129.969C480.237 129.482 481.735 128.914 482.185 128.639C488.667 124.672 493.441 119.178 496.157 112.072C499.218 104.066 498.101 96.3259 496.886 88.1504Z" fill="#09203F"/>
<path d="M304.673 107.172C307.332 106.803 310.041 107.11 312.55 108.063C319.127 110.575 323.514 116.449 326.315 122.657C321.845 117.239 318.926 113.523 312.613 110.391C310.976 109.761 309.256 109.378 307.507 109.255C299.44 108.749 293.405 113.641 287.793 118.655C292.45 112.171 296.677 108.55 304.673 107.172Z" fill="#09203F"/>
<path d="M454.673 167.647C455.934 167.485 457.504 167.415 458.762 167.532C462.105 167.828 465.178 169.491 467.254 172.127C470.353 176.019 470.766 180.681 470.214 185.418C466.137 177.841 463.65 171.016 454.602 167.97L454.673 167.647Z" fill="#09203F"/>
<path d="M348.122 174.915C351.664 175.351 358.318 183.065 352.63 184.561C350.539 184.554 347.599 184.749 345.808 183.867C344.276 181.958 346.589 176.504 348.122 174.915Z" fill="#09203F"/>
<path d="M348.847 177.161C350.236 177.731 353.54 181.292 352.811 182.878L351.995 182.929C350.108 182.808 349.008 182.708 347.156 182.375C347.477 180.025 347.523 179.211 348.847 177.161Z" fill="#84495B"/>
<path d="M186.753 196.203C191.708 193.169 195.165 190.855 199.771 187.262C202.38 185.228 207.202 181.316 209.954 179.713C200.202 189.804 195.96 193.772 182.604 199.481C182.158 198.994 182.097 199.002 181.887 198.392C183.224 198.421 185.573 196.901 186.753 196.203Z" fill="#09203F"/>
<path d="M313.033 150.238L313.184 150.608C312.622 151.651 309.855 153.102 308.716 153.605C303.3 156.001 297.135 156.586 291.552 154.474C290.845 154.165 290.125 153.953 289.645 153.382C290.851 153.125 294.713 153.472 296.121 153.523C302.798 153.765 307 152.654 313.033 150.238Z" fill="#09203F"/>
<path d="M453.523 74.9648C457.151 76.8442 462.187 86.8175 462.592 91.1397C463.113 96.6849 461.777 100.2 458.49 104.509C458.003 104.89 458.258 104.822 457.767 104.828C464.499 93.7639 460.792 84.7434 453.523 74.9648Z" fill="#09203F"/>
<path d="M255.716 92.2695L255.998 92.6104C257.002 96.5923 254.14 115.39 252.829 119.466L252.698 119.458C252.454 117.768 253.597 109.637 253.857 107.565L255.716 92.2695Z" fill="#09203F"/>
<path d="M314.652 64.3524L314.934 64.3286C320.325 63.839 327.692 70.1496 330.82 74.1C330.146 73.8759 326.494 71.371 325.596 70.6862C322.228 68.1194 318.035 66.6134 314.652 64.3524Z" fill="#09203F"/>
<path d="M319.602 72.9842C324.439 72.7477 332.009 83.8319 334.445 87.5612C333.783 87.1883 332.911 86.1177 332.368 85.4866C328.379 80.8524 323.99 77.1293 319.602 72.9842Z" fill="#09203F"/>
<path d="M259.137 95.1201C261.793 97.2097 259.082 113.512 258.357 116.771C258.275 116.953 258.342 116.846 258.083 117.035C258.051 113.889 258.64 109.621 258.836 106.342C259.066 102.491 259.11 98.993 259.137 95.1201Z" fill="#09203F"/>
<path d="M316.582 75.8096C318.957 76.4365 327.215 85.663 328.874 88.111C326.885 87.137 316.843 78.2054 316.582 75.8096Z" fill="#09203F"/>
<path d="M78.8672 450.199C79.5809 450.794 82.022 456.933 82.7561 458.435C83.6597 460.284 86.4044 463.981 86.5708 465.493L85.8555 465.382C81.9428 461.733 80.0007 455.266 78.8672 450.199Z" fill="#09203F"/>
<path d="M75.9414 456.668C76.2385 457.11 76.611 458.21 76.7476 458.723C77.8508 462.872 81.5704 468.365 82.5827 472.103C78.7273 469.173 76.692 461.195 75.9414 456.668Z" fill="#09203F"/>
<path d="M85.6914 442.164C87.6559 448.986 86.4842 450.041 91.3286 456.64C91.2227 456.942 90.9716 457.583 90.936 457.865C86.6277 452.2 85.7625 449.151 85.6914 442.164Z" fill="#09203F"/>
<path d="M314.086 80.9424C316.408 81.1046 321.65 85.4294 323.191 87.2086C320.58 86.6115 314.913 83.63 314.086 80.9424Z" fill="#09203F"/>
<path d="M93.42 453.355C90.7936 450.145 89.0129 443.11 88.75 439.062C90.3925 444.181 92.0133 447.785 93.7723 452.616L93.42 453.355Z" fill="#09203F"/>
<path d="M237.867 161.229L238.204 161.488C239.162 163.583 240.816 174.106 241.13 176.701C239.964 174.756 237.904 163.762 237.867 161.229Z" fill="#09203F"/>
<path d="M477.848 204.364C480.16 205.582 479.638 211.659 479.584 214.099C478.946 213.569 478.06 205.75 477.848 204.364Z" fill="#09203F"/>
<path d="M474.439 205.816L474.862 205.976C476.083 207.139 476.434 212.502 476.554 214.119C475.395 213.257 474.397 207.349 474.439 205.816Z" fill="#09203F"/>
<path d="M240.903 159.396C241.482 160.487 243.058 171.877 243.268 173.79C242.297 172.79 240.881 161.62 240.903 159.396Z" fill="#09203F"/>
<path d="M72.5547 463.383C74.7358 469.476 75.658 471.966 79.338 477.268C76.369 475.855 72.9573 466.412 72.5547 463.383Z" fill="#09203F"/>
<path d="M244.92 38.7158L245.107 39.0489C246.322 41.1876 247.709 42.6827 249.376 44.4795C248.168 44.229 245.719 41.3988 244.746 41.1938C244.888 40.4279 244.888 39.5055 244.92 38.7158Z" fill="#09203F"/>
<path d="M442.933 228.443L443.232 228.762C443.131 230.638 440.986 230.962 439.446 231.18L439.23 230.544C439.739 229.882 441.957 228.954 442.933 228.443Z" fill="#09203F"/>
<path d="M470.523 207.204C471.879 208.088 472.855 212.236 473.192 213.812C472.15 212.765 470.803 208.678 470.523 207.204Z" fill="#09203F"/>
<path d="M434.44 225.505C434.902 225.662 434.675 225.527 435.066 225.988C434.841 226.866 434.004 227.575 433.348 228.263C432.686 228.041 432.652 227.714 432.657 227.158C433.193 226.271 433.561 226.118 434.44 225.505Z" fill="#09203F"/>
<path d="M243.02 158.091L243.406 158.381C244.051 160.348 243.876 163.161 243.84 165.289C243.317 163.746 243.142 159.883 243.02 158.091Z" fill="#09203F"/>
<path d="M140.867 90.2354L141.755 90.6428C141.75 92.9937 143.163 93.1337 143.1 94.1888C141.268 93.3072 141.055 92.0837 140.867 90.2354Z" fill="#09203F"/>
<path d="M243.445 42.4209C244.117 43.2405 245.526 44.6633 245.597 45.5801C244.671 45.0595 243.765 43.6976 243.074 42.8041L243.445 42.4209Z" fill="#09203F"/>
<path d="M144.953 95.8838C145.792 96.7292 146.384 97.5416 147.109 98.4785L146.827 99.4654C146.134 98.4098 145.517 97.035 144.953 95.8838Z" fill="#09203F"/>
</g>
<defs>
<clipPath id="clip0_4051_18821">
<rect width="628" height="472" fill="white"/>
</clipPath>
</defs>
</svg>
