<svg xmlns="http://www.w3.org/2000/svg" width="300" height="380" fill="none" viewBox="0 0 300 380"><g filter="url(#a)"><g clip-path="url(#b)"><path fill="#09203f" d="M181.255 52.208c-2.826.678-4.748 4.408-4.748 4.408s-.904-3.278-.904-6.217c0-3.052 1.695-6.217 1.808-6.782s-.565-3.052-1.695-3.391c-1.13-.34-4.296.339-4.522 2.374-.113 1.921 2.035 2.26.905 4.182 0 0-1.583 2.6-3.844 2.713-1.921.113-4.408-.34-4.747-2.713s.678-3.391.339-4.521-2.713-1.81-4.635-.566c-1.808 1.13-1.808 2.94-1.017 3.844.904.904 2.374 1.13 2.148 3.73s-.678 6.217-.678 6.217-2.939-3.278-5.087-3.956c-2.148-.566-7.347.339-7.574.904s2.6 2.148 3.957 4.634 4.973 3.617 6.443 2.6c-1.357 3.843.226 4.748 1.13 5.652-1.13 3.956-1.469 9.27-.113 10.626s1.922 1.469 1.922 1.469-.339 3.391-1.47 11.417c-1.13 8.025-5.086 38.997-7.573 48.153s-7.008 17.973-8.478 23.173c-1.356 5.2-5.652 9.947-10.625 12.773-4.974 2.713-10.174 3.278-13.226 11.53-2.6 7.121-3.956 13.338-4.521 19.329-2.148 5.426-2.826 11.304-1.922 17.069.791 4.973 2.713 9.721 3.391 14.695.566 3.617.566 7.234-.113 10.851-.791 4.409-2.487 8.817-2.147 13.226.226 2.939 1.356 5.877 2.939 8.477-.566-1.582-.113-3.504.678-4.973.791-1.47 2.034-2.826 2.826-4.409 1.808-3.278 2.147-7.234 1.356-10.964-.565-2.713-1.469-5.2-2.261-7.913-.904-3.165-1.582-6.556-1.921-9.834 1.921 4.634 4.182 8.93 4.634 11.304.565 3.278 3.165 11.868 2.826 14.129s-1.921 1.696-1.356 4.974 1.695 2.713 2.6 5.652c.904 2.939 2.486 15.712 2.713 21.477.339 5.765 1.582 11.982 1.469 14.807s-1.696 4.409-1.13 6.783a23 23 0 0 0 1.582 4.408c-.339 1.131-2.374 4.522-2.261 5.878.113 1.357 1.47 4.069 1.47 4.069s7.573.905 8.252.34c.678-.453 1.13-3.618 1.13-3.618l-2.374-6.556.339-7.46c-.339-3.278-2.487-8.817-3.052-15.147s-.904-21.364-.791-23.173 1.47-7.008.452-10.851c-1.017-3.957-1.356-11.982-.791-17.86s1.809-11.417 1.809-11.417l3.165 3.278s-.227 7.122 2.034 11.756 3.391 7.121 3.391 7.121-5.086 9.382-5.199 12.208 4.521 8.026 4.634 10.287c.113 2.26 1.583 12.886 1.244 18.99-.34 6.104-.905 19.894-1.922 22.607-1.13 2.713-2.826 13.565-3.165 16.504-.339 2.826-.226 6.443.791 7.686s10.626 1.583 11.417 1.018c.678-.566 1.469-3.392 1.13-4.748-.339-1.243-1.695-4.069-1.808-4.295s.452-3.052.339-6.896l.565.113s2.148-1.469 1.809-3.956c-.227-1.695-2.374-7.913-3.618-11.869 0-2.487.113-5.539.452-9.608.792-12.434 1.018-15.373 2.261-17.973s2.148-6.782 1.131-10.851-2.939-9.948-2.261-14.13 4.069-8.591 4.86-12.321.905-8.478.905-8.478l2.826-1.13 2.713 3.165s.226 12.66-.34 20.12c-.565 7.461-2.599 8.93-2.939 13.565s1.809 9.043 1.809 9.043 1.922 11.417 1.47 21.251c-.453 9.947-1.47 15.034-2.148 17.294-.678 2.374-1.809 2.6-1.017 5.087.791 2.487 1.921 2.6 1.243 5.765-.678 3.278-1.357 7.686-.339 9.156 1.13 1.469 10.851 2.261 11.869.904 1.017-1.356 1.582-6.443 1.017-8.138s-3.504-5.426-3.391-8.365-1.809-7.574-2.148-10.965-.339-26.111.452-28.485c.792-2.487 2.826-9.495 2.487-14.356-.339-4.86-.904-9.608-.904-9.608l3.73-14.921c1.809-5.199 6.217-15.825 6.895-22.607.679-6.895.679-16.617-.565-23.399s-6.556-18.312-6.556-18.312-.678-7.912-1.356-10.851c-.679-2.939-2.6-4.861-2.6-5.539-.113-.565.791-45.554 1.243-56.066s1.017-21.93 1.017-21.93 4.07-.226 4.748-1.808.113-7.574.113-7.574 1.243-.339 1.47-1.356.113-7.8.113-7.8 1.017-1.47 1.582-2.6.113-3.39.113-3.39 3.956-.905 5.426-2.827c1.469-1.921 2.713-6.104 2.713-6.104s-3.617 0-6.443.792"/></g></g><defs><clipPath id="b"><path fill="#fff" d="M112.302 40h75.396v300h-75.396z"/></clipPath><filter id="a" width="300" height="380" x="0" y="0" color-interpolation-filters="sRGB" filterUnits="userSpaceOnUse"><feFlood flood-opacity="0" result="BackgroundImageFix"/><feBlend in="SourceGraphic" in2="BackgroundImageFix" result="shape"/><feColorMatrix in="SourceAlpha" result="hardAlpha" values="0 0 0 0 0 0 0 0 0 0 0 0 0 0 0 0 0 0 127 0"/><feOffset/><feGaussianBlur stdDeviation="2"/><feComposite in2="hardAlpha" k2="-1" k3="1" operator="arithmetic"/><feColorMatrix values="0 0 0 0 0 0 0 0 0 0 0 0 0 0 0 0 0 0 0.25 0"/><feBlend in2="shape" result="effect1_innerShadow_1276_4461"/></filter></defs></svg>