<svg xmlns="http://www.w3.org/2000/svg" width="300" height="380" fill="none" viewBox="0 0 300 380"><g filter="url(#a)"><g clip-path="url(#b)"><path fill="#09203f" d="M285.717 82.655q-.56-2.49-1.12-4.978c-.257-1.141-.537-2.33-1.287-3.227-.833-.992-2.157-1.515-2.865-2.599-.711-1.087-.648-2.491-1.006-3.74-.631-2.199-2.52-3.788-4.44-5.03s-3.049-1.823-4.517-3.577c-.084-1.668-1.172-3.138-2.463-4.2-1.291-1.061-2.801-1.82-4.162-2.79a16.24 16.24 0 0 1-6.22-9.01c-.183-.695-.33-1.428-.768-2-.85-1.113-2.733-1.231-3.621-.149-1.229-1.022-3.177-1.049-4.435-.061-.311.244-.592.564-.664.952-.088.482.157.954.375 1.394 1.341 2.695 1.967 5.85 1.741 8.854-.994-1.468-2.634-2.411-4.35-2.852-1.717-.44-3.518-.417-5.286-.273a23.9 23.9 0 0 0 2.24 9.04c-10.731 7.453-18.3 20.55-25.51 31.446a177.5 177.5 0 0 1-21.604 26.642c-4.323 4.386-8.903 8.57-14.099 11.872-12.964 8.238-32.005 9.077-38.586 22.955-5.141 10.843-15.422 19.108-27.115 21.802-3.899.897-7.911 1.206-11.842 1.947-13.202 2.486-25.453 10.127-33.096 21.176-3.508 5.068-6.05 10.778-9.818 15.657s-9.227 9.018-15.39 9.048c-3.803.019-7.44-1.761-10.553-3.946-1.046-2.415-3.672-4.048-6.3-3.919-1.304.063-2.623.518-3.894.207-1.23-.302-2.174-1.264-3.046-2.183l-4.901-5.167c-.987 4.536.03 9.472 2.729 13.248l-5.93-.564c2.593 2.056 5.285 4.138 8.46 5.072s6.872.554 9.084-1.907a54.7 54.7 0 0 0 9.825 4.097c1.41.433 2.848.809 4.317.93 4.146.341 8.246-1.398 11.538-3.94 3.293-2.542 5.9-5.846 8.472-9.113 1.563-1.985 3.526-4.004 5.089-5.988a188.5 188.5 0 0 1-.951 26.088c-.193 1.807-.417 3.64-1.117 5.318-.722 1.733-1.915 3.22-3.092 4.681-1.387 1.722-3.542 2.907-4.694 4.794a12.7 12.7 0 0 1-4.547 4.406c-2.279 1.294-5.099 2-6.53 4.195-1.71 2.618-.659 6.05-.089 9.126 1.457 7.846-.673 15.866-2.785 23.562q-2.725 9.932-5.453 19.864c-.72 2.625-1.47 5.312-3.073 7.51s-4.267 3.834-6.96 3.439c-1.126-.166-2.271-.671-3.363-.347-1.834.545-2.254 2.937-2.15 4.847.248 4.547 1.63 6.451 6.18 6.66 2.84.129 5.276-1.877 7.4-3.767 4.234-3.767 9.624-4.272 11.544-9.603 1.267-3.52 1.345-7.339 1.95-11.031 1.965-11.992 9.388-22.636 9.683-34.786 7.61 16.294 16.245 34.77 14.774 52.693-.199 2.422-.46 5.138 1.09 7.012.42.509.963.932 1.252 1.524.687 1.408-.234 3.348.779 4.543.498.586 1.308.776 2.06.934 2.337.486 2.626.086 4.958-.419 2.332-.507 4.564-2.291 4.798-4.666.161-1.637-.617-3.196-1.227-4.724-2.043-5.119-2.309-10.743-3.343-16.158-1.757-9.198-5.737-17.795-8.744-26.663-2.61-7.704-4.279-16.893.575-23.421 2.996-4.029 7.845-6.119 12.16-8.685 7.616-4.53 14.044-10.774 18.521-18.422 9.385 3.821 21.529 4.488 31.52 2.799-2.54 14.675-7.362 28.844-12.165 42.942-1.312 3.848-2.637 7.729-4.693 11.238-2.032 3.468-4.735 6.5-6.858 9.912-2.108 3.389-3.617 7.109-5.115 10.806-3.103 7.656-6.215 15.346-8.2 23.365 1.466 1.318 3.121 2.713 5.092 2.727 2.086.015 3.892-1.591 4.826-3.455s1.194-3.98 1.597-6.027c1.954-9.927 7.451-18.739 12.847-27.299 1.294-2.054 2.602-4.125 4.292-5.866 1.157-1.19 2.479-2.214 3.617-3.422 1.295-1.378 2.332-2.977 3.292-4.606 8.472-14.374 12.231-32.656 23.731-44.744l8.352 44.205c.466 2.47.946 4.976 2.087 7.214 1.025 2.009 2.54 3.715 3.912 5.503 6.631 8.643 5.988 9.123 8.784 19.652 1.179 4.436 2.588 9.224 6.292 11.936.636.466 1.343.873 1.82 1.503.453.6.678 1.381 1.259 1.858.561.461 1.334.542 2.057.585a39 39 0 0 0 9.379-.593c-.89-3.411-1.959-7.096-4.81-9.168-.96-.699-2.093-1.184-2.891-2.064-.676-.746-1.051-1.709-1.409-2.651-4.058-10.657-3.888-12.7-7.23-23.287a.2.2 0 0 1-.101.029c-.405-.004-.597-.49-.684-.885-2.291-10.295-5.127-20.478-6.894-30.876-1.766-10.397-.824-20.602-.606-31.147.112-5.466 3.404-10.272 6.289-14.918s5.565-10.051 4.304-15.372c-.605-2.552-2.07-4.807-3.027-7.248-1.055-2.695-1.487-5.266-1.313-8.155.204-3.378 2.157-6.363 4.001-9.2a315 315 0 0 0 16.237-28.04c1.543-3.014 3.041-6.059 4.815-8.942 3.323-5.405 6.842-10.197 10.268-15.536 9.12-14.208 12.91-31.393 22.531-45.269 1.864-2.689 4.569-5.94 7.778-6.586a22 22 0 0 0 10.783 2.752c3.07-.022 6.558-.561 8.841 1.49 1.043.937 1.648 2.292 2.727 3.188 1.079.894 3.256 1.152 3.819-.131.924 1.125 2.442 2.338 3.659 1.537 1.016-.684.867-2.196.6-3.384"/></g></g><defs><clipPath id="b"><path fill="#fff" d="M14 40h272v300H14z"/></clipPath><filter id="a" width="300" height="380" x="0" y="0" color-interpolation-filters="sRGB" filterUnits="userSpaceOnUse"><feFlood flood-opacity="0" result="BackgroundImageFix"/><feBlend in="SourceGraphic" in2="BackgroundImageFix" result="shape"/><feColorMatrix in="SourceAlpha" result="hardAlpha" values="0 0 0 0 0 0 0 0 0 0 0 0 0 0 0 0 0 0 127 0"/><feOffset/><feGaussianBlur stdDeviation="2"/><feComposite in2="hardAlpha" k2="-1" k3="1" operator="arithmetic"/><feColorMatrix values="0 0 0 0 0 0 0 0 0 0 0 0 0 0 0 0 0 0 0.25 0"/><feBlend in2="shape" result="effect1_innerShadow_1276_4535"/></filter></defs></svg>