<svg xmlns="http://www.w3.org/2000/svg" width="300" height="380" fill="none" viewBox="0 0 300 380"><g filter="url(#a)"><g clip-path="url(#b)"><path fill="#09203f" d="M194.303 243.375c-.996-4.998-2.987-9.868-3.186-14.994-.199-2.947.298-5.895.597-8.842.597-5.511.996-11.021 1.095-16.66 0-3.204 0-6.407-.398-9.611 0-.384.099-.897 0-1.282-.1-11.02-6.969-25.501-21.903-29.987s-26.084-13.455-28.473-18.838c-2.39-5.382-2.688-9.739-4.182-11.149-1.593-1.41-8.064-5.382-9.059-9.355-.996-3.844-2.987-22.554-4.082-26.142s-4.182-17.557-4.182-17.557 5.177 2.947 6.87 2.307c1.692-.641 4.679-2.05 4.679-2.05s2.688 2.05 3.385 2.306 3.684-.769 3.684-.769.597-6.023.597-6.408c-.1-1.41-7.268-11.79-7.268-11.79s.199-2.05-.497-2.947l-1.693-2.178s1.892-3.717 2.19-4.614c.199-.897-6.272 0-6.272 0s-1.195-2.947-.995-3.972c.199-1.026 1.493-6.152 1.493-6.152-.1-1.666-5.077-.512-5.077-.512-.2 1.538-.498 4.357-.2 4.741.2.513 1.494 1.41 1.494 1.41l-.996 3.204-2.489-6.408c.1-1.666-.099-2.947-.597-4.229-.498-1.281-2.887-1.281-3.285-.256-.399.897-1.892 4.357.995 5.895 1.394.769 1.892 4.613 1.892 4.613s.896 1.666-1.295 2.435l-3.086.64s-5.077-4.869-6.471-4.869-1.593 2.435-.996 6.664c.199 1.282 5.277 2.307 5.277 2.307s-3.883 8.586-3.584 13.84c.199 5.126 3.584 23.067 2.787 38.829-.696 15.763-1.891 36.395-1.891 41.009s.697 9.355.697 9.355-3.783 15.378-4.679 20.888 1.692 9.355 3.584 20.889c1.891 11.533 6.869 37.676 7.068 42.417.199 4.87.398 9.996.398 9.996s-2.09 4.742-1.692 8.971 2.29 6.663 2.29 6.663-.797 39.855-1.294 43.572c-.498 3.716-.1 9.611-.2 10.123-.099.513-5.774 8.202-5.973 11.021s2.987 2.179 2.987 2.179 6.272-.769 6.77-.256c.497.512 2.489-5.895 2.787-6.408.199-.513-1.294-4.229-1.294-4.229s3.086.769 3.385.256c.199-.512 2.688-5.382 2.688-6.792 0-1.409-1.294-6.535-1.493-10.123-.1-3.589.697-37.677.796-38.061.1-.513 2.688-5.126 2.688-8.971s-1.195-8.842-1.195-8.842 2.987-17.813 3.584-21.529c.598-3.717 2.29-16.275 2.29-16.275s6.272 3.716 11.051 2.306c4.779-1.409 9.657-4.998 9.657-4.998s5.177 7.946 7.467 10.637c2.29 2.819 6.969 11.918 6.969 11.918s1.493 17.941 2.091 22.426c.597 4.486-.598 8.202.498 11.021 1.095 2.82 2.09 4.485 2.09 4.485l-6.869 49.595s-2.29 2.819-2.887 3.972c-.598 1.282-.399 3.46-.399 3.46l8.861-.128s2.489-5.895 2.688-6.664c.1-.769-1.493-2.819-1.493-2.819s-.1-7.945 1.692-15.378 5.277-28.065 5.277-28.065.498 34.088.099 37.42c-.398 3.46-.995 10.38-.995 10.38s-2.29 4.229-3.286 5.383c-.995 1.281-2.887 4.613-2.887 4.613s-.498 1.666.398 2.307c.797.64 9.658.897 9.658.897s3.285-6.408 3.285-6.792c0-.513-1.095-2.307-1.095-2.307s-.498-18.582-.1-29.475c.199-7.56 2.887-31.14 3.385-32.806s1.095-6.664.498-8.074c-.597-1.409-5.177-16.915-5.177-27.424 0-6.279 3.186-15.762 5.675-24.733v.257c.995 6.92.896 14.224-.598 21.016-.497 2.179-1.194 4.357-1.493 6.664-.398 3.332 0 6.664.896 9.868 1.294 4.229 3.485 7.945 6.372 10.508.498-3.973.498-8.586-.398-12.943"/></g></g><defs><clipPath id="b"><path fill="#fff" d="M105 40h90v300h-90z"/></clipPath><filter id="a" width="300" height="380" x="0" y="0" color-interpolation-filters="sRGB" filterUnits="userSpaceOnUse"><feFlood flood-opacity="0" result="BackgroundImageFix"/><feBlend in="SourceGraphic" in2="BackgroundImageFix" result="shape"/><feColorMatrix in="SourceAlpha" result="hardAlpha" values="0 0 0 0 0 0 0 0 0 0 0 0 0 0 0 0 0 0 127 0"/><feOffset/><feGaussianBlur stdDeviation="2"/><feComposite in2="hardAlpha" k2="-1" k3="1" operator="arithmetic"/><feColorMatrix values="0 0 0 0 0 0 0 0 0 0 0 0 0 0 0 0 0 0 0.25 0"/><feBlend in2="shape" result="effect1_innerShadow_1276_4609"/></filter></defs></svg>