<svg xmlns="http://www.w3.org/2000/svg" width="300" height="380" fill="none" viewBox="0 0 300 380"><g filter="url(#a)"><g clip-path="url(#b)"><path fill="#09203f" d="M255.903 216.914c-.907-2.022-.368-4.402.514-6.435.883-2.032 2.099-3.946 2.583-6.11-3.034 1.584-4.986 4.624-6.756 7.556-1.46 2.42-2.921 4.943-3.289 7.745s.625 5.978 3.086 7.365c-.208 1.95-.722 3.95-1.594 5.705-.561 1.128-1.378 2.286-2.609 2.545-.592.125-1.21.02-1.797-.136-3.847-1.016-6.857-4.116-8.798-7.596-1.94-3.479-2.987-7.371-4.242-11.153-3.939-11.865-10.566-23.465-21.255-29.926-8.072-4.88-17.92-6.51-25.444-12.2-4.63-3.5-8.064-7.556-11.056-12.533s-5.47-10.297-9.072-14.85c-7.19-9.086-18.418-14.571-24.61-24.366-5.377-8.509-11.2-16.374-16.924-24.653-2.687-3.887-5.379-7.778-8.326-11.472-4.251-5.326-9.014-10.217-13.768-15.097-2.93-3.009-5.896-6.046-9.435-8.304-3.94-2.516-9.734-4.723-14.29-5.76a11.77 11.77 0 0 0 1.764-8.707c-.128-.66-1.318-.548-1.945-.301a14.52 14.52 0 0 0-7.202 6.208c-.84-.637-1.785-.818-2.754-1.23.193-2.003.602-4.173 1.468-5.987.579-1.217 1.324-2.488 1.1-3.817-.258-1.51-1.953-2.602-3.432-2.209-.223-.654-.828-.942-1.5-1.101-.671-.159-1.372-.086-2.059-.014-.226.023-.458.05-.656.16-.223.126-.377.345-.508.567-.908 1.55-.96 3.431-1.221 5.21a20.9 20.9 0 0 1-3.434 8.763c-2.809-.017-5.9 2.064-7.068 4.623-1.001 2.188-.903 4.794-2.107 6.877-.986 1.704-2.754 2.889-3.551 4.687-.613 1.38-.58 2.963-1.043 4.4a6.6 6.6 0 0 1-2.102 3.078c-.531.433-1.181.862-1.287 1.54-.06.386.077.773.181 1.151a7.4 7.4 0 0 1 .067 3.691c-.338 1.405-1.014 3.103.015 4.117 1.049 1.033 2.96.145 3.562-1.2 1.195.416 2.781.851 3.703-.016.429-.402.624-.984.87-1.517a7.52 7.52 0 0 1 4.188-3.869c1.306-.48 2.713-.583 4.088-.796 5.7-.883 11.065-3.8 14.909-8.106 3.873 1.061 7.442 3.931 10.507 6.53 4.332 3.674 8.613 7.633 11.208 12.69 1.326 2.586 2.172 5.387 3.2 8.106 3.676 9.729 9.763 18.681 11.321 28.965 2.357 15.561 10.652 29.061 12.454 44.696.422 3.657.695 7.453-.48 10.942-2.001 5.938-8.057 10.789-7.195 16.995.443 3.19 2.675 5.782 4.564 8.387s3.582 5.81 2.738 8.918c-2.79 10.282-5.419 20.736-11.469 29.499-2.222 3.218-4.836 6.145-7.139 9.304-2.534 3.472-4.679 7.209-6.82 10.935-.85 1.478-1.72 3.026-1.812 4.728-.074 1.346.351 2.703.117 4.031-2.133 12.1-10.73 23.045-17.946 32.981-1.317 1.812-2.703 3.624-3.458 5.734-.254.711-.448 1.473-.944 2.044-.419.481-1.007.771-1.563 1.082-3.925 2.2-6.854 6.11-7.864 10.499 2.507.572 5.16 1.256 7.66.665.546-.128 1.107-.298 1.515-.682.918-.865.688-2.392 1.27-3.51 1.067-2.048 4.126-1.822 5.95-3.234.865-.67 1.396-1.669 1.902-2.636l19.787-37.85c4.89-9.353 10.637-17.877 17.819-25.604 4.882-5.251 11.388-9.264 14.459-15.745-3.516 11.714-5.857 23.877-8.759 35.758-.752 3.079-1.323 6.787.917 9.023 1.131 1.129 2.751 1.598 4.072 2.495 1.123.764 2.008 1.82 2.897 2.848a123 123 0 0 0 33.46 27.167q.09.05.183.099c-1.577 2.133-3.46 4.062-5.841 5.185-.942.444-1.951.757-2.824 1.325-1.478.961-2.456 2.653-2.555 4.416-.014.254-.006.529.14.738.214.31.639.372 1.014.408q1.905.173 3.811.35c1.817.166 3.91.236 5.165-1.091.471-.498.781-1.161 1.354-1.536.776-.507 1.834-.356 2.644-.81.671-.375 1.061-1.098 1.423-1.777a85 85 0 0 1 2.433-4.253c.663.24 1.316.506 1.928.857 3.018 1.735 4.644 5.238 7.55 7.157.758.501 1.736.888 2.555.496.996-.476 1.193-1.784 1.261-2.887l.325-5.272c.136-2.193.043-4.844-1.84-5.97-.926-.552-2.057-.568-3.131-.66a21 21 0 0 1-3.893-.727 86 86 0 0 1 2.004-2.545c.109.04 4.989-8.916 7.455-13.358 1.581-2.847 3.306-5.788 6.058-7.524 1.381-.87 3.032-1.453 3.981-2.782.629-.882.86-1.982 1.048-3.051 1.026-5.822 1.229-11.765 2.216-17.594.987-5.828 2.852-11.698 6.704-16.179 11.611 9.231 18.676 23.652 28.721 34.574.78.846 1.591 1.687 2.138 2.7.57 1.055.825 2.248 1.073 3.423q3.432 16.22 6.864 32.44c.462 2.186.927 4.431.579 6.637-.417 2.644-1.977 5.297-1.117 7.831 2.788.354 6.27.41 7.579-2.08.651-1.238.503-2.731.799-4.099.295-1.368 1.46-2.816 2.816-2.485a178 178 0 0 1-9.554-40.98c-.408-3.685-.697-7.451.119-11.067.507-2.244 1.418-4.662.441-6.744-.452-.96-1.253-1.7-2.035-2.416q-3.212-2.937-6.423-5.873c-4.952-4.528-5.353-11.784-5.516-18.499-.116-4.717 1.062-9.416.698-14.12.973 1.784 2.158 3.367 3.933 4.354.817.455 1.734.688 2.641.917 2.417.613 4.918 1.23 7.382.839a9.38 9.38 0 0 0 6.28-4.044 9.4 9.4 0 0 0 1.26-7.371c1.146-.377 1.974-1.744 2.011-2.952.035-1.207-.337-2.386-.476-3.586a9.26 9.26 0 0 1 .813-4.954c-.409.812-.924 1.57-1.526 2.252m-72.389 48.211c-.5 6.657-2.792 13.377-1.241 19.869-2.227 6.428-4.554 12.619-7.176 18.895-.819 1.962-3.464 6.026-3.656 6.27-.53.671-1.021 1.37-1.494 2.082a54 54 0 0 1-2.573-1.551c-6.75-4.35-12.674-9.845-18.56-15.311l-12.332-11.454c-.82-6.308 1.673-12.307 4.143-18.167a87.8 87.8 0 0 1 20.986-30.035c5.416 2.52 11.567 3.467 17.494 2.735 2.629 8.689 5.088 17.612 4.409 26.667"/></g></g><defs><clipPath id="b"><path fill="#fff" d="M41 40h218v300H41z"/></clipPath><filter id="a" width="300" height="380" x="0" y="0" color-interpolation-filters="sRGB" filterUnits="userSpaceOnUse"><feFlood flood-opacity="0" result="BackgroundImageFix"/><feBlend in="SourceGraphic" in2="BackgroundImageFix" result="shape"/><feColorMatrix in="SourceAlpha" result="hardAlpha" values="0 0 0 0 0 0 0 0 0 0 0 0 0 0 0 0 0 0 127 0"/><feOffset/><feGaussianBlur stdDeviation="2"/><feComposite in2="hardAlpha" k2="-1" k3="1" operator="arithmetic"/><feColorMatrix values="0 0 0 0 0 0 0 0 0 0 0 0 0 0 0 0 0 0 0.25 0"/><feBlend in2="shape" result="effect1_innerShadow_1276_4683"/></filter></defs></svg>