<svg xmlns="http://www.w3.org/2000/svg" width="300" height="380" fill="none" viewBox="0 0 300 380"><g filter="url(#a)"><g clip-path="url(#b)"><g clip-path="url(#c)"><path fill="#09203f" d="M210.479 318.018c-1.739-4.428-4.744-12.81-6.325-20.559-1.74-7.749 1.423-19.135-.633-24.196-.316-.949-.791-1.739-1.423-2.688-.158-1.582.158-3.163.791-4.745 1.265 2.847 1.897 5.852 1.897 9.173 8.382-12.335 4.586-17.08-.949-26.252-5.218-8.54-3.162-20.243-4.269-30.68-.633-6.01-2.373-11.545-5.061-16.447-1.898-6.484-5.693-12.335-12.019-14.866-9.014-3.637-18.187-7.116-27.201-10.754-7.749-3.162-17.08-5.693-22.456-12.493-2.847-3.479-6.484-6.642-7.433-11.07-1.265-6.01-2.372-11.545-.949-17.396 1.581-6.642 2.056-13.442 3.479-20.084 1.898-9.015 4.27-18.187 8.54-26.252 1.739-3.321 3.005-6.168 5.851-8.698 3.479-3.163 7.275-5.852 11.387-8.224.79-.474 1.581-.949 2.53-.949 1.898-.316 3.795.95 5.693.791 3.005-.316 4.744-3.795 7.749-4.428a15.97 15.97 0 0 0-3.637-7.75c-.633-.632-1.265-1.264-2.214-1.739-1.423-.632-2.689-.158-4.112-.632-2.056-.475-4.112-2.056-6.009-3.005-1.582-.79-3.163-1.581-4.903-2.214-4.112-1.265-8.223-1.423-12.335-3.005-2.214-.949-4.428-2.846-4.428-5.218 0-.791.316-1.74-.158-2.373-.317-.474-.791-.632-1.265-.79-1.582-.475-3.48.158-4.429 1.581-.474.633-.632 1.265-.632 2.056.158.474.316.949.632 1.423 2.215 3.638 4.745 16.29-2.688 10.28-1.581-1.265-9.014-7.591-9.963-3.005-.158 4.428 1.74 7.749 5.535 9.963 1.581.949 4.902 1.423 5.061 3.637 0 1.424-2.531 3.005-3.321 3.954-2.214 2.846-3.796 6.8-5.377 10.121-3.796 7.591-7.275 15.182-10.754 22.931-1.74 3.954-3.479 7.907-4.745 11.861-2.055 6.326-3.479 12.651-4.744 19.135-2.53 12.336-5.377 25.462-5.219 38.746 0 5.851.791 11.702.159 17.554-.475 4.902-1.266 9.647.158 14.549 2.372 7.749 11.386 21.508 12.493 26.885.949 5.377 5.377 16.13 4.744 25.619-.632 9.489-2.846 16.447 0 22.931 3.005 6.326 1.582 6.009 1.582 13.442s.316 16.447-2.689 21.824.317 7.749-.948 12.81c-1.424 5.061-6.01 11.07-6.01 11.07h16.763s.633-6.009 0-9.805c-.632-3.637 4.112-6.009 4.112-12.81 0-6.8-4.744-14.075-3.321-23.563 1.423-9.489 3.321-17.238 3.321-22.615s-3.005-12.177-2.056-16.763c.949-4.744 5.693-24.513 5.693-24.513s15.182 9.015 33.685 2.215c5.061 12.809 25.303 31.945 27.676 38.112 2.372 6.01.632 8.066 5.376 12.81s6.801 17.238 7.75 25.303-1.74 14.549 0 20.875-2.689 5.693-4.429 10.754c10.754.316 16.447 0 16.447 0s-2.688-5.377-4.428-9.489c-1.581-3.953 6.168-8.065 4.428-12.335m-11.228-50.922c-2.056-2.373-4.112-5.061-5.535-9.331-2.688-8.065-2.056-23.88.949-32.736.633-1.581.949-3.795 1.265-6.326 1.265 5.852.949 12.81.949 18.503 0 4.112.158 6.642 2.214 10.122 1.582 2.688 4.428 4.744 3.479 8.539-.474 1.74-1.739 3.48-2.53 5.219-.791 2.056-1.107 4.112-.791 6.01"/></g></g></g><defs><clipPath id="b"><path fill="#fff" d="M89.5 40h121v300h-121z"/></clipPath><clipPath id="c"><path fill="#fff" d="M89.5 40h121.297v300H89.5z"/></clipPath><filter id="a" width="300" height="380" x="0" y="0" color-interpolation-filters="sRGB" filterUnits="userSpaceOnUse"><feFlood flood-opacity="0" result="BackgroundImageFix"/><feBlend in="SourceGraphic" in2="BackgroundImageFix" result="shape"/><feColorMatrix in="SourceAlpha" result="hardAlpha" values="0 0 0 0 0 0 0 0 0 0 0 0 0 0 0 0 0 0 127 0"/><feOffset/><feGaussianBlur stdDeviation="2"/><feComposite in2="hardAlpha" k2="-1" k3="1" operator="arithmetic"/><feColorMatrix values="0 0 0 0 0 0 0 0 0 0 0 0 0 0 0 0 0 0 0.25 0"/><feBlend in2="shape" result="effect1_innerShadow_1276_4757"/></filter></defs></svg>