<svg xmlns="http://www.w3.org/2000/svg" width="100" height="100" fill="none" viewBox="0 0 100 100"><circle cx="50" cy="50" r="50" fill="#f6f2ef"/><path fill="#fc640c" d="M17.578 35.841c2.435-4.123 4.747-8.679 6.965-12.946l31.295.134c6.26-.023 14.015-.278 20.171.01 1.896 2.98 4.747 9.176 6.409 12.55 2.809-1.839 8.502-1.985 10.413.407 6.443 8.063-3.146 7.614-7.038 7.603 0 11.187-.011 22.2-.256 33.391-2.895.265-8.71 0-11.778-.067l-.026-8.113c-.882-.72-15.99-.294-18.596-.274-9.91.076-20.016-.17-29.909.22l-.037 8.088c-3.524-.136-8.214.062-11.876.06l-.024-33.822c-2.014.194-4.715.466-6.42-.69-3.83-2.596-1.22-7.793 2.798-8.361 3.192-.452 5.312.153 7.909 1.81m10.175-8.056c-2.47 4.408-4.865 9.23-7.033 13.803 16.53.196 33.833.011 50.402-.049l7.066-.041c-1.688-4.571-3.787-9.232-5.728-13.722zm-2.401 23.927c-4.313 3.6-2.89 8.802 2.697 7.985 5.08-2.727 2.706-8.25-2.697-7.985m46.296.154a4.222 4.222 0 1 0 2.13 8.171 4.222 4.222 0 0 0-2.13-8.17"/></svg>