<svg xmlns="http://www.w3.org/2000/svg" width="100" height="100" fill="none" viewBox="0 0 100 100"><circle cx="50" cy="50" r="50" fill="#f6f2ef"/><path fill="#fc640c" d="M29.566 43.13c-1.014 1.031-4.796 5.114-5.745 5.056-2.468-.151-8.56-7-8.821-9.233.432-1.125 1.755-2.412 2.634-3.247 4.248-4.034 8.136-8.552 12.57-12.36.387-.333 1.526-.374 2.023-.4l9.003-.069.009.23.023.383c.522 9.677 13.143 11.305 16.55 2.627.349-.89.53-2.273.69-3.24 3.493-.008 8.584-.178 11.926.124 4.06 4.578 8.091 8.897 12.511 13.145.788.757 1.593 1.734 2.061 2.722.01 2.154-6.26 8.733-8.482 9.144-1.177.217-4.782-4.12-5.715-5.107-.494 8.343-.12 19.427-.074 27.948.115 3.493.341 6.214-4.036 6.196-11.542-.048-23.15.333-34.679-.028-1.245-.04-2.557-1.868-2.353-3.008-.15-3.423-.096-6.856-.09-10.29z"/></svg>