<svg xmlns="http://www.w3.org/2000/svg" width="100" height="100" fill="none" viewBox="0 0 100 100"><path fill="#f6f2ef" d="M46.451.129c27.487-1.956 51.374 18.696 53.41 46.178 2.036 27.48-18.548 51.427-46.023 53.543C26.25 101.974 2.183 81.288.138 53.693-1.904 26.1 18.852 2.093 46.452.13"/><path fill="#fc640c" d="M16.582 66.79c.299-11.015.104-22.125.174-33.148.024-3.754-.786-6.58 2.988-8.55a12 12 0 0 1 1.045-.057c12.674-.072 25.365.005 38.04-.002l13.922-.088c4.075-.004 10.574-1.233 10.75 4.254.138 4.265.14 8.479.139 12.745l-.04 24.874c2.132-.008 4.213-.049 6.341.126.641 7.558-4.035 8.136-10.124 8.108l-59.994.123c-6.368.04-9.873-.752-9.822-8.102 2.017-.294 4.508-.253 6.58-.283M49.14 27.082a1.324 1.324 0 1 0 1.438 2.224 1.324 1.324 0 0 0-1.438-2.224m-26.543 4.036.078 32.004 39.295.023 10.115-.008c1.06 0 4.49.038 5.374-.117a34 34 0 0 0 .211-3.7c-.008-9.39.102-18.81-.121-28.197zm24.609 37.735c-.628.656-.608.616-.94 1.456.428 1.905 4.177 1.419 5.702 1.364 1.147-.556 1.227-1.125.685-2.261-1.314-.978-3.702-.585-5.447-.56"/></svg>