<svg xmlns="http://www.w3.org/2000/svg" fill="none" viewBox="0 0 100 100"><circle cx="50" cy="50" r="50" fill="#f6f2ef"/><path fill="#fc640c" d="M35.214 56.888c-1.9 3.974-3.264 8.643-4.937 12.767-.766 1.752-1.297 4.02-2.399 5.585-2.314 3.287-6.608 3.452-9.682 1.221-3.513-2.55-3.198-6.176-3.183-9.923l.03-7.289.015-12.597c0-6.48-.304-11.974 3.95-17.431 3.243-4.16 7.186-6.109 12.353-6.816 2.556-.336 7.271.683 9.264 2.139 4.812 3.513 10.105 5.31 15.563 1.922 1.285-.797 2.8-2.064 4.226-2.724 8.656-4.006 18.986.574 22.76 9.122.664 1.504 1.491 3.813 1.605 5.454.334 4.846.108 9.754.194 14.611-.012 5.864.076 11.729-.013 17.592-.078 5.164-4.914 8.97-9.89 6.9-.919-.383-2.455-1.395-2.95-2.269-1.886-3.332-3.258-7.199-4.768-10.763-1.056-2.516-2.191-4.918-3.218-7.475-9.543.106-19.35-.034-28.92-.026m31.134-26.819a3.536 3.536 0 1 0 1.864 6.822 3.536 3.536 0 0 0-1.864-6.822m-36.676.835c-.023 2.453-.002 5.051-.075 7.492l-7.516.042c-.013 1.635-.069 3.509-.015 5.123l7.554.057c.026 2.636 0 5.508.132 8.123 1.697.01 3.424.038 5.119.007.102-2.8-.054-5.564.03-8.284 2.308.027 4.83.157 7.101.108.04-1.733.035-3.313 0-5.046-2.348-.096-4.75-.07-7.104-.067-.015-2.45.023-5.145-.073-7.575zm44.854 6.27a3.511 3.511 0 1 0 .778 6.978 3.511 3.511 0 0 0-.778-6.979m-15.6.122a3.586 3.586 0 1 0 1.687 6.972 3.588 3.588 0 0 0-1.687-6.972m7.614 7.257a3.514 3.514 0 1 0 1.667 6.828 3.514 3.514 0 0 0-1.667-6.828"/></svg>