<svg xmlns="http://www.w3.org/2000/svg" width="100" height="100" fill="none" viewBox="0 0 100 100"><path fill="#f6f2ef" d="M47.472.065c27.55-1.395 51.026 19.788 52.46 47.337S80.214 98.456 52.667 99.928C25.066 101.402 1.505 80.2.068 52.598-1.366 24.994 19.867 1.463 47.473.065"/><path fill="#fc640c" d="M39.755 42.127c5.672-.245 11.427-.06 17.107-.057 7.656.003 15.34-.106 22.989.253q.48.296.927.64c1.326 1.008 1.8 1.882 2 3.522.517 4.274.173 8.937.192 13.253.016 3.911.392 8.099-.052 11.978-.12 1.049-.313 2.357-1.027 3.186-1.458 1.695-3.813 1.633-5.855 1.773-.073 1.27.395 3.187-.262 4.307-.229.39-.92.353-1.346.422l-.606-.3c-.714-.99-.397-3.372-.367-4.603l-28.294.013c.014.835.11 1.82-.005 2.643-.142 1.004-.572 1.523-1.353 2.12-.683-.053-.769-.091-1.254-.629-.924-1.023-.64-2.739-.61-4.026-1.454-.13-3.082-.17-4.364-.942-1.11-.669-1.736-1.543-1.988-2.8-.793-3.938-.72-21.977-.153-26.195.129-.956.308-1.827.863-2.634.876-1.273 1.99-1.67 3.458-1.925"/><path fill="#f6f2ef" d="M46.304 52.939c8.212-.09 16.482-.281 24.69-.19.933.01 2.022-.029 2.717.68.006.76.141 1.34-.248 2.01l-.74.105-18.354.048c-2.936.007-6.315.352-9.19-.18-.137-.276-.213-.395-.28-.723-.113-.551-.044-1.14.259-1.59z"/><path fill="#fc640c" d="M17 35.695c1.9-6.17 3.637-12.466 5.646-18.64 3.895.088 7.732.059 11.628.012l2.756 8.962c1.048 3.34 2.025 6.227 2.97 9.644-3.347.076-6.926.014-10.288.02.003 1.782-.228 35.79.207 36.738.934 2.039 2.49 3.752 3.489 5.758l.062.129c.719-.007 1.394-.034 2.106.07.566.443.421 1.749.197 2.383-.05.14-.346.119-.503.138l-13.814.036c-.005-.88.01-1.777.017-2.657l2.055-.04c.888-1.718 2.528-4.245 3.572-5.958.053-3.68-.032-32.927.003-36.618z"/></svg>