<svg xmlns="http://www.w3.org/2000/svg" width="100" height="100" fill="none" viewBox="0 0 100 100"><path fill="#f6f2ef" d="M52.905 99.914C25.395 101.515 1.776 80.556.095 53.051S19.304 1.866 46.804.104C74.418-1.664 98.217 19.331 99.905 46.95s-19.376 51.357-47 52.964m-15.41-81.782c-9.758 1.646-7.23 12.62-2.7 12.727 1.343-1.424-3.032-8.978 2.365-9.304 1.152-.07 2.516.139 3.384.922.153.543.264.927-.133 1.44-1.832 2.36-3.512 3.446-4.361 6.486-4.43 15.862 17.138 22.85 26.94 12.069 4.258-6.33 3.908-13.809-2.62-18.573-1.691-1.235 3.121-3.962 5.646-1.05 2.476 2.857-1.154 6.345-.018 7.831 4.524.163 5.717-7.628 2.193-10.55-4.112-3.407-8.505-2.685-11.18 1.785-4.204-1.336-8.357-1.3-12.524.118-1.966-2.74-3.495-3.785-6.991-3.9m23.15 28.437c2.663 5.216 4.379 9.242 5.42 15.058.512 2.856 6.57.783 8.118-.254 3.089-3.29.684-6.189-2.205-8.554-2.86-2.342-7.483-6.277-11.333-6.25m-20.402.304c-2.518.553-5.474 1.732-7.477 3.375-4.05 3.324-12.372 5.917-5.91 11.602 3.198 1.75 4.588 1.34 8.22 1 .785-4.316 1.269-7.053 3.349-11.048.51-.98 2.212-3.951 2.472-4.734-.444-.25-.22-.204-.654-.195m3.036.77c-2.45 5.311-4.938 9.543-5.088 15.43 6.882 2.059 8.74 8.05 6.749 14.48 3.756.04 7.464.1 11.221-.027-.367-1-.776-2.038-1.062-3.06-.206-6.42 2.483-9.778 8.545-11.53-1.226-5.823-2.677-9.845-5.303-15.221-6.29 1.698-8.817 1.877-15.062-.073m-8.437 17.521c-9.935 3.06-7.473 18.422 3.16 16.966 10.08-4.194 6.714-17.948-3.16-16.966m28.695.059c-9.887 2.133-8.303 16.951 1.655 16.99 10.42-1.8 8.454-17.454-1.655-16.99"/><circle cx="50" cy="50" r="50" fill="#f6f2ef"/><path fill="#fc640c" d="M62.993 42.472c-9.803 10.782-31.371 3.793-26.94-12.07.849-3.039 2.529-4.125 4.36-6.486.398-.512.286-.895.133-1.44-.868-.782-2.232-.99-3.383-.921-5.398.326-1.022 7.88-2.365 9.304-4.531-.106-7.059-11.081 2.7-12.727 3.497.116 5.025 1.162 6.992 3.9 4.166-1.417 8.319-1.453 12.524-.117 2.674-4.47 7.067-5.192 11.179-1.784 3.525 2.921 2.331 10.713-2.192 10.55-1.137-1.486 2.493-4.975.018-7.832-2.526-2.912-7.338-.185-5.647 1.05 6.528 4.764 6.878 12.243 2.621 18.573M54.73 31.731a1.696 1.696 0 1 0 1.778 2.888 1.696 1.696 0 0 0-1.778-2.888m-9.715.241a1.63 1.63 0 1 0 1.464 2.911 1.63 1.63 0 0 0-1.464-2.91m4.913 3.695c-4.454 2.432-3.227 6.872 2.085 6.896 4.968-1.852 2.462-7.465-2.085-6.896"/><path fill="#f6f2ef" d="M56.445 34.656a1.696 1.696 0 1 1-1.653-2.962 1.696 1.696 0 0 1 1.653 2.962M46.643 34.787a1.629 1.629 0 1 1-1.794-2.72 1.629 1.629 0 0 1 1.794 2.72M52.013 42.563c-5.313-.024-6.54-4.464-2.085-6.896 4.547-.569 7.052 5.044 2.085 6.896"/><path fill="#fc640c" d="M72.182 61.373c-1.548 1.037-7.606 3.11-8.117.254-1.042-5.817-2.757-9.843-5.42-15.058 3.849-.028 8.472 3.908 11.333 6.25 2.888 2.365 5.293 5.264 2.204 8.554M28.854 61.85c-6.462-5.685 1.86-8.278 5.91-11.602 2.002-1.643 4.96-2.822 7.476-3.375.434-.01.21-.055.654.196-.26.782-1.96 3.752-2.471 4.733-2.08 3.995-2.565 6.732-3.35 11.049-3.632.338-5.022.748-8.219-1"/><path fill="#fc640c" d="M38.188 63.073c.15-5.888 2.638-10.119 5.088-15.43 6.244 1.95 8.771 1.77 15.061.072 2.626 5.375 4.077 9.398 5.304 15.22-6.063 1.753-8.752 5.112-8.546 11.532.286 1.02.696 2.06 1.063 3.058-3.757.128-7.465.068-11.222.028 1.992-6.431.133-12.421-6.748-14.48"/><path fill="#fc640c" d="M39.002 81.13c-10.633 1.456-13.095-13.906-3.16-16.966 9.874-.982 13.24 12.772 3.16 16.965M64.194 81.212c-9.959-.038-11.542-14.856-1.656-16.989 10.11-.464 12.075 15.19 1.656 16.99"/><circle cx="51" cy="38" r="1" fill="#fc640c"/></svg>