<svg xmlns="http://www.w3.org/2000/svg" width="100" height="100" fill="none" viewBox="0 0 100 100"><path fill="#f6f2ef" d="M48.028.04c27.606-1.09 50.864 20.417 51.934 48.024s-20.453 50.85-48.061 51.9C24.32 101.013 1.107 79.516.038 51.937S20.45 1.13 48.028.04"/><path fill="#fc640c" d="M49.586 48.583a8.5 8.5 0 0 1 1.643.003c4.898.435 9.526 3.773 12.578 7.467 3.567 4.314 6.453 10.471 5.894 16.19-.216 2.222-.911 4.63-2.748 6.051-5.447 4.213-11.158-2.875-16.918-3.436l-.294-.026c-6.32.057-7.916 4.194-12.727 4.832-1.74.23-3.626-.376-4.99-1.462-1.73-1.377-2.488-3.448-2.744-5.586-.66-5.505 2.327-11.726 5.699-15.904 3.834-4.75 8.554-7.478 14.607-8.129M35.662 20.332c1.798-.075 3.319.15 4.96.959 2.957 1.459 5.09 4.17 6.05 7.3.93 3.024.897 6.73-.663 9.532-1.106 1.989-2.745 3.123-4.89 3.757-1.702.396-3.22.182-4.814-.545-2.884-1.315-5.139-4.103-6.197-7.063-1.084-3.031-1.089-6.755.346-9.669 1.132-2.298 2.817-3.5 5.208-4.271M61.984 20.106a7.7 7.7 0 0 1 4.413 1.317c1.86 1.24 2.892 3.294 3.331 5.439.74 3.613-.266 7.548-2.256 10.614-1.743 2.685-3.94 4.082-7.006 4.75-1.46-.144-2.852-.362-4.128-1.139-2.09-1.273-3.345-3.459-3.896-5.8-.805-3.423.105-7.124 1.988-10.044 1.846-2.864 4.28-4.415 7.554-5.137M21.569 39.743c1.672-.094 3.059.01 4.62.666 2.773 1.167 5.215 3.683 6.25 6.52.621 1.7.69 3.619-.1 5.278-.953 1.999-2.61 2.873-4.598 3.545-2.288.148-4.132-.046-6.191-1.178-2.483-1.365-4.599-3.73-5.336-6.501-.486-1.83-.42-3.836.623-5.465 1.078-1.683 2.85-2.467 4.732-2.865M76.722 39.76c1.579-.095 3.098.213 4.444 1.085 1.217.79 1.953 2.021 2.246 3.427.487 2.336-.135 4.766-1.439 6.732-1.918 2.891-4.793 4.406-8.108 5.108-1.54.1-3.287-.37-4.56-1.245-1.303-.896-2.057-2.293-2.297-3.837-.378-2.44.46-4.957 1.933-6.897 1.943-2.562 4.646-3.946 7.78-4.372"/></svg>